<?xml version="1.0" encoding="UTF-8" standalone="no"?>
<!-- Created with Inkscape (http://www.inkscape.org/) -->

<svg
   version="1.1"
   id="svg2581"
   width="150.72"
   height="150.72003"
   viewBox="0 0 150.72 150.72003"
   sodipodi:docname="policy.svg"
   inkscape:version="1.2.2 (732a01da63, 2022-12-09)"
   xmlns:inkscape="http://www.inkscape.org/namespaces/inkscape"
   xmlns:sodipodi="http://sodipodi.sourceforge.net/DTD/sodipodi-0.dtd"
   xmlns="http://www.w3.org/2000/svg"
   xmlns:svg="http://www.w3.org/2000/svg">
  <defs
     id="defs2585">
    <clipPath
       clipPathUnits="userSpaceOnUse"
       id="clipPath2597">
      <path
         d="M 0,2.2888e-5 H 113.28 V 113.28002 H 0 Z"
         clip-rule="evenodd"
         id="path2595" />
    </clipPath>
    <clipPath
       clipPathUnits="userSpaceOnUse"
       id="clipPath2607">
      <path
         d="M 0,113.28 H 113.28 V -3.0518e-5 L 0,-1.5259e-5"
         clip-rule="evenodd"
         id="path2605" />
    </clipPath>
    <clipPath
       clipPathUnits="userSpaceOnUse"
       id="clipPath2619">
      <path
         d="M -1.79e-7,3.0518e-5 H 113.28 V 113.28003 H -1.79e-7 Z"
         clip-rule="evenodd"
         id="path2617" />
    </clipPath>
    <clipPath
       clipPathUnits="userSpaceOnUse"
       id="clipPath2629">
      <path
         d="M -1.79e-7,3.0518e-5 H 113.28 V 113.28003 H -1.79e-7 Z"
         clip-rule="evenodd"
         id="path2627" />
    </clipPath>
  </defs>
  <sodipodi:namedview
     id="namedview2583"
     pagecolor="#ffffff"
     bordercolor="#000000"
     borderopacity="0.25"
     inkscape:showpageshadow="2"
     inkscape:pageopacity="0.0"
     inkscape:pagecheckerboard="0"
     inkscape:deskcolor="#d1d1d1"
     showgrid="false"
     inkscape:zoom="1.5625"
     inkscape:cx="75.839998"
     inkscape:cy="75.199998"
     inkscape:window-width="1920"
     inkscape:window-height="1111"
     inkscape:window-x="-9"
     inkscape:window-y="-9"
     inkscape:window-maximized="1"
     inkscape:current-layer="g2589">
    <inkscape:page
       x="0"
       y="0"
       id="page2587"
       width="150.72"
       height="150.72003" />
  </sodipodi:namedview>
  <g
     id="g2589"
     inkscape:groupmode="layer"
     inkscape:label="Page 1"
     transform="matrix(1.3333333,0,0,-1.3333333,2.3866666e-7,150.72)">
    <g
       id="g2601">
      <g
         id="g2603"
         clip-path="url(#clipPath2607)">
        <path
           d="M 24.705,1.32 C 21.018,1.32 18.03,4.3085 18.03,7.995 V 98.13 H 11.355 C 7.6685,98.13 4.68,101.12 4.68,104.8 4.68,108.49 7.6685,111.48 11.355,111.48 H 91.455 C 95.142,111.48 98.13,108.49 98.13,104.8 V 14.67 H 104.8 C 108.49,14.67 111.48,11.682 111.48,7.995 111.48,4.3085 108.49,1.32 104.8,1.32 Z M 18.03,98.13 V 104.8 C 18.03,108.49 15.042,111.48 11.355,111.48 M 18.03,104.8 H 11.355 C 13.198,104.8 14.692,103.31 14.692,101.47 14.692,99.624 13.198,98.13 11.355,98.13 M 31.38,7.995 H 24.705 C 22.862,7.995 21.367,9.4892 21.367,11.332 21.367,13.176 22.862,14.67 24.705,14.67 28.391,14.67 31.38,11.681 31.38,7.9949 31.38,4.3084 28.391,1.3199 24.705,1.3199 M 24.705,14.67 H 98.13"
           style="fill:none;stroke:#000000;stroke-width:3.12;stroke-linecap:butt;stroke-linejoin:miter;stroke-miterlimit:10;stroke-dasharray:none;stroke-opacity:1"
           id="path2609" />
      </g>
    </g>
    <path
       d="M 6.96,103.68 H 6.9600787 V 106.56 H 6.96 Z"
       style="fill:none;stroke:#ffffff;stroke-width:0.96;stroke-linecap:butt;stroke-linejoin:miter;stroke-miterlimit:10;stroke-dasharray:none;stroke-opacity:1"
       id="path2611" />
    <g
       id="g2613">
      <g
         id="g2615"
         clip-path="url(#clipPath2619)">
        <path
           d="M -0.96,102.48 H 2.64 V 107.76 H -0.96 Z"
           style="fill:#ffffff;fill-opacity:1;fill-rule:evenodd;stroke:none"
           id="path2621" />
      </g>
    </g>
    <g
       id="g2623">
      <g
         id="g2625"
         clip-path="url(#clipPath2629)">
        <path
           d="M -0.96,102.48 H 2.64 V 107.76 H -0.96 Z"
           style="fill:none;stroke:#ffffff;stroke-width:0.96;stroke-linecap:butt;stroke-linejoin:miter;stroke-miterlimit:10;stroke-dasharray:none;stroke-opacity:1"
           id="path2631" />
      </g>
    </g>
  </g>
</svg>
