<svg width="246" height="97" xmlns="http://www.w3.org/2000/svg" xmlns:xlink="http://www.w3.org/1999/xlink" overflow="hidden"><defs><clipPath id="clip0"><rect x="0" y="0" width="246" height="97"/></clipPath></defs><g clip-path="url(#clip0)"><rect x="0" y="0" width="246" height="97.0353" fill="#FFFFFF"/><path d="M11.1176 3.00106 2.99997 3.00106 2.99997 94.0342 95 94.0342 95 86.0019 11.1176 86.0019Z" fill-rule="evenodd"/><path d="M19 48.0174 34 48.0174 34 78.0284 19 78.0284Z" fill-rule="evenodd"/><path d="M40 29.0106 54 29.0106 54 78.0284 40 78.0284Z" fill-rule="evenodd"/><path d="M60 53.0193 75 53.0193 75 78.0284 60 78.0284Z" fill-rule="evenodd"/><path d="M79.9999 68.0247 95 68.0247 95 78.0284 79.9999 78.0284Z" fill-rule="evenodd"/><path d="M159.118 3.00106 151 3.00106 151 94.0342 243 94.0342 243 86.0019 159.118 86.0019Z" fill-rule="evenodd"/><path d="M167 63.0229 182 63.0229 182 78.0284 167 78.0284Z" fill-rule="evenodd"/><path d="M187 3.00106 202 3.00106 202 78.0284 187 78.0284Z" fill-rule="evenodd"/><path d="M207 68.0247 222 68.0247 222 78.0284 207 78.0284Z" fill-rule="evenodd"/><path d="M228 69.0251 242 69.0251 242 78.0283 228 78.0283Z" fill-rule="evenodd"/><path d="M101.5 44.0099 130.207 44.01 130.207 53.0255 101.5 53.0254ZM125.701 34.9945 143.726 48.5178 125.701 62.041Z"/></g></svg>