<svg width="189" height="98" xmlns="http://www.w3.org/2000/svg" xmlns:xlink="http://www.w3.org/1999/xlink" overflow="hidden"><defs><clipPath id="clip0"><rect x="0" y="0" width="189" height="98"/></clipPath><linearGradient x1="4.78078" y1="73.0398" x2="109.526" y2="59.4026" gradientUnits="userSpaceOnUse" spreadMethod="reflect" id="fill1"><stop offset="0" stop-color="#404040"/><stop offset="0.5" stop-color="#A6A6A6"/><stop offset="0.85" stop-color="#FFFFFF"/><stop offset="1" stop-color="#FFFFFF"/></linearGradient></defs><g clip-path="url(#clip0)"><rect x="0" y="0" width="189" height="97.6678" fill="#FFFFFF"/><path d="M112.928 85.3564C102.932 88.8593 92.9369 92.3624 82.9621 91.8997 72.9874 91.437 62.5388 84.6075 53.0801 82.5807 43.6214 80.5539 27.2551 80.8354 26.2101 79.7385 25.1651 78.6416 38.9868 76.1377 46.8098 75.9998 54.6328 75.8618 65.7363 79.4358 73.1481 78.9112 80.56 78.3866 87.8312 75.4144 91.2806 72.8518 94.73 70.2892 94.2284 65.7753 93.8447 63.5355 93.4611 61.2958 91.9253 59.2062 88.9783 59.4137 86.0313 59.6212 80.071 63.6557 76.1628 64.7809 72.2545 65.9061 69.3302 66.2868 65.529 66.1654 61.7277 66.0439 58.0924 65.8126 53.3551 64.0517 48.6178 62.2908 45.5989 57.1358 37.1058 55.5997 28.6127 54.0636 2.79869 55.8393 2.39665 54.8349 1.99461 53.8305 26.1071 50.0748 34.6935 49.5732 43.28 49.0717 48.0741 51.2656 53.9156 51.826 59.7571 52.3864 64.8013 53.0506 69.7432 52.9356 74.6851 52.8206 81.6538 52.3537 83.5671 51.1358 85.4805 49.9179 84.3629 46.8932 81.223 45.6289 78.0831 44.3645 70.0396 44.8834 64.7275 43.5495 59.4154 42.2155 48.3664 38.3703 49.3504 37.6258 50.3343 36.8813 63.8488 38.9085 70.6311 39.0822 77.4134 39.2559 90.0443 38.6682 90.0443 38.6682L90.0443 38.6682 90.0443 38.6682 90.0443 38.6682" stroke="#000000" stroke-width="1.33326" stroke-miterlimit="8" fill="url(#fill1)" fill-rule="evenodd"/><path d="M0 16.4818C-5.53964e-15 7.37914 19.4809-2.09835e-15 43.5118-4.1967e-15 67.5428-8.3934e-15 87.0237 7.37914 87.0237 16.4818 87.0237 25.5844 67.5428 32.9635 43.5118 32.9635 19.4809 32.9635-2.76982e-14 25.5844 0 16.4818Z" stroke="#000000" stroke-width="1.32994" stroke-miterlimit="8" fill="none" fill-rule="evenodd" transform="matrix(0.868236 -0.499577 -0.501276 -0.865292 108.737 84.9993)"/><path d="M0 16.4818C-5.53964e-15 7.37914 19.4809-2.09835e-15 43.5118-4.1967e-15 67.5428-8.3934e-15 87.0237 7.37914 87.0237 16.4818 87.0237 25.5844 67.5428 32.9635 43.5118 32.9635 19.4809 32.9635-2.76982e-14 25.5844 0 16.4818Z" stroke="#000000" stroke-width="1.32994" stroke-miterlimit="8" fill="none" fill-rule="evenodd" transform="matrix(0.868236 0.499577 0.501276 -0.865292 92.617 41.5246)"/><path d="M0 15.4475C-5.96344e-15 6.91606 20.9713-1.96667e-15 46.8407-3.93334e-15 72.7101-7.86667e-15 93.6814 6.91606 93.6814 15.4475 93.6814 23.9789 72.7101 30.8949 46.8407 30.8949 20.9713 30.8949-2.98172e-14 23.9789 0 15.4475Z" stroke="#000000" stroke-width="1.32881" stroke-miterlimit="8" fill="none" fill-rule="evenodd" transform="matrix(6.14406e-17 1 1.0034 -6.12323e-17 122.5 2.49153)"/><path d="M129.5 49.3323C129.5 44.929 133.306 41.3594 138 41.3594 142.694 41.3594 146.5 44.929 146.5 49.3323 146.5 53.7356 142.694 57.3051 138 57.3051 133.306 57.3051 129.5 53.7356 129.5 49.3323Z" stroke="#000000" stroke-width="1.33333" stroke-miterlimit="8" fill="none" fill-rule="evenodd"/><path d="M0 0 29.576 0.000104631" stroke="#595959" stroke-width="1.32881" stroke-miterlimit="8" fill="none" fill-rule="evenodd" transform="matrix(-1.0034 0 0 1 90.1767 30.3967)"/><path d="M0 0 29.576 0.000104631" stroke="#595959" stroke-width="1.32881" stroke-miterlimit="8" fill="none" fill-rule="evenodd" transform="matrix(-1.0034 0 0 1 78.1767 22.4238)"/><path d="M0 0 29.576 0.000104631" stroke="#595959" stroke-width="1.32881" stroke-miterlimit="8" fill="none" fill-rule="evenodd" transform="matrix(-1.0034 0 0 1 91.1767 13.4543)"/><path d="M0 0 29.576 0.000104631" stroke="#595959" stroke-width="1.32881" stroke-miterlimit="8" fill="none" fill-rule="evenodd" transform="matrix(-1.0034 0 0 1 103.177 5.48141)"/></g></svg>