<svg width="144" height="144" xmlns="http://www.w3.org/2000/svg" xmlns:xlink="http://www.w3.org/1999/xlink" overflow="hidden"><defs><clipPath id="clip0"><rect x="0" y="0" width="144" height="144"/></clipPath><clipPath id="clip1"><rect x="28" y="-8" width="122" height="122"/></clipPath><clipPath id="clip2"><rect x="28" y="-8" width="122" height="122"/></clipPath><clipPath id="clip3"><rect x="28" y="-8" width="122" height="122"/></clipPath></defs><g clip-path="url(#clip0)"><rect x="0" y="0" width="144" height="144" fill="#FFFFFF"/><path d="M2.49996 56.5 132.804 56.5001" stroke="#000000" stroke-width="1.00232" stroke-miterlimit="8" fill="none" fill-rule="evenodd"/><path d="M2.49996 90.5 132.804 90.5001" stroke="#000000" stroke-width="1.00232" stroke-miterlimit="8" fill="none" fill-rule="evenodd"/><path d="M2.49996 127.5 132.804 127.5" stroke="#000000" stroke-width="1.00232" stroke-miterlimit="8" fill="none" fill-rule="evenodd"/><path d="M36.5 46.5 36.6336 141.817" stroke="#000000" stroke-width="1.00232" stroke-miterlimit="8" fill="none" fill-rule="evenodd"/><path d="M22.5 128C22.5 119.992 28.9918 113.5 37 113.5 45.0081 113.5 51.5 119.992 51.5 128 51.5 136.008 45.0081 142.5 37 142.5 28.9918 142.5 22.5 136.008 22.5 128Z" stroke="#000000" stroke-width="1.00232" stroke-miterlimit="8" fill="none" fill-rule="evenodd"/><path d="M26.5 56C26.5 50.7533 30.9771 46.5 36.5 46.5 42.0228 46.5 46.5 50.7533 46.5 56 46.5 61.2467 42.0228 65.5 36.5 65.5 30.9771 65.5 26.5 61.2467 26.5 56Z" stroke="#000000" stroke-width="1.00232" stroke-miterlimit="8" fill-rule="evenodd"/><path d="M87.5 91C87.5 82.9919 93.9919 76.5 102 76.5 110.008 76.5 116.5 82.9919 116.5 91 116.5 99.0081 110.008 105.5 102 105.5 93.9919 105.5 87.5 99.0081 87.5 91Z" stroke="#000000" stroke-width="1.00232" stroke-miterlimit="8" fill="none" fill-rule="evenodd"/><path d="M92.5 127.5C92.5 121.977 96.7533 117.5 102 117.5 107.247 117.5 111.5 121.977 111.5 127.5 111.5 133.023 107.247 137.5 102 137.5 96.7533 137.5 92.5 133.023 92.5 127.5Z" stroke="#000000" stroke-width="1.00232" stroke-miterlimit="8" fill-rule="evenodd"/><path d="M102.5 76.5 102.5 137.318" stroke="#000000" stroke-width="1.00232" stroke-miterlimit="8" fill="none" fill-rule="evenodd"/><g clip-path="url(#clip1)"><g clip-path="url(#clip2)"><g clip-path="url(#clip3)"><path d="M123.792 52.2395C119.632 52.2395 116.229 48.8364 116.229 44.677 116.229 40.5177 119.632 37.1145 123.792 37.1145 127.951 37.1145 131.354 40.5177 131.354 44.677 131.354 48.8364 127.951 52.2395 123.792 52.2395ZM94.424 25.2666C90.5167 23.7541 88.7521 19.3427 90.2646 15.4354 91.7771 11.5281 96.1886 9.7635 100.096 11.276 104.003 12.7885 105.768 17.2 104.255 21.1073 102.743 24.8885 98.3313 26.7791 94.424 25.2666ZM91.0209 54.7604C88.8782 54.7604 87.2396 53.1218 87.2396 50.9791 87.2396 48.8364 88.8782 47.1979 91.0209 47.1979 93.1636 47.1979 94.8021 48.8364 94.8021 50.9791 94.8021 53.1218 93.1636 54.7604 91.0209 54.7604ZM123.792 29.552C120.515 29.552 117.49 30.5604 114.969 32.325L102.743 39.1312 109.549 26.9052C110.179 25.8968 110.809 24.8885 111.314 23.7541 114.465 16.0656 110.683 7.24267 102.995 4.09163 95.3063 0.940588 86.4834 4.72184 83.3323 12.4104 80.1813 20.0989 83.9625 28.9218 91.6511 32.0729 93.1636 32.7031 94.6761 32.9552 96.1886 33.0812L84.8448 44.425 82.0719 50.601 45.6459 71.1458 38.0834 83.7499 74.6355 67.3645 58.25 103.917 70.8542 96.3541 91.1469 60.0541 97.3229 57.2812 108.667 45.9375C109.297 53.752 115.851 59.802 123.792 59.802 132.11 59.802 138.917 52.9958 138.917 44.677 138.917 36.3583 132.11 29.552 123.792 29.552Z"/></g></g></g></g></svg>