<?xml version="1.0" encoding="UTF-8" standalone="no"?>
<svg
   xmlns:dc="http://purl.org/dc/elements/1.1/"
   xmlns:cc="http://creativecommons.org/ns#"
   xmlns:rdf="http://www.w3.org/1999/02/22-rdf-syntax-ns#"
   xmlns:svg="http://www.w3.org/2000/svg"
   xmlns="http://www.w3.org/2000/svg"
   viewBox="0 0 188.96001 98.400002"
   height="98.400002"
   width="188.96001"
   xml:space="preserve"
   id="svg2"
   version="1.1"><metadata
     id="metadata8"><rdf:RDF><cc:Work
         rdf:about=""><dc:format>image/svg+xml</dc:format><dc:type
           rdf:resource="http://purl.org/dc/dcmitype/StillImage" /></cc:Work></rdf:RDF></metadata><defs
     id="defs6"><clipPath
       id="clipPath18"
       clipPathUnits="userSpaceOnUse"><path
         style="clip-rule:evenodd"
         id="path16"
         d="M 0,2.2888e-5 H 141.72 V 73.800023 H 0 Z" /></clipPath><clipPath
       id="clipPath28"
       clipPathUnits="userSpaceOnUse"><path
         style="clip-rule:evenodd"
         id="path26"
         d="M 2.183e-6,12.84 H 43.320002 V 60.96 H 2.183e-6 Z" /></clipPath><clipPath
       id="clipPath38"
       clipPathUnits="userSpaceOnUse"><path
         id="path36"
         d="M 0,0 H 11.658 V 11.657 H 0 Z" /></clipPath></defs><g
     transform="matrix(1.3333333,0,0,-1.3333333,0,98.4)"
     id="g10"><g
       id="g12"><g
         clip-path="url(#clipPath18)"
         id="g14"><path
           id="path20"
           style="fill:#ffffff;fill-opacity:1;fill-rule:evenodd;stroke:none"
           d="M 0,7.629e-6 H 141.72 V 73.800008 H 0 Z" /></g></g><g
       id="g22"><g
         clip-path="url(#clipPath28)"
         id="g24"><g
           transform="matrix(0.66833,-1.2e-8,0,0.66833,-4.8,12.84)"
           id="g30"><g
             transform="scale(6.1761,6.1763)"
             id="g32"><g
               clip-path="url(#clipPath38)"
               id="g34"><path
                 id="path40"
                 style="fill:#000000;fill-opacity:1;fill-rule:nonzero;stroke:none"
                 d="m 2.485,9.8924 h -0.72 v -8.16 h 8.16 v 0.72 h -7.44 z" /><path
                 id="path42"
                 style="fill:#000000;fill-opacity:1;fill-rule:nonzero;stroke:none"
                 d="m 3.205,3.1724 h 1.32 v 4.2 h -1.32 z" /><path
                 id="path44"
                 style="fill:#000000;fill-opacity:1;fill-rule:nonzero;stroke:none"
                 d="m 5.005,3.1724 h 1.32 v 6.72 h -1.32 z" /><path
                 id="path46"
                 style="fill:#000000;fill-opacity:1;fill-rule:nonzero;stroke:none"
                 d="m 6.805,3.1724 h 1.32 v 4.2 h -1.32 z" /><path
                 id="path48"
                 style="fill:#000000;fill-opacity:1;fill-rule:nonzero;stroke:none"
                 d="m 8.605,3.1724 h 1.32 v 2.16 h -1.32 z" /></g></g></g></g></g><path
       id="path50"
       style="fill:#000000;fill-opacity:1;fill-rule:evenodd;stroke:none"
       d="m 43.32,40.11 h 9.3 v 5.13 l 9.3,-10.26 -9.3,-10.26 v 5.13 h -9.3 z" /><path
       id="path52"
       style="fill:#000000;fill-opacity:1;fill-rule:evenodd;stroke:none"
       d="m 96.72,40.186 h 7.33 l 2.27,7.334 2.27,-7.334 h 7.33 l -5.93,-4.532 2.26,-7.334 -5.93,4.533 -5.93,-4.533 2.26,7.334 z" /><path
       id="path54"
       style="fill:none;stroke:#000000;stroke-width:0.5;stroke-linecap:butt;stroke-linejoin:miter;stroke-miterlimit:10;stroke-dasharray:none;stroke-opacity:1"
       d="m 96.72,40.186 h 7.33 l 2.27,7.334 2.27,-7.334 h 7.33 l -5.93,-4.532 2.26,-7.334 -5.93,4.533 -5.93,-4.533 2.26,7.334 z" /><path
       id="path56"
       style="fill:#000000;fill-opacity:1;fill-rule:evenodd;stroke:none"
       d="m 72.12,40.14 h 7.38 l 2.28,7.38 2.28,-7.38 h 7.38 l -5.97,-4.56 2.28,-7.38 -5.97,4.561 -5.97,-4.561 2.28,7.38 z" /><path
       id="path58"
       style="fill:none;stroke:#000000;stroke-width:0.5;stroke-linecap:butt;stroke-linejoin:miter;stroke-miterlimit:10;stroke-dasharray:none;stroke-opacity:1"
       d="m 72.12,40.14 h 7.38 l 2.28,7.38 2.28,-7.38 h 7.38 l -5.97,-4.56 2.28,-7.38 -5.97,4.561 -5.97,-4.561 2.28,7.38 z" /><path
       id="path60"
       style="fill:#000000;fill-opacity:1;fill-rule:evenodd;stroke:none"
       d="M 129.96,47.52 V 32.853 l -5.93,-4.533 2.26,7.334 -5.93,4.532 h 7.33 z" /><path
       id="path62"
       style="fill:none;stroke:#000000;stroke-width:0.5;stroke-linecap:butt;stroke-linejoin:miter;stroke-miterlimit:10;stroke-dasharray:none;stroke-opacity:1"
       d="M 129.96,47.52 V 32.853 l -5.93,-4.533 2.26,7.334 -5.93,4.532 h 7.33 z" /><path
       id="path64"
       style="fill:#ffffff;fill-opacity:1;fill-rule:evenodd;stroke:none"
       d="m 130.32,47.52 2.27,-7.334 h 7.33 l -5.93,-4.532 2.26,-7.334 -5.93,4.533 z" /><path
       id="path66"
       style="fill:none;stroke:#000000;stroke-width:0.5;stroke-linecap:butt;stroke-linejoin:miter;stroke-miterlimit:10;stroke-dasharray:none;stroke-opacity:1"
       d="m 130.32,47.52 2.27,-7.334 h 7.33 l -5.93,-4.532 2.26,-7.334 -5.93,4.533 z" /></g></svg>