<?xml version="1.0" encoding="UTF-8" standalone="no"?>
<svg
   width="180"
   height="180"
   overflow="hidden"
   version="1.1"
   id="svg732"
   sodipodi:docname="initial-state-object.svg"
   inkscape:version="1.2.2 (732a01da63, 2022-12-09)"
   xmlns:inkscape="http://www.inkscape.org/namespaces/inkscape"
   xmlns:sodipodi="http://sodipodi.sourceforge.net/DTD/sodipodi-0.dtd"
   xmlns="http://www.w3.org/2000/svg"
   xmlns:svg="http://www.w3.org/2000/svg">
  <sodipodi:namedview
     id="namedview734"
     pagecolor="#ffffff"
     bordercolor="#000000"
     borderopacity="0.25"
     inkscape:showpageshadow="2"
     inkscape:pageopacity="0.0"
     inkscape:pagecheckerboard="0"
     inkscape:deskcolor="#d1d1d1"
     showgrid="false"
     inkscape:zoom="1.3111111"
     inkscape:cx="90"
     inkscape:cy="90.381356"
     inkscape:window-width="1920"
     inkscape:window-height="1111"
     inkscape:window-x="-9"
     inkscape:window-y="-9"
     inkscape:window-maximized="1"
     inkscape:current-layer="svg732" />
  <defs
     id="defs702">
    <clipPath
       id="clip0">
      <rect
         x="410"
         y="115"
         width="180"
         height="180"
         id="rect699" />
    </clipPath>
  </defs>
  <g
     clip-path="url(#clip0)"
     transform="translate(-410 -115)"
     id="g710">
    <path
       d="M457.659 139.5 518.325 139.5 548.5 169.675 548.5 264.5 457.5 264.5 457.5 139.659C457.5 139.571 457.571 139.5 457.659 139.5Z"
       stroke="#34212E"
       stroke-width="6.66667"
       stroke-linecap="round"
       stroke-linejoin="round"
       stroke-miterlimit="10"
       fill="none"
       fill-rule="evenodd"
       id="path704" />
    <path
       d="M518.5 139.5 518.5 170.508"
       stroke="#34212E"
       stroke-width="6.66667"
       stroke-linecap="round"
       stroke-linejoin="round"
       stroke-miterlimit="10"
       fill="none"
       fill-rule="evenodd"
       id="path706" />
    <path
       d="M0 0 29.4488 0.000104987"
       stroke="#34212E"
       stroke-width="6.66667"
       stroke-linecap="round"
       stroke-linejoin="round"
       stroke-miterlimit="10"
       fill="none"
       fill-rule="evenodd"
       transform="matrix(-1 0 0 1 547.949 170.5)"
       id="path708" />
  </g>
  <path
     d="m 87.688081,68.207268 c -0.796328,0 -1.462826,0.235597 -1.999456,0.706695 -0.536669,0.471143 -0.969459,1.149108 -1.29837,2.033933 -0.328911,0.884825 -0.56262,1.962086 -0.701085,3.231862 -0.138501,1.269777 -0.207764,2.703258 -0.207764,4.300524 0,3.746082 0.34913,6.495309 1.047349,8.247706 0.69822,1.752387 1.780195,2.628581 3.245887,2.628581 1.396438,0 2.432245,-0.824486 3.10738,-2.473453 0.675135,-1.648948 1.012723,-4.202847 1.012723,-7.661662 0,-2.642943 -0.173132,-4.783159 -0.519356,-6.420609 -0.346224,-1.637489 -0.828049,-2.812434 -1.445473,-3.524915 -0.617465,-0.712441 -1.364718,-1.068662 -2.24184,-1.068662 z m 0.08657,-1.465105 c 2.527448,0 4.408616,0.971017 5.643505,2.912972 1.234889,1.941994 1.852313,4.877991 1.852313,8.807909 0,4.067826 -0.660727,7.144582 -1.982142,9.230195 -1.321455,2.085623 -3.251657,3.128437 -5.790647,3.128437 -2.492862,0 -4.348041,-0.976738 -5.565617,-2.93022 -1.217575,-1.953487 -1.826358,-4.918174 -1.826358,-8.894061 0,-2.114379 0.187535,-3.941451 0.562619,-5.481256 0.37508,-1.539805 0.900189,-2.812434 1.575337,-3.817888 0.675135,-1.005494 1.485911,-1.749519 2.432246,-2.232155 0.946375,-0.482595 1.979276,-0.723933 3.098744,-0.723933 z"
     fill-rule="evenodd"
     id="path714"
     style="stroke-width:0.402699" />
  <text
     fill="#000000"
     fill-opacity="0"
     font-family="Arial, Arial_MSFontService, sans-serif"
     font-size="59.9249px"
     x="60.448765"
     y="48.110966"
     id="text716">0</text>
  <text
     font-family="Calibri, Calibri_MSFontService, sans-serif"
     font-weight="400"
     font-size="31.8666px"
     transform="scale(1.0743316,0.93081132)"
     id="text718"
     x="60.329849"
     y="92.800026"
     style="stroke-width:0.362119">|</text>
  <text
     font-family="Calibri, Calibri_MSFontService, sans-serif"
     font-weight="400"
     font-size="31.8666px"
     transform="scale(1.0743316,0.93081131)"
     id="text718-6"
     x="60.107906"
     y="134.17744"
     style="stroke-width:0.362119">|</text>
  <text
     font-family="'Cambria Math', 'Cambria Math_MSFontService', sans-serif"
     font-weight="400"
     font-size="30.6098px"
     transform="scale(1.367642,0.73118551)"
     id="text720"
     x="72.099953"
     y="115.34781"
     style="stroke-width:0.347837">⟩</text>
  <text
     font-family="'Cambria Math', 'Cambria Math_MSFontService', sans-serif"
     font-weight="400"
     font-size="30.6098px"
     transform="scale(1.367642,0.73118551)"
     id="text720-7"
     x="72.71006"
     y="167.28612"
     style="stroke-width:0.347837">⟩</text>
  <path
     d="m 91.349417,104.11504 h 0.9572 c -0.06963,1.14618 -0.10442,2.73411 -0.10442,4.76381 v 15.29431 c 0,0.69248 0.03773,1.21483 0.113118,1.56705 0.07541,0.35219 0.208866,0.63876 0.400277,0.85962 0.191446,0.22075 0.467017,0.39399 0.826682,0.51937 0.359666,0.12525 0.812158,0.22102 1.357438,0.28654 0.54532,0.0658 1.26465,0.11038 2.157992,0.13438 v 1.30737 H 84.196697 v -1.30737 c 1.287858,-0.0597 2.207327,-0.14038 2.758408,-0.24163 0.551122,-0.1015 0.971685,-0.25363 1.26177,-0.45667 0.290045,-0.20301 0.501787,-0.48952 0.635226,-0.85964 0.133404,-0.37012 0.200093,-0.97304 0.200093,-1.80881 v -14.52422 c 0,-0.47758 -0.08119,-0.82678 -0.243631,-1.04769 -0.162412,-0.22086 -0.400277,-0.33129 -0.713529,-0.33129 -0.371269,0 -0.899183,0.19699 -1.583704,0.59098 -0.68452,0.394 -1.531488,0.93726 -2.540871,1.62973 l -0.765742,-1.37902 z"
     fill-rule="evenodd"
     id="path722"
     style="stroke-width:0.411567" />
  <text
     fill="#000000"
     fill-opacity="0"
     font-family="Arial, Arial_MSFontService, sans-serif"
     font-size="59.2386px"
     x="62.550644"
     y="47.510433"
     id="text724">1</text>
</svg>
