<?xml version="1.0" encoding="UTF-8" standalone="no"?>
<svg
   xmlns:dc="http://purl.org/dc/elements/1.1/"
   xmlns:cc="http://creativecommons.org/ns#"
   xmlns:rdf="http://www.w3.org/1999/02/22-rdf-syntax-ns#"
   xmlns:svg="http://www.w3.org/2000/svg"
   xmlns="http://www.w3.org/2000/svg"
   xmlns:sodipodi="http://sodipodi.sourceforge.net/DTD/sodipodi-0.dtd"
   xmlns:inkscape="http://www.inkscape.org/namespaces/inkscape"
   width="121.67427"
   height="106.37305"
   overflow="hidden"
   version="1.1"
   id="svg7380"
   sodipodi:docname="OptimizationTask_Icon.svg"
   inkscape:version="1.0.2-2 (e86c870879, 2021-01-15)">
  <metadata
     id="metadata7384">
    <rdf:RDF>
      <cc:Work
         rdf:about="">
        <dc:format>image/svg+xml</dc:format>
        <dc:type
           rdf:resource="http://purl.org/dc/dcmitype/StillImage" />
        <dc:title></dc:title>
      </cc:Work>
    </rdf:RDF>
  </metadata>
  <sodipodi:namedview
     pagecolor="#ffffff"
     bordercolor="#666666"
     borderopacity="1"
     objecttolerance="10"
     gridtolerance="10"
     guidetolerance="10"
     inkscape:pageopacity="0"
     inkscape:pageshadow="2"
     inkscape:window-width="1920"
     inkscape:window-height="991"
     id="namedview7382"
     showgrid="false"
     inkscape:zoom="4.072"
     inkscape:cx="60.718922"
     inkscape:cy="50.698497"
     inkscape:window-x="-9"
     inkscape:window-y="-9"
     inkscape:window-maximized="1"
     inkscape:current-layer="svg7380"
     fit-margin-top="0"
     fit-margin-left="0"
     fit-margin-right="0"
     fit-margin-bottom="0" />
  <defs
     id="defs7362" />
  <path
     id="path7366"
     style="color:#000000;font-style:normal;font-variant:normal;font-weight:normal;font-stretch:normal;font-size:medium;line-height:normal;font-family:sans-serif;font-variant-ligatures:normal;font-variant-position:normal;font-variant-caps:normal;font-variant-numeric:normal;font-variant-alternates:normal;font-variant-east-asian:normal;font-feature-settings:normal;font-variation-settings:normal;text-indent:0;text-align:start;text-decoration:none;text-decoration-line:none;text-decoration-style:solid;text-decoration-color:#000000;letter-spacing:normal;word-spacing:normal;text-transform:none;writing-mode:lr-tb;direction:ltr;text-orientation:mixed;dominant-baseline:auto;baseline-shift:baseline;text-anchor:start;white-space:normal;shape-padding:0;shape-margin:0;inline-size:0;clip-rule:nonzero;display:inline;overflow:visible;visibility:visible;opacity:1;isolation:auto;mix-blend-mode:normal;color-interpolation:sRGB;color-interpolation-filters:linearRGB;solid-color:#000000;solid-opacity:1;vector-effect:none;fill:#404040;fill-opacity:1;fill-rule:evenodd;stroke:none;stroke-linecap:butt;stroke-linejoin:miter;stroke-miterlimit:8;stroke-dasharray:none;stroke-dashoffset:0;stroke-opacity:1;color-rendering:auto;image-rendering:auto;shape-rendering:auto;text-rendering:auto;enable-background:accumulate;stop-color:#000000;stop-opacity:1"
     d="M 2.3539623,0 C 2.0694545,0.0681162 1.3431993,0.2247279 0.78755605,0.8535156 0.23191285,1.4823033 0.04112775,2.2980462 0.00630605,3.2695312 -0.06333725,5.2125013 0.43537275,8.2667366 1.9262279,14.253907 3.374723,20.070976 5.4392645,31.571507 8.2406809,43.222657 11.042098,54.873807 14.511655,66.669642 19.211384,73.595703 23.713056,80.229811 29.661769,87.431623 36.289509,91.976563 37.908532,93.0868 39.573684,94.037503 41.273884,94.775391 41.103156,95.467166 41.004353,96.184871 41.004353,96.925781 41.004353,102.14278 45.481553,106.37305 51.004353,106.37305 56.527253,106.37305 61.004353,102.14278 61.004353,96.925781 61.004353,95.097561 60.446304,93.397313 59.494587,91.951172 62.341362,89.26876 65.09856,85.206988 67.941853,80.273438 70.676843,75.52781 73.439518,69.987027 76.182087,64.199219 77.077628,64.460878 78.02366,64.607422 79.004353,64.607422 84.527253,64.607422 89.004353,60.155963 89.004353,54.664063 89.004353,51.164703 87.183684,48.092573 84.435994,46.320313 89.25794,35.823107 93.785073,26.313969 97.453572,21.320313 98.028123,20.538204 98.584813,19.815041 99.137163,19.113282 100.66439,20.210139 102.51215,20.853516 104.50435,20.853516 109.75135,20.853516 114.00435,16.402057 114.00435,10.910157 114.00435,9.6296146 113.76533,8.4093746 113.34419,7.2851566 116.18838,6.2065466 118.84812,5.893954 121.67427,5.5742187 L 121.33443,2.5859375 C 118.39287,2.9187297 115.26332,3.2883867 111.87349,4.6386718 110.13162,2.3983231 107.47921,0.9667968 104.50435,0.9667968 99.257353,0.9667969 95.004353,5.4182362 95.004353,10.910157 L 93.094197,11.113282 91.090291,11.779297 87.402791,14.019532 84.115681,17.421875 81.168415,21.783203 78.705525,26.876953 76.830525,32.53125 75.684041,38.560547 H 73.230915 L 72.662556,38.519532 72.715291,38.601563 H 73.010212 L 76.791462,44.460938 81.728962,38.81836 78.734822,38.601563 78.742634,38.560547 79.748494,33.285157 81.504353,27.990235 83.781697,23.279297 86.465291,19.308594 89.303181,16.369141 92.367634,14.507813 93.736775,14.052735 95.324665,13.884766 95.236775,13.076172 C 95.543615,14.520302 96.15386,15.842411 96.988728,16.97461 96.346645,17.783058 95.694972,18.633521 95.029744,19.539063 90.999071,25.02572 86.460774,34.609379 81.672322,45.087891 80.821979,44.854074 79.929518,44.720703 79.004353,44.720703 73.481553,44.720703 69.004353,49.172063 69.004353,54.664063 L 67.094197,54.867188 65.090291,55.533203 61.402791,57.773438 58.115681,61.175782 55.168415,65.53711 52.705525,70.63086 50.830525,76.285157 49.684041,82.314453 H 47.230915 L 46.662556,82.273438 46.715291,82.355469 H 47.010212 L 50.336384,87.509766 C 47.002907,87.718608 44.121997,89.467781 42.475056,92.013672 40.982607,91.366566 39.480948,90.518038 37.990681,89.496094 31.901996,85.320809 26.073894,78.352544 21.699665,71.90625 17.523594,65.751911 13.939033,54.058832 11.164509,42.519532 8.3899859,30.980232 6.3562147,19.589721 4.8461498,13.525391 3.3784449,7.6311906 2.9680162,4.6086655 3.0121654,3.3769531 3.0331837,2.7905664 3.1278735,2.7643948 3.0395091,2.8710937 Z M 69.228962,56.751953 C 69.781392,59.320867 71.328443,61.522623 73.453572,62.935547 70.730311,68.678769 67.998166,74.149495 65.334431,78.771485 62.57965,83.551453 59.852008,87.400774 57.457478,89.716797 55.814343,88.402916 53.716547,87.587245 51.418415,87.498047 L 55.728962,82.572266 52.734822,82.355469 52.742634,82.314453 53.748494,77.039063 55.504353,71.744141 57.781697,67.033203 60.465291,63.0625 63.303181,60.123047 66.367634,58.261719 67.736775,57.806641 69.324665,57.638672 Z" />
</svg>
