<?xml version="1.0" encoding="UTF-8" standalone="no"?>
<svg
   width="180"
   height="180"
   overflow="hidden"
   version="1.1"
   id="svg645"
   sodipodi:docname="parametrization-object.svg"
   inkscape:version="1.2.2 (732a01da63, 2022-12-09)"
   xmlns:inkscape="http://www.inkscape.org/namespaces/inkscape"
   xmlns:sodipodi="http://sodipodi.sourceforge.net/DTD/sodipodi-0.dtd"
   xmlns="http://www.w3.org/2000/svg"
   xmlns:svg="http://www.w3.org/2000/svg">
  <sodipodi:namedview
     id="namedview647"
     pagecolor="#ffffff"
     bordercolor="#000000"
     borderopacity="0.25"
     inkscape:showpageshadow="2"
     inkscape:pageopacity="0.0"
     inkscape:pagecheckerboard="0"
     inkscape:deskcolor="#d1d1d1"
     showgrid="false"
     inkscape:zoom="1.3111111"
     inkscape:cx="90"
     inkscape:cy="90.381356"
     inkscape:window-width="1920"
     inkscape:window-height="1111"
     inkscape:window-x="-9"
     inkscape:window-y="-9"
     inkscape:window-maximized="1"
     inkscape:current-layer="g643" />
  <defs
     id="defs623">
    <clipPath
       id="clip0">
      <rect
         x="410"
         y="115"
         width="180"
         height="180"
         id="rect620" />
    </clipPath>
  </defs>
  <g
     clip-path="url(#clip0)"
     transform="translate(-410 -115)"
     id="g631">
    <path
       d="M457.659 139.5 518.325 139.5 548.5 169.675 548.5 264.5 457.5 264.5 457.5 139.659C457.5 139.571 457.571 139.5 457.659 139.5Z"
       stroke="#34212E"
       stroke-width="6.66667"
       stroke-linecap="round"
       stroke-linejoin="round"
       stroke-miterlimit="10"
       fill="none"
       fill-rule="evenodd"
       id="path625" />
    <path
       d="M518.5 139.5 518.5 170.508"
       stroke="#34212E"
       stroke-width="6.66667"
       stroke-linecap="round"
       stroke-linejoin="round"
       stroke-miterlimit="10"
       fill="none"
       fill-rule="evenodd"
       id="path627" />
    <path
       d="M0 0 29.4488 0.000104987"
       stroke="#34212E"
       stroke-width="6.66667"
       stroke-linecap="round"
       stroke-linejoin="round"
       stroke-miterlimit="10"
       fill="none"
       fill-rule="evenodd"
       transform="matrix(-1 0 0 1 547.949 170.5)"
       id="path629" />
  </g>
  <g
     clip-path="url(#clip768123746553)"
     id="g643"
     transform="translate(54.915255,91.525424)">
    <path
       d="m 40.814047,-10.991421 c -0.46763,0 -0.917272,0.09035 -1.348954,0.271019 -0.431654,0.180671 -0.860339,0.465379 -1.285997,0.8541244 -0.425687,0.3887192 -0.842351,0.9252813 -1.250021,1.6096599 -0.407698,0.6843786 -0.758435,1.4426786 -1.05221,2.2749001 -0.293746,0.8322215 -0.524592,1.6945327 -0.692451,2.58696 -0.167869,0.8924537 -0.251803,1.694559 -0.251803,2.40631595 0,1.7958061 0.563566,2.69372745 1.690697,2.69372745 0.959244,0 1.981446,-0.5502433 3.066606,-1.65074565 1.085159,-1.10047625 2.029442,-2.62528975 2.832819,-4.57441425 0.239815,-1.0512216 0.35973,-2.1626491 0.35973,-3.3343352 0,-1.0730978 -0.179879,-1.8642518 -0.53961,-2.3734357 -0.359702,-0.509184 -0.869304,-0.763776 -1.528806,-0.763776 z m -0.341743,-1.708221 c 1.426903,0 2.563028,0.331251 3.408377,0.993727 0.845349,0.662476 1.363945,1.661678 1.555788,2.997608 h 0.23381 l 1.708685,-3.72853 h 4.874225 l -0.215818,1.084076 c -0.455666,0.514659 -1.226065,1.4536294 -2.311225,2.816911 -1.085159,1.3633078 -2.131345,2.7457542 -3.138557,4.1473654 -0.01201,0.3504159 -0.05395,0.9855135 -0.125925,1.9053456 -0.07192,0.8869517 -0.107909,1.52755135 -0.107909,1.92174625 0,0.9088544 0.08992,1.5193379 0.269791,1.83141095 0.179856,0.3120784 0.485618,0.468119 0.917272,0.468119 0.323755,0 0.671493,-0.1204514 1.043187,-0.3613568 C 48.955728,1.1358777 49.43535,0.70335325 50.0229,0.07918055 l 1.29499,1.18262415 c -1.067171,0.9964649 -2.077381,1.721911 -3.030658,2.1763434 -0.953247,0.4544314 -1.993437,0.6816471 -3.120569,0.6816471 -0.971235,0 -1.708685,-0.2628038 -2.212291,-0.7884119 -0.503606,-0.5256055 -0.755409,-1.3030677 -0.755409,-2.33237075 0,-0.3832699 0.03599,-0.7884161 0.107933,-1.215465 l -0.269791,-0.032854 c -1.139123,1.31400055 -2.06242,2.24203555 -2.769861,2.78406795 -0.70747,0.5420325 -1.435896,0.941711 -2.185309,1.1990407 -0.749413,0.2573287 -1.59776,0.385993 -2.54504,0.385993 -0.959244,0 -1.777611,-0.1971029 -2.455101,-0.5913092 -0.67746,-0.3942054 -1.187065,-0.9855136 -1.528803,-1.7739245 -0.341733,-0.78840285 -0.512602,-1.71371055 -0.512602,-2.7758571 0,-2.2228813 0.437662,-4.2322381 1.312979,-6.0280705 0.875328,-1.7958324 2.110359,-3.1864919 3.70512,-4.1720059 1.594791,-0.985514 3.399383,-1.47827 5.413807,-1.47827 z"
       fill-rule="evenodd"
       id="path635"
       style="stroke-width:0.275477" />
    <text
       fill="#000000"
       fill-opacity="0"
       font-family="Arial, Arial_MSFontService, sans-serif"
       font-size="63.8908px"
       x="14.5513"
       y="-6.98805"
       id="text637">𝜶</text>
    <path
       d="m 42.795452,17.034675 c -1.265277,0 -2.367682,0.564317 -3.307243,1.692926 -0.939532,1.128609 -1.722515,2.847663 -2.348859,5.157137 l -2.536789,9.546209 c -0.08769,0.33439 -0.131562,0.694933 -0.131562,1.081578 0,0.58522 0.284998,1.055467 0.854993,1.410772 0.569995,0.355305 1.287203,0.532957 2.151562,0.532957 0.876918,0 1.675562,-0.261254 2.395872,-0.78376 0.720309,-0.522518 1.280908,-1.240966 1.681796,-2.155349 0.400888,-0.914384 0.601317,-1.909765 0.601317,-2.986117 0,-1.107707 -0.291262,-1.946344 -0.873786,-2.515862 -0.582524,-0.569542 -1.481367,-0.953575 -2.6965,-1.152124 l 0.43218,-1.59889 c 1.829008,-0.219451 3.282156,-0.856902 4.359533,-1.912352 1.077347,-1.055475 1.616021,-2.377407 1.616021,-3.965846 0,-0.783743 -0.197292,-1.371576 -0.591921,-1.763447 -0.394624,-0.391897 -0.930165,-0.587832 -1.606624,-0.587832 z m 0.375801,-1.630219 c 2.342624,0 4.134046,0.355317 5.374236,1.065927 1.24022,0.710609 1.86033,1.739931 1.86033,3.088016 0,1.504804 -0.610713,2.808471 -1.83214,3.910952 -1.221427,1.102481 -3.022216,1.962021 -5.402426,2.578569 l -0.0376,0.219451 c 1.515822,0.418 2.655812,1.039799 3.419972,1.865347 0.76419,0.825573 1.146255,1.828767 1.146255,3.009632 0,1.348085 -0.378933,2.54724 -1.136858,3.597465 -0.757896,1.050243 -1.866565,1.870578 -3.326007,2.461011 -1.459442,0.590433 -3.166296,0.885649 -5.120561,0.885649 -0.876918,0 -1.731911,-0.07053 -2.564978,-0.211617 -0.833068,-0.141067 -1.500131,-0.32134 -2.001248,-0.540793 l -1.897886,7.273284 h -5.336651 l 5.167543,-19.62533 c 0.551203,-2.079598 1.293437,-3.814303 2.226735,-5.204169 0.933297,-1.389865 2.173487,-2.466242 3.72063,-3.229108 1.547112,-0.762841 3.460659,-1.144286 5.74064,-1.144286 z"
       fill-rule="evenodd"
       id="path639"
       style="stroke-width:0.27507" />
  </g>
</svg>
