<?xml version="1.0" encoding="UTF-8" standalone="no"?>
<svg
   xmlns:dc="http://purl.org/dc/elements/1.1/"
   xmlns:cc="http://creativecommons.org/ns#"
   xmlns:rdf="http://www.w3.org/1999/02/22-rdf-syntax-ns#"
   xmlns:svg="http://www.w3.org/2000/svg"
   xmlns="http://www.w3.org/2000/svg"
   xmlns:sodipodi="http://sodipodi.sourceforge.net/DTD/sodipodi-0.dtd"
   xmlns:inkscape="http://www.inkscape.org/namespaces/inkscape"
   viewBox="0 0 35.191261 27.041666"
   height="27.041666"
   width="35.191261"
   xml:space="preserve"
   id="svg2"
   version="1.1"
   sodipodi:docname="QuantumHardwareSelectionSubprocess.svg"
   inkscape:version="1.0.2-2 (e86c870879, 2021-01-15)"><sodipodi:namedview
     pagecolor="#ffffff"
     bordercolor="#666666"
     borderopacity="1"
     objecttolerance="10"
     gridtolerance="10"
     guidetolerance="10"
     inkscape:pageopacity="0"
     inkscape:pageshadow="2"
     inkscape:window-width="1920"
     inkscape:window-height="991"
     id="namedview3965"
     showgrid="false"
     inkscape:zoom="4.1197917"
     inkscape:cx="-41.442359"
     inkscape:cy="23.613762"
     inkscape:window-x="-9"
     inkscape:window-y="-9"
     inkscape:window-maximized="1"
     inkscape:current-layer="svg2"
     fit-margin-top="0"
     fit-margin-left="0"
     fit-margin-right="0"
     fit-margin-bottom="0" /><metadata
     id="metadata8"><rdf:RDF><cc:Work
         rdf:about=""><dc:format>image/svg+xml</dc:format><dc:type
           rdf:resource="http://purl.org/dc/dcmitype/StillImage" /><dc:title></dc:title></cc:Work></rdf:RDF></metadata><defs
     id="defs6" /><path
     id="path42"
     style="color:#000000;font-style:normal;font-variant:normal;font-weight:normal;font-stretch:normal;font-size:medium;line-height:normal;font-family:sans-serif;font-variant-ligatures:normal;font-variant-position:normal;font-variant-caps:normal;font-variant-numeric:normal;font-variant-alternates:normal;font-variant-east-asian:normal;font-feature-settings:normal;font-variation-settings:normal;text-indent:0;text-align:start;text-decoration:none;text-decoration-line:none;text-decoration-style:solid;text-decoration-color:#000000;letter-spacing:normal;word-spacing:normal;text-transform:none;writing-mode:lr-tb;direction:ltr;text-orientation:mixed;dominant-baseline:auto;baseline-shift:baseline;text-anchor:start;white-space:normal;shape-padding:0;shape-margin:0;inline-size:0;clip-rule:nonzero;display:inline;overflow:visible;visibility:visible;opacity:1;isolation:auto;mix-blend-mode:normal;color-interpolation:sRGB;color-interpolation-filters:linearRGB;solid-color:#000000;solid-opacity:1;vector-effect:none;fill:#000000;fill-opacity:1;fill-rule:nonzero;stroke:none;stroke-linecap:butt;stroke-linejoin:miter;stroke-miterlimit:10;stroke-dasharray:none;stroke-dashoffset:0;stroke-opacity:1;color-rendering:auto;image-rendering:auto;shape-rendering:auto;text-rendering:auto;enable-background:accumulate;stop-color:#000000;stop-opacity:1"
     d="M 11.576172 0 C 10.812523 2.9605947e-16 10.115193 0.4423062 9.5234375 1.1542969 C 8.9316815 1.8662875 8.4204649 2.8617221 7.9921875 4.0800781 C 7.778857 4.6869558 7.5868105 5.349573 7.4179688 6.0585938 C 6.8063593 5.8719076 6.2143209 5.7143945 5.6542969 5.5996094 C 4.3894289 5.3403574 3.2725367 5.2641673 2.3554688 5.40625 C 1.4384009 5.5483326 0.69690924 5.9205301 0.30078125 6.5800781 C -0.09531474 7.2395701 -0.07850949 8.0689499 0.2265625 8.9453125 C 0.53163582 9.8216752 1.1226232 10.776497 1.9453125 11.771484 C 2.5140483 12.459332 3.230537 13.166907 4.0078125 13.876953 C 3.2305387 14.587404 2.5140459 15.296472 1.9453125 15.984375 C 1.1226272 16.979442 0.53163449 17.930348 0.2265625 18.806641 C -0.07850949 19.682936 -0.09538674 20.51266 0.30078125 21.171875 C 0.69690124 21.83141 1.4384022 22.203509 2.3554688 22.345703 C 3.2725354 22.487896 4.3894182 22.413466 5.6542969 22.154297 C 6.268027 22.028545 6.9168187 21.856462 7.5917969 21.644531 C 7.7163806 22.104054 7.8475883 22.549585 7.9921875 22.960938 C 8.4204649 24.179293 8.9316815 25.176682 9.5234375 25.888672 C 10.115193 26.600663 10.812523 27.041016 11.576172 27.041016 C 12.339822 27.041016 13.03715 26.600663 13.628906 25.888672 C 14.220662 25.176682 14.731878 24.179293 15.160156 22.960938 C 15.388108 22.312466 15.587011 21.592564 15.763672 20.828125 C 16.584791 21.10211 17.37979 21.333625 18.115234 21.484375 C 19.380018 21.743628 20.497117 21.819726 21.414062 21.677734 C 22.33101 21.535742 23.070636 21.161155 23.466797 20.501953 C 23.8629 19.842447 23.84413 19.015151 23.539062 18.138672 C 23.233996 17.262192 22.642999 16.307653 21.820312 15.3125 C 21.430576 14.84106 20.985808 14.359458 20.496094 13.875 C 20.985402 13.390893 21.430848 12.910525 21.820312 12.439453 C 22.642997 11.444386 23.233991 10.493482 23.539062 9.6171875 C 23.844134 8.7408928 23.862965 7.9111664 23.466797 7.2519531 C 23.070689 6.5924384 22.331032 6.220321 21.414062 6.078125 C 20.497093 5.935929 19.380029 6.0084088 18.115234 6.2675781 C 17.416663 6.4107233 16.66711 6.6244017 15.890625 6.8789062 C 15.684824 5.8675166 15.450954 4.907332 15.160156 4.0800781 C 14.731878 2.8617221 14.220662 1.8662875 13.628906 1.1542969 C 13.03715 0.4423062 12.339822 0 11.576172 0 z M 11.576172 0.640625 C 12.093856 0.640625 12.618225 0.93865604 13.136719 1.5625 C 13.655213 2.1863427 14.143299 3.1246113 14.554688 4.2949219 C 14.842716 5.1143006 15.075057 6.0793097 15.279297 7.1015625 C 14.403236 7.4133627 13.496188 7.7907553 12.5625 8.2304688 C 10.988709 7.404042 9.4586407 6.7442114 8.0292969 6.265625 C 8.1963139 5.5551639 8.3872442 4.893498 8.5976562 4.2949219 C 9.0090455 3.1246113 9.4971308 2.1863427 10.015625 1.5625 C 10.53412 0.93865604 11.058488 0.640625 11.576172 0.640625 z M 29.404297 4.4179688 C 28.951464 4.4179688 28.515656 4.4537708 28.097656 4.5234375 C 27.679656 4.5931042 27.300563 4.6806562 26.960938 4.7851562 C 26.621312 4.8809479 26.329771 4.9894115 26.085938 5.1113281 C 25.842104 5.2245365 25.676927 5.325026 25.589844 5.4121094 C 25.50276 5.4991927 25.446047 5.6126198 25.419922 5.7519531 C 25.393797 5.8912865 25.380859 6.1131771 25.380859 6.4179688 C 25.380859 6.7140521 25.390786 6.9568542 25.408203 7.1484375 C 25.434328 7.3400208 25.463214 7.48925 25.498047 7.59375 C 25.53288 7.69825 25.576656 7.7709115 25.628906 7.8144531 C 25.681156 7.8492865 25.73787 7.8671875 25.798828 7.8671875 C 25.885911 7.8671875 26.009266 7.8234115 26.166016 7.7363281 C 26.331474 7.6492448 26.535464 7.5537188 26.779297 7.4492188 C 27.02313 7.3447187 27.314672 7.2491927 27.654297 7.1621094 C 27.993922 7.075026 28.385953 7.03125 28.830078 7.03125 C 29.317745 7.03125 29.740615 7.100901 30.097656 7.2402344 C 30.463406 7.3708594 30.762922 7.5619115 30.998047 7.8144531 C 31.24188 8.0669948 31.419995 8.3684635 31.533203 8.7167969 C 31.65512 9.0651302 31.716797 9.4472344 31.716797 9.8652344 C 31.716797 10.239693 31.665047 10.592911 31.560547 10.923828 C 31.464755 11.254745 31.307552 11.541323 31.089844 11.785156 C 30.872135 12.02899 30.593531 12.225005 30.253906 12.373047 C 29.92299 12.521089 29.525995 12.595703 29.064453 12.595703 L 28.882812 12.595703 C 28.691229 12.595703 28.524099 12.616615 28.384766 12.660156 C 28.245432 12.69499 28.128995 12.764641 28.033203 12.869141 C 27.94612 12.973641 27.884443 13.112943 27.849609 13.287109 C 27.814776 13.461276 27.801839 13.68813 27.810547 13.966797 L 27.927734 17.050781 C 27.936443 17.146573 27.967281 17.224198 28.019531 17.285156 C 28.071781 17.346115 28.15437 17.394854 28.267578 17.429688 C 28.380786 17.464521 28.533026 17.490396 28.724609 17.507812 C 28.924901 17.516521 29.169656 17.519531 29.457031 17.519531 C 29.909865 17.519531 30.253156 17.480719 30.488281 17.402344 C 30.732115 17.323969 30.858479 17.207531 30.867188 17.050781 L 30.972656 14.501953 C 31.599656 14.432286 32.169802 14.272073 32.683594 14.019531 C 33.206094 13.76699 33.649875 13.431672 34.015625 13.013672 C 34.390083 12.595672 34.676661 12.100141 34.876953 11.525391 C 35.085953 10.950641 35.191406 10.30588 35.191406 9.5917969 C 35.191406 8.9038385 35.082943 8.2511042 34.865234 7.6328125 C 34.647526 7.0145208 34.302281 6.4652865 33.832031 5.9863281 C 33.37049 5.5073698 32.774469 5.1282761 32.042969 4.8496094 C 31.311469 4.5622344 30.43188 4.4179688 29.404297 4.4179688 z M 3.1015625 6.0078125 C 3.7917347 5.9848772 4.6118854 6.0655171 5.5214844 6.2519531 C 6.0794745 6.366321 6.6747084 6.5236773 7.2929688 6.7148438 C 6.9763973 8.2186604 6.7668636 9.899461 6.6796875 11.703125 C 5.8949262 12.272129 5.1761071 12.848574 4.5078125 13.429688 C 3.7295366 12.72294 3.0162975 12.019735 2.4589844 11.345703 C 1.6701738 10.39169 1.1232245 9.4901171 0.85742188 8.7265625 C 0.59162056 7.9630092 0.60847621 7.3643347 0.87304688 6.9238281 C 1.1375856 6.4833761 1.6580166 6.1882451 2.4570312 6.0644531 C 2.6567849 6.0335048 2.8715051 6.0154576 3.1015625 6.0078125 z M 20.667969 6.6777344 C 20.898028 6.6856215 21.112773 6.7053561 21.3125 6.7363281 C 22.111405 6.8602161 22.631925 7.1552178 22.896484 7.5957031 C 23.160983 8.0358231 23.175959 8.6349401 22.910156 9.3984375 C 22.644354 10.161934 22.09741 11.061525 21.308594 12.015625 C 20.928687 12.475136 20.489065 12.947727 20.003906 13.425781 C 18.970307 12.456934 17.76893 11.484678 16.408203 10.546875 C 16.32333 9.4866962 16.186137 8.4922984 16.017578 7.5429688 C 16.800708 7.2828922 17.555328 7.0638206 18.248047 6.921875 C 19.157576 6.7355019 19.97779 6.654073 20.667969 6.6777344 z M 7.9023438 6.9277344 C 9.1378752 7.346621 10.451878 7.8854564 11.814453 8.5761719 C 10.991276 8.9886287 10.158241 9.4398861 9.3203125 9.9433594 C 8.6263555 10.360327 7.9729355 10.793965 7.3378906 11.232422 C 7.4351087 9.6761871 7.6315766 8.2365387 7.9023438 6.9277344 z M 15.40625 7.7675781 C 15.534785 8.5081274 15.638765 9.2841231 15.716797 10.097656 C 15.296664 9.8216591 14.892938 9.5400481 14.449219 9.2734375 C 14.060378 9.0398339 13.675975 8.8451513 13.289062 8.6308594 C 14.016171 8.3019033 14.720467 8.0149405 15.40625 7.7675781 z M 12.539062 8.9765625 C 13.05997 9.2557745 13.58002 9.5280764 14.105469 9.84375 C 14.700796 10.201456 15.25368 10.575104 15.804688 10.949219 C 15.863167 11.78087 15.896484 12.640488 15.896484 13.521484 C 15.896484 14.681163 15.826193 15.783626 15.726562 16.853516 C 15.198821 17.209867 14.673432 17.56694 14.105469 17.908203 C 13.580024 18.223987 13.059969 18.496002 12.539062 18.775391 C 11.592275 18.318002 10.632926 17.819648 9.6621094 17.236328 C 8.8420662 16.743601 8.0679134 16.232071 7.3339844 15.710938 C 7.2912202 14.995212 7.2558594 14.271923 7.2558594 13.521484 C 7.2558594 13.021777 7.2893483 12.547514 7.3085938 12.0625 C 8.0506278 11.53425 8.8316701 11.014598 9.6621094 10.515625 C 10.632991 9.9322662 11.592212 9.4339902 12.539062 8.9765625 z M 11.894531 11.041016 C 10.478118 11.041016 9.3339844 12.23337 9.3339844 13.681641 C 9.3339844 15.129911 10.478118 16.322266 11.894531 16.322266 C 13.310945 16.322266 14.455078 15.129911 14.455078 13.681641 C 14.455078 12.23337 13.310945 11.041017 11.894531 11.041016 z M 16.458984 11.390625 C 17.606933 12.207902 18.620075 13.04512 19.509766 13.875 C 18.609 14.715294 17.58513 15.565606 16.419922 16.392578 C 16.4914 15.465003 16.535156 14.509959 16.535156 13.521484 C 16.535156 12.791821 16.498433 12.088611 16.458984 11.390625 z M 11.894531 11.681641 C 12.952784 11.681641 13.814453 12.567245 13.814453 13.681641 C 13.814453 14.796036 12.952784 15.681641 11.894531 15.681641 C 10.836279 15.681641 9.9746094 14.796036 9.9746094 13.681641 C 9.9746094 12.567245 10.836279 11.68164 11.894531 11.681641 z M 6.6484375 12.5625 C 6.6402528 12.884935 6.6152344 13.193107 6.6152344 13.521484 C 6.6152344 14.099744 6.6487596 14.650067 6.6738281 15.208984 C 6.0824351 14.766482 5.5254711 14.323804 5.0078125 13.876953 C 5.5179521 13.436331 6.0666351 12.998947 6.6484375 12.5625 z M 4.5078125 14.324219 C 5.1835865 14.911481 5.9103145 15.493534 6.7050781 16.068359 C 6.8272652 17.86261 7.0714967 19.533778 7.421875 21 C 6.7558661 21.210593 6.1189853 21.379527 5.5214844 21.501953 C 4.3086965 21.750449 3.2560486 21.81139 2.4570312 21.6875 C 1.6580153 21.56361 1.1375922 21.268591 0.87304688 20.828125 C 0.60854822 20.388007 0.59161922 19.788888 0.85742188 19.025391 C 1.1232259 18.261894 1.6701698 17.362303 2.4589844 16.408203 C 3.0164337 15.733948 3.7292991 15.031557 4.5078125 14.324219 z M 20.003906 14.326172 C 20.489064 14.804234 20.928688 15.27678 21.308594 15.736328 C 22.097407 16.690507 22.644348 17.593736 22.910156 18.357422 C 23.175964 19.121109 23.161048 19.717709 22.896484 20.158203 C 22.631979 20.598335 22.111428 20.893862 21.3125 21.017578 C 20.513572 21.141296 19.460763 21.078658 18.248047 20.830078 C 17.519025 20.680644 16.718942 20.44412 15.890625 20.164062 C 16.07564 19.255161 16.218676 18.284844 16.324219 17.259766 C 17.717694 16.30494 18.949845 15.314195 20.003906 14.326172 z M 7.3925781 16.556641 C 8.011619 16.982237 8.6457056 17.405206 9.3203125 17.810547 C 10.157703 18.313697 10.989833 18.765497 11.8125 19.177734 C 10.496473 19.845228 9.2285065 20.365168 8.0292969 20.779297 C 7.732783 19.517975 7.5211158 18.084789 7.3925781 16.556641 z M 15.632812 17.708984 C 15.539178 18.491828 15.422257 19.233086 15.28125 19.939453 C 14.633477 19.702089 13.970941 19.430516 13.287109 19.121094 C 13.674517 18.9065 14.059874 18.712505 14.449219 18.478516 C 14.863526 18.229577 15.239008 17.966182 15.632812 17.708984 z M 29.482422 18.839844 C 29.116672 18.839844 28.817156 18.873693 28.582031 18.943359 C 28.346906 19.004318 28.155854 19.114734 28.007812 19.271484 C 27.868479 19.419526 27.76799 19.618552 27.707031 19.871094 C 27.654781 20.114927 27.628906 20.419406 27.628906 20.785156 C 27.628906 21.142198 27.654781 21.443667 27.707031 21.6875 C 27.76799 21.931333 27.868479 22.127349 28.007812 22.275391 C 28.155854 22.423432 28.346906 22.526932 28.582031 22.587891 C 28.817156 22.657557 29.116672 22.693359 29.482422 22.693359 C 29.830755 22.693359 30.122297 22.657557 30.357422 22.587891 C 30.601255 22.526932 30.79426 22.423432 30.933594 22.275391 C 31.081635 22.127349 31.180172 21.931333 31.232422 21.6875 C 31.29338 21.443667 31.324219 21.142198 31.324219 20.785156 C 31.324219 20.419406 31.29338 20.114927 31.232422 19.871094 C 31.180172 19.618552 31.081635 19.419526 30.933594 19.271484 C 30.79426 19.114734 30.601255 19.004318 30.357422 18.943359 C 30.122297 18.873693 29.830755 18.839844 29.482422 18.839844 z M 12.5625 19.523438 C 13.451877 19.942256 14.316528 20.300598 15.154297 20.603516 C 14.978368 21.377149 14.781245 22.105495 14.554688 22.75 C 14.143299 23.920311 13.655213 24.854672 13.136719 25.478516 C 12.618225 26.102359 12.093856 26.400391 11.576172 26.400391 C 11.058488 26.400391 10.53412 26.102359 10.015625 25.478516 C 9.4971308 24.854672 9.0090455 23.920311 8.5976562 22.75 C 8.4535202 22.339965 8.3215675 21.891853 8.1972656 21.427734 C 9.5795817 20.954295 11.04916 20.318198 12.5625 19.523438 z " /></svg>
