<?xml version="1.0" encoding="UTF-8" standalone="no"?>
<svg
   xmlns:dc="http://purl.org/dc/elements/1.1/"
   xmlns:cc="http://creativecommons.org/ns#"
   xmlns:rdf="http://www.w3.org/1999/02/22-rdf-syntax-ns#"
   xmlns:svg="http://www.w3.org/2000/svg"
   xmlns="http://www.w3.org/2000/svg"
   xmlns:sodipodi="http://sodipodi.sourceforge.net/DTD/sodipodi-0.dtd"
   xmlns:inkscape="http://www.inkscape.org/namespaces/inkscape"
   viewBox="0 0 60.085019 72.778061"
   height="72.778061"
   width="60.085018"
   xml:space="preserve"
   id="svg2"
   version="1.1"
   sodipodi:docname="QuantumCircuitExecution_Icon (1).svg"
   inkscape:version="1.0.2-2 (e86c870879, 2021-01-15)"><sodipodi:namedview
     pagecolor="#ffffff"
     bordercolor="#666666"
     borderopacity="1"
     objecttolerance="10"
     gridtolerance="10"
     guidetolerance="10"
     inkscape:pageopacity="0"
     inkscape:pageshadow="2"
     inkscape:window-width="1920"
     inkscape:window-height="991"
     id="namedview1589"
     showgrid="false"
     fit-margin-top="0"
     fit-margin-left="0"
     fit-margin-right="0"
     fit-margin-bottom="0"
     inkscape:zoom="7.3809525"
     inkscape:cx="66.697915"
     inkscape:cy="35.452149"
     inkscape:window-x="-9"
     inkscape:window-y="-9"
     inkscape:window-maximized="1"
     inkscape:current-layer="svg2" /><metadata
     id="metadata8"><rdf:RDF><cc:Work
         rdf:about=""><dc:format>image/svg+xml</dc:format><dc:type
           rdf:resource="http://purl.org/dc/dcmitype/StillImage" /><dc:title></dc:title></cc:Work></rdf:RDF></metadata><defs
     id="defs6"><clipPath
       id="clipPath20"
       clipPathUnits="userSpaceOnUse"><path
         style="clip-rule:evenodd"
         id="path18"
         d="M -4.768e-6,72 H 113.4 V 3.0518e-5 L -1.907e-6,7.629e-6" /></clipPath><clipPath
       id="clipPath30"
       clipPathUnits="userSpaceOnUse"><path
         style="clip-rule:evenodd"
         id="path28"
         d="M 1.907e-6,72 H 113.4 V 1.5259e-5 L 1.907e-6,7.629e-6" /></clipPath><clipPath
       id="clipPath40"
       clipPathUnits="userSpaceOnUse"><path
         style="clip-rule:evenodd"
         id="path38"
         d="M -3.815e-6,72 H 113.4 V 2.2888e-5 L -1.5259e-5,1.5259e-5" /></clipPath></defs><path
     style="color:#000000;font-style:normal;font-variant:normal;font-weight:normal;font-stretch:normal;font-size:medium;line-height:normal;font-family:sans-serif;font-variant-ligatures:normal;font-variant-position:normal;font-variant-caps:normal;font-variant-numeric:normal;font-variant-alternates:normal;font-variant-east-asian:normal;font-feature-settings:normal;font-variation-settings:normal;text-indent:0;text-align:start;text-decoration:none;text-decoration-line:none;text-decoration-style:solid;text-decoration-color:#000000;letter-spacing:normal;word-spacing:normal;text-transform:none;writing-mode:lr-tb;direction:ltr;text-orientation:mixed;dominant-baseline:auto;baseline-shift:baseline;text-anchor:start;white-space:normal;shape-padding:0;shape-margin:0;inline-size:0;clip-rule:nonzero;display:inline;overflow:visible;visibility:visible;isolation:auto;mix-blend-mode:normal;color-interpolation:sRGB;color-interpolation-filters:linearRGB;solid-color:#000000;solid-opacity:1;vector-effect:none;fill:#000000;fill-opacity:1;fill-rule:nonzero;stroke:none;stroke-linecap:butt;stroke-linejoin:miter;stroke-miterlimit:10;stroke-dasharray:none;stroke-dashoffset:0;stroke-opacity:1;color-rendering:auto;image-rendering:auto;shape-rendering:auto;text-rendering:auto;enable-background:accumulate;stop-color:#000000;stop-opacity:1;opacity:1"
     d="M 27.330078 25.439453 C 24.025766 25.439453 21.330078 28.135141 21.330078 31.439453 C 21.330078 34.743765 24.025766 37.439453 27.330078 37.439453 C 30.63439 37.439453 33.330078 34.743765 33.330078 31.439453 C 33.330078 28.135141 30.63439 25.439453 27.330078 25.439453 z M 27.330078 27.039062 C 29.769766 27.039062 31.730469 28.999765 31.730469 31.439453 C 31.730469 33.879141 29.769766 35.839844 27.330078 35.839844 C 24.89039 35.839844 22.929688 33.879141 22.929688 31.439453 C 22.929688 28.999765 24.89039 27.039063 27.330078 27.039062 z "
     id="path12" /><g
     id="g14"
     transform="matrix(1.3333333,0,0,-1.3333333,-19.469826,85.119998)"><g
       clip-path="url(#clipPath20)"
       id="g16"><path
         style="color:#000000;font-style:normal;font-variant:normal;font-weight:normal;font-stretch:normal;font-size:medium;line-height:normal;font-family:sans-serif;font-variant-ligatures:normal;font-variant-position:normal;font-variant-caps:normal;font-variant-numeric:normal;font-variant-alternates:normal;font-variant-east-asian:normal;font-feature-settings:normal;font-variation-settings:normal;text-indent:0;text-align:start;text-decoration:none;text-decoration-line:none;text-decoration-style:solid;text-decoration-color:#000000;letter-spacing:normal;word-spacing:normal;text-transform:none;writing-mode:lr-tb;direction:ltr;text-orientation:mixed;dominant-baseline:auto;baseline-shift:baseline;text-anchor:start;white-space:normal;shape-padding:0;shape-margin:0;inline-size:0;clip-rule:nonzero;display:inline;overflow:visible;visibility:visible;isolation:auto;mix-blend-mode:normal;color-interpolation:sRGB;color-interpolation-filters:linearRGB;solid-color:#000000;solid-opacity:1;vector-effect:none;fill:#000000;fill-opacity:1;fill-rule:nonzero;stroke:none;stroke-linecap:butt;stroke-linejoin:miter;stroke-miterlimit:10;stroke-dasharray:none;stroke-dashoffset:0;stroke-opacity:1;color-rendering:auto;image-rendering:auto;shape-rendering:auto;text-rendering:auto;enable-background:accumulate;stop-color:#000000;stop-opacity:1;opacity:1"
         d="M 48.878906 26.410156 C 47.925865 26.467682 46.898689 26.612497 45.808594 26.835938 C 41.448212 27.729699 36.079171 29.908414 30.660156 33.164062 C 25.24165 36.420214 20.797075 40.13804 17.960938 43.568359 C 16.542869 45.283519 15.523987 46.924828 14.996094 48.441406 C 14.468201 49.957984 14.433153 51.403131 15.125 52.554688 C 15.816897 53.706024 17.108438 54.353813 18.695312 54.599609 C 20.282187 54.845405 22.210434 54.714459 24.390625 54.267578 C 28.751007 53.373816 34.120048 51.195102 39.539062 47.939453 C 44.957576 44.683297 49.40032 40.967426 52.236328 37.537109 C 53.654332 35.821951 54.67519 34.178663 55.203125 32.662109 C 55.73106 31.145556 55.765771 29.702355 55.074219 28.550781 C 54.382321 27.399444 53.090781 26.751655 51.503906 26.505859 C 50.710469 26.382961 49.831947 26.35263 48.878906 26.410156 z M 51.3125 27.740234 C 52.678063 27.951751 53.556851 28.452696 54.001953 29.193359 C 54.446901 29.934286 54.475799 30.946882 54.021484 32.251953 C 53.56717 33.557024 52.627933 35.101893 51.273438 36.740234 C 48.564446 40.016918 44.211018 43.674296 38.894531 46.869141 C 33.577546 50.063492 28.305743 52.189231 24.140625 53.042969 C 22.058066 53.469838 20.252282 53.574798 18.886719 53.363281 C 17.521156 53.151765 16.642368 52.650819 16.197266 51.910156 C 15.752113 51.169213 15.721518 50.156609 16.175781 48.851562 C 16.630044 47.546516 17.571225 46.001622 18.925781 44.363281 C 21.634893 41.0866 25.988194 37.431177 31.304688 34.236328 C 36.621673 31.041977 41.893476 28.914285 46.058594 28.060547 C 48.141153 27.633678 49.946937 27.528718 51.3125 27.740234 z "
         id="path22" /></g></g><g
     id="g24"
     transform="matrix(1.3333333,0,0,-1.3333333,-19.469826,85.119998)"><g
       clip-path="url(#clipPath30)"
       id="g26"><path
         style="color:#000000;font-style:normal;font-variant:normal;font-weight:normal;font-stretch:normal;font-size:medium;line-height:normal;font-family:sans-serif;font-variant-ligatures:normal;font-variant-position:normal;font-variant-caps:normal;font-variant-numeric:normal;font-variant-alternates:normal;font-variant-east-asian:normal;font-feature-settings:normal;font-variation-settings:normal;text-indent:0;text-align:start;text-decoration:none;text-decoration-line:none;text-decoration-style:solid;text-decoration-color:#000000;letter-spacing:normal;word-spacing:normal;text-transform:none;writing-mode:lr-tb;direction:ltr;text-orientation:mixed;dominant-baseline:auto;baseline-shift:baseline;text-anchor:start;white-space:normal;shape-padding:0;shape-margin:0;inline-size:0;clip-rule:nonzero;display:inline;overflow:visible;visibility:visible;isolation:auto;mix-blend-mode:normal;color-interpolation:sRGB;color-interpolation-filters:linearRGB;solid-color:#000000;solid-opacity:1;vector-effect:none;fill:#000000;fill-opacity:1;fill-rule:nonzero;stroke:none;stroke-linecap:butt;stroke-linejoin:miter;stroke-miterlimit:10;stroke-dasharray:none;stroke-dashoffset:0;stroke-opacity:1;color-rendering:auto;image-rendering:auto;shape-rendering:auto;text-rendering:auto;enable-background:accumulate;stop-color:#000000;stop-opacity:1;opacity:1"
         d="M 34.5 17.279297 C 33.167844 17.279297 31.957023 18.049025 30.933594 19.279297 C 29.910165 20.509569 29.028936 22.227026 28.291016 24.324219 C 26.815176 28.518604 25.919922 34.240498 25.919922 40.560547 C 25.919922 46.880596 26.815176 52.60249 28.291016 56.796875 C 29.028936 58.894067 29.910165 60.611525 30.933594 61.841797 C 31.957023 63.072069 33.167844 63.839844 34.5 63.839844 C 35.832156 63.839844 37.042977 63.072069 38.066406 61.841797 C 39.089835 60.611525 39.971064 58.894067 40.708984 56.796875 C 42.184824 52.60249 43.080078 46.880596 43.080078 40.560547 C 43.080078 34.240498 42.184824 28.518604 40.708984 24.324219 C 39.971064 22.227026 39.089835 20.509569 38.066406 19.279297 C 37.042977 18.049025 35.832156 17.279297 34.5 17.279297 z M 34.5 18.480469 C 35.371344 18.480469 36.258554 18.981834 37.144531 20.046875 C 38.030509 21.111916 38.869967 22.715599 39.576172 24.722656 C 40.988582 28.736771 41.880859 34.354596 41.880859 40.560547 C 41.880859 46.766498 40.988582 52.384322 39.576172 56.398438 C 38.869967 58.405495 38.030509 60.009178 37.144531 61.074219 C 36.258554 62.139259 35.371344 62.640625 34.5 62.640625 C 33.628656 62.640625 32.741446 62.139259 31.855469 61.074219 C 30.969491 60.009178 30.130033 58.405495 29.423828 56.398438 C 28.011418 52.384322 27.119141 46.766498 27.119141 40.560547 C 27.119141 34.354596 28.011418 28.736771 29.423828 24.722656 C 30.130033 22.715599 30.969491 21.111916 31.855469 20.046875 C 32.741446 18.981834 33.628656 18.480469 34.5 18.480469 z "
         id="path32" /></g></g><g
     id="g34"
     transform="matrix(1.3333333,0,0,-1.3333333,-19.469826,85.119998)"><g
       clip-path="url(#clipPath40)"
       id="g36"><path
         style="color:#000000;font-style:normal;font-variant:normal;font-weight:normal;font-stretch:normal;font-size:medium;line-height:normal;font-family:sans-serif;font-variant-ligatures:normal;font-variant-position:normal;font-variant-caps:normal;font-variant-numeric:normal;font-variant-alternates:normal;font-variant-east-asian:normal;font-feature-settings:normal;font-variation-settings:normal;text-indent:0;text-align:start;text-decoration:none;text-decoration-line:none;text-decoration-style:solid;text-decoration-color:#000000;letter-spacing:normal;word-spacing:normal;text-transform:none;writing-mode:lr-tb;direction:ltr;text-orientation:mixed;dominant-baseline:auto;baseline-shift:baseline;text-anchor:start;white-space:normal;shape-padding:0;shape-margin:0;inline-size:0;clip-rule:nonzero;display:inline;overflow:visible;visibility:visible;isolation:auto;mix-blend-mode:normal;color-interpolation:sRGB;color-interpolation-filters:linearRGB;solid-color:#000000;solid-opacity:1;vector-effect:none;fill:#000000;fill-opacity:1;fill-rule:nonzero;stroke:none;stroke-linecap:butt;stroke-linejoin:miter;stroke-miterlimit:10;stroke-dasharray:none;stroke-dashoffset:0;stroke-opacity:1;color-rendering:auto;image-rendering:auto;shape-rendering:auto;text-rendering:auto;enable-background:accumulate;stop-color:#000000;stop-opacity:1;opacity:1"
         d="M 21.320312 25.257812 C 20.367285 25.200329 19.488742 25.228622 18.695312 25.351562 C 17.108454 25.597443 15.816891 26.245158 15.125 27.396484 C 14.433094 28.547836 14.468201 29.993239 14.996094 31.509766 C 15.523986 33.026292 16.542872 34.667593 17.960938 36.382812 C 20.797069 39.813252 25.241638 43.530951 30.660156 46.787109 C 36.079171 50.042758 41.448321 52.221596 45.808594 53.115234 C 47.98873 53.562053 49.917141 53.691266 51.503906 53.445312 C 53.090672 53.199359 54.380678 52.552022 55.072266 51.400391 C 55.764161 50.249057 55.730936 48.803626 55.203125 47.287109 C 54.675314 45.770593 53.654338 44.129228 52.236328 42.414062 C 49.400308 38.983732 44.956153 35.267385 39.537109 32.011719 C 34.118569 28.755547 28.750902 26.575279 24.390625 25.681641 C 23.300556 25.458231 22.27334 25.315296 21.320312 25.257812 z M 18.886719 26.587891 C 20.252267 26.376302 22.058139 26.479444 24.140625 26.90625 C 28.305598 27.759861 33.578072 29.887203 38.894531 33.082031 C 44.211487 36.276365 48.564457 39.934268 51.273438 43.210938 C 52.627928 44.849272 53.567296 46.394235 54.021484 47.699219 C 54.475673 49.004202 54.447057 50.015193 54.001953 50.755859 C 53.557041 51.496728 52.677891 51.999298 51.3125 52.210938 C 49.947109 52.422577 48.141082 52.317431 46.058594 51.890625 C 41.893616 51.037013 36.621673 48.909195 31.304688 45.714844 C 25.988206 42.520002 21.6349 38.862748 18.925781 35.585938 C 17.571222 33.947532 16.630045 32.402661 16.175781 31.097656 C 15.721518 29.792651 15.752172 28.781664 16.197266 28.041016 C 16.642374 27.300342 17.521171 26.799479 18.886719 26.587891 z "
         id="path42" /></g></g><path
     id="path44"
     style="fill:#000000;fill-opacity:1;fill-rule:evenodd;stroke:none;stroke-width:0.960316"
     d="M 41.976469,51.345704 C 39.967844,52.205893 38.558856,54.219802 38.558856,56.567096 38.558856,59.696822 41.063715,62.233648 44.153996,62.233648 47.24429,62.233648 49.75106,59.696822 49.75106,56.567096 49.75106,53.437371 47.24429,50.900544 44.153996,50.900544 43.381663,50.900544 42.645387,51.058974 41.976469,51.345704 Z M 40.956506,40.471367 H 47.350551 V 45.888123 L 49.437943,46.747341 53.252182,42.884756 57.768525,47.463679 53.963784,51.3146 C 54.333826,51.877368 54.590005,52.504286 54.789261,53.157445 H 59.969779 V 59.633644 H 54.846185 C 54.59949,60.595888 54.219964,61.502731 53.726574,62.330845 L 57.379513,66.027224 52.853672,70.607121 48.897128,66.599713 C 48.429349,66.910741 47.898967,67.100273 47.350551,67.246068 V 72.662825 H 40.956506 V 67.246068 L 39.072164,66.459749 35.268371,70.312616 30.747272,65.733693 34.423924,62.010097 C 33.996009,61.278208 33.681943,60.477309 33.464666,59.633644 H 28.431221 V 53.157445 H 33.520655 L 34.426769,51.123124 30.745375,47.393697 35.266474,42.814774 39.069318,46.666668 C 39.648087,46.308013 40.289485,46.065994 40.956506,45.888123 Z" /><path
     style="color:#000000;font-style:normal;font-variant:normal;font-weight:normal;font-stretch:normal;font-size:medium;line-height:normal;font-family:sans-serif;font-variant-ligatures:normal;font-variant-position:normal;font-variant-caps:normal;font-variant-numeric:normal;font-variant-alternates:normal;font-variant-east-asian:normal;font-feature-settings:normal;font-variation-settings:normal;text-indent:0;text-align:start;text-decoration:none;text-decoration-line:none;text-decoration-style:solid;text-decoration-color:#000000;letter-spacing:normal;word-spacing:normal;text-transform:none;writing-mode:lr-tb;direction:ltr;text-orientation:mixed;dominant-baseline:auto;baseline-shift:baseline;text-anchor:start;white-space:normal;shape-padding:0;shape-margin:0;inline-size:0;clip-rule:nonzero;display:inline;overflow:visible;visibility:visible;isolation:auto;mix-blend-mode:normal;color-interpolation:sRGB;color-interpolation-filters:linearRGB;solid-color:#000000;solid-opacity:1;vector-effect:none;fill:#000000;fill-opacity:1;fill-rule:nonzero;stroke:none;stroke-linecap:butt;stroke-linejoin:miter;stroke-miterlimit:10;stroke-dasharray:none;stroke-dashoffset:0;stroke-opacity:1;color-rendering:auto;image-rendering:auto;shape-rendering:auto;text-rendering:auto;enable-background:accumulate;stop-color:#000000;stop-opacity:1;opacity:1"
     d="M 40.841797 40.355469 L 40.841797 40.470703 L 40.841797 45.8125 C 40.230988 45.98132 39.640069 46.208462 39.097656 46.53125 L 35.265625 42.650391 L 30.583984 47.394531 L 34.289062 51.148438 L 33.445312 53.042969 L 28.316406 53.042969 L 28.316406 59.748047 L 33.388672 59.748047 C 33.599078 60.536813 33.893821 61.288714 34.289062 61.982422 L 30.585938 65.734375 L 35.267578 70.476562 L 39.099609 66.595703 L 40.841797 67.322266 L 40.841797 72.777344 L 47.464844 72.777344 L 47.464844 67.322266 C 47.955837 67.186905 48.432134 67.006322 48.867188 66.734375 L 52.853516 70.771484 L 57.541016 66.027344 L 53.861328 62.304688 C 54.32217 61.515114 54.680228 60.65648 54.921875 59.748047 L 60.085938 59.748047 L 60.085938 53.042969 L 54.865234 53.042969 C 54.677313 52.444008 54.433975 51.868778 54.099609 51.339844 L 57.929688 47.462891 L 53.251953 42.720703 L 49.410156 46.611328 L 47.464844 45.810547 L 47.464844 40.355469 L 40.841797 40.355469 z M 41.072266 40.585938 L 47.234375 40.585938 L 47.234375 45.964844 L 49.464844 46.882812 L 53.251953 43.048828 L 57.607422 47.462891 L 53.816406 51.300781 L 53.867188 51.376953 C 54.229059 51.927295 54.48247 52.54493 54.679688 53.191406 L 54.703125 53.273438 L 59.855469 53.273438 L 59.855469 59.517578 L 54.755859 59.517578 L 54.734375 59.605469 C 54.490416 60.557043 54.114709 61.452827 53.626953 62.271484 L 53.582031 62.347656 L 57.216797 66.027344 L 52.853516 70.441406 L 48.912109 66.451172 L 48.833984 66.503906 C 48.381675 66.804648 47.862592 66.990602 47.320312 67.134766 L 47.234375 67.158203 L 47.234375 72.546875 L 41.072266 72.546875 L 41.072266 67.169922 L 39.044922 66.324219 L 35.267578 70.148438 L 30.910156 65.734375 L 34.568359 62.027344 L 34.523438 61.951172 C 34.101611 61.229696 33.791153 60.440219 33.576172 59.605469 L 33.554688 59.517578 L 28.546875 59.517578 L 28.546875 53.273438 L 33.595703 53.273438 L 34.564453 51.097656 L 30.908203 47.394531 L 35.265625 42.980469 L 39.052734 46.8125 L 39.130859 46.763672 C 39.696956 46.41287 40.326682 46.175904 40.986328 46 L 41.072266 45.976562 L 41.072266 40.585938 z M 44.154297 50.785156 C 43.366204 50.785156 42.614575 50.947496 41.931641 51.240234 C 39.881108 52.11837 38.443359 54.172997 38.443359 56.566406 C 38.443359 59.757619 41.000949 62.349609 44.154297 62.349609 C 47.307657 62.349609 49.867187 59.757666 49.867188 56.566406 C 49.867188 53.375147 47.307657 50.785156 44.154297 50.785156 z M 44.154297 51.015625 C 47.181525 51.015625 49.636719 53.498215 49.636719 56.566406 C 49.636719 59.634598 47.181525 62.119141 44.154297 62.119141 C 41.127082 62.119141 38.673828 59.634645 38.673828 56.566406 C 38.673828 54.265228 40.054767 52.293414 42.021484 51.451172 C 42.676386 51.17045 43.397723 51.015625 44.154297 51.015625 z "
     id="path46" /></svg>
