<svg width="133" height="112" xmlns="http://www.w3.org/2000/svg" xmlns:xlink="http://www.w3.org/1999/xlink" overflow="hidden"><defs><clipPath id="clip0"><rect x="339" y="357" width="133" height="112"/></clipPath></defs><g clip-path="url(#clip0)" transform="translate(-339 -357)"><path d="M340.5 370.5 469.803 370.5" stroke="#000000" stroke-width="5.33333" stroke-miterlimit="8" fill="none" fill-rule="evenodd"/><path d="M340.5 408.5 469.803 408.5" stroke="#000000" stroke-width="5.33333" stroke-miterlimit="8" fill="none" fill-rule="evenodd"/><path d="M340.5 450.5 469.803 450.5" stroke="#000000" stroke-width="5.33333" stroke-miterlimit="8" fill="none" fill-rule="evenodd"/><path d="M380.5 370.5 380.5 465.311" stroke="#000000" stroke-width="5.33333" stroke-miterlimit="8" fill="none" fill-rule="evenodd"/><path d="M364.5 450C364.5 440.887 371.664 433.5 380.5 433.5 389.337 433.5 396.5 440.887 396.5 450 396.5 459.113 389.337 466.5 380.5 466.5 371.664 466.5 364.5 459.113 364.5 450Z" stroke="#000000" stroke-width="5.33333" stroke-miterlimit="8" fill="none" fill-rule="evenodd"/><path d="M370.5 371.5C370.5 365.425 375.201 360.5 381 360.5 386.799 360.5 391.5 365.425 391.5 371.5 391.5 377.575 386.799 382.5 381 382.5 375.201 382.5 370.5 377.575 370.5 371.5Z" stroke="#000000" stroke-width="5.33333" stroke-miterlimit="8" fill="#404040" fill-rule="evenodd"/><path d="M416.5 408.5C416.5 399.664 423.664 392.5 432.5 392.5 441.337 392.5 448.5 399.664 448.5 408.5 448.5 417.337 441.337 424.5 432.5 424.5 423.664 424.5 416.5 417.337 416.5 408.5Z" stroke="#000000" stroke-width="5.33333" stroke-miterlimit="8" fill="none" fill-rule="evenodd"/><path d="M421.5 449C421.5 443.201 426.425 438.5 432.5 438.5 438.575 438.5 443.5 443.201 443.5 449 443.5 454.799 438.575 459.5 432.5 459.5 426.425 459.5 421.5 454.799 421.5 449Z" stroke="#000000" stroke-width="5.33333" stroke-miterlimit="8" fill="#404040" fill-rule="evenodd"/><path d="M432.5 393.5 432.5 448.456" stroke="#000000" stroke-width="5.33333" stroke-miterlimit="8" fill="none" fill-rule="evenodd"/></g></svg>