<svg width="189" height="98" xmlns="http://www.w3.org/2000/svg" xmlns:xlink="http://www.w3.org/1999/xlink" overflow="hidden"><defs><clipPath id="clip0"><rect x="0" y="0" width="189" height="98"/></clipPath></defs><g clip-path="url(#clip0)"><rect x="0" y="0" width="189" height="97.6678" fill="#FFFFFF"/><path d="M159.256 41.2501C156.327 42.5817 154.272 45.699 154.272 49.3322 154.272 54.1765 157.926 58.1036 162.432 58.1036 166.939 58.1036 170.592 54.1765 170.592 49.3322 170.592 44.4879 166.939 40.5608 162.432 40.5608 161.305 40.5608 160.232 40.8062 159.256 41.2501ZM157.769 24.417 167.095 24.417 167.095 32.8013 170.133 34.1316 175.695 28.1523 182.29 35.2407 176.744 41.2018C177.28 42.0724 177.653 43.0428 177.942 44.0548L185.5 44.0548 185.5 54.0792 178.023 54.0792C177.662 55.5681 177.116 56.9726 176.398 58.2539L181.722 63.9767 175.127 71.065 169.356 64.8614C168.668 65.3437 167.895 65.6367 167.095 65.8632L167.095 74.2475 157.769 74.2475 157.769 65.8631 155.021 64.6453 149.472 70.6093 142.878 63.521 148.24 57.7574C147.617 56.6253 147.158 55.3847 146.841 54.0792L139.5 54.0792 139.5 44.0548 146.923 44.0548 148.245 40.9052 142.875 35.1327 149.469 28.0443 155.016 34.007C155.861 33.4518 156.795 33.0773 157.769 32.8013Z" stroke="#000000" stroke-width="0.333333" stroke-miterlimit="8" fill-rule="evenodd"/><path d="M140.058 22.0173 133.94 18.8051 134.008 18.8387 127.744 15.9446 127.854 15.9903 121.235 13.5488 121.422 13.6044 114.341 11.9946 114.476 12.0189 110.636 11.5083 110.745 11.5187 106.604 11.2712 106.677 11.2738 97.9131 11.175 98.0315 11.1716 89.4865 11.7487 89.5702 11.7407 85.5887 12.2342 85.6512 12.2251 82.05 12.8259 82.2156 12.7886 75.9783 14.5697 76.1906 14.4914 70.7369 16.985 70.8853 16.9068 67.6532 18.8471 66.1053 16.286 69.4094 14.3025 75.0428 11.7267 81.4709 9.89108 85.1871 9.27107 89.2417 8.76852 97.8878 8.18464 106.747 8.28457 110.979 8.5375 114.941 9.06439 122.185 10.7111 128.951 13.207 135.305 16.1421 141.457 19.372ZM70.5689 20.5374 60.5629 21.5968 65.7162 12.9835Z"/><path d="M64.1385 76.641 70.3768 79.6151 70.3073 79.5841 76.6793 82.2347 76.5674 82.1933 83.2761 84.3779 83.087 84.3296 90.2255 85.6654 90.0894 85.6463 93.9464 86.0086 93.8374 86.0024 97.9846 86.0901 97.9118 86.0904 106.673 85.8515 106.555 85.8594 115.071 84.9536 114.987 84.9648 118.947 84.3183 118.885 84.3298 122.46 83.5907 122.296 83.6343 128.459 81.6142 128.25 81.7007 133.603 78.9988 133.458 79.0827 136.612 77.0194 138.258 79.5189 135.034 81.6282 129.505 84.4191 123.152 86.501 119.463 87.2637 115.431 87.9221 106.814 88.8386 97.9574 89.0801 93.7192 88.9904 89.7395 88.6165 82.4373 87.2501 75.5788 85.0167 69.1166 82.3286 62.8439 79.3381ZM133.633 75.4426 143.591 73.9985 138.775 82.8039Z"/><path d="M0 11.9835C-4.02773e-15 5.36519 14.1641-1.52566e-15 31.6363-3.05131e-15 49.1086-6.10263e-15 63.2726 5.36519 63.2726 11.9835 63.2726 18.6018 49.1086 23.967 31.6363 23.967 14.1641 23.967-2.01386e-14 18.6018 0 11.9835Z" stroke="#000000" stroke-width="1.32994" stroke-miterlimit="8" fill="none" fill-rule="evenodd" transform="matrix(0.868236 -0.499577 -0.501276 -0.865292 13.7639 74.1574)"/><path d="M0 11.9835C-4.02773e-15 5.36519 14.1641-1.52566e-15 31.6363-3.05131e-15 49.1086-6.10263e-15 63.2726 5.36519 63.2726 11.9835 63.2726 18.6018 49.1086 23.967 31.6363 23.967 14.1641 23.967-2.01386e-14 18.6018 0 11.9835Z" stroke="#000000" stroke-width="1.32994" stroke-miterlimit="8" fill="none" fill-rule="evenodd" transform="matrix(0.868236 0.499577 0.501276 -0.865292 2.0433 42.5481)"/><path d="M0 10.9627C-4.31398e-15 4.90817 15.1707-1.3957e-15 33.8847-2.7914e-15 52.5988-5.5828e-15 67.7695 4.90817 67.7695 10.9627 67.7695 17.0173 52.5988 21.9254 33.8847 21.9254 15.1707 21.9254-2.15699e-14 17.0173 0 10.9627Z" stroke="#000000" stroke-width="1.32881" stroke-miterlimit="8" fill="none" fill-rule="evenodd" transform="matrix(6.14406e-17 1 1.0034 -6.12323e-17 24.5001 14.4509)"/><path d="M29.5001 48.3356C29.5001 45.0332 31.9625 42.356 35.0001 42.356 38.0376 42.356 40.5001 45.0332 40.5001 48.3356 40.5001 51.6381 38.0376 54.3153 35.0001 54.3153 31.9625 54.3153 29.5001 51.6381 29.5001 48.3356Z" stroke="#000000" stroke-width="1.33333" stroke-miterlimit="8" fill="none" fill-rule="evenodd"/></g></svg>