<svg width="161" height="161" xmlns="http://www.w3.org/2000/svg" xmlns:xlink="http://www.w3.org/1999/xlink" overflow="hidden"><defs><clipPath id="clip0"><rect x="573" y="96" width="161" height="161"/></clipPath></defs><g clip-path="url(#clip0)" transform="translate(-573 -96)"><path d="M3.41768-3.41768 3.42452-3.41085C5.31205-1.52331 5.31205 1.53698 3.42452 3.42452 1.53698 5.31205-1.52331 5.31205-3.41085 3.42452L-3.41768 3.41768C-5.30522 1.53015-5.30522-1.53015-3.41768-3.41768-1.53015-5.30522 1.53015-5.30522 3.41768-3.41768ZM17.0952 10.2599 17.1021 10.2667C18.9896 12.1543 18.9896 15.2146 17.1021 17.1021 15.2146 18.9896 12.1543 18.9896 10.2667 17.1021L10.2599 17.0952C8.37235 15.2077 8.37235 12.1474 10.2599 10.2599 12.1474 8.37235 15.2077 8.37235 17.0952 10.2599ZM30.7728 23.9375 30.7797 23.9443C32.6672 25.8318 32.6672 28.8921 30.7797 30.7797 28.8921 32.6672 25.8318 32.6672 23.9443 30.7797L23.9375 30.7728C22.0499 28.8853 22.0499 25.825 23.9375 23.9375 25.825 22.0499 28.8853 22.0499 30.7728 23.9375ZM44.4504 37.615 44.4572 37.6218C46.3447 39.5094 46.3447 42.5697 44.4572 44.4572 42.5697 46.3447 39.5094 46.3447 37.6218 44.4572L37.615 44.4504C35.7275 42.5628 35.7275 39.5026 37.615 37.615 39.5026 35.7275 42.5628 35.7275 44.4504 37.615ZM58.1279 51.2926 58.1348 51.2994C60.0223 53.187 60.0223 56.2472 58.1348 58.1348 56.2472 60.0223 53.187 60.0223 51.2994 58.1348L51.2926 58.1279C49.405 56.2404 49.405 53.1801 51.2926 51.2926 53.1801 49.405 56.2404 49.405 58.1279 51.2926ZM71.8055 64.9701 71.8123 64.977C73.6999 66.8645 73.6999 69.9248 71.8123 71.8123 69.9248 73.6999 66.8645 73.6999 64.977 71.8123L64.9701 71.8055C63.0826 69.918 63.0826 66.8577 64.9701 64.9701 66.8577 63.0826 69.918 63.0826 71.8055 64.9701ZM85.4831 78.6477 85.4899 78.6545C87.3774 80.5421 87.3774 83.6024 85.4899 85.4899 83.6024 87.3774 80.5421 87.3774 78.6545 85.4899L78.6477 85.4831C76.7602 83.5955 76.7602 80.5352 78.6477 78.6477 80.5352 76.7602 83.5955 76.7602 85.4831 78.6477ZM70.6822 40.3878 94.4849 94.4849 40.3878 70.6822C37.9445 69.6071 36.8353 66.7549 37.9103 64.3116 38.9854 61.8682 41.8376 60.759 44.2809 61.8341L87.002 80.6314 80.6314 87.002 61.8341 44.2809C60.759 41.8376 61.8682 38.9854 64.3116 37.9103 66.7549 36.8353 69.6071 37.9445 70.6822 40.3878Z" transform="matrix(1 0 0 -1 578 251.488)"/></g></svg>