<svg width="180" height="180"
    xmlns="http://www.w3.org/2000/svg"
    xmlns:xlink="http://www.w3.org/1999/xlink" overflow="hidden">
    <defs>
        <clipPath id="clip0">
            <rect x="410" y="115" width="180" height="180"/>
        </clipPath>
    </defs>
    <g clip-path="url(#clip0)" transform="translate(-410 -115)">
        <path d="M457.659 139.5 518.325 139.5 548.5 169.675 548.5 264.5 457.5 264.5 457.5 139.659C457.5 139.571 457.571 139.5 457.659 139.5Z" stroke="#34212E" stroke-width="6.66667" stroke-linecap="round" stroke-linejoin="round" stroke-miterlimit="10" fill="none" fill-rule="evenodd"/>
        <path d="M518.5 139.5 518.5 170.508" stroke="#34212E" stroke-width="6.66667" stroke-linecap="round" stroke-linejoin="round" stroke-miterlimit="10" fill="none" fill-rule="evenodd"/>
        <path d="M0 0 29.4488 0.000104987" stroke="#34212E" stroke-width="6.66667" stroke-linecap="round" stroke-linejoin="round" stroke-miterlimit="10" fill="none" fill-rule="evenodd" transform="matrix(-1 0 0 1 547.949 170.5)"/>
        <path d="M489.5 191.392C489.5 190.347 490.347 189.5 491.392 189.5L514.608 189.5C515.653 189.5 516.5 190.347 516.5 191.392L516.5 207.608C516.5 208.653 515.653 209.5 514.608 209.5L491.392 209.5C490.347 209.5 489.5 208.653 489.5 207.608Z" stroke="#34212E" stroke-width="5.33333" stroke-linecap="round" stroke-linejoin="round" stroke-miterlimit="10" fill="#F7F7F8" fill-rule="evenodd"/>
        <path d="M474.5 236.541C474.5 235.966 474.966 235.5 475.541 235.5L484.46 235.5C485.034 235.5 485.5 235.966 485.5 236.541L485.5 247.46C485.5 248.034 485.034 248.5 484.46 248.5L475.541 248.5C474.966 248.5 474.5 248.034 474.5 247.46Z" stroke="#34212E" stroke-width="5.33333" stroke-linecap="round" stroke-linejoin="round" stroke-miterlimit="10" fill="#34212E" fill-rule="evenodd" fill-opacity="0.941176"/>
        <path d="M497.5 236.541C497.5 235.966 497.966 235.5 498.541 235.5L507.46 235.5C508.034 235.5 508.5 235.966 508.5 236.541L508.5 247.46C508.5 248.034 508.034 248.5 507.46 248.5L498.541 248.5C497.966 248.5 497.5 248.034 497.5 247.46Z" stroke="#34212E" stroke-width="5.33333" stroke-linecap="round" stroke-linejoin="round" stroke-miterlimit="10" fill="#34212E" fill-rule="evenodd"/>
        <path d="M520.5 236.541C520.5 235.966 520.966 235.5 521.541 235.5L530.46 235.5C531.034 235.5 531.5 235.966 531.5 236.541L531.5 247.46C531.5 248.034 531.034 248.5 530.46 248.5L521.541 248.5C520.966 248.5 520.5 248.034 520.5 247.46Z" stroke="#34212E" stroke-width="5.33333" stroke-linecap="round" stroke-linejoin="round" stroke-miterlimit="10" fill="#34212E" fill-rule="evenodd"/>
        <path d="M503.5 209.5 503.5 234.845" stroke="#34212E" stroke-width="5.33333" stroke-linecap="round" stroke-linejoin="round" stroke-miterlimit="10" fill="none" fill-rule="evenodd"/>
        <path d="M503.315 209.5 503.315 222.173 480.5 222.173 480.5 234.845" stroke="#34212E" stroke-width="5.33333" stroke-linecap="round" stroke-linejoin="round" stroke-miterlimit="10" fill="none" fill-rule="evenodd"/>
        <path d="M0 0 12.6725 0 12.6725 22.8152 25.345 22.8152" stroke="#34212E" stroke-width="5.33333" stroke-linecap="round" stroke-linejoin="round" stroke-miterlimit="10" fill="none" fill-rule="evenodd" transform="matrix(1.83697e-16 1 1 -1.83697e-16 503.5 209.5)"/>
    </g>
</svg>