<svg width="121" height="121" xmlns="http://www.w3.org/2000/svg" xmlns:xlink="http://www.w3.org/1999/xlink" overflow="hidden"><defs><clipPath id="clip0"><rect x="466" y="329" width="121" height="121"/></clipPath></defs><g clip-path="url(#clip0)" transform="translate(-466 -329)"><path d="M583.5 352.337C583.5 362.744 558.199 366.406 527 366.406 495.801 366.406 470.5 362.744 470.5 352.337" stroke="#34212E" stroke-width="6.66667" stroke-linecap="round" stroke-linejoin="round" stroke-miterlimit="10" fill="none" fill-rule="evenodd"/><path d="M470.5 352.337C470.5 341.93 495.801 333.5 527 333.5 558.199 333.5 583.5 341.93 583.5 352.337L583.5 427.663C583.5 438.07 558.199 446.5 527 446.5 495.801 446.5 470.5 438.07 470.5 427.663L470.5 352.337Z" stroke="#34212E" stroke-width="6.66667" stroke-linecap="round" stroke-linejoin="round" stroke-miterlimit="10" fill="none" fill-rule="evenodd"/><path d="M583.5 365.954C583.5 372.407 564.279 377.958 537.679 379.178 530.627 379.5 523.373 379.5 516.322 379.178 489.721 377.958 470.5 372.407 470.5 365.954" stroke="#34212E" stroke-width="6.66667" stroke-linecap="round" stroke-linejoin="round" stroke-miterlimit="10" fill="none" fill-rule="evenodd"/><path d="M470.5 366.235 470.5 365.954" stroke="#34212E" stroke-width="6.66667" stroke-linecap="round" stroke-linejoin="round" stroke-miterlimit="10" fill="none" fill-rule="evenodd"/><path d="M583.5 380.631C583.5 386.762 564.279 392.036 537.679 393.194 530.627 393.5 523.373 393.5 516.322 393.194 489.721 392.036 470.5 386.762 470.5 380.631" stroke="#34212E" stroke-width="6.66667" stroke-linecap="round" stroke-linejoin="round" stroke-miterlimit="10" fill="none" fill-rule="evenodd"/><path d="M470.5 380.899 470.5 380.631" stroke="#34212E" stroke-width="6.66667" stroke-linecap="round" stroke-linejoin="round" stroke-miterlimit="10" fill="none" fill-rule="evenodd"/><path d="M513.5 377.486C513.5 376.389 514.389 375.5 515.486 375.5L538.514 375.5C539.611 375.5 540.5 376.389 540.5 377.486L540.5 394.514C540.5 395.611 539.611 396.5 538.514 396.5L515.486 396.5C514.389 396.5 513.5 395.611 513.5 394.514Z" stroke="#34212E" stroke-width="5.33333" stroke-linecap="round" stroke-linejoin="round" stroke-miterlimit="10" fill="#F7F7F8" fill-rule="evenodd"/><path d="M498.5 422.541C498.5 421.966 498.966 421.5 499.541 421.5L508.46 421.5C509.034 421.5 509.5 421.966 509.5 422.541L509.5 434.46C509.5 435.034 509.034 435.5 508.46 435.5L499.541 435.5C498.966 435.5 498.5 435.034 498.5 434.46Z" stroke="#34212E" stroke-width="5.33333" stroke-linecap="round" stroke-linejoin="round" stroke-miterlimit="10" fill="#34212E" fill-rule="evenodd" fill-opacity="0.941176"/><path d="M521.5 422.541C521.5 421.966 521.966 421.5 522.541 421.5L531.46 421.5C532.034 421.5 532.5 421.966 532.5 422.541L532.5 434.46C532.5 435.034 532.034 435.5 531.46 435.5L522.541 435.5C521.966 435.5 521.5 435.034 521.5 434.46Z" stroke="#34212E" stroke-width="5.33333" stroke-linecap="round" stroke-linejoin="round" stroke-miterlimit="10" fill="#34212E" fill-rule="evenodd"/><path d="M544.5 422.635C544.5 422.008 545.008 421.5 545.635 421.5L555.365 421.5C555.992 421.5 556.5 422.008 556.5 422.635L556.5 434.365C556.5 434.992 555.992 435.5 555.365 435.5L545.635 435.5C545.008 435.5 544.5 434.992 544.5 434.365Z" stroke="#34212E" stroke-width="5.33333" stroke-linecap="round" stroke-linejoin="round" stroke-miterlimit="10" fill="#34212E" fill-rule="evenodd"/><path d="M527.5 396.5 527.5 422.308" stroke="#34212E" stroke-width="5.33333" stroke-linecap="round" stroke-linejoin="round" stroke-miterlimit="10" fill="none" fill-rule="evenodd"/><path d="M527.732 396.5 527.732 409.404 504.5 409.404 504.5 422.308" stroke="#34212E" stroke-width="5.33333" stroke-linecap="round" stroke-linejoin="round" stroke-miterlimit="10" fill="none" fill-rule="evenodd"/><path d="M0 0 12.904 0 12.904 23.232 25.808 23.232" stroke="#34212E" stroke-width="5.33333" stroke-linecap="round" stroke-linejoin="round" stroke-miterlimit="10" fill="none" fill-rule="evenodd" transform="matrix(1.83697e-16 1 1 -1.83697e-16 527.5 396.5)"/></g></svg>