<svg width="120" height="94" xmlns="http://www.w3.org/2000/svg" xmlns:xlink="http://www.w3.org/1999/xlink" overflow="hidden"><defs><clipPath id="clip0"><rect x="248" y="278" width="120" height="94"/></clipPath></defs><g clip-path="url(#clip0)" transform="translate(-248 -278)"><path d="M251.5 289.824C251.5 285.227 255.227 281.5 259.824 281.5L356.176 281.5C360.773 281.5 364.5 285.227 364.5 289.824L364.5 361.176C364.5 365.773 360.773 369.5 356.176 369.5L259.824 369.5C255.227 369.5 251.5 365.773 251.5 361.176Z" stroke="#34212E" stroke-width="5.33333" stroke-linecap="round" stroke-linejoin="round" stroke-miterlimit="10" fill="none" fill-rule="evenodd"/><path d="M282.127 323.368C281.393 312.54 283.031 305.89 294.702 305.89L296.41 305.89 296.413 302.587C296.413 300.938 296.796 300.655 297.966 301.782L304.3 307.89C305.063 308.626 304.958 309.105 304.227 309.816L297.973 315.897C296.881 317.019 296.388 316.702 296.41 315.155L296.41 311.275C285.919 310.604 287.495 317.071 287.495 323.368L282.127 323.368 282.127 323.368ZM315.38 296 338.701 296C339.61 296 340.436 296.376 341.033 296.982 341.63 297.587 342 298.426 342 299.347L342 317.746C342 318.669 341.629 319.506 341.033 320.112 340.967 320.179 340.898 320.241 340.825 320.298 340.251 320.793 339.508 321.094 338.701 321.094L315.38 321.094C314.471 321.094 313.645 320.718 313.049 320.112 312.98 320.041 312.916 319.968 312.858 319.89 312.373 319.306 312.081 318.557 312.081 317.746L312.081 299.347C312.081 298.425 312.452 297.587 313.049 296.982 313.645 296.376 314.471 296 315.38 296L315.38 296ZM337.579 300.486 316.502 300.486 316.502 316.608 337.579 316.608 337.579 300.486 337.579 300.486ZM276.299 328.906 299.62 328.906C300.53 328.906 301.355 329.282 301.952 329.888 302.549 330.494 302.919 331.331 302.919 332.254L302.919 350.653C302.919 351.575 302.548 352.413 301.951 353.018 301.354 353.623 300.53 354 299.62 354L276.299 354C275.39 354 274.564 353.625 273.968 353.018 273.371 352.413 273 351.575 273 350.653L273 332.254C273 331.331 273.371 330.494 273.968 329.888 274.564 329.283 275.39 328.906 276.299 328.906L276.299 328.906ZM298.498 333.392 277.421 333.392 277.421 349.514 298.499 349.514 298.499 333.392 298.498 333.392ZM329.583 327.83C330.316 338.659 328.678 345.309 317.008 345.309L315.299 345.309 315.295 348.612C315.295 350.261 314.914 350.545 313.743 349.417L307.41 343.309C306.647 342.573 306.752 342.093 307.482 341.382L313.736 335.302C314.828 334.18 315.32 334.496 315.298 336.043L315.298 339.924C325.789 340.594 324.212 334.127 324.212 327.83L329.583 327.83 329.583 327.83Z" fill="#34212E" fill-rule="evenodd"/></g></svg>