<svg width="131" height="131" xmlns="http://www.w3.org/2000/svg" xmlns:xlink="http://www.w3.org/1999/xlink" overflow="hidden"><defs><clipPath id="clip0"><rect x="734" y="138" width="131" height="131"/></clipPath></defs><g clip-path="url(#clip0)" transform="translate(-734 -138)"><path d="M2.47487-2.47487 17.3241 12.3744C18.691 13.7412 18.691 15.9573 17.3241 17.3241 15.9573 18.691 13.7412 18.691 12.3744 17.3241L-2.47487 2.47487C-3.84171 1.10804-3.84171-1.10804-2.47487-2.47487-1.10804-3.84171 1.10804-3.84171 2.47487-2.47487ZM37.1231 32.1734 51.9723 47.0226C53.3392 48.3894 53.3392 50.6055 51.9723 51.9723 50.6055 53.3392 48.3894 53.3392 47.0226 51.9723L32.1734 37.1231C30.8065 35.7563 30.8065 33.5402 32.1734 32.1734 33.5402 30.8065 35.7563 30.8065 37.1231 32.1734ZM71.7713 66.8216 86.6206 81.6708C87.9874 83.0377 87.9874 85.2537 86.6206 86.6206 85.2537 87.9874 83.0377 87.9874 81.6708 86.6206L66.8216 71.7713C65.4548 70.4045 65.4548 68.1884 66.8216 66.8216 68.1884 65.4548 70.4045 65.4548 71.7713 66.8216ZM86.7855 65.1859 94.4997 94.4997 65.1859 86.7855C63.3166 86.2936 62.1999 84.3794 62.6919 82.51 63.1838 80.6407 65.098 79.5241 66.9674 80.016L90.4787 86.2032 86.2032 90.4787 80.016 66.9674C79.5241 65.098 80.6407 63.1838 82.51 62.6919 84.3794 62.1999 86.2936 63.3166 86.7855 65.1859Z" transform="matrix(1 0 0 -1 738.5 264.988)"/></g></svg>