<svg width="120" height="121" xmlns="http://www.w3.org/2000/svg" xmlns:xlink="http://www.w3.org/1999/xlink" overflow="hidden"><defs><clipPath id="clip0"><rect x="467" y="329" width="120" height="121"/></clipPath></defs><g clip-path="url(#clip0)" transform="translate(-467 -329)"><path d="M583.5 352.337C583.5 362.744 558.199 366.406 527 366.406 495.801 366.406 470.5 362.744 470.5 352.337" stroke="#34212E" stroke-width="5.33333" stroke-linecap="round" stroke-linejoin="round" stroke-miterlimit="10" fill="none" fill-rule="evenodd"/><path d="M470.5 352.337C470.5 341.93 495.801 333.5 527 333.5 558.199 333.5 583.5 341.93 583.5 352.337L583.5 427.663C583.5 438.07 558.199 446.5 527 446.5 495.801 446.5 470.5 438.07 470.5 427.663L470.5 352.337Z" stroke="#34212E" stroke-width="5.33333" stroke-linecap="round" stroke-linejoin="round" stroke-miterlimit="10" fill="none" fill-rule="evenodd"/><path d="M583.5 365.954C583.5 372.407 564.279 377.958 537.679 379.178 530.627 379.5 523.373 379.5 516.322 379.178 489.721 377.958 470.5 372.407 470.5 365.954" stroke="#34212E" stroke-width="5.33333" stroke-linecap="round" stroke-linejoin="round" stroke-miterlimit="10" fill="none" fill-rule="evenodd"/><path d="M470.5 366.235 470.5 365.954" stroke="#34212E" stroke-width="5.33333" stroke-linecap="round" stroke-linejoin="round" stroke-miterlimit="10" fill="none" fill-rule="evenodd"/><path d="M583.5 380.631C583.5 386.762 564.279 392.036 537.679 393.194 530.627 393.5 523.373 393.5 516.322 393.194 489.721 392.036 470.5 386.762 470.5 380.631" stroke="#34212E" stroke-width="5.33333" stroke-linecap="round" stroke-linejoin="round" stroke-miterlimit="10" fill="none" fill-rule="evenodd"/><path d="M470.5 380.899 470.5 380.631" stroke="#34212E" stroke-width="5.33333" stroke-linecap="round" stroke-linejoin="round" stroke-miterlimit="10" fill="none" fill-rule="evenodd"/><path d="M548.371 391 508 431.332C519.205 441.795 536.746 441.533 547.637 430.652 558.529 419.719 558.79 402.247 548.371 391Z" stroke="#34212E" stroke-width="2" stroke-miterlimit="8" fill="#F7F7F8" fill-rule="evenodd"/><path d="M548 389.881C536.652 379.228 518.622 379.384 507.486 390.297 496.297 401.262 496.191 418.879 507.062 430L548 389.881Z" stroke="#34212E" stroke-width="2" stroke-miterlimit="8" fill="#F7F7F8" fill-rule="evenodd"/><path d="M531 391.368C530.416 391.515 529.938 391.319 529.354 391.663 528.876 391.957 528.398 392.301 528.451 392.89 528.504 393.184 528.77 393.92 528.982 394.117 529.089 394.215 529.938 394.117 529.991 394.313 530.044 394.607 529.035 394.607 528.929 394.656 528.611 394.706 528.345 395 528.027 395 527.23 394.951 528.504 394.362 528.664 394.264 528.292 393.871 527.973 393.528 527.867 393.037 527.814 392.841 527.92 392.644 527.814 392.497 527.708 392.35 527.389 392.202 527.283 392.055 527.071 391.859 526.858 391.564 527.124 391.221 527.336 390.877 527.336 391.123 527.549 391.319 527.708 391.613 527.973 391.81 528.133 392.104 528.345 391.761 528.77 391.368 529.142 391.221 529.566 390.975 530.788 390.828 531 391.368 530.894 391.417 531 391.27 531 391.368" stroke="#34212E" stroke-width="2" stroke-miterlimit="8" fill="#F7F7F8" fill-rule="evenodd"/><path d="M531.955 396.416C531.802 396.524 531.547 396.524 531.343 396.631 531.189 396.685 530.985 396.846 530.832 396.953 530.985 397.115 531.496 397.49 531.496 397.813 531.445 398.296 530.985 397.651 530.934 397.49 530.474 396.953 529.708 396.363 529.044 396.202 528.227 396.094 527.461 396.416 526.695 396.685 526.133 396.846 525.674 396.846 525.112 396.846 524.652 396.846 524.295 397.168 523.988 397.437 523.682 397.651 523.58 398.081 523.478 398.457 523.427 398.833 523.427 399.101 523.018 399.262 522.558 399.37 522.201 399.37 521.997 399.96 521.894 400.283 521.894 400.497 521.946 400.766 522.048 401.142 522.252 401.41 522.456 401.733 522.507 401.84 522.661 402.055 522.814 402.108 522.967 402.162 523.171 402.055 523.324 402.055 523.529 402.001 523.886 402.001 524.142 402.108 524.244 402.162 524.346 402.162 524.448 402.323 524.499 402.538 524.091 402.484 523.937 402.484 523.529 402.484 523.273 402.484 522.916 402.645 522.558 402.806 522.405 403.182 522.099 403.451 522.609 403.988 522.712 404.525 522.456 405.277 523.273 405.706 524.601 406.565 523.937 407.693 523.529 408.391 523.427 407.747 523.478 407.263 523.529 406.726 523.529 406.243 522.967 405.921 522.763 405.814 522.15 405.814 521.997 405.599 521.843 405.384 521.946 405.062 521.997 404.901 522.15 404.042 521.894 403.558 521.128 403.29 520.362 403.075 519.443 403.236 518.83 403.719 518.422 404.042 518.064 404.578 517.86 405.008 517.809 405.115 517.707 405.867 517.554 405.867 517.349 405.921 517.196 405.438 517.196 405.277 517.247 405.115 517.349 404.954 517.4 404.847 517.502 404.686 517.554 404.525 517.605 404.417 517.707 404.256 518.064 403.988 518.115 403.827 518.115 403.612 517.605 402.968 517.451 402.806 517.094 402.484 516.634 402.269 516.175 402.162 515.868 402.108 515.511 402.162 515.409 401.84 515.358 401.625 515.562 401.303 515.613 401.034 515.715 400.659 515.766 400.336 515.664 399.96 515.511 399.477 515.153 399.262 515 398.779 515.409 398.725 515.817 399.423 515.97 399.746 516.277 400.336 516.277 401.088 515.919 401.679 516.532 401.894 517.298 402.216 517.809 402.753 518.013 402.968 518.166 403.29 518.32 403.612 519.239 402.699 520.669 402.645 521.69 403.397 521.843 403.021 522.15 402.806 522.456 402.484 521.69 401.947 521.128 400.981 521.384 400.014 521.537 399.209 522.252 398.672 522.967 398.833 522.967 398.188 523.324 396.953 524.039 396.9 523.631 396.416 521.639 394.215 523.273 394 523.324 394.537 523.222 394.913 523.478 395.45 523.886 396.309 524.397 396.578 525.265 396.578 526.338 396.631 527.308 395.987 528.432 395.933 529.249 395.879 529.964 396.309 530.576 396.9 530.27 396.524 530.934 396.363 531.189 396.309 531.291 396.148 532.211 396.148 531.955 396.416 531.7 396.578 532.006 396.363 531.955 396.416" stroke="#34212E" stroke-width="2" stroke-miterlimit="8" fill="#F7F7F8" fill-rule="evenodd"/><path d="M525.96 391.011C526.158 391.415 525.564 391.667 525.366 391.819 525.068 391.92 524.82 392.172 524.622 392.374 524.424 392.677 524.325 393.233 524.127 393.485 523.829 393.788 523.483 393.435 523.136 393.384 521.599 393.182 519.766 393.788 518.626 394.849 517.437 396.061 517.189 397.828 517.784 399.394 517.834 399.495 518.081 400 517.784 400 517.586 400 517.338 399.445 517.288 399.243 517.14 398.788 517.09 398.283 517.09 397.778 517.09 397.626 517.189 397.222 517.14 397.02 517.09 396.919 516.545 396.818 516.396 396.717 516.099 396.667 515.158 397.071 515.009 396.768 514.91 396.465 515.653 396.263 515.851 396.263 516.248 396.263 516.793 396.364 517.14 396.616 517.189 395.708 518.032 394.698 518.676 394.193 518.775 394.142 519.023 394.041 519.072 393.889 519.122 393.788 519.023 393.384 519.023 393.233 519.023 393.132 519.023 393.031 519.023 392.879 518.973 392.728 518.924 392.475 518.825 392.374 518.725 392.223 518.279 391.819 518.428 391.566 519.32 392.021 519.518 392.778 519.419 393.738 519.816 393.536 520.212 393.334 520.658 393.233 520.955 393.182 521.401 393.233 521.649 393.081 521.847 392.98 521.748 393.031 521.798 392.728 521.798 392.576 521.847 392.374 521.897 392.223 521.946 392.071 521.946 391.869 522.046 391.718 522.194 391.415 522.343 391.566 522.046 391.213 521.748 390.91 521.599 390.708 521.203 390.607 521.054 390.556 520.41 390.556 520.708 390.102 520.906 389.799 521.5 390.253 521.699 390.405 522.046 390.556 522.244 390.809 522.541 391.061 522.838 390.859 523.136 390.405 523.532 390.253 523.928 390.152 524.573 390.203 524.87 390.455 524.721 390.607 524.424 390.506 524.275 390.556 523.978 390.556 523.829 390.657 523.532 390.758 522.64 391.263 522.442 391.869 522.194 392.879 522.591 392.829 523.037 392.879 523.483 392.778 523.681 392.728 523.879 392.728 523.978 392.576 524.077 392.475 524.127 392.273 524.275 392.172 524.622 391.819 525.366 391.213 525.96 391.011 526.01 391.162 525.712 391.061 525.96 391.011" stroke="#34212E" stroke-width="2" stroke-miterlimit="8" fill="#F7F7F8" fill-rule="evenodd"/><path d="M529.906 399.042C530.279 399.489 529.426 399.191 529.32 399.142 529.16 399.142 528.84 399.142 528.68 399.191 528.573 399.191 528.2 399.191 528.147 399.241 528.04 399.34 528.04 399.837 527.987 400.035 527.667 400.83 526.921 401.425 526.068 401.673 526.441 402.021 526.761 402.269 526.974 402.766 527.027 402.914 527.187 404.255 526.761 403.957 526.601 403.858 526.654 403.361 526.654 403.163 526.601 402.865 526.548 402.567 526.334 402.319 526.228 402.12 524.948 401.326 525.002 401.127 525.375 401.028 525.428 401.276 525.641 401.326 525.855 401.376 525.748 401.376 526.015 401.227 526.121 401.177 526.174 401.127 526.334 401.078 526.814 400.879 527.187 400.581 527.401 400.135 527.507 399.936 527.614 399.688 527.72 399.489 527.774 399.092 527.56 399.092 527.294 398.844 527.081 398.546 526.921 398.248 527.401 398 527.56 398.199 527.614 398.447 527.88 398.546 528.094 398.695 528.413 398.745 528.68 398.844 529 398.794 529.693 398.745 529.906 399.042 530.013 399.191 529.853 398.943 529.906 399.042" stroke="#34212E" stroke-width="2" stroke-miterlimit="8" fill="#F7F7F8" fill-rule="evenodd"/><path d="M518.695 407.075C518.322 407.282 518.055 407.282 517.788 407.645 517.682 407.801 517.575 408.008 517.575 408.164 517.575 408.475 517.682 408.475 517.895 408.631 518.215 408.838 518.428 409.046 518.482 409.409 518.535 409.616 518.428 409.823 518.535 410.031 518.588 410.135 519.442 411.328 518.695 410.913 518.322 410.757 518.108 409.979 517.895 409.616 517.788 409.409 517.788 409.201 517.522 409.046 517.415 408.994 517.308 408.942 517.148 408.89 517.095 408.89 517.042 408.89 516.988 408.838 516.668 408.734 516.508 408.423 516.295 408.216 515.762 407.645 515.228 407.126 515.121 406.297 515.015 405.83 514.801 405.311 515.442 405 515.602 405.207 515.495 405.519 515.495 405.778 515.495 406.141 515.548 406.349 515.708 406.712 515.922 407.178 516.295 407.801 516.828 408.112 516.882 407.593 517.148 407.23 517.522 406.867 517.682 406.763 517.842 406.66 518.055 406.556 518.375 406.763 519.069 406.867 518.695 407.075 518.588 407.126 518.802 407.023 518.695 407.075" stroke="#34212E" stroke-width="2" stroke-miterlimit="8" fill="#F7F7F8" fill-rule="evenodd"/><path d="M513.597 403.389C513.003 403.993 511.816 404.103 511.438 404.927 510.899 405.917 511.87 406.906 512.787 407.126 513.003 407.181 513.003 407.071 513.165 407.291 513.219 407.456 513.165 407.73 513.165 407.84 513.219 408.555 513.597 409.269 514.082 409.874 514.622 410.588 515.215 411.028 516.079 411.413 516.456 411.523 516.726 411.633 517.104 411.633 517.266 411.633 517.805 411.578 517.967 411.742 518.291 412.457 516.133 411.742 516.079 411.742 515.971 411.742 515.485 412.182 515.431 412.347 515.269 412.677 515.377 413.007 515.485 413.336 515.539 413.556 515.701 414.051 515.377 413.996 515.053 413.941 514.73 413.336 514.73 413.007 514.676 412.347 515.215 411.962 515.701 411.578 514.352 410.753 513.111 409.434 512.733 407.84 512.733 407.73 512.733 407.675 512.733 407.511 512.733 407.401 512.679 407.346 512.571 407.401 512.518 407.346 512.41 407.346 512.356 407.346 512.032 407.236 511.816 407.016 511.654 406.796 511.223 406.356 510.953 405.807 511.007 405.202 511.061 404.598 511.654 404.158 512.194 403.828 512.733 403.498 513.273 402.949 513.974 403.004 513.597 403.169 513.597 403.224 513.597 403.389 513.381 403.498 513.597 403.224 513.597 403.389" stroke="#34212E" stroke-width="2" stroke-miterlimit="8" fill="#F7F7F8" fill-rule="evenodd"/><path d="M539.981 392.98C539.981 392.665 539.874 392.455 539.766 392.192 539.713 391.982 539.605 391.719 539.605 391.561L539.605 391.561C539.552 391.245 539.283 391.035 539.122 390.93 539.068 390.877 539.068 390.877 539.014 390.825L538.961 390.772C538.746 390.562 538.423 390.299 538.047 390.194 537.94 390.089 537.832 390.089 537.725 390.089 537.618 390.089 537.618 390.089 537.564 390.089 537.456 390.036 537.403 390.036 537.242 389.931L537.188 389.879C536.651 389.458 536.006 389.195 535.522 389.037 535.415 388.985 535.2 388.985 535.039 389.037 534.878 389.037 534.663 389.037 534.555 388.985 534.448 388.932 534.394 388.617 534.341 388.406 534.287 388.301 534.287 388.091 534.233 388.038 533.535 386.461 532.084 385.725 530.311 386.093 529.667 386.198 529.13 386.514 528.7 386.934 528.592 387.04 528.539 387.25 528.377 387.355 528.324 387.513 528.216 387.67 528.162 387.723 528.001 387.828 527.84 387.776 527.625 387.565 527.572 387.513 527.518 387.46 527.41 387.408 527.034 387.197 526.766 387.04 526.336 387.092 525.638 387.145 524.885 387.723 524.402 388.144 523.865 388.564 523.381 388.985 522.79 388.932 522.683 388.932 522.575 388.932 522.414 388.88 521.823 388.827 521.286 388.775 520.588 388.932 519.406 389.248 518.654 389.879 517.955 390.72 517.633 391.088 517.418 391.403 517.15 391.824L517.042 391.982C516.935 392.192 516.935 392.192 516.72 392.139 516.666 392.139 516.612 392.139 516.559 392.139 516.129 392.087 515.86 392.139 515.43 392.297 515.054 392.402 514.786 392.612 514.41 392.875 514.249 393.033 514.087 393.191 513.98 393.348 513.926 393.401 513.873 393.506 513.765 393.559 513.711 393.559 513.658 393.506 513.604 393.506L513.604 393.506 513.443 393.506C513.067 393.559 512.744 393.559 512.368 393.664 511.939 393.769 511.348 394.084 510.918 394.347 510.112 394.926 510.005 395.504 510.273 396.293 509.467 396.398 508.285 396.713 507.48 397.659 507.05 398.185 506.835 398.711 506.835 399.289 506.835 399.657 506.835 399.92 506.835 400.236 506.835 400.288 506.835 400.341 506.835 400.446 506.835 400.656 506.889 401.024 506.835 401.129 506.781 401.182 506.674 401.287 506.513 401.445 506.405 401.55 506.19 401.603 506.083 401.76 506.029 401.865 505.975 401.971 505.922 402.128 505.868 402.233 505.868 402.339 505.814 402.444 505.76 402.496 505.653 402.549 505.492 402.601 505.384 402.654 505.277 402.707 505.116 402.812 505.008 402.864 504.901 402.969 504.74 403.022 504.632 403.127 504.417 403.18 504.31 403.337 503.612 403.916 503.182 404.652 502.913 405.703 502.913 405.808 502.86 406.019 502.806 406.124 502.752 406.439 502.698 406.702 502.645 407.018 502.591 407.648 502.645 408.122 502.967 408.753 503.021 408.805 503.021 408.858 503.074 408.91 503.128 409.015 503.182 409.121 503.236 409.226 503.289 409.383 503.074 409.699 502.86 410.014 502.698 410.172 502.537 410.435 502.484 410.593 502.43 410.698 502.376 410.908 502.322 411.013 502.161 411.381 502 411.802 502 412.17 502 412.538 502.107 412.748 502.161 413.064 502.215 413.169 502.215 413.221 502.269 413.379 502.484 414.168 502.967 414.799 503.773 415.377 503.88 415.482 504.095 415.535 504.256 415.692 504.632 415.85 505.062 416.165 505.116 416.376 505.116 416.428 505.116 416.586 505.116 416.744 505.116 416.849 505.116 416.901 505.116 417.059L505.116 417.164C505.116 417.375 505.116 417.638 505.116 417.848 505.062 418.321 505.062 418.636 505.17 419.11 505.384 419.74 505.653 420.476 505.975 420.95 506.405 421.528 506.942 422.054 507.426 422.369 507.533 422.422 507.641 422.474 507.856 422.527 507.963 422.579 508.178 422.579 508.285 422.527 508.393 422.527 508.447 422.527 508.5 422.527L508.5 422.527C508.554 422.632 508.608 422.685 508.662 422.737 508.823 422.79 508.984 422.842 509.199 422.895 509.36 422.947 509.682 423 510.005 423 510.058 423 510.166 423 510.219 423 510.864 422.895 511.509 422.527 512.046 421.843 512.1 421.791 512.1 421.738 512.153 421.686 512.153 421.633 512.207 421.633 512.207 421.581 512.207 421.528 512.261 421.528 512.261 421.528 512.315 421.475 512.368 421.423 512.422 421.37 512.422 421.318 512.422 421.265 512.422 421.16L512.422 421.107C512.529 420.95 512.798 420.792 513.013 420.687 513.12 420.634 513.174 420.582 513.335 420.529 513.55 420.371 513.873 420.161 514.141 420.056 514.517 419.846 514.947 419.635 515.269 419.267 515.592 418.952 515.86 418.689 515.968 418.374 516.021 418.268 516.075 418.058 516.075 417.9 516.129 417.69 516.183 417.375 516.29 417.269 516.397 417.164 516.666 417.112 516.881 417.059 517.042 417.007 517.203 416.954 517.364 416.901 517.902 416.691 518.331 416.218 518.761 415.797 518.869 415.692 518.976 415.587 519.084 415.429 519.567 414.956 519.782 414.588 520.104 414.062 520.319 413.642 520.534 413.274 520.695 412.958 520.803 412.643 520.803 412.643 521.125 412.643 521.286 412.643 521.555 412.59 521.716 412.485 522.414 412.065 522.898 410.961 522.898 410.119 523.274 410.119 523.542 410.067 523.919 409.962 524.402 409.804 524.832 409.383 525.208 409.015 525.315 408.91 525.369 408.805 525.53 408.7 525.691 408.542 525.852 408.385 526.014 408.227 526.497 407.754 526.981 407.333 527.41 406.807 527.518 406.65 527.625 406.439 527.786 406.282 527.894 406.071 528.001 405.808 528.162 405.493 528.216 405.335 528.27 405.125 528.377 404.967 528.431 404.862 528.485 404.652 528.539 404.547 528.592 404.441 528.646 404.231 528.646 404.126 528.7 404.021 528.7 403.916 528.753 403.758 529.559 404.073 530.741 403.443 531.278 402.969 531.816 402.496 532.406 401.918 532.836 401.34 532.89 401.234 532.944 401.129 533.051 400.972L533.105 400.866C533.212 400.709 533.32 400.446 533.481 400.288L533.535 400.183C533.588 400.078 533.588 400.078 533.696 400.078 533.75 400.078 533.75 400.078 533.803 400.078 533.911 400.13 533.964 400.13 534.179 400.078 534.394 399.973 534.663 399.552 534.663 399.552 534.824 399.237 534.824 399.026 534.77 398.711 535.2 398.764 535.791 398.658 536.06 398.606 536.543 398.501 536.919 398.08 537.134 397.554 537.188 397.344 537.242 397.081 537.295 396.871 537.295 396.766 537.349 396.661 537.349 396.555 537.349 396.45 537.403 396.293 537.403 396.135 537.403 396.03 537.456 395.925 537.456 395.767 537.51 395.662 537.618 395.609 537.832 395.557 537.886 395.557 537.94 395.504 538.047 395.504 538.692 395.189 539.444 394.505 539.713 393.927 539.981 393.611 540.035 393.243 539.981 392.98ZM511.724 420.792C511.509 421.16 511.24 421.475 510.918 421.738 510.381 422.159 509.79 422.159 509.091 422.054 509.199 421.896 509.306 421.686 509.306 421.475L509.306 421.318 509.145 421.318C508.984 421.318 508.823 421.37 508.715 421.423 508.662 421.475 508.554 421.475 508.5 421.475 508.285 421.528 507.963 421.475 507.587 421.37 506.674 420.95 506.244 420.108 505.814 419.372 505.599 418.794 505.492 418.216 505.492 417.585 505.492 417.164 505.492 416.744 505.438 416.323L505.492 416.323C505.814 416.376 506.029 416.481 506.405 416.481 506.566 416.481 506.781 416.533 506.996 416.586 507.211 416.639 507.426 416.691 507.641 416.691 507.587 417.269 507.748 418.111 508.178 418.584 508.232 418.689 508.5 418.952 508.715 418.794 508.93 418.689 508.823 418.268 508.769 418.163L508.715 418.005C508.554 417.585 508.393 417.217 508.393 416.849 508.393 416.639 508.447 416.376 508.608 416.165 508.662 416.113 508.715 416.008 508.823 415.85 509.038 415.535 509.306 415.219 509.252 414.851L509.252 414.746 509.145 414.746C508.608 414.799 508.339 415.272 508.178 415.64L508.124 415.745C508.017 415.955 508.017 415.955 507.802 415.955 507.748 415.955 507.426 415.955 507.372 415.955 507.318 415.85 507.211 415.324 507.211 415.061 507.211 414.904 507.265 414.641 507.318 414.536 507.641 413.957 508.124 413.747 508.823 413.642 508.984 413.589 509.36 413.537 509.414 413.274 509.414 413.221 509.414 413.064 509.306 412.906 509.199 412.801 508.876 412.748 508.662 412.748 508.554 412.748 508.5 412.748 508.447 412.748 508.232 412.696 507.963 412.643 507.748 412.433 507.641 412.38 507.533 412.275 507.372 412.222 507.372 412.222 507.318 412.17 507.265 412.065 507.157 411.854 507.05 411.697 506.889 411.697 506.835 411.697 506.728 411.697 506.674 411.802 506.566 411.96 506.566 412.38 506.62 412.485 506.674 412.696 506.942 412.906 507.05 413.011 507.104 413.064 507.211 413.169 507.265 413.221L507.318 413.221 507.318 413.221C507.318 413.221 507.318 413.221 507.265 413.274L507.211 413.326 507.211 413.484C507.157 413.694 507.05 413.905 506.889 414.062 506.728 414.273 506.566 414.536 506.513 414.851 506.459 415.219 506.405 415.64 506.566 416.008 505.008 415.85 503.451 414.641 502.752 413.116 502.537 412.538 502.537 412.065 502.698 411.381 502.806 410.908 503.074 410.54 503.289 410.225 503.343 410.119 503.451 409.909 503.504 409.804 503.88 410.172 504.149 410.382 504.579 410.698 503.988 411.276 503.88 411.854 504.149 412.59 504.203 412.748 505.062 413.957 505.599 413.957 505.707 413.957 505.814 413.905 505.975 413.747 506.083 413.537 505.814 413.221 505.492 412.906 505.438 412.853 505.438 412.853 505.438 412.853 505.116 412.538 504.955 412.328 504.955 411.907 504.955 411.591 505.062 411.118 505.384 411.066 505.546 411.066 505.814 411.066 506.083 411.118 506.244 411.118 506.459 411.171 506.566 411.171L506.674 411.171C507.05 411.171 507.318 411.224 507.587 411.066 507.641 411.013 507.909 410.908 507.802 410.698 507.802 410.645 507.748 410.487 506.835 410.487L506.781 410.487C506.298 410.487 505.492 410.435 504.901 410.014 503.558 409.121 502.967 407.911 503.236 406.597 503.451 405.44 503.88 404.073 505.384 403.39 505.546 403.811 506.244 404.809 506.728 404.967 506.889 405.02 507.05 404.967 507.157 404.862L507.211 404.809 507.157 404.704C507.05 404.494 506.942 404.336 506.728 404.179 506.62 404.073 506.405 403.863 506.351 403.758 506.19 403.39 506.19 402.864 506.405 402.444 506.513 402.233 506.728 402.076 506.942 401.971 507.05 401.918 507.157 401.865 507.318 401.76 507.695 401.445 507.641 401.34 507.48 400.972L507.695 400.866C507.211 399.762 507.695 398.238 508.769 397.554 509.091 397.397 509.36 397.186 509.629 397.134 509.736 397.081 509.843 397.081 510.058 397.029L510.166 397.029C510.219 397.029 510.273 397.029 510.327 396.976 510.434 396.923 510.434 396.976 510.488 397.029 510.595 397.134 510.649 397.344 510.703 397.502 510.757 397.659 510.81 397.87 511.025 398.027 511.079 398.133 511.133 398.185 511.24 398.238 511.348 398.343 511.401 398.396 511.455 398.658L511.455 398.658C511.401 398.658 511.348 398.606 511.294 398.606 511.079 398.553 510.864 398.606 510.703 398.658 510.542 398.711 510.327 398.764 510.166 398.658 510.058 398.606 509.951 398.343 509.843 398.185 509.79 397.975 509.736 397.765 509.521 397.712 509.306 397.659 508.93 397.922 508.876 398.133 508.715 398.553 508.984 398.921 509.199 399.132 509.252 399.184 509.306 399.237 509.306 399.237 509.414 399.342 509.521 399.447 509.521 399.552 509.521 399.657 509.521 399.762 509.467 399.815 509.414 399.92 509.36 400.025 509.306 400.13 508.984 400.919 509.199 401.918 509.682 402.549 508.662 403.075 508.232 404.179 507.802 405.178L507.748 405.283C507.426 406.071 507.157 407.018 507.533 407.859 507.909 408.753 508.554 409.436 509.145 410.172 509.843 410.855 510.488 411.224 511.509 411.486 511.079 411.907 510.649 412.275 510.542 412.906 510.381 413.747 510.703 414.168 511.24 414.483 510.595 415.377 510.595 416.744 511.24 417.585 511.939 418.531 512.691 419.057 513.604 419.478 513.389 419.635 513.174 419.635 512.744 419.583L512.637 419.583C512.315 419.583 512.046 419.478 511.724 419.425 511.562 419.372 511.348 419.32 511.186 419.32 510.864 419.267 510.649 419.32 510.595 419.478 510.542 419.583 510.595 419.793 510.918 419.951 511.348 420.161 511.831 420.266 512.261 420.319 512.315 420.319 512.368 420.319 512.368 420.319 511.992 420.476 511.885 420.634 511.724 420.792ZM512.476 402.812C512.422 402.496 512.261 402.286 512.046 402.023 511.885 401.708 511.67 401.445 511.616 401.024 511.562 400.656 511.67 400.393 511.724 400.025L511.777 399.815C511.777 399.762 511.777 399.71 511.831 399.657 511.831 399.5 511.885 399.289 511.939 399.184 511.939 399.132 511.992 399.079 512.046 399.026 512.153 398.921 512.207 398.816 512.207 398.606 512.207 398.29 511.885 398.133 511.67 397.975 511.562 397.922 511.455 397.87 511.455 397.817 511.24 397.502 511.025 396.976 510.918 396.661 510.81 396.187 510.757 395.557 511.025 395.136 511.401 394.663 512.583 394.19 513.174 394.242 513.282 394.242 513.282 394.242 513.282 394.242 513.282 394.242 513.282 394.295 513.282 394.347 513.282 394.4 513.282 394.453 513.228 394.505L513.228 394.558C513.228 394.715 513.174 394.926 513.228 395.083 513.228 395.136 513.282 395.189 513.282 395.294 513.282 395.346 513.335 395.399 513.335 395.399 513.335 395.451 513.228 395.609 513.12 395.767 513.013 395.872 512.959 396.082 512.906 396.135 512.852 396.293 512.798 396.503 512.798 396.661L512.798 396.766C512.798 396.818 512.798 396.871 512.744 396.923 512.691 397.239 512.637 397.502 512.691 397.817 512.744 398.027 512.906 398.396 513.174 398.448 513.228 398.448 513.389 398.448 513.55 398.29 513.658 398.133 513.604 397.817 513.55 397.502 513.55 397.344 513.496 397.186 513.496 397.081 513.55 396.293 514.087 395.609 514.84 395.241 515.377 394.926 515.807 394.82 516.236 394.768 516.29 394.768 516.344 394.768 516.397 394.768 516.827 394.768 517.096 394.768 517.203 394.61 517.257 394.453 517.042 394.242 516.988 394.19 516.773 394.032 516.29 394.032 515.538 394.19 515.054 394.295 514.625 394.558 514.195 394.768 514.087 394.19 514.517 393.506 515.001 393.138 515.323 392.928 515.807 392.612 516.183 392.612 516.344 392.612 516.666 392.612 516.72 392.612 516.72 392.665 516.72 392.77 516.72 392.823 516.72 392.928 516.72 392.98 516.72 393.033 516.72 393.243 516.773 393.559 517.042 393.664 517.203 393.716 517.257 393.664 517.364 393.664 517.472 393.559 517.472 393.348 517.472 393.191L517.472 393.138C517.472 392.665 517.633 392.297 517.902 391.824 518.278 391.14 518.815 390.404 519.513 389.879 520.212 389.353 521.018 389.09 521.931 389.195 522.038 389.195 522.146 389.195 522.307 389.195 522.683 389.195 523.113 389.195 523.22 389.405 523.22 389.458 523.274 389.511 523.274 389.616 523.328 389.931 523.435 390.194 523.704 390.247 523.757 390.247 523.865 390.247 524.08 390.141 524.133 390.089 524.241 389.773 524.295 389.563 524.348 389.405 524.348 389.353 524.295 389.195 524.295 389.195 524.295 389.143 524.241 389.09 524.241 388.932 524.241 388.932 524.402 388.722 524.456 388.669 524.509 388.669 524.563 388.617 524.671 388.564 524.724 388.459 524.885 388.301 525.047 388.144 525.1 388.091 525.262 387.933 525.96 387.355 526.658 387.302 527.357 387.723L527.41 387.776C527.572 387.881 527.733 387.933 527.786 387.986 527.733 388.038 527.625 388.038 527.572 388.091 527.464 388.144 527.357 388.196 527.249 388.196 527.088 388.301 526.873 388.512 526.766 388.617 526.766 388.617 526.712 388.669 526.658 388.669 526.497 388.827 526.121 389.09 526.282 389.353 526.336 389.458 526.443 389.511 526.497 389.511 526.658 389.563 526.819 389.458 526.927 389.353L526.981 389.3C527.303 389.09 527.518 388.827 527.894 388.669 527.948 388.827 528.055 388.985 528.216 389.037 528.431 389.143 528.7 388.985 528.915 388.88L529.076 388.827C529.237 388.722 529.237 388.722 529.506 388.827L529.613 388.88C529.72 388.932 529.828 388.932 529.935 388.985 529.935 388.985 529.989 389.037 530.043 389.037 530.258 389.195 530.58 389.405 530.849 389.195 530.956 389.143 530.956 389.037 530.956 388.88 530.849 388.459 529.344 387.986 528.807 387.828 529.13 387.25 529.344 386.777 529.935 386.566 530.58 386.356 531.547 386.198 532.245 386.461 532.729 386.619 533.212 387.04 533.427 387.565 533.535 387.776 533.642 388.038 533.75 388.249 533.75 388.301 533.803 388.406 533.803 388.459 533.803 388.512 533.857 388.617 533.857 388.775 533.75 388.827 533.642 388.827 533.535 388.88 533.481 388.88 533.481 388.88 533.427 388.88L533.32 388.827C533.266 388.775 533.212 388.722 533.105 388.617 532.997 388.512 532.89 388.301 532.675 388.301 532.514 388.249 532.353 388.301 532.299 388.406 532.192 388.722 532.675 389.195 532.675 389.195 532.729 389.248 532.783 389.3 532.836 389.3 532.836 389.3 532.89 389.353 532.89 389.3 532.89 389.3 532.89 389.353 532.836 389.405 532.783 389.458 532.729 389.511 532.675 389.563 532.621 389.616 532.568 389.668 532.568 389.721 532.514 389.773 532.406 389.879 532.245 390.036 531.762 390.667 531.493 390.877 531.493 391.14 531.493 391.298 531.601 391.456 531.654 391.456 531.816 391.561 532.138 391.456 532.245 391.351 532.406 391.245 532.621 390.93 532.783 390.772 532.836 390.72 532.89 390.615 532.944 390.562L533.051 390.457C533.374 390.089 533.588 389.773 534.072 389.616 534.77 389.405 535.522 389.563 536.436 390.089 536.221 390.141 535.952 390.247 535.791 390.404 535.791 390.352 535.737 390.352 535.684 390.404 535.63 390.457 535.522 390.562 535.469 390.562 535.469 390.562 535.415 390.562 535.361 390.509 535.308 390.457 535.2 390.457 535.039 390.457 534.502 390.509 533.911 391.245 533.911 391.771 533.964 392.35 534.448 392.718 534.878 393.033 534.878 393.033 534.931 393.033 534.931 393.086 535.093 393.243 535.415 393.454 535.522 393.296 535.576 393.243 535.63 393.138 535.63 393.086 535.63 392.875 535.308 392.665 535.093 392.56L535.039 392.507C534.878 392.402 534.717 392.034 534.717 391.824 534.717 391.719 534.824 391.614 535.039 391.508 535.093 391.508 535.146 391.561 535.2 391.508 535.415 391.456 535.576 391.351 535.737 391.193L535.791 391.14C536.275 390.72 537.134 390.457 537.779 390.562 538.208 390.615 538.477 390.877 538.692 391.193 538.692 391.193 538.692 391.193 538.692 391.245L538.799 391.403C539.122 392.034 539.39 392.56 539.122 393.243 538.853 393.927 538.208 394.4 537.618 394.715 537.564 394.347 537.51 393.927 537.51 393.664 537.51 393.611 537.51 393.559 537.51 393.454 537.51 393.086 537.456 392.875 537.349 392.77 537.188 392.612 537.027 392.665 536.973 392.665 536.758 392.77 536.651 393.191 536.651 393.348 536.651 393.506 536.704 393.716 536.758 393.874 536.812 393.979 536.812 394.19 536.865 394.295 536.919 394.82 536.865 395.241 536.758 395.819 536.597 396.661 536.436 397.239 535.576 397.397 534.985 397.502 534.663 397.554 534.502 397.029 534.394 396.608 534.179 396.187 533.964 395.872 533.75 395.451 533.32 395.083 532.89 394.873 532.514 394.663 532.192 394.4 531.816 394.242 531.762 394.242 531.762 394.19 531.708 394.19 531.386 394.032 530.902 393.716 530.634 394.032L530.473 394.032 530.526 394.137C530.849 394.558 531.332 394.768 531.708 394.978 531.923 395.083 532.245 395.189 532.406 395.399 532.836 395.714 533.105 396.03 533.427 396.555 534.126 397.922 534.018 398.448 533.911 398.553 533.857 398.606 533.696 398.711 533.535 398.764 533.427 398.816 533.212 398.869 533.105 398.974 532.944 399.079 532.675 399.394 532.514 399.657 532.46 399.762 532.406 399.868 532.353 399.973 532.245 400.288 532.138 400.498 531.869 400.761 531.225 401.55 530.043 402.812 528.807 402.601 528.861 402.286 528.807 401.918 528.592 401.708L528.485 401.655 528.431 401.708C528.216 402.023 528.055 402.391 528.001 402.812 527.948 402.969 527.948 403.232 527.894 403.337 527.733 403.863 527.464 404.389 527.249 404.967 526.819 405.861 525.96 406.702 525.208 407.386 525.047 407.543 524.832 407.754 524.671 407.911 523.65 408.91 522.361 408.963 520.534 408.122 520.212 408.017 519.997 407.911 519.674 407.806 519.352 407.754 519.191 407.806 519.137 407.911 519.084 408.017 519.084 408.122 519.191 408.279 519.298 408.385 519.513 408.437 519.621 408.437 519.674 408.437 519.728 408.437 519.782 408.49 519.889 408.542 519.943 408.595 520.104 408.647 520.158 408.7 520.212 408.7 520.319 408.753 520.749 408.91 521.125 409.121 521.447 409.173 521.501 409.173 521.555 409.173 521.608 409.226 521.716 409.226 521.823 409.278 521.984 409.331 522.038 409.331 522.092 409.383 522.146 409.383L522.146 409.436 522.146 409.489C522.253 409.857 521.984 410.435 521.716 410.75 521.555 410.908 521.34 411.066 521.125 411.171L521.125 411.171C521.179 411.013 521.232 410.75 521.071 410.54 521.018 410.487 520.856 410.225 520.588 410.172 520.534 410.172 520.427 410.172 520.373 410.225 520.265 410.33 520.265 410.54 520.319 410.908 520.319 411.013 520.319 411.224 520.319 411.276 520.265 411.434 520.212 411.644 520.158 411.749 520.158 411.802 520.104 411.854 520.104 411.907 519.889 412.538 519.46 413.326 519.03 413.852 518.331 414.799 517.418 415.429 516.183 415.955L516.075 416.008C515.645 416.165 515.162 416.376 514.786 416.586 514.571 416.691 514.356 416.901 514.41 417.059 514.41 417.164 514.517 417.269 514.732 417.375 514.947 417.48 515.216 417.375 515.377 417.269 515.323 417.69 515.216 417.9 514.84 418.163 514.249 418.584 513.228 418.216 512.744 417.795 512.529 417.585 511.616 416.796 511.455 415.903 511.401 415.535 511.455 415.114 511.616 414.799 511.67 414.693 511.724 414.641 511.777 414.483 511.939 414.325 512.153 414.01 511.939 413.642 511.831 413.484 511.724 413.326 511.562 413.221 511.348 413.011 511.133 412.801 511.133 412.538 511.133 412.012 511.777 411.434 512.261 411.224 512.315 411.224 512.422 411.171 512.583 411.171 512.798 411.118 513.12 411.118 513.174 410.961 513.228 410.855 513.282 410.75 513.228 410.593 513.12 410.435 512.852 410.435 512.691 410.435L512.476 410.435C511.939 410.435 511.562 410.435 511.025 410.277 509.951 409.909 509.038 409.121 508.339 407.806 507.963 407.491 507.695 406.912 507.748 406.334 507.856 405.44 508.285 404.389 508.823 403.6 508.984 403.39 509.199 403.18 509.467 402.969 509.521 402.969 509.629 402.917 509.79 402.864 510.005 402.759 510.112 402.759 510.166 402.707 510.327 402.496 510.112 402.181 510.005 401.918 509.951 401.865 509.951 401.813 509.951 401.813 509.79 401.445 509.575 400.972 509.629 400.498 509.629 400.288 509.736 400.025 509.843 399.815 509.951 399.657 510.058 399.605 510.327 399.605 510.488 399.552 510.703 399.552 510.864 399.447 510.918 399.394 511.079 399.289 511.24 399.132 511.24 399.447 511.186 399.657 511.133 399.973 511.025 400.866 510.81 401.813 511.562 402.759 511.616 402.812 512.153 403.443 512.422 403.337 512.583 403.18 512.529 402.917 512.476 402.812Z" stroke="#34212E" stroke-width="2" stroke-miterlimit="8" fill="#F7F7F8" fill-rule="evenodd"/><path d="M527.662 392.589C527.76 392.647 527.809 392.762 527.858 392.82 527.908 392.878 527.908 392.936 527.908 393.167 527.908 393.225 527.908 393.341 527.908 393.514 527.957 394.092 528.251 394.497 528.546 394.902 528.251 395.075 527.76 395.422 527.809 395.769 527.858 395.942 528.104 396 528.153 396L528.153 396C528.349 396 528.546 395.884 528.693 395.769 528.791 395.711 528.84 395.653 528.987 395.653 529.037 395.653 529.086 395.653 529.135 395.653 529.527 395.595 529.871 395.538 529.969 395.306 530.018 395.248 530.018 395.191 530.018 395.075 529.969 394.844 529.675 394.844 529.38 394.728 529.282 394.728 529.086 394.728 529.037 394.67 528.889 394.497 528.595 393.687 528.595 393.283 528.546 392.82 528.791 392.358 529.38 392.011 529.675 391.837 529.92 391.837 530.215 391.837 530.411 391.837 530.656 391.837 530.853 391.722L531 391.664 530.951 391.491C530.902 391.317 530.755 391.144 530.509 391.086 530.067 390.912 529.331 391.028 529.037 391.201 528.693 391.375 528.398 391.78 528.153 392.184 528.006 391.953 527.809 391.722 527.711 391.491 527.711 391.433 527.662 391.433 527.662 391.375 527.613 391.259 527.564 391.028 527.368 391.028L527.368 391.028C527.269 391.028 527.171 391.144 527.073 391.259 526.877 391.78 527.122 392.184 527.269 392.416 527.466 392.416 527.564 392.473 527.662 392.589Z" stroke="#34212E" stroke-width="2" stroke-miterlimit="8" fill="#F7F7F8" fill-rule="evenodd"/><path d="M523.64 395.487C523.489 395.179 523.489 394.923 523.489 394.615 523.489 394.462 523.489 394.256 523.438 394.103L523.438 394 523.287 394C522.882 394.051 522.68 394.205 522.529 394.462 522.327 395.077 523.085 396.051 523.792 396.872 523.186 397.18 522.882 398 522.832 398.667 522.074 398.615 521.417 399.128 521.266 399.949 521.063 400.872 521.569 401.795 522.226 402.359L522.175 402.41C522.023 402.564 521.821 402.769 521.67 402.974 520.659 402.359 519.295 402.462 518.436 403.18 518.436 403.128 518.385 403.128 518.385 403.077 518.284 402.923 518.183 402.667 517.981 402.513 517.526 402.051 516.87 401.744 516.213 401.538 516.516 400.974 516.516 400.256 516.213 399.692 516.061 399.333 515.606 398.615 515.152 398.718L515 398.769 515.051 398.923C515.101 399.128 515.253 399.333 515.404 399.487 515.556 399.641 515.606 399.846 515.758 400 515.859 400.308 515.808 400.564 515.707 400.974 515.707 401.026 515.657 401.077 515.606 401.128 515.505 401.282 515.404 401.538 515.455 401.744 515.505 402.103 515.859 402.154 516.061 402.154 516.112 402.154 516.213 402.154 516.263 402.205 516.667 402.308 517.173 402.564 517.476 402.82 517.678 402.974 518.082 403.59 518.082 403.692 518.082 403.744 517.931 403.897 517.779 404 517.627 404.103 517.627 404.154 517.577 404.205 517.526 404.308 517.476 404.359 517.425 404.513 517.425 404.564 517.375 404.615 517.375 404.615 517.375 404.667 517.324 404.667 517.324 404.718 517.274 404.821 517.173 404.923 517.173 405.077 517.122 405.231 517.223 405.539 517.324 405.692 517.425 405.795 517.526 405.795 517.678 405.795 517.83 405.744 517.88 405.59 518.032 405.128 518.032 405.026 518.082 404.974 518.082 404.923 518.234 404.513 518.638 404 518.992 403.795 519.598 403.333 520.457 403.231 521.164 403.436 521.821 403.641 522.074 404.051 521.973 404.821 521.973 404.872 521.973 404.872 521.973 404.923 521.922 405.128 521.872 405.436 522.023 405.692 522.125 405.846 522.428 405.846 522.63 405.897 522.781 405.897 522.933 405.949 523.034 406 523.489 406.205 523.539 406.564 523.489 407.128 523.489 407.333 523.438 407.897 523.691 408L523.741 408C523.944 408 524.095 407.692 524.146 407.59 524.297 407.231 524.348 406.923 524.247 406.564 524.095 406.051 523.59 405.59 522.731 405.128 522.933 404.513 522.832 404 522.377 403.538 522.428 403.487 522.478 403.436 522.529 403.333 522.63 403.18 522.832 403.026 522.984 402.923 523.337 402.769 523.539 402.769 523.893 402.769L523.944 402.769C524.095 402.769 524.348 402.82 524.449 402.667 524.499 402.615 524.55 402.564 524.499 402.462 524.499 402.308 524.348 402.256 524.196 402.154L524.146 402.154C523.843 402 523.539 402.051 523.287 402.051 523.236 402.051 523.186 402.051 523.135 402.103 523.034 402.154 522.933 402.154 522.832 402.103 522.781 402.103 522.68 401.949 522.63 401.897L522.478 401.795C522.276 401.59 522.074 401.231 522.023 400.923 521.973 400.718 521.973 400.462 522.074 400.256 522.226 399.846 522.428 399.795 522.832 399.744 522.882 399.744 522.933 399.692 522.984 399.692 523.438 399.59 523.438 399.282 523.489 399.026 523.489 398.974 523.489 398.923 523.539 398.872 523.59 398.462 523.741 398.205 523.994 398 524.348 397.641 524.6 397.487 525.005 397.487 525.106 397.487 525.207 397.487 525.358 397.487 525.813 397.487 526.217 397.487 526.672 397.333L526.824 397.282C527.481 397.077 528.238 396.82 528.946 396.872 529.754 396.974 530.462 397.744 530.765 398L530.815 398.051C531.018 398.359 531.22 398.513 531.371 398.462 531.422 398.462 531.523 398.41 531.523 398.154 531.573 397.846 531.22 397.59 530.967 397.333 531.018 397.333 531.018 397.282 531.068 397.282 531.119 397.231 531.169 397.18 531.27 397.18 531.321 397.128 531.422 397.128 531.472 397.128 531.573 397.128 531.674 397.077 531.826 397.026L531.826 397.026C531.826 397.026 531.877 397.026 531.877 396.974L531.877 396.974 531.877 396.974 531.978 396.872 531.978 396.872C532.028 396.82 531.978 396.769 531.978 396.718 531.877 396.41 531.068 396.564 531.068 396.564 530.765 396.615 530.462 396.667 530.26 396.923 529.704 396.41 528.996 396.154 528.34 396.256 527.834 396.256 527.329 396.41 526.874 396.615 526.318 396.769 525.813 396.974 525.207 396.923 524.449 396.462 523.994 396.154 523.64 395.487Z" stroke="#34212E" stroke-width="2" stroke-miterlimit="8" fill="#F7F7F8" fill-rule="evenodd"/><path d="M516.15 396.965C516.308 396.915 516.573 396.915 516.625 396.915 516.837 396.965 517.26 397.064 517.313 397.114 517.313 397.164 517.313 397.413 517.26 397.512 517.26 397.612 517.207 397.661 517.207 397.711 517.207 398.259 517.26 398.756 517.418 399.204 517.524 399.602 517.788 400 518.053 400L518.053 400C518.158 400 518.264 399.95 518.264 399.9 518.37 399.751 518.264 399.453 518.158 399.254L518.158 399.204C517.524 397.711 517.841 395.97 519.004 394.925 520.167 393.88 522.123 393.233 523.709 393.482 523.814 393.482 523.92 393.532 524.079 393.581 524.396 393.681 524.713 393.78 524.977 393.581 525.136 393.432 525.189 393.183 525.347 392.984 525.4 392.835 525.453 392.586 525.559 392.487 525.717 392.338 525.982 392.089 526.246 391.989L526.299 391.94C526.616 391.84 527.197 391.492 526.933 390.994L526.88 390.895 526.827 390.994 526.774 390.994C526.14 391.143 525.347 391.79 524.872 392.288 524.819 392.338 524.766 392.387 524.766 392.487 524.713 392.537 524.713 392.586 524.66 392.636 524.554 392.736 524.449 392.785 524.184 392.785 523.973 392.835 523.656 392.835 523.391 392.835 523.286 392.835 523.18 392.835 523.021 392.835 523.233 392.039 523.497 391.541 524.343 391.044 524.554 390.944 524.766 390.845 524.977 390.845 525.03 390.845 525.083 390.845 525.136 390.845 525.294 390.845 525.559 390.895 525.717 390.745L525.823 390.646 525.717 390.546C525.453 390.148 524.713 390.148 524.29 390.298 523.92 390.347 523.709 390.646 523.444 390.845 523.339 390.895 523.339 390.944 523.286 390.994 523.074 390.795 522.81 390.546 522.44 390.397 522.44 390.397 522.387 390.347 522.334 390.347 522.017 390.148 521.436 389.8 521.224 390.148 521.119 390.248 521.119 390.447 521.119 390.546 521.224 390.745 521.541 390.845 521.7 390.845 521.753 390.845 521.753 390.845 521.753 390.845 522.176 390.944 522.334 391.143 522.599 391.392 522.651 391.442 522.651 391.492 522.704 391.492L522.704 391.492C522.651 391.541 522.651 391.591 522.599 391.641 522.546 391.741 522.493 391.94 522.493 392.039 522.493 392.089 522.493 392.139 522.44 392.188L522.44 392.238C522.387 392.338 522.387 392.537 522.334 392.686 522.334 392.736 522.334 392.835 522.334 392.885 522.334 392.885 522.281 392.885 522.281 392.935 522.176 392.984 521.911 392.984 521.753 392.984 521.594 392.984 521.383 392.984 521.277 393.034 520.907 393.134 520.59 393.233 520.22 393.432 520.273 392.487 519.85 391.89 519.057 391.442L518.951 391.392 518.898 391.442C518.687 391.741 518.951 392.039 519.11 392.288 519.163 392.338 519.216 392.387 519.216 392.387 519.321 392.537 519.374 392.736 519.427 392.835 519.427 392.885 519.427 392.935 519.427 393.034 519.427 393.084 519.427 393.134 519.427 393.134 519.427 393.183 519.427 393.233 519.427 393.333 519.427 393.432 519.48 393.681 519.427 393.731 519.427 393.78 519.321 393.83 519.216 393.88 519.163 393.93 519.11 393.93 519.11 393.98 518.581 394.427 517.63 395.323 517.471 396.268 516.943 396.219 516.467 396.119 516.044 396.119 515.938 396.119 515.198 396.268 515.04 396.567 514.987 396.617 514.987 396.716 515.04 396.865 515.198 397.214 515.674 397.064 516.15 396.965Z" stroke="#34212E" stroke-width="2" stroke-miterlimit="8" fill="#F7F7F8" fill-rule="evenodd"/><path d="M529.913 399.134C529.913 399.087 529.913 399.087 529.913 399.134L529.913 399.134 529.913 399.134 529.814 398.992 529.814 398.992C529.616 398.85 529.27 398.803 528.923 398.803 528.824 398.803 528.725 398.803 528.626 398.756 528.428 398.709 528.131 398.661 527.982 398.567 527.883 398.52 527.833 398.425 527.685 398.236 527.635 398.189 527.586 398.094 527.536 398.047L527.487 398 527.388 398.047C527.19 398.142 527.041 398.331 526.992 398.472 526.942 398.661 527.041 398.898 527.19 399.087 527.239 399.134 527.289 399.181 527.338 399.228 527.437 399.323 527.487 399.37 527.487 399.559 527.437 399.748 527.338 399.984 527.19 400.126 526.992 400.551 526.695 400.74 526.199 401.024 526.15 401.071 526.1 401.071 526.051 401.118 526.001 401.118 525.952 401.165 525.952 401.165 525.902 401.213 525.853 401.213 525.803 401.26 525.803 401.26 525.754 401.26 525.704 401.26 525.655 401.26 525.605 401.213 525.556 401.165 525.457 401.071 525.258 400.976 525.06 401.071L525.011 401.071 525.011 401.118C524.961 401.26 525.06 401.402 525.754 401.921 525.952 402.063 526.249 402.299 526.249 402.346 526.348 402.535 526.447 402.819 526.447 403.102 526.447 403.15 526.447 403.197 526.447 403.291 526.447 403.575 526.447 403.811 526.596 403.906 526.695 403.953 526.744 404 526.794 404 526.843 404 526.893 404 526.893 403.953 527.239 403.764 526.942 402.677 526.942 402.677 526.843 402.252 526.546 401.969 526.298 401.732L526.298 401.732C527.091 401.449 527.635 400.929 527.982 400.173 527.982 400.126 528.032 400.031 528.032 399.89 528.032 399.748 528.081 399.559 528.081 399.512 528.131 399.512 528.378 399.512 528.428 399.512 528.477 399.512 528.527 399.512 528.527 399.512 528.576 399.512 528.626 399.512 528.725 399.512 528.824 399.512 529.022 399.465 529.121 399.512 529.121 399.512 529.171 399.512 529.22 399.512 529.567 399.606 529.765 399.654 529.864 399.512 530.062 399.37 530.012 399.181 529.913 399.134L529.913 399.134Z" stroke="#34212E" stroke-width="2" stroke-miterlimit="8" fill="#F7F7F8" fill-rule="evenodd"/><path d="M515.096 406.412C515.254 407.219 515.727 407.723 516.254 408.277L516.359 408.378C516.517 408.529 516.78 408.781 516.991 408.933 517.044 408.933 517.096 408.983 517.096 408.983L517.149 408.983C517.202 408.983 517.202 409.034 517.254 409.034 517.307 409.034 517.36 409.084 517.412 409.084 517.518 409.185 517.57 409.235 517.623 409.437L517.675 409.588C517.781 409.992 518.097 410.647 518.465 410.899 518.518 410.95 518.623 411 518.781 411 518.834 411 518.886 411 518.939 410.95 519.097 410.798 518.939 410.496 518.57 409.992 518.518 409.941 518.518 409.891 518.518 409.891 518.57 409.79 518.57 409.689 518.57 409.588 518.57 409.538 518.57 409.437 518.57 409.286 518.518 408.882 518.202 408.681 517.991 408.479L517.991 408.429C517.939 408.378 517.939 408.378 517.886 408.378 517.781 408.277 517.781 408.277 517.781 408.176 517.781 408.076 517.833 407.874 517.939 407.723 518.044 407.571 518.255 407.42 518.413 407.37 518.465 407.319 518.518 407.319 518.57 407.269L518.57 407.269 518.676 407.219C518.676 407.219 518.676 407.219 518.728 407.219 518.886 407.118 518.886 406.916 518.834 406.916 518.728 406.714 518.202 406.613 518.044 406.613 517.833 406.664 517.623 406.765 517.465 406.966 517.096 407.269 516.833 407.521 516.78 407.975 516.412 407.672 516.149 407.168 515.938 406.765 515.78 406.462 515.727 406.26 515.727 405.908 515.727 405.857 515.727 405.807 515.727 405.756 515.727 405.555 515.78 405.303 515.622 405.101L515.57 405 515.464 405.05C514.885 405.353 514.99 405.908 515.043 406.311L515.096 406.412Z" stroke="#34212E" stroke-width="2" stroke-miterlimit="8" fill="#F7F7F8" fill-rule="evenodd"/><path d="M512.231 403.811C511.721 404.187 511.161 404.508 511.008 405.259 510.957 405.849 511.161 406.385 511.619 406.922 511.823 407.136 512.078 407.404 512.384 407.458L512.435 407.458C512.486 407.458 512.537 407.458 512.537 407.511L512.588 407.565 512.639 407.565 512.639 407.565C512.639 407.619 512.639 407.726 512.639 407.887 512.945 409.281 513.965 410.675 515.341 411.533 514.933 411.909 514.474 412.23 514.525 412.928 514.525 413.249 514.933 413.946 515.29 414 515.341 414 515.341 414 515.392 414 515.494 414 515.545 413.946 515.596 413.946 515.698 413.786 515.647 413.517 515.596 413.357 515.596 413.303 515.596 413.303 515.596 413.249 515.596 413.196 515.545 413.142 515.545 413.088 515.494 412.874 515.443 412.606 515.545 412.445 515.647 412.284 515.953 411.962 516.055 411.962 516.055 411.962 516.106 411.962 516.157 412.016 517.074 412.23 517.686 412.391 517.941 412.123 517.992 412.07 518.043 411.962 517.941 411.694 517.941 411.319 517.584 411.319 517.329 411.319 517.278 411.319 517.227 411.319 517.176 411.319 516.82 411.319 516.565 411.212 516.259 411.104 515.443 410.729 514.882 410.3 514.423 409.656 513.965 409.013 513.659 408.369 513.608 407.726 513.608 407.672 513.608 407.619 513.608 407.565 513.608 407.458 513.608 407.243 513.557 407.136 513.506 406.975 513.455 406.922 513.251 406.814 513.2 406.814 513.2 406.814 513.149 406.814 512.639 406.707 512.129 406.224 511.925 405.795 511.823 405.474 511.823 405.205 511.976 404.884 512.18 404.455 512.588 404.294 513.047 404.026 513.404 403.865 513.71 403.65 513.965 403.436 513.965 403.436 513.965 403.436 514.016 403.382L514.016 403.382 514.118 403.221 514.118 403.221 514.169 403.007 514.016 403.007C513.455 402.953 512.996 403.221 512.588 403.543 512.486 403.597 512.333 403.65 512.231 403.811Z" stroke="#34212E" stroke-width="2" stroke-miterlimit="8" fill="#F7F7F8" fill-rule="evenodd"/><path d="M518.317 429C519.732 429 521.049 428.611 522.317 428.222 522.707 428.125 522.854 427.833 522.951 427.688 523 427.542 523.049 427.201 522.902 426.812L522.756 426.472C522.61 426.083 522.366 425.743 522.268 425.403 521.878 424.431 521.488 423.458 521.098 422.437L521 422.389C520.951 422.243 520.902 422.097 520.805 422L520.219 422.583C520.219 422.583 520.219 422.632 520.268 422.632 520.659 423.653 521.049 424.722 521.488 425.743 521.683 426.229 521.927 426.715 522.22 427.201 522.268 427.347 522.268 427.396 522.122 427.493 520.902 427.882 519.683 428.222 518.415 428.222 518.219 428.222 517.976 428.222 517.781 428.174 516.854 428.076 516.171 427.833 515.585 427.347L515 427.931C515.78 428.514 516.61 428.903 517.732 428.951 517.829 429 518.122 429 518.317 429Z" stroke="#34212E" stroke-width="2" stroke-miterlimit="8" fill="#F7F7F8" fill-rule="evenodd"/><path d="M537.549 410.152C537.757 411.491 537.912 412.83 538.068 414.118 538.068 414.221 538.068 414.324 538.12 414.427 538.223 414.942 538.068 415.303 537.705 415.715 536.098 417.57 534.284 419.321 532.418 420.918 532.314 420.97 532.211 421.021 532.055 421.021 532.055 421.021 532.055 421.021 532.003 421.021 529.464 420.867 526.924 420.455 524.488 419.888 523.918 419.785 523.348 419.579 522.777 419.476 522.726 419.476 522.674 419.424 522.622 419.424L522 419.991C522.156 420.094 522.363 420.197 522.57 420.3 522.933 420.352 523.348 420.455 523.659 420.609 523.814 420.661 524.073 420.712 524.229 420.764 526.665 421.33 529.205 421.742 531.9 422 531.952 422 531.952 422 532.003 422 532.366 422 532.677 421.897 532.936 421.639 534.958 419.888 536.72 418.188 538.327 416.333 538.69 415.921 539.156 415.303 538.949 414.376 538.949 414.324 538.949 414.324 538.949 414.273 538.949 414.221 538.949 414.17 538.949 414.118 538.897 413.706 538.845 413.294 538.793 412.882 538.69 411.955 538.586 411.027 538.379 410.049 538.171 408.812 537.86 407.627 537.549 406.442 537.498 406.082 537.394 405.773 537.342 405.412 537.29 405.309 537.238 405.103 537.187 405L536.565 405.618C536.876 407.112 537.238 408.606 537.549 410.152Z" stroke="#34212E" stroke-width="2" stroke-miterlimit="8" fill="#F7F7F8" fill-rule="evenodd"/><path d="M540.243 411.983 540.64 414 541.734 412.293 541.833 412.138C541.883 412.035 541.982 411.931 542.032 411.776L542.181 411.466C542.38 411.155 542.579 410.845 542.777 410.483 542.976 410.017 543.274 409.552 543.523 409.086 543.622 408.879 543.722 408.672 543.871 408.466 544.02 408.103 544.02 407.793 543.97 407.586 543.921 407.431 543.771 407.121 543.374 406.914 543.225 406.862 543.076 406.759 542.927 406.707 542.728 406.603 542.529 406.5 542.33 406.397 541.883 406.241 541.435 405.983 540.988 405.828L540.441 405.621 539 405 539.298 406.603 539.746 409.086 540.243 411.983ZM541.982 407.276C542.33 407.431 542.628 407.638 543.026 407.793 543.175 407.845 543.225 407.948 543.125 408.155 542.777 408.776 542.479 409.5 542.131 410.121 541.932 410.534 541.634 410.948 541.386 411.362 541.286 411.466 541.237 411.672 541.088 411.828 540.74 410.017 540.441 408.207 540.093 406.448 540.74 406.759 541.336 407.017 541.982 407.276Z" stroke="#34212E" stroke-width="2" stroke-miterlimit="8" fill="#F7F7F8" fill-rule="evenodd"/><path d="M544.826 399.165C545.166 400.065 545.263 401.018 545.263 401.971 545.214 403.241 544.923 404.459 544.535 405.676 544.535 405.729 544.486 405.782 544.438 405.835 543.418 405.359 542.398 404.829 541.379 404.406 540.796 404.194 540.165 403.929 539.583 403.718L539 404.353C539.097 404.406 539.146 404.459 539.291 404.512 539.583 404.618 539.825 404.724 540.117 404.829 540.456 404.935 540.748 405.041 541.088 405.253 541.816 405.571 542.447 405.888 543.175 406.259 543.515 406.365 543.758 406.576 544.098 406.682L544.729 407 545.117 406.365C545.166 406.312 545.214 406.206 545.263 405.994 545.603 404.829 545.894 403.506 545.991 402.076 546.04 400.912 545.894 399.853 545.506 398.953 545.408 398.635 545.069 398.265 544.923 398L544.34 398.635C544.583 398.688 544.777 398.953 544.826 399.165Z" stroke="#34212E" stroke-width="2" stroke-miterlimit="8" fill="#F7F7F8" fill-rule="evenodd"/><path d="M526.478 429.71C527.7 431.58 528.973 432.79 530.551 433.56 531.11 433.89 531.772 434 532.332 434 532.79 434 533.299 433.89 533.757 433.67 535.182 433.065 535.997 431.855 536.608 430.92 537.219 429.93 537.677 428.775 538.084 427.345 538.287 426.63 538.491 425.86 538.593 425.145 538.644 424.815 538.746 424.54 538.796 424.155L539 423.22 538.135 423.055 538.084 423.055C538.033 423.055 537.931 423 537.778 423L537.269 423C535.997 423 534.826 423 533.554 423.055 533.248 423.055 532.943 423.165 532.688 423.385 532.485 423.55 532.23 423.77 532.027 423.99 531.67 424.32 531.365 424.54 531.009 424.815 529.787 425.75 528.311 426.795 526.784 427.565 526.631 427.675 526.173 427.895 526.02 428.445 525.919 428.995 526.224 429.38 526.377 429.545 526.377 429.6 526.428 429.655 526.478 429.71ZM527.089 428.335C528.616 427.51 530.042 426.52 531.416 425.475 531.976 425.035 532.536 424.54 533.146 424.045 533.248 423.99 533.35 423.935 533.554 423.935 534.979 423.935 536.353 423.935 537.778 423.88L537.778 423.88C537.829 423.88 537.829 423.88 537.931 423.935 537.728 424.98 537.473 426.025 537.168 427.07 536.811 428.225 536.404 429.38 535.793 430.425 535.182 431.47 534.47 432.35 533.401 432.845 532.994 433.01 532.637 433.065 532.281 433.065 531.823 433.065 531.314 432.955 530.856 432.68 529.329 431.965 528.107 430.645 527.14 429.16 527.089 429.105 527.038 428.995 526.987 428.94 526.784 428.61 526.784 428.555 527.089 428.335Z" stroke="#34212E" stroke-width="2" stroke-miterlimit="8" fill="#F7F7F8" fill-rule="evenodd"/><path d="M539.755 421.763 539.816 420.526 539.878 419.722 540 417 538.102 418.918 536.327 420.649 535.898 421.082 534 423 536.694 422.876 537.429 422.814 538.714 422.753 539.633 422.691 539.755 421.763ZM538.714 421.763C538.041 421.825 537.429 421.825 536.633 421.887 537.367 421.144 538.102 420.402 538.776 419.722 538.776 420.34 538.714 421.021 538.714 421.763Z" stroke="#34212E" stroke-width="2" stroke-miterlimit="8" fill="#F7F7F8" fill-rule="evenodd"/><path d="M541.258 421.897C541.368 421.897 541.423 421.897 541.477 421.845 543.611 421.433 545.307 420.968 546.839 420.298 547.988 419.782 548.973 419.06 549.739 418.337 551.162 416.841 551.381 415.139 550.396 413.282 549.466 411.528 547.934 410.341 546.456 409.31 546.237 409.155 545.909 409 545.636 409 545.307 409 544.924 409.103 544.541 409.671 544.213 410.238 543.939 410.754 543.611 411.218 542.681 412.714 541.587 414.21 540.383 415.655 540.219 415.861 540.055 416.222 540.055 416.532 540.055 417.099 540.055 417.667 540.055 418.286 540.055 418.802 540.055 419.317 540.055 419.782 540.055 419.988 540.055 420.298 540.055 420.556 540.055 420.659 540.055 420.865 540.055 420.968L540 422 541.094 421.897 541.258 421.897ZM540.985 419.885C540.985 418.802 540.985 417.667 540.985 416.635 540.985 416.532 541.04 416.429 541.094 416.325 542.298 414.881 543.447 413.385 544.432 411.734 544.76 411.218 545.034 410.702 545.362 410.135 545.417 410.032 545.526 409.929 545.581 409.929 545.636 409.929 545.69 409.98 545.8 410.032 547.277 411.064 548.645 412.198 549.411 413.746 550.122 415.139 550.122 416.48 548.864 417.821 548.152 418.595 547.277 419.163 546.292 419.627 544.705 420.401 542.9 420.865 541.204 421.123 541.149 421.123 541.04 421.123 540.875 421.175 540.985 420.71 540.985 420.298 540.985 419.885Z" stroke="#34212E" stroke-width="2" stroke-miterlimit="8" fill="#F7F7F8" fill-rule="evenodd"/><path d="M523.651 426.091 523.651 426.091C523.811 426.444 524.077 427 524.769 427 525.142 427 525.355 426.849 525.675 426.697 526.527 426.242 527.326 425.788 528.178 425.333 528.391 425.182 528.657 425.03 528.87 424.879 528.976 424.828 529.083 424.727 529.189 424.677L531 423.566 528.923 423.162 526.26 422.707 523.385 422.202 522 422 522.373 423.313 522.373 423.364C522.373 423.465 522.426 423.566 522.479 423.768 522.639 424.121 522.852 424.525 523.012 424.828 523.278 425.182 523.438 425.636 523.651 426.091ZM528.763 424.02C528.391 424.222 528.124 424.475 527.752 424.677 526.899 425.131 526.154 425.586 525.302 425.99 525.089 426.091 524.929 426.141 524.823 426.141 524.716 426.141 524.663 426.04 524.503 425.737 524.13 424.929 523.704 424.071 523.331 423.313 523.278 423.212 523.278 423.111 523.225 423.01 525.036 423.313 526.846 423.667 528.763 424.02Z" stroke="#34212E" stroke-width="2" stroke-miterlimit="8" fill="#F7F7F8" fill-rule="evenodd"/><path d="M552.987 414.942C552.882 413.09 552.041 411.556 550.885 410.127 549.834 408.857 548.626 407.852 547.312 407.005 547.102 406.899 547.102 406.688 547.154 406.529 547.47 405.471 547.785 404.466 547.995 403.407 548.363 401.767 548.363 400.021 547.838 398.381 547.522 397.429 547.049 396.635 546.471 396L545.841 396.635C546.366 397.164 546.734 397.905 546.944 398.646 547.365 400.021 547.417 401.556 547.049 403.196 546.892 403.989 546.682 404.73 546.471 405.524 546.419 405.735 546.314 406.053 546.261 406.317 546.051 407.111 546.419 407.587 546.787 407.799 548.1 408.698 549.256 409.704 550.15 410.762 551.306 412.19 551.989 413.566 552.041 415.048 552.094 416.529 551.673 417.799 550.675 418.91 549.624 420.074 548.258 420.974 546.524 421.767 544.948 422.402 543.214 422.878 541.269 423.196 540.639 423.302 540.271 423.672 540.166 424.307 539.851 426.212 539.483 427.799 538.852 429.333 538.064 431.291 536.961 432.931 535.857 433.831 534.596 434.783 533.335 434.995 532.389 434.995 530.918 434.995 529.604 434.466 528.921 433.989 527.292 432.825 526.872 432.349 525.979 431.185 525.821 430.974 525.611 430.709 525.401 430.392 525.243 430.18 525.033 429.862 524.823 429.598 524.507 429.175 523.982 429.175 523.877 429.175 523.772 429.175 523.667 429.175 523.562 429.228 523.246 429.28 522.984 429.386 522.668 429.545 522.301 429.651 522.038 429.757 521.67 429.862 520.356 430.233 519.253 430.392 518.255 430.392 517.414 430.392 516.678 430.286 515.89 430.021 515.049 429.81 514.366 429.386 513.788 428.857L513 429.545C513.683 430.18 514.524 430.656 515.47 430.974 516.363 431.185 517.204 431.344 518.044 431.344 519.305 431.344 520.461 431.132 521.723 430.815 522.353 430.656 522.984 430.392 523.614 430.233L523.667 430.233C523.772 430.233 523.877 430.286 523.982 430.339 524.402 430.868 524.77 431.397 525.085 431.873 525.979 432.984 526.452 433.619 528.186 434.836 529.131 435.471 530.603 436 532.179 436 533.545 436 534.964 435.63 536.172 434.624 537.591 433.513 538.695 431.608 539.483 429.757 540.113 428.116 540.534 426.318 540.849 424.519 540.902 424.307 540.954 424.148 541.217 424.148 543.109 423.831 544.948 423.355 546.682 422.667 548.416 421.979 549.939 421.026 551.148 419.598 552.567 418.169 553.092 416.635 552.987 414.942Z" stroke="#34212E" stroke-width="2" stroke-miterlimit="8" fill="#F7F7F8" fill-rule="evenodd"/><path d="M533.015 410 532.419 410.546C532.767 410.943 532.966 411.39 533.065 411.936 533.413 413.426 532.966 414.667 531.723 415.56 531.126 416.007 530.48 416.206 529.883 416.206 529.386 416.206 528.889 416.106 528.392 415.809 528.094 415.709 527.845 415.461 527.597 415.312L527 415.908C527.348 416.206 527.597 416.404 527.994 416.553 528.591 416.901 529.237 417 529.834 417 530.679 417 531.474 416.702 532.17 416.206 533.662 415.113 534.308 413.525 533.861 411.688 533.711 411.043 533.413 410.496 533.015 410Z" stroke="#34212E" stroke-width="2" stroke-miterlimit="8" fill="#F7F7F8" fill-rule="evenodd"/></g></svg>