<?xml version="1.0" encoding="utf-8"?>
<!-- Generator: Adobe Illustrator 25.1.0, SVG Export Plug-In . SVG Version: 6.00 Build 0)  -->
<svg version="1.1" id="Ebene_1" xmlns="http://www.w3.org/2000/svg" xmlns:xlink="http://www.w3.org/1999/xlink" x="0px" y="0px"
	 viewBox="0 0 145 151" style="enable-background:new 0 0 145 151;" xml:space="preserve">
<style type="text/css">
	.st0{fill:#FFFFFF;}
	.st1{fill:#3D78B5;}
	.st2{fill:#E22D32;}
</style>
<g>
	<g>
		<path class="st0" d="M6.3,125.5c0-2.2,0-4.3-0.1-6.1c0-1.8-0.1-3.6-0.2-5.4c0.4,0,1,0.1,1.6,0.1s1.1,0.1,1.9,0.1c1,0,1.9,0,3-0.1
			c1-0.1,2-0.1,3-0.1c1.9,0,3.5,0.1,4.6,0.4s2,0.7,2.6,1.2c0.9,0.7,1.6,1.5,1.9,2.4c0.4,0.9,0.7,1.9,0.7,3.1c0,1.6-0.2,2.9-0.8,4
			c-0.6,1.1-1.2,2-2.2,2.7c-0.9,0.7-2,1.2-3.4,1.6c-1.3,0.3-2.7,0.4-4.3,0.4h-2.1c0,2,0,4.2,0.1,6.2c0,2,0.1,4,0.2,6.1
			c-0.4,0-1-0.1-1.6-0.1H9.3H7.4c-0.6,0-1,0-1.6,0.1c0.1-1.7,0.2-3.5,0.2-5.3s0.1-3.8,0.1-6.1v-5.4h0.2V125.5z M18.5,122.1
			c0-1-0.1-1.9-0.3-2.7c-0.2-0.7-0.6-1.2-0.9-1.7c-0.4-0.4-0.9-0.8-1.3-0.9c-0.6-0.2-1.1-0.3-1.7-0.3h-1h-0.4c-0.1,0-0.2,0-0.3,0
			c0,2,0,3.9-0.1,5.8c0,1.9,0,3.8,0,5.7c0.7,0,1.3-0.1,2.1-0.2c0.7-0.1,1.3-0.4,2-0.9c0.7-0.4,1.1-1,1.5-1.8
			C18.3,124.4,18.5,123.4,18.5,122.1"/>
		<path class="st0" d="M28.7,118.2c0-2.2-0.1-4.5-0.2-6.8c0.3,0,0.8,0.1,1.3,0.1s1.1,0.1,1.7,0.1c0.6,0,1.2,0,1.7-0.1
			c0.6,0,1-0.1,1.3-0.1c-0.1,2.4-0.2,4.6-0.2,6.8s-0.1,4.7-0.1,7.4v2.7c0,2.7,0,5.2,0.1,7.4c0,2.2,0.1,4.5,0.2,6.7
			c-0.3,0-0.8-0.1-1.3-0.1h-1.7h-1.7c-0.6,0-1,0-1.3,0.1c0.1-2.2,0.2-4.5,0.2-6.7s0.1-4.7,0.1-7.4v-2.7
			C28.8,123,28.8,120.5,28.7,118.2"/>
		<path class="st0" d="M39.7,125c1.1-0.9,2.4-1.7,3.7-2.1s2.7-0.8,3.9-0.8c1.1,0,2.1,0.1,3,0.3c0.9,0.2,1.7,0.7,2.4,1.1
			c0.7,0.6,1.2,1.2,1.6,2.1c0.3,0.9,0.6,1.9,0.6,3.1c0,1.8,0,3.4-0.1,4.9c0,1.5-0.1,3-0.1,4.5c0,0.7,0,1.1,0.1,1.6
			c0.1,0.3,0.2,0.7,0.4,0.9s0.4,0.3,0.8,0.3c0.3,0.1,0.7,0.1,1.1,0.1v1c-0.8,0.3-1.5,0.6-2,0.8c-0.6,0.1-1.1,0.2-1.8,0.2
			c-1,0-1.8-0.2-2.5-0.8c-0.7-0.4-1.1-1.2-1.5-2.1c-0.7,0.9-1.3,1.6-2.2,2.1c-0.8,0.6-1.9,0.8-3.1,0.8c-1,0-1.9-0.1-2.7-0.4
			c-0.8-0.2-1.3-0.7-1.8-1.1c-0.4-0.6-0.8-1.1-1-1.7c-0.2-0.7-0.3-1.3-0.3-1.9c0-0.9,0.1-1.7,0.4-2.4c0.3-0.7,0.7-1.2,1.2-1.7
			c0.6-0.4,1.1-0.9,1.9-1.1c0.8-0.3,1.6-0.6,2.5-0.8c1.1-0.2,2-0.6,2.7-0.7c0.7-0.2,1.1-0.4,1.5-0.7s0.6-0.4,0.7-0.7
			c0.1-0.2,0.1-0.6,0.1-0.9c0-1-0.3-1.8-1-2.6c-0.7-0.7-1.7-1-2.9-1c-0.4,0-0.9,0.1-1.5,0.2c-0.4,0.1-1,0.3-1.5,0.6
			c-0.4,0.2-0.9,0.4-1.2,0.7s-0.7,0.6-0.9,0.9h-0.3L39.7,125z M49.5,136.2c0-1.2,0-2.1,0-2.7c0-0.7,0-1.1,0-1.7
			c-0.6,0.3-1.2,0.6-1.8,0.8c-0.7,0.2-1.2,0.4-1.8,0.8c-0.6,0.3-1,0.8-1.3,1.3c-0.3,0.6-0.6,1.3-0.6,2.4c0,1,0.2,1.8,0.7,2.4
			c0.4,0.6,1,0.8,1.7,0.8c0.9,0,1.7-0.3,2.2-1C49.3,138.6,49.5,137.5,49.5,136.2"/>
		<path class="st0" d="M66,125.8c0.8-1.1,1.7-2,2.7-2.7s2.2-0.9,3.5-0.9c2,0,3.7,0.6,4.7,1.8c1.1,1.2,1.7,3.1,1.7,5.8
			c0,1.3,0,2.7-0.1,3.7c0,1.1-0.1,2.1-0.1,3.3c0,0.9,0,1.8,0.1,2.9c0,1,0.1,2,0.1,3c-0.3,0-0.8-0.1-1.3-0.1h-1.7h-1.7
			c-0.6,0-1,0-1.3,0.1c0.2-1.5,0.3-3.1,0.3-5s0.1-4.2,0.1-6.6c0-1.7-0.3-3-0.9-3.8s-1.5-1.2-2.5-1.2c-1.2,0-2.1,0.6-2.7,1.6
			c-0.6,1.1-0.9,2.6-0.9,4.5v1.7c0,1.7,0,3.3,0.1,4.7c0,1.5,0.1,2.9,0.2,4.3c-0.3,0-0.8-0.1-1.3-0.1h-1.8h-1.7c-0.6,0-1,0-1.3,0.1
			c0.1-1.3,0.2-2.8,0.2-4.3s0.1-3,0.1-4.7V132c0-1.7,0-3.3-0.1-4.7c0-1.5-0.1-2.9-0.2-4.5c0.4,0,1,0.1,1.5,0.1s1,0.1,1.5,0.1
			c0.4,0,1,0,1.5-0.1c0.4,0,1-0.1,1.6-0.1L66,125.8L66,125.8z"/>
		<path class="st0" d="M98.2,113.6c2.2,0,4.3,0.3,6.2,0.9s3.6,1.5,4.9,2.7s2.5,2.7,3.4,4.6s1.2,4,1.2,6.5c0,1.6-0.2,3.1-0.7,4.6
			c-0.4,1.5-1.1,2.8-2.1,4c-0.9,1.2-2,2.2-3.3,3.3c-1.3,0.9-2.8,1.7-4.4,2.2c1,0.6,2,1.1,3,1.8s2,1.2,2.9,1.8s1.8,1.1,2.7,1.6
			c0.8,0.4,1.6,0.9,2.1,1.1c-1,0.1-1.9,0.4-2.8,0.8c-0.9,0.3-1.9,0.9-3,1.5c-0.9-0.8-1.8-1.3-2.5-1.9c-0.8-0.6-1.5-1.1-2.2-1.7
			c-0.8-0.6-1.6-1.2-2.6-1.8c-0.9-0.7-2.1-1.5-3.5-2.4c-2,0-3.9-0.2-5.7-0.8c-1.8-0.6-3.5-1.5-4.8-2.6c-1.3-1.2-2.5-2.7-3.4-4.6
			c-0.8-1.9-1.2-4-1.2-6.6c0-2,0.3-3.9,1.1-5.7c0.8-1.8,1.8-3.4,3.3-4.7c1.3-1.3,3-2.4,4.9-3.1C93.7,114,95.8,113.6,98.2,113.6
			 M107,127.4c0-1.8-0.2-3.4-0.7-4.8c-0.4-1.5-1-2.6-1.8-3.6s-1.7-1.8-2.8-2.2c-1.1-0.6-2.4-0.8-3.7-0.8c-1.3,0-2.7,0.3-3.8,1
			c-1.1,0.7-2,1.6-2.8,2.7s-1.3,2.5-1.8,4S89,127,89,128.6c0,2.2,0.2,4,0.7,5.6c0.4,1.5,1.1,2.7,1.9,3.7c0.8,0.9,1.7,1.6,2.8,2
			c1,0.4,2.1,0.7,3.3,0.7c1.2,0,2.5-0.2,3.6-0.8s2.1-1.3,2.9-2.4c0.8-1.1,1.5-2.5,2-4C106.8,131.7,107,129.7,107,127.4"/>
		<path class="st0" d="M124.8,137.4c0,2.1,0.1,3.8,0.3,5.2c-0.4,0-1-0.1-1.6-0.1h-1.9h-1.8c-0.6,0-1,0-1.6,0.1
			c0.1-1.7,0.2-3.5,0.2-5.3s0.1-3.8,0.1-6.1v-5.6c0-2.2,0-4.3-0.1-6.1c0-1.8-0.1-3.6-0.2-5.4c0.4,0.1,1,0.1,1.6,0.1s1.1,0.1,1.9,0.1
			c0.7,0,1.3,0,1.9-0.1c0.6,0,1-0.1,1.6-0.1c-0.1,0.8-0.2,2-0.2,3.7s-0.1,3.5-0.1,5.5v3.9c0.9-1.1,1.9-2.4,3-3.6
			c1.1-1.3,2.1-2.6,3.1-3.8c1-1.2,1.9-2.4,2.7-3.4s1.3-1.8,1.7-2.4c0.3,0.1,0.8,0.1,1.1,0.1s0.8,0.1,1.1,0.1s0.8,0,1.1-0.1
			c0.4,0,0.8-0.1,1.3-0.1c-0.4,0.4-1.2,1.2-2.1,2.2c-1,1-2,2.1-3,3.4c-1.1,1.2-2.1,2.4-3.1,3.5s-1.8,2-2.4,2.7
			c0.9,1.3,1.9,2.8,2.9,4.5c1.1,1.6,2.1,3.3,3.3,4.7c1,1.6,2,3,2.9,4.3s1.7,2.2,2.1,2.9c-0.8,0-1.5-0.1-2.1-0.1h-1.9h-1.8
			c-0.6,0-1.2,0-1.8,0.1c-1.5-2.1-2.8-4.3-4.2-6.4c-1.3-2.1-2.7-4.3-4.2-6.5h-0.1C124.7,132.7,124.8,135.2,124.8,137.4"/>
		<path class="st1" d="M105.9,17.9L28.8,95c21.4,20,54.9,19.5,75.7-1.3C125.3,72.8,125.8,39.4,105.9,17.9z"/>
		<path class="st2" d="M103.8,15.7C82.4-4.8,48.4-4.5,27.4,16.5c-21.1,21.1-21.3,55-0.8,76.4L103.8,15.7z"/>
	</g>
	<path class="st0" d="M72.9,19c-1.1,0.3-2-0.1-3.1,0.6c-0.9,0.6-1.8,1.3-1.7,2.5c0.1,0.6,0.6,2.1,1,2.5c0.2,0.2,1.8,0,1.9,0.4
		c0.1,0.6-1.8,0.6-2,0.7c-0.6,0.1-1.1,0.7-1.7,0.7c-1.5-0.1,0.9-1.3,1.2-1.5c-0.7-0.8-1.3-1.5-1.5-2.5c-0.1-0.4,0.1-0.8-0.1-1.1
		c-0.2-0.3-0.8-0.6-1-0.9c-0.4-0.4-0.8-1-0.3-1.7c0.4-0.7,0.4-0.2,0.8,0.2c0.3,0.6,0.8,1,1.1,1.6c0.4-0.7,1.2-1.5,1.9-1.8
		C70.2,18.2,72.5,17.9,72.9,19C72.7,19.1,72.9,18.8,72.9,19"/>
	<path class="st0" d="M75,28.9c-0.3,0.2-0.8,0.2-1.2,0.4c-0.3,0.1-0.7,0.4-1,0.6c0.3,0.3,1.3,1,1.3,1.6c-0.1,0.9-1-0.3-1.1-0.6
		c-0.9-1-2.4-2.1-3.7-2.4c-1.6-0.2-3.1,0.4-4.6,0.9c-1.1,0.3-2,0.3-3.1,0.3c-0.9,0-1.6,0.6-2.2,1.1c-0.6,0.4-0.8,1.2-1,1.9
		c-0.1,0.7-0.1,1.2-0.9,1.5c-0.9,0.2-1.6,0.2-2,1.3c-0.2,0.6-0.2,1-0.1,1.5c0.2,0.7,0.6,1.2,1,1.8c0.1,0.2,0.4,0.6,0.7,0.7
		c0.3,0.1,0.7-0.1,1-0.1c0.4-0.1,1.1-0.1,1.6,0.1c0.2,0.1,0.4,0.1,0.6,0.4c0.1,0.4-0.7,0.3-1,0.3c-0.8,0-1.3,0-2,0.3s-1,1-1.6,1.5
		c1,1,1.2,2,0.7,3.4c1.6,0.8,4.2,2.4,2.9,4.5c-0.8,1.3-1,0.1-0.9-0.8c0.1-1,0.1-1.9-1-2.5c-0.4-0.2-1.6-0.2-1.9-0.6s-0.1-1,0-1.3
		c0.3-1.6-0.2-2.5-1.7-3c-1.5-0.4-3.3-0.1-4.5,0.8c-0.8,0.6-1.5,1.6-1.9,2.4c-0.1,0.2-0.3,1.6-0.6,1.6c-0.4,0.1-0.7-0.8-0.7-1.1
		c0.1-0.3,0.3-0.6,0.4-0.8c0.2-0.3,0.3-0.6,0.4-0.8c0.2-0.3,0.9-0.8,1-1.1c0-0.4-1-1.6-1.3-1.9c-0.7-0.6-1.6-1-2.5-1.2
		c-0.6-0.1-1.3,0-1.5-0.6c-0.1-0.4,0.3-1,0.4-1.5c0.2-0.7,0.3-1.3,0.1-2c-0.3-0.9-1-1.3-1.3-2.2c0.8-0.1,1.6,1.2,1.9,1.8
		c0.6,1.1,0.6,2.5-0.1,3.6c1.2,0.4,2.7,1,3.7,2c0.4,0.4,0.7,1,1,1.6c1.8-1.7,4.6-1.8,6.6-0.4c0.3-0.7,0.9-1.1,1.5-1.7
		c-1.5-1-2.6-2.8-2.1-4.6c0.3-1.5,1.7-2.5,3.1-2.2c0-1.2,0.7-3.5,2.1-3.6c-0.8-0.9-4.7-5-1.5-5.4c0.1,1-0.1,1.7,0.4,2.7
		c0.8,1.6,1.8,2.1,3.5,2.1c2.1,0.1,4-1.1,6.2-1.2c1.6-0.1,3,0.7,4.2,1.8c-0.6-0.7,0.7-1,1.2-1.1C73.7,28.4,75.5,28.4,75,28.9
		C74.5,29.2,75.1,28.8,75,28.9"/>
	<path class="st0" d="M63.7,17.8c0.4,0.8-0.8,1.3-1.2,1.6c-0.6,0.2-1.1,0.7-1.5,1.1c-0.4,0.6-0.6,1.7-1,2.2c-0.6,0.6-1.3-0.1-2-0.2
		c-3.1-0.4-6.8,0.8-9.1,2.9c-2.4,2.4-2.9,5.9-1.7,9c0.1,0.2,0.6,1.2,0,1.2c-0.4,0-0.9-1.1-1-1.5c-0.3-0.9-0.4-1.9-0.4-2.9
		c0-0.3,0.2-1.1,0.1-1.5c-0.1-0.2-1.2-0.4-1.5-0.6c-0.6-0.1-2.5,0.7-2.8,0.1c-0.2-0.6,1.3-1,1.7-1c0.8,0,1.9,0.2,2.6,0.7
		c0.1-1.8,1.8-3.8,3.1-4.8c0.2-0.1,0.7-0.3,0.8-0.6c0.1-0.2-0.1-1-0.1-1.3c0-0.2,0-0.4,0-0.7c-0.1-0.3-0.2-0.8-0.4-1
		c-0.2-0.3-1.1-1.1-0.8-1.6c1.8,0.9,2.2,2.4,2,4.3c0.8-0.4,1.6-0.8,2.5-1c0.6-0.1,1.5,0,2-0.3c0.4-0.2,0.2-0.1,0.3-0.7
		c0-0.3,0.1-0.7,0.2-1c0.1-0.3,0.1-0.7,0.3-1c0.3-0.6,0.6-0.3,0-1c-0.6-0.6-0.9-1-1.7-1.2c-0.3-0.1-1.6-0.1-1-1
		c0.4-0.6,1.6,0.3,2,0.6c0.7,0.3,1.1,0.8,1.7,1.3c0.6-0.4,1.2-1.3,2-1.6c0.8-0.2,2.1-0.1,2.7,0.4c-0.3,0.3-0.9,0.1-1.2,0.2
		c-0.6,0-0.9,0.2-1.5,0.4c-1.8,1-2.2,2.2-2.7,4.2c0.8-0.1,1.7,0,2.6-0.2c0.4-0.1,0.8-0.1,1-0.4c0.2-0.2,0.3-0.6,0.6-0.8
		C61,19.4,62.5,18.2,63.7,17.8C63.8,18.1,63.2,17.9,63.7,17.8"/>
	<path class="st0" d="M69.9,33.4c0.7,0.9-0.9,0.3-1.1,0.2c-0.3,0-0.9,0-1.2,0.1c-0.2,0-0.9,0-1,0.1c-0.2,0.2-0.2,1.2-0.3,1.6
		c-0.6,1.6-2,2.8-3.6,3.3c0.7,0.7,1.3,1.2,1.7,2.2c0.1,0.3,0.4,3-0.4,2.4c-0.3-0.2-0.2-1.2-0.2-1.6c-0.1-0.6-0.2-1.2-0.6-1.7
		c-0.2-0.4-2.6-2-2.5-2.4c0.7-0.2,0.8,0.3,1.2,0.4c0.4,0.1,0.2,0.1,0.7-0.2c0.2-0.1,0.3-0.2,0.6-0.3c0.9-0.4,1.6-1,2-1.9
		c0.2-0.4,0.4-0.9,0.6-1.3c0.1-0.8-0.3-0.8-0.8-1.3c-0.4-0.6-0.7-1.2,0.2-1.7c0.3,0.4,0.4,0.9,0.9,1.1c0.4,0.3,1,0.4,1.5,0.6
		C68.2,32.9,69.5,32.8,69.9,33.4C70.1,33.7,69.8,33.2,69.9,33.4"/>
	<path class="st0" d="M48.2,49.1c-0.7,0.4-1.2,0.4-1.7,1.1c-0.2,0.3-0.4,0.7-0.4,1c0,0.6,0.2,0.6,0.6,0.9c0.6,0.4,1,0.8,1.1,1.5
		c0.1,0.4-0.1,0.8,0.1,1.2c0.1,0.2,1.7,2.5,0.3,1.7c-0.7-0.3-1.1-1.8-1.5-2.5c-0.2-0.4-0.2-0.8-0.7-1.1c-0.2-0.1-0.4-0.2-0.7-0.3
		c-0.1,0-0.2,0-0.3-0.1c-0.6-0.2-0.9-0.8-1.3-1.2c-1-1.1-2-2.1-2.2-3.7c-0.2-0.9-0.6-1.9,0.6-2.5c0.3,0.4,0.1,1,0.1,1.5
		c0,0.7,0.1,1.1,0.4,1.8c0.4,0.9,1.1,2.1,2.1,2.7c0.1-1,0.6-1.7,1.3-2.4c0.3-0.2,0.6-0.4,1-0.6C47.6,48.5,48.9,48.7,48.2,49.1
		C48,49.2,48.4,49,48.2,49.1"/>
	<path class="st0" d="M39.4,42.1c-1.1,1.1-3.3,1.3-4,2.8c-1,1.8,0.8,3.6,2.5,4c0.4,0.1,0.4-0.1,0.7,0.3c0.1,0.3,0,0.8,0,1
		c0.1,1.3,0.8,2.6,1.7,3.7c1,1.3,2.1,2.1,3.7,2.8c0.7,0.2,1.2,0.4,1.9,0.4c0.3,0,1.3-0.1,1.6,0.2c0.6,1.3-3.4,0-3.5,0
		c-0.2,0-1.1,0.8-1.2,1.1c-0.3,0.6-0.1,1.2,0.1,1.8c0.1,0.4,0.4,1.3-0.2,1.2c-0.6-0.1-1.2-1.2-1.2-1.8c-0.1-1.2,0.9-1.9,1.8-2.6
		c-2.5-1.5-4.8-3.9-5.5-6.8c0-0.2,0-0.3,0-0.6c0-0.2-0.1-0.3-0.3-0.2c-0.1-0.1-0.3-0.1-0.4-0.1c-0.6-0.2-1-0.6-1.3-1
		c-0.8-0.8-1.3-1.8-1.2-2.9c0.1-1.1,1.2-1.9,2.2-2.5s2-1.6,3.3-1.5C39.4,41.7,39.4,41.8,39.4,42.1C39,42.3,39.4,41.8,39.4,42.1"/>
	<g>
		<path class="st0" d="M88.8,21c0-0.6-0.2-1-0.4-1.5c-0.1-0.4-0.3-0.9-0.3-1.2l0,0c-0.1-0.6-0.6-1-0.9-1.2C87.1,17,87.1,17,87,16.9
			l-0.1-0.1c-0.4-0.4-1-0.9-1.7-1.1c-0.2-0.2-0.4-0.2-0.6-0.2s-0.2,0-0.3,0c-0.2-0.1-0.3-0.1-0.6-0.3l-0.1-0.1
			c-1-0.8-2.2-1.3-3.1-1.6c-0.2-0.1-0.6-0.1-0.9,0c-0.3,0-0.7,0-0.9-0.1c-0.2-0.1-0.3-0.7-0.4-1.1c-0.1-0.2-0.1-0.6-0.2-0.7
			c-1.3-3-4-4.4-7.3-3.7c-1.2,0.2-2.2,0.8-3,1.6c-0.2,0.2-0.3,0.6-0.6,0.8c-0.1,0.3-0.3,0.6-0.4,0.7c-0.3,0.2-0.6,0.1-1-0.3
			c-0.1-0.1-0.2-0.2-0.4-0.3c-0.7-0.4-1.2-0.7-2-0.6c-1.3,0.1-2.7,1.2-3.6,2c-1,0.8-1.9,1.6-3,1.5c-0.2,0-0.4,0-0.7-0.1
			C55,13.1,54,13,52.7,13.3c-2.2,0.6-3.6,1.8-4.9,3.4c-0.6,0.7-1,1.3-1.5,2.1l-0.2,0.3c-0.2,0.4-0.2,0.4-0.6,0.3c-0.1,0-0.2,0-0.3,0
			c-0.8-0.1-1.3,0-2.1,0.3c-0.7,0.2-1.2,0.6-1.9,1.1c-0.3,0.3-0.6,0.6-0.8,0.9c-0.1,0.1-0.2,0.3-0.4,0.4c-0.1,0-0.2-0.1-0.3-0.1l0,0
			h-0.3c-0.7,0.1-1.3,0.1-2,0.3c-0.8,0.2-1.9,0.8-2.7,1.3c-1.5,1.1-1.7,2.2-1.2,3.7c-1.5,0.2-3.7,0.8-5.2,2.6c-0.8,1-1.2,2-1.2,3.1
			c0,0.7,0,1.2,0,1.8c0,0.1,0,0.2,0,0.4c0,0.4,0.1,1.1,0,1.3c-0.1,0.1-0.3,0.3-0.6,0.6c-0.2,0.2-0.6,0.3-0.8,0.6
			c-0.1,0.2-0.2,0.4-0.3,0.7c-0.1,0.2-0.1,0.4-0.2,0.6c-0.1,0.1-0.3,0.2-0.6,0.3c-0.2,0.1-0.4,0.2-0.7,0.4c-0.2,0.1-0.4,0.3-0.7,0.4
			c-0.2,0.2-0.6,0.3-0.8,0.6c-1.3,1.1-2.1,2.5-2.6,4.5c0,0.2-0.1,0.6-0.2,0.8c-0.1,0.6-0.2,1.1-0.3,1.7c-0.1,1.2,0,2.1,0.6,3.3
			c0.1,0.1,0.1,0.2,0.2,0.3c0.1,0.2,0.2,0.4,0.3,0.6c0.1,0.3-0.3,0.9-0.7,1.5c-0.3,0.3-0.6,0.8-0.7,1.1c-0.1,0.2-0.2,0.6-0.3,0.8
			c-0.3,0.7-0.6,1.5-0.6,2.2s0.2,1.1,0.3,1.7c0.1,0.2,0.1,0.3,0.2,0.6c0.4,1.5,1.3,2.7,2.8,3.8c0.2,0.2,0.6,0.3,0.9,0.6
			c0.7,0.3,1.5,0.9,1.6,1.3c0,0.1,0,0.4,0,0.7c0,0.2,0,0.3,0,0.6V67c0,0.4,0,0.9,0,1.3c-0.1,0.9-0.1,1.5,0.1,2.4
			c0.4,1.2,0.9,2.6,1.5,3.5c0.8,1.1,1.8,2.1,2.7,2.7c0.2,0.1,0.4,0.2,0.8,0.3c0.2,0.1,0.6,0.1,0.8,0c0.2,0,0.3,0,0.4,0l0,0
			c0.1,0.2,0.2,0.3,0.3,0.4c0.3,0.1,0.6,0.2,1,0.3c0.3,0.1,0.9,0.2,1.5,0.2c0.1,0,0.3,0,0.4,0c1.2-0.2,2.4-0.9,3.4-2.2
			c0.1-0.1,0.1-0.2,0.2-0.3c0-0.1,0.1-0.1,0.1-0.2s0.1-0.1,0.1-0.1c0.1-0.1,0.2-0.2,0.3-0.3c0-0.1,0-0.2,0-0.4v-0.1
			c0.2-0.3,0.7-0.6,1.1-0.8c0.2-0.1,0.3-0.2,0.6-0.3c0.4-0.3,1-0.7,1.5-0.9c0.7-0.4,1.5-0.8,2.1-1.5c0.6-0.6,1.1-1.1,1.3-1.7
			c0.1-0.2,0.2-0.6,0.2-0.9c0.1-0.4,0.2-1,0.4-1.2s0.7-0.3,1.1-0.4c0.3-0.1,0.6-0.2,0.9-0.3c1-0.4,1.8-1.3,2.6-2.1
			c0.2-0.2,0.4-0.4,0.6-0.7c0.9-0.9,1.3-1.6,1.9-2.6c0.4-0.8,0.8-1.5,1.1-2.1c0.2-0.6,0.2-0.6,0.8-0.6c0.3,0,0.8-0.1,1.1-0.3
			c1.3-0.8,2.2-2.9,2.2-4.5c0.7,0,1.2-0.1,1.9-0.3c0.9-0.3,1.7-1.1,2.4-1.8c0.2-0.2,0.3-0.4,0.6-0.6c0.3-0.3,0.6-0.6,0.9-0.9
			c0.9-0.9,1.8-1.7,2.6-2.7c0.2-0.3,0.4-0.7,0.7-1c0.2-0.4,0.4-0.9,0.7-1.5c0.1-0.3,0.2-0.7,0.4-1c0.1-0.2,0.2-0.6,0.3-0.8
			c0.1-0.2,0.2-0.6,0.2-0.8c0.1-0.2,0.1-0.4,0.2-0.7c1.5,0.6,3.7-0.6,4.7-1.5s2.1-2,2.9-3.1c0.1-0.2,0.2-0.4,0.4-0.7L76,36
			c0.2-0.3,0.4-0.8,0.7-1.1l0.1-0.2c0.1-0.2,0.1-0.2,0.3-0.2c0.1,0,0.1,0,0.2,0c0.2,0.1,0.3,0.1,0.7,0c0.4-0.2,0.9-1,0.9-1
			c0.3-0.6,0.3-1,0.2-1.6c0.8,0.1,1.9-0.1,2.4-0.2c0.9-0.2,1.6-1,2-2c0.1-0.4,0.2-0.9,0.3-1.3c0-0.2,0.1-0.4,0.1-0.6S84,27.3,84,27
			c0-0.2,0.1-0.4,0.1-0.7c0.1-0.2,0.3-0.3,0.7-0.4c0.1,0,0.2-0.1,0.4-0.1c1.2-0.6,2.6-1.9,3.1-3C88.8,22.2,88.9,21.5,88.8,21z
			 M36.2,73.9c-0.4,0.7-0.9,1.3-1.5,1.8c-1,0.8-2.1,0.8-3.4,0.6c0.2-0.3,0.4-0.7,0.4-1.1v-0.3h-0.3c-0.3,0-0.6,0.1-0.8,0.2
			c-0.1,0.1-0.3,0.1-0.4,0.1c-0.4,0.1-1,0-1.7-0.2c-1.7-0.8-2.5-2.4-3.3-3.8c-0.4-1.1-0.6-2.2-0.6-3.4c0-0.8,0-1.6-0.1-2.4h0.1
			c0.6,0.1,1,0.3,1.7,0.3c0.3,0,0.7,0.1,1.1,0.2s0.8,0.2,1.2,0.2c-0.1,1.1,0.2,2.7,1,3.6c0.1,0.2,0.6,0.7,1,0.4
			c0.4-0.2,0.2-1,0.1-1.2l-0.1-0.3c-0.3-0.8-0.6-1.5-0.6-2.2c0-0.4,0.1-0.9,0.4-1.3c0.1-0.1,0.2-0.3,0.4-0.6
			c0.4-0.6,0.9-1.2,0.8-1.9v-0.2h-0.2c-1,0.1-1.5,1-1.8,1.7l-0.1,0.2c-0.2,0.4-0.2,0.4-0.6,0.4c-0.1,0-0.7,0-0.8,0
			c-0.1-0.2-0.3-1.2-0.3-1.7c0-0.3,0.1-0.8,0.2-1c0.6-1.1,1.5-1.5,2.8-1.7c0.3-0.1,1-0.2,1.1-0.7c0-0.1,0-0.4-0.2-0.7
			c-0.2-0.2-0.8-0.3-1.2-0.3c-0.2,0-0.3,0-0.4,0c-0.4-0.1-0.9-0.2-1.3-0.6c-0.2-0.1-0.4-0.3-0.7-0.4c0,0-0.1-0.1-0.2-0.3
			c-0.2-0.4-0.4-0.7-0.7-0.7c-0.1,0-0.3,0-0.4,0.2c-0.2,0.3-0.2,1.1-0.1,1.3c0.1,0.4,0.6,0.8,0.8,1c0.1,0.1,0.3,0.3,0.4,0.4H28l0,0
			c0,0,0,0-0.1,0.1l-0.1,0.1V60c-0.1,0.4-0.3,0.8-0.6,1.1c-0.3,0.4-0.6,0.9-0.7,1.5c-0.1,0.7-0.2,1.5,0.1,2.2
			c-2.9-0.3-5.8-2.6-7.1-5.5c-0.4-1.1-0.4-2-0.1-3.3c0.2-0.9,0.7-1.6,1.1-2.2c0.1-0.2,0.3-0.6,0.4-0.8c0.7,0.7,1.2,1.1,2,1.7
			c-1.1,1.1-1.3,2.2-0.8,3.6c0.1,0.3,1.7,2.6,2.7,2.6c0.2,0,0.4-0.1,0.7-0.4c0.2-0.4-0.3-1-0.9-1.6c-0.1-0.1-0.1-0.1-0.1-0.1
			c-0.6-0.6-0.9-1-0.9-1.8c0-0.6,0.2-1.5,0.8-1.6c0.3,0,0.8,0,1.3,0.1c0.3,0,0.7,0.1,0.9,0.1h0.2c0.7,0,1.2,0.1,1.7-0.2
			c0.1-0.1,0.6-0.3,0.4-0.7c0-0.1-0.1-0.4-1.8-0.4H27c-0.9,0-2.4-0.1-3.5-0.9c-2.5-1.7-3.6-4-3.1-6.5c0.4-2.2,1.2-4.8,4-6.1
			c0.3,0.8,1.6,2.7,2.5,3c0.3,0.1,0.6,0,0.8-0.2l0.1-0.1l-0.1-0.2c-0.2-0.4-0.4-0.7-0.8-1c-0.2-0.2-0.6-0.6-0.7-0.8
			c-0.3-0.7-0.3-1.7,0.1-2.5c0.2-0.4,0.6-0.7,1-0.9c0.2-0.1,0.4-0.2,0.7-0.4c0.7-0.6,0.6-0.8,0.3-1.5l0.4-0.2c-0.9-2.1,0-5,2-6.3
			c0.6-0.3,1.1-0.7,1.6-0.8c0.2-0.1,0.4-0.1,0.8-0.2h0.2c0.1,0,0.2,0,0.3-0.1c0.2-0.1,0.2,0,0.3,0.1c0.2,0.2,0.3,0.6,0.4,0.9
			c0.1,0.3,0.2,0.7,0.6,1c0.1,0.2,0.2,0.3,0.4,0.4c0.2,0.2,0.3,0.3,0.4,0.8l0,0c-0.1,0-0.2-0.1-0.3-0.1c-0.4-0.1-0.8,0-1.1,0.1
			s-0.7,0.2-1,0c-0.2-0.1-0.4-0.6-0.6-0.9c-0.1-0.4-0.2-0.8-0.6-0.9c-0.4-0.1-1.1,0.4-1.2,0.8c-0.3,0.8,0.2,1.5,0.6,1.9
			c0.1,0.1,0.2,0.2,0.2,0.2c0.2,0.2,0.4,0.4,0.4,0.6s0,0.4-0.1,0.5c-0.1,0.2-0.2,0.4-0.3,0.6c-0.6,1.5-0.2,3.4,0.7,4.6
			c-1.9,1-2.7,3.1-3.5,5l-0.1,0.2c-0.6,1.5-1.1,3.3-0.4,4.9c0.7,1.7,1.9,3,3,4.4c1.3,1.3,2.5,2,4.4,2.5C35,57,34.2,57.7,34,58.9
			c-0.3,1.6,0.3,2.4,1.3,3c-1.2,1.7-1.2,4.3,0,5.9c1.3,1.8,2.7,2.8,4.4,3.6c-0.4,0.3-0.8,0.3-1.6,0.2h-0.2c-0.6,0-1.1-0.2-1.7-0.3
			c-0.3-0.1-0.7-0.2-1-0.2c-0.6-0.1-1,0-1.1,0.3c-0.1,0.2,0,0.6,0.6,0.9c0.8,0.4,1.7,0.6,2.5,0.7c0.1,0,0.2,0,0.2,0
			C36.7,73.3,36.5,73.6,36.2,73.9z M37.6,39.7c-0.1-0.6-0.4-1-0.8-1.5c-0.3-0.6-0.7-1.1-0.8-1.9c-0.1-0.7,0.1-1.2,0.2-1.9l0.1-0.4
			c0-0.1,0-0.2,0.1-0.3c0-0.3,0.1-0.7,0.2-0.9c0-0.1,0.1-0.2,0.2-0.3c0.2-0.2,0.3-0.4,0.3-0.8c0-0.6-0.6-0.9-1-1.2
			c-0.2-0.1-0.4-0.2-0.4-0.3c-0.4-0.6-0.8-1.6-1-2.2c-0.2-0.9-0.3-2.1,0.2-2.9c0.7-0.9,2.9-1.8,4-1.7c0.2,0,0.2,0,0.2,0s0,0.1,0,0.2
			s0,0.2-0.1,0.3V24c0,0.3-0.1,0.7,0,1c0,0.1,0.1,0.2,0.1,0.4c0,0.1,0.1,0.2,0.1,0.2c0,0.1-0.2,0.4-0.4,0.7
			c-0.2,0.2-0.3,0.6-0.4,0.7c-0.1,0.3-0.2,0.7-0.2,1v0.2c0,0.1,0,0.2-0.1,0.3c-0.1,0.6-0.2,1.1-0.1,1.7c0.1,0.4,0.4,1.1,0.9,1.2
			c0.1,0,0.4,0,0.7-0.3c0.2-0.3,0.1-0.9,0-1.5c0-0.3-0.1-0.6-0.1-0.8c0.1-1.5,1.1-2.8,2.5-3.5c1-0.6,1.8-0.8,2.6-0.9
			c0.1,0,0.2,0,0.3,0c0.8,0,1.3,0,1.5-0.3c0.1-0.3-0.3-0.7-0.4-0.8c-0.4-0.3-1.3-0.3-2.7,0c-0.9,0.2-1.7,0.7-2.5,1.1
			c-0.2-1.1,0.6-2.4,1.5-3.1c0.6-0.4,1.5-1,2.2-1c0.3,0,0.9,0,1,0c0,0.1,0,0.3,0,0.4c0,0.2,0,0.3,0,0.4c0,0.4,0.1,1,0.6,1.2
			c0.3,0.1,0.4,0,0.6,0c0.2-0.2,0.2-0.6,0.2-0.9v-0.1c0-0.9,0.3-1.6,0.8-2.5c0.7-1.3,1.7-2.7,3-3.7s2.8-1.5,4.5-1.3
			c0.2,0,0.4,0,0.7,0c0.7,0,1.5,0,1.7,0.4c0,0.1,0.1,0.2,0.1,0.4c0.1,0.6,0.3,1.1,0.8,1.2c0.1,0,0.3,0,0.7-0.2
			c0.1-0.1,0.3-0.7,0.4-1.1c0.1-0.3,0.1-0.4,0-0.7c0,0,0-0.1-0.1-0.2c0-0.3,0-0.3,0.3-0.7c0.1-0.1,0.2-0.1,0.3-0.2
			c0.2-0.1,0.3-0.3,0.6-0.6s0.4-0.4,0.7-0.7c1.3-1.1,2.6-1.2,3.9-0.4l0.1,0.1c0.3,0.2,0.6,0.3,0.7,0.4c-0.1,0.1-0.3,0.1-0.4,0.2
			c-0.2,0.1-0.4,0.2-0.6,0.2c-0.3,0.2-0.7,0.6-0.9,0.8c0,0-0.1,0.1-0.2,0.1c-0.3,0.3-1,0.8-0.7,1.3c0.1,0.2,0.3,0.3,0.4,0.3
			c0.3,0.1,0.6-0.1,0.8-0.3l0.1-0.1c0.6-0.4,1-0.9,1.7-1.2c0.1,0.3,0.3,0.6,0.6,0.7c0.4,0.2,0.9-0.1,1.3-0.3l0.3-0.1
			c0.3-0.2,0.3-0.2,0.8,0l0.2,0.1c0.2,0.1,0.4,0.1,0.6,0.2c0,0,0.1,0.1,0.2,0.1c0.4,0.3,1,0.7,1.5,0.3c0.2-0.1,0.2-0.3,0.2-0.6
			c-0.2-0.8-3-1.7-4-2c0.6-1.1,1-2,2.1-2.4c1.2-0.4,3-0.7,4.3-0.2c0.9,0.3,1.8,1.1,2.2,2.1c0.2,0.4,0.4,0.9,0.6,1.3
			c0,0.1,0.1,0.3,0.1,0.4c0,0.1,0.1,0.3,0.1,0.6c-0.2,0.1-0.4,0.1-0.6,0.2c-0.1,0-0.1,0-0.2,0l-0.2-0.1c-0.1-0.1-0.2-0.2-0.4-0.4
			c-0.2-0.2-0.4-0.6-0.8-0.6c-0.3-0.1-0.6,0-0.7,0.2c-0.2,0.6,0.7,1.5,0.7,1.5c0.1,0.1,0.2,0.2,0.3,0.2c0,0,0.1,0.1,0.1,0
			c0,0,0,0.1-0.1,0.2c-0.1,0.1-0.2,0.2-0.3,0.3c-0.1,0.1-0.2,0.2-0.2,0.3c-0.1,0.1-0.3,0.3-0.6,0.6C73.5,16.6,73,17,73,17.5
			c0,0.3,0.2,0.6,0.3,0.6c0.3,0.2,0.9,0,1.1-0.2c0.3-0.2,0.7-0.8,1-1.1c0.1-0.1,0.2-0.3,0.3-0.4l0.2-0.2c0.6-0.7,1-1.3,1.9-1.6
			c1.3-0.4,2.7-0.1,4.4,0.9c-0.4,0.1-0.9,0.3-1.2,0.6c0-0.1-0.1-0.1-0.2,0s-0.3,0.3-0.4,0.3c0,0-0.1,0-0.2-0.1s-0.3-0.1-0.6-0.1
			c-1,0.1-2.1,1.5-2.1,2.5c0.1,1.1,1,1.8,1.8,2.4c0,0,0.1,0,0.1,0.1c0.3,0.3,0.9,0.7,1.1,0.4c0.1-0.1,0.2-0.3,0.2-0.4
			c0-0.4-0.6-0.8-1-1l-0.1-0.1c-0.3-0.2-0.6-0.9-0.6-1.3c0-0.2,0.2-0.4,0.6-0.6c0.1,0,0.2,0.1,0.3,0c0.4-0.1,0.7-0.3,1-0.6l0.1-0.1
			c0.9-0.8,2.5-1.3,3.7-1.1c0.8,0.1,1.3,0.6,1.7,1.2c0,0,0,0,0,0.1l0.2,0.3c0.6,1.2,1.1,2.2,0.6,3.5s-1.7,2.2-2.8,2.8
			c-0.1-0.7-0.2-1.5-0.2-2c0-0.1,0-0.2,0-0.4c0-0.7-0.1-1.1-0.3-1.3c-0.3-0.3-0.6-0.2-0.7-0.2c-0.4,0.2-0.6,1-0.6,1.3s0.1,0.7,0.2,1
			c0.1,0.2,0.1,0.6,0.2,0.8c0.1,1,0,1.8-0.2,2.9c-0.3,1.6-0.6,2.7-2.2,3c-1.1,0.2-1.7,0.3-2-0.7c-0.2-0.8-0.6-1.6-1-2.2
			c-0.4-0.8-1.2-1.5-2-1.9c-0.7-0.4-1.3-0.9-2-1.2c-0.1,0-0.1-0.1-0.2-0.1c-0.6-0.3-1.5-0.9-2-0.3l-0.3,0l0.1,0.2
			c0.6,0.8,1.5,1.2,2.2,1.6c0.4,0.2,1,0.4,1.3,0.8c0.8,0.6,1.3,1.2,1.9,2.2c1.3,2.6,1.1,3.6,0.9,3.8c-0.1,0.1-0.4,0.3-0.7,0.4
			c-0.2,0.1-0.6,0.2-0.8,0.4c-0.3,0.2-0.8,0.8-1.1,1.3c-0.1,0.2-0.2,0.4-0.3,0.6c-0.2,0.6-0.4,1-0.9,1.5c-1.2,1.5-3.4,3.9-5.7,3.5
			c0.1-0.6,0-1.3-0.4-1.7l-0.2-0.1l-0.1,0.1c-0.4,0.6-0.7,1.3-0.8,2.1c-0.1,0.3-0.1,0.8-0.2,1c-0.3,1-0.8,2-1.2,3.1
			c-0.8,1.7-2.4,3.3-3.8,4.6c-0.3,0.3-0.7,0.7-1,1c-1.9,1.9-4.3,2-7.7,0.4c-0.6-0.2-1-0.4-1.6-0.6c-0.6-0.1-0.9,0-1,0.2
			s-0.1,0.4,0.1,0.7c0.2,0.2,0.6,0.3,0.8,0.3c0.1,0,0.2,0,0.3,0.1c0.2,0.1,0.3,0.2,0.6,0.3c0.1,0.1,0.2,0.1,0.4,0.2
			c0.8,0.3,1.5,0.7,2.1,0.8c0.1,0,0.2,0,0.3,0.1c0.2,0,0.4,0.1,0.7,0.2c0.1,0,0.2,0.1,0.3,0.1v0.1v0.1c0.2,0.7-0.3,1.8-0.8,2.4
			c-0.3,0.3-0.7,0.6-1.1,0.8l0,0c0.1-0.3,0.2-0.8-0.1-1.2c-0.1-0.1-0.4-0.6-0.9-0.7c-0.1,0-0.3,0-0.4,0.1c-0.2,0.2-0.2,0.6-0.1,1.3
			c0,0.2,0,0.6,0,0.7c-0.1,0.3-0.2,0.7-0.3,0.9c0,0.1-0.1,0.2-0.1,0.3c-0.4,1.2-1.2,2.7-2,3.7c-1.3,1.8-3,3-5.3,4l-0.2,0.1
			c-0.8,0.3-1.7,0.7-2.4,1.1c-0.4,0.2-0.8,0.6-0.7,0.9c0,0.2,0.2,0.4,0.6,0.6s0.9,0,1.2-0.2c-0.1,0.8-0.3,1.2-1,1.7
			c-1.1,0.8-3,0.1-3.9-0.7c-0.4-0.4-2.1-1.9-2.4-3.6c-0.1-0.7,0-1.5,0.3-2.1c0.1-0.2,0.2-0.3,0.3-0.6c0.3-0.3,0.7-0.9,0.3-1.6
			c-0.2-0.3-0.4-0.6-0.7-0.8c-0.4-0.4-0.8-0.8-0.8-1.3c0-1,1.2-2.1,2.1-2.5c0.1,0,0.3-0.1,0.6-0.1c0.4-0.1,1-0.1,1.1-0.4
			c0.1-0.2,0.2-0.4,0.1-0.7c-0.2-0.3-0.7-0.3-1-0.3h-0.4c-1,0-1.7,0-2.7-0.3c-2-0.7-3.7-2.2-5-4.7c-0.7-0.6-1.2-1.7-1.1-2.8
			c0.2-1.7,1-3.7,2-5.2c0.3-0.4,0.7-0.8,1.2-1.2c0.1,0,0.3-0.1,0.6-0.2c0.4-0.2,0.6-0.2,0.7-0.3c0.3-0.4-0.1-1-0.3-1.5
			c-0.1-0.1-0.1-0.2-0.1-0.2c-0.3-0.7-0.7-1.6-0.6-2.5c0-0.4,0.2-0.9,0.4-1.3c0.2-0.3,0.4-0.4,0.9-0.4c0.3-0.1,0.7-0.1,1-0.3
			c0.1-0.1,0.4-0.3,0.7-0.6c0,0.6-0.1,1-0.2,1.6c-0.2,1.7-0.6,3.5,0.8,5.3c0.1,0.1,1.1,1.3,1.6,1.1C37.8,40.4,37.7,39.9,37.6,39.7z"
			/>
		<path class="st0" d="M66.3,20.9c0.2,0.1,0.3,0.3,0.4,0.4s0.1,0.2,0.1,0.6c0,0.1,0,0.3,0,0.6c0.1,1,0.7,1.7,1.3,2.4
			c-0.6,0.3-1.6,0.9-1.5,1.5c0.1,0.3,0.6,0.4,0.7,0.4l0,0c0.4,0,0.8-0.2,1.1-0.4c0.2-0.1,0.3-0.2,0.6-0.2c0.1,0,0.2,0,0.3,0
			c0.8-0.1,1.5-0.2,1.7-0.6c0.1-0.1,0.1-0.2,0.1-0.4c-0.1-0.4-0.7-0.4-1.3-0.6c-0.2,0-0.6,0-0.7-0.1c-0.3-0.3-0.9-1.7-0.9-2.4
			c-0.1-0.8,0.4-1.6,1.6-2.2c0.6-0.3,1.1-0.3,1.7-0.3c0.4,0,0.9,0,1.3-0.2l0.3-0.1L73,19c-0.1-0.3-0.4-0.6-0.9-0.7
			c-0.9-0.3-2.4-0.1-3,0.2c-0.7,0.3-1.3,1-1.8,1.7c-0.3-0.4-0.7-0.8-0.9-1.2c0-0.1-0.1-0.1-0.1-0.2c-0.1-0.2-0.2-0.6-0.6-0.6l0,0
			c-0.2,0-0.4,0.2-0.6,0.4c-0.4,0.9,0.1,1.6,0.4,2C65.9,20.6,66.1,20.7,66.3,20.9z"/>
		<path class="st0" d="M58.7,26.7c-0.3-0.6-0.3-1.1-0.3-1.7c0-0.3,0-0.7-0.1-1v-0.2H58c-0.8,0.1-1.2,0.4-1.5,0.9
			c-0.4,1.2,1.1,3.1,2.5,4.7c-1.2,0.6-1.8,2.2-1.9,3.5c-1.5-0.1-2.8,0.9-3.1,2.5c-0.4,1.8,0.6,3.6,1.9,4.7l-0.1,0.1
			c-0.3,0.3-0.7,0.7-1,1.1c-2-1.2-4.7-1-6.4,0.4c0-0.1-0.1-0.1-0.1-0.2c-0.2-0.3-0.4-0.8-0.8-1.1c-0.9-0.9-2.2-1.5-3.5-1.9
			c0.6-1.1,0.6-2.5,0-3.6c-0.3-0.7-1.2-2.1-2.1-1.9l-0.3,0.1l0.1,0.3c0.1,0.4,0.4,0.8,0.7,1.1s0.4,0.7,0.7,1
			c0.2,0.6,0.1,1.1-0.1,1.9c0,0.1-0.1,0.2-0.2,0.3c-0.2,0.3-0.4,0.8-0.3,1.2c0.1,0.7,0.8,0.8,1.2,0.8c0.1,0,0.3,0,0.4,0.1
			c0.8,0.2,1.8,0.7,2.4,1.2c0.4,0.3,1.2,1.5,1.2,1.7c0,0.1-0.3,0.4-0.6,0.6s-0.3,0.3-0.4,0.4c-0.1,0.2-0.2,0.3-0.3,0.6
			c0,0.1-0.1,0.2-0.1,0.2c0,0.1-0.1,0.1-0.1,0.2c-0.1,0.2-0.3,0.4-0.3,0.7c-0.1,0.3,0.1,0.9,0.3,1.2c0.2,0.2,0.4,0.2,0.7,0.2
			c0.3-0.1,0.4-0.4,0.7-1.3c0-0.2,0.1-0.3,0.1-0.4c0.3-0.8,1.1-1.8,1.8-2.2c1.2-0.9,2.9-1.1,4.3-0.7c1.3,0.4,1.8,1.2,1.6,2.7
			c0,0.1,0,0.1,0,0.2c-0.1,0.4-0.2,1,0.1,1.5c0.2,0.3,0.8,0.3,1.2,0.4c0.3,0,0.6,0.1,0.8,0.2c0.9,0.4,1,1.1,0.9,2.2
			c0,0.4-0.1,1.5,0.4,1.7h0.1c0.4,0,0.7-0.6,0.8-0.8c0.3-0.7,0.4-1.3,0.2-2c-0.3-1-1.3-1.9-3-2.8c0.4-1.2,0.2-2.2-0.7-3.1
			c0.1-0.1,0.2-0.2,0.3-0.4c0.2-0.3,0.6-0.6,0.9-0.8c0.7-0.3,1.1-0.3,1.8-0.3h0.1c0.3,0,0.8,0.1,1-0.2c0.1-0.1,0.2-0.2,0.1-0.4
			c0-0.3-0.3-0.4-0.6-0.6h-0.1c-0.6-0.3-1.2-0.2-1.7-0.2c-0.1,0-0.2,0-0.3,0.1c-0.2,0.1-0.4,0.1-0.6,0c-0.1,0-0.3-0.3-0.4-0.4
			L56.4,39c-0.4-0.4-0.8-1.1-0.9-1.7c-0.1-0.4-0.1-0.9,0.1-1.3c0.3-0.8,0.7-0.9,1.5-1c0.1,0,0.2-0.1,0.3-0.1c0.9-0.2,0.9-0.8,1-1.3
			c0-0.1,0-0.2,0.1-0.3c0.1-0.8,0.4-1.3,0.9-1.7c0.7-0.7,1.2-1,2-1c0.2,0,0.4,0,0.7,0c0.9,0,1.7,0,2.6-0.3l0.3-0.1
			c1.3-0.4,2.8-0.9,4.2-0.8c1.6,0.2,3,1.7,3.6,2.2l0.1,0.1c0.4,0.6,0.8,0.9,1.1,0.8c0.1,0,0.3-0.1,0.3-0.6c0.1-0.6-0.6-1.1-1.1-1.6
			c0.1,0,0.1-0.1,0.2-0.1c0.1-0.1,0.2-0.2,0.4-0.2c0.1-0.1,0.3-0.1,0.4-0.1c0.2,0,0.4-0.1,0.7-0.2l0,0c0,0,0.1,0,0.1-0.1l0,0l0,0
			l0.2-0.2l0,0c0.1-0.1,0-0.2,0-0.3c-0.2-0.6-1.8-0.3-1.8-0.3c-0.6,0.1-1.2,0.2-1.6,0.7c-1.1-1-2.5-1.5-3.8-1.3c-1,0-2,0.3-2.9,0.7
			c-1.1,0.3-2.1,0.7-3.3,0.6C60.3,28.6,59.4,28,58.7,26.7z"/>
		<path class="st0" d="M43.4,29.7c0.3-0.1,0.8-0.1,0.9-0.1c0.4,0.1,1.2,0.3,1.3,0.4c0,0.1,0,0.6-0.1,0.8c0,0.2-0.1,0.3-0.1,0.4
			c0,1.1,0.1,2.1,0.4,3c0.2,0.8,0.7,1.6,1.2,1.6l0,0c0.2,0,0.4-0.1,0.4-0.2c0.2-0.3,0-0.9-0.2-1.3v-0.1c-1.2-3-0.6-6.5,1.6-8.6
			s5.9-3.4,8.9-2.9c0.2,0,0.4,0.1,0.7,0.2c0.6,0.2,1.2,0.4,1.7,0c0.3-0.3,0.4-0.8,0.7-1.2c0.1-0.3,0.2-0.8,0.4-1
			c0.3-0.3,0.8-0.8,1.3-1l0.1-0.1c0.6-0.2,1.7-0.9,1.2-1.9l-0.1-0.2l-0.1,0.2h-0.1c-1.2,0.3-2.7,1.6-3.6,2.6
			c-0.1,0.1-0.2,0.2-0.2,0.4c-0.1,0.1-0.1,0.2-0.2,0.3c-0.2,0.2-0.4,0.3-0.9,0.3c-0.4,0.1-1,0.1-1.5,0.1c-0.2,0-0.4,0-0.7,0
			c0.4-1.6,0.9-2.6,2.5-3.6c0.4-0.2,0.8-0.4,1.2-0.4c0.1,0,0.2,0,0.3,0c0.3,0,0.8,0.1,1.1-0.2l0.2-0.2l-0.2-0.2
			C61,16,59.6,16,58.8,16.3c-0.7,0.1-1.1,0.7-1.6,1.1c-0.2,0.1-0.2,0.2-0.3,0.3c-0.4-0.4-0.9-0.9-1.6-1.2c0,0-0.1-0.1-0.2-0.1
			C54.5,16,53.4,15.3,53,16c-0.2,0.2-0.2,0.6-0.2,0.8c0.2,0.4,0.8,0.6,1.1,0.6c0.1,0,0.1,0,0.1,0c0.8,0.2,1.1,0.6,1.6,1.1
			c0.1,0.1,0.1,0.2,0.2,0.2l0,0c-0.1,0.1-0.1,0.2-0.2,0.3c-0.1,0.2-0.2,0.6-0.2,0.8c0,0.1,0,0.2-0.1,0.3v0.1
			c-0.1,0.2-0.1,0.6-0.2,0.9c0,0.1,0,0.3,0,0.4c0,0-0.1,0-0.1,0.1c-0.2,0.1-0.7,0.1-1,0.1s-0.7,0-0.9,0.1c-0.7,0.2-1.3,0.4-2,0.8
			c0.1-1.9-0.7-3.1-2.2-4l-0.2-0.1l-0.1,0.1c-0.4,0.6,0.1,1.2,0.4,1.7c0.1,0.1,0.2,0.2,0.2,0.2c0.2,0.3,0.3,0.7,0.4,0.9
			c0,0.1,0,0.2,0,0.4c0,0.1,0,0.2,0,0.2c0,0.1,0,0.2,0,0.4c0,0.2,0.1,0.7,0,0.8c0,0.1-0.2,0.2-0.4,0.3c-0.1,0.1-0.2,0.1-0.2,0.2
			c-1,0.9-2.8,2.7-3.1,4.6c-1-0.1-1.9-0.3-2.7-0.3c-0.2,0-1.6,0.3-1.9,0.9c-0.1,0.1-0.1,0.3,0,0.6C41.6,30.2,42.5,29.9,43.4,29.7z"
			/>
		<path class="st0" d="M70.2,33.3C70.2,33.2,70.2,33.2,70.2,33.3L70.2,33.3L70.2,33.3L70,33l0,0c-0.4-0.3-1.1-0.4-1.8-0.4
			c-0.2,0-0.4,0-0.6-0.1c-0.4-0.1-1-0.2-1.3-0.4c-0.2-0.1-0.3-0.3-0.6-0.7c-0.1-0.1-0.2-0.3-0.3-0.4l-0.1-0.1L65.1,31
			c-0.4,0.2-0.7,0.6-0.8,0.9c-0.1,0.4,0.1,0.9,0.4,1.3c0.1,0.1,0.2,0.2,0.3,0.3c0.2,0.2,0.3,0.3,0.3,0.7c-0.1,0.4-0.3,0.9-0.6,1.2
			c-0.4,0.9-1,1.3-2,1.9c-0.1,0.1-0.2,0.1-0.3,0.2c-0.1,0-0.2,0.1-0.2,0.1c-0.1,0.1-0.2,0.1-0.3,0.2c0,0-0.1,0-0.2,0
			s-0.2-0.1-0.3-0.2c-0.2-0.2-0.6-0.4-1-0.2h-0.1v0.1c-0.1,0.3,0.1,0.6,1.5,1.7c0.4,0.3,1,0.8,1,0.9c0.2,0.4,0.4,1,0.4,1.6
			c0,0.1,0,0.2,0,0.4c0,0.6,0,1.1,0.3,1.3c0.2,0.1,0.3,0.2,0.4,0.2c0.1,0,0.2,0,0.2-0.1c0.7-0.4,0.1-2.7,0.1-2.7
			c-0.2-0.9-0.8-1.5-1.3-2l0,0c1.6-0.6,2.7-1.7,3.4-3.3c0-0.1,0.1-0.3,0.1-0.6s0.1-0.7,0.1-0.8c0.1,0,0.6,0,0.7,0s0.2,0,0.2,0
			c0.1,0,0.2,0,0.4,0c0.2,0,0.6-0.1,0.8,0c0,0,0.1,0,0.2,0c0.7,0.2,1.1,0.3,1.3,0C70.5,33.8,70.4,33.4,70.2,33.3L70.2,33.3z"/>
		<path class="st0" d="M41.4,48c0.3,1.6,1.2,2.6,2.2,3.7l0.2,0.2c0.3,0.3,0.8,0.8,1.2,1.1c0.1,0,0.2,0.1,0.2,0.1h0.1
			c0.1,0,0.1,0.1,0.2,0.1c0.1,0,0.2,0.1,0.3,0.1c0.2,0.2,0.3,0.3,0.4,0.7l0.1,0.3c0.2,0.8,0.8,2.1,1.5,2.6c0.1,0.1,0.3,0.2,0.6,0.2
			c0.1,0,0.2,0,0.3-0.1c0.3-0.3,0-0.9-0.7-1.9c-0.1-0.1-0.1-0.2-0.1-0.2c0.1-0.2,0.1-0.4,0.1-0.6c0-0.1,0-0.3,0-0.6
			c-0.1-0.8-0.7-1.2-1.1-1.6V52c-0.1-0.1-0.1-0.1-0.2-0.1c-0.2-0.2-0.2-0.2-0.2-0.4s0.1-0.6,0.3-0.9s0.6-0.6,0.9-0.7
			c0.1-0.1,0.2-0.1,0.3-0.2l0,0l0.2-0.1c0,0,0,0,0.1,0c0.3-0.2,0.3-0.6,0.2-0.6c-0.2-0.4-1.2-0.6-1.5-0.6c-0.4,0.1-0.8,0.3-1.1,0.7
			c-0.7,0.6-1.2,1.1-1.3,2c-0.7-0.6-1.2-1.6-1.6-2.4c-0.3-0.6-0.4-1-0.4-1.7c0-0.1,0-0.2,0-0.3c0-0.4,0.1-0.9-0.2-1.3l-0.1-0.2
			l-0.2,0.1c-1.1,0.6-0.9,1.7-0.8,2.5L41.4,48z"/>
		<path class="st0" d="M36,42.9c-1,0.7-2.1,1.3-2.4,2.7c-0.1,1.1,0.3,2.1,1.2,3.1c0.4,0.4,0.9,0.9,1.5,1h0.1c0.1,0,0.2,0,0.2,0.1
			l0.1,0.1h0.1l0,0c0,0.1,0,0.3,0,0.6c0.6,2.6,2.6,5.2,5.3,6.8c-0.8,0.7-1.7,1.3-1.6,2.6c0,0.6,0.8,1.9,1.5,2c0.1,0,0.1,0,0.2,0
			c0.2,0,0.3-0.1,0.4-0.1c0.2-0.3,0.1-0.8,0-1.1c0-0.1,0-0.1,0-0.2c0-0.1-0.1-0.2-0.1-0.3c-0.1-0.4-0.2-0.9,0-1.2s0.8-0.9,1-0.9
			c0,0,0.1,0,0.2,0.1c1.8,0.4,3,0.7,3.5,0.2c0.1-0.1,0.2-0.3,0-0.8c0-0.7-0.7-0.7-1.2-0.7c-0.1,0-0.2,0-0.3,0
			c-0.7,0-1.2-0.2-1.8-0.4c-1.6-0.7-2.7-1.5-3.6-2.7c-0.9-1.2-1.5-2.4-1.6-3.6c0-0.1,0-0.2,0-0.3c0-0.2,0-0.6-0.1-0.8
			c-0.1-0.3-0.2-0.4-0.6-0.6c-0.1,0-0.1,0-0.2,0c-1-0.2-2-1.1-2.4-1.9c-0.2-0.6-0.2-1.1,0.1-1.7c0.4-0.8,1.2-1.1,2.1-1.6
			c0.7-0.3,1.3-0.7,1.8-1.1c0,0,0,0,0.1-0.1l0,0l0.2-0.3l0,0l0.1-0.4h-0.3c-1.1-0.1-2,0.4-2.8,1C36.5,42.5,36.2,42.6,36,42.9z"/>
	</g>
	<g>
		<path class="st0" d="M48.1,90.6c2.9,0,5.6-0.8,8.2-1.6c0.8-0.2,1.1-0.8,1.3-1.1c0.1-0.3,0.2-1-0.1-1.8l-0.3-0.7
			c-0.3-0.8-0.8-1.5-1-2.2c-0.8-2-1.6-4-2.4-6.1L53.6,77c-0.1-0.3-0.2-0.6-0.4-0.8L52,77.4c0,0,0,0.1,0.1,0.1
			c0.8,2.1,1.6,4.3,2.5,6.4c0.4,1,0.9,2,1.5,3c0.1,0.3,0.1,0.4-0.2,0.6c-2.5,0.8-5,1.5-7.6,1.5c-0.4,0-0.9,0-1.3-0.1
			c-1.9-0.2-3.3-0.7-4.5-1.7l-1.2,1.2c1.6,1.2,3.3,2,5.6,2.1C47.1,90.6,47.7,90.6,48.1,90.6z"/>
		<path class="st0" d="M85.5,54.9c0.4,2.6,0.7,5.2,1,7.7c0,0.2,0,0.4,0.1,0.6c0.2,1-0.1,1.7-0.8,2.5c-3.1,3.6-6.6,7-10.2,10.1
			c-0.2,0.1-0.4,0.2-0.7,0.2c0,0,0,0-0.1,0c-4.9-0.3-9.8-1.1-14.5-2.2c-1.1-0.2-2.2-0.6-3.3-0.8c-0.1,0-0.2-0.1-0.3-0.1L55.5,74
			c0.3,0.2,0.7,0.4,1.1,0.6c0.7,0.1,1.5,0.3,2.1,0.6c0.3,0.1,0.8,0.2,1.1,0.3c4.7,1.1,9.6,1.9,14.8,2.4c0.1,0,0.1,0,0.2,0
			c0.7,0,1.3-0.2,1.8-0.7c3.9-3.4,7.3-6.7,10.4-10.3c0.7-0.8,1.6-2,1.2-3.8c0-0.1,0-0.1,0-0.2s0-0.2,0-0.3c-0.1-0.8-0.2-1.6-0.3-2.4
			c-0.2-1.8-0.4-3.6-0.8-5.5c-0.4-2.4-1-4.7-1.6-7c-0.1-0.7-0.3-1.3-0.4-2c-0.1-0.2-0.2-0.6-0.3-0.8l-1.2,1.2
			C84.2,49,84.9,51.9,85.5,54.9z"/>
		<path class="st0" d="M89.9,58.3l0.8,3.9l2.2-3.3l0.2-0.3c0.1-0.2,0.3-0.4,0.4-0.7l0.3-0.6c0.4-0.6,0.8-1.2,1.2-1.9
			c0.4-0.9,1-1.8,1.5-2.7c0.2-0.4,0.4-0.8,0.7-1.2c0.3-0.7,0.3-1.3,0.2-1.7c-0.1-0.3-0.4-0.9-1.2-1.3c-0.3-0.1-0.6-0.3-0.9-0.4
			c-0.4-0.2-0.8-0.4-1.2-0.6c-0.9-0.3-1.8-0.8-2.7-1.1L90.3,46l-2.9-1.2l0.6,3.1l0.9,4.8L89.9,58.3z M93.4,49.2
			c0.7,0.3,1.3,0.7,2.1,1c0.3,0.1,0.4,0.3,0.2,0.7c-0.7,1.2-1.3,2.6-2,3.8c-0.4,0.8-1,1.6-1.5,2.4c-0.2,0.2-0.3,0.6-0.6,0.9
			c-0.7-3.5-1.3-7-2-10.4C90.9,48.2,92.1,48.7,93.4,49.2z"/>
		<path class="st0" d="M98.8,32.9c0.7,1.7,0.9,3.5,0.9,5.3c-0.1,2.4-0.7,4.7-1.5,7c0,0.1-0.1,0.2-0.2,0.3c-2.1-0.9-4.2-1.9-6.3-2.7
			c-1.2-0.4-2.5-0.9-3.7-1.3l-1.2,1.2c0.2,0.1,0.3,0.2,0.6,0.3c0.6,0.2,1.1,0.4,1.7,0.6c0.7,0.2,1.3,0.4,2,0.8
			c1.5,0.6,2.8,1.2,4.3,1.9c0.7,0.2,1.2,0.6,1.9,0.8l1.3,0.6l0.8-1.2c0.1-0.1,0.2-0.3,0.3-0.7c0.7-2.2,1.3-4.7,1.5-7.4
			c0.1-2.2-0.2-4.2-1-5.9c-0.2-0.6-0.9-1.3-1.2-1.8l-1.2,1.2C98.3,32,98.7,32.5,98.8,32.9z"/>
		<path class="st0" d="M63.5,92c2.4,3.4,4.9,5.6,8,7c1.1,0.6,2.4,0.8,3.5,0.8c0.9,0,1.9-0.2,2.8-0.6c2.8-1.1,4.4-3.3,5.6-5
			c1.2-1.8,2.1-3.9,2.9-6.5c0.4-1.3,0.8-2.7,1-4c0.1-0.6,0.3-1.1,0.4-1.8l0.4-1.7l-1.7-0.3h-0.1c-0.1,0-0.3-0.1-0.6-0.1h-1
			c-2.5,0-4.8,0-7.3,0.1c-0.6,0-1.2,0.2-1.7,0.6c-0.4,0.3-0.9,0.7-1.3,1.1c-0.7,0.6-1.3,1-2,1.5c-2.4,1.7-5.3,3.6-8.3,5
			c-0.3,0.2-1.2,0.6-1.5,1.6c-0.2,1,0.4,1.7,0.7,2C63.3,91.8,63.4,91.9,63.5,92z M64.7,89.5c3-1.5,5.8-3.3,8.5-5.2
			c1.1-0.8,2.2-1.7,3.4-2.6c0.2-0.1,0.4-0.2,0.8-0.2c2.8,0,5.5,0,8.3-0.1l0,0c0.1,0,0.1,0,0.3,0.1c-0.4,1.9-0.9,3.8-1.5,5.7
			c-0.7,2.1-1.5,4.2-2.7,6.1s-2.6,3.5-4.7,4.4c-0.8,0.3-1.5,0.4-2.2,0.4c-0.9,0-1.9-0.2-2.8-0.7c-3-1.3-5.4-3.7-7.3-6.4
			c-0.1-0.1-0.2-0.3-0.3-0.4C64.1,90,64.1,89.9,64.7,89.5z"/>
		<path class="st0" d="M88.4,76.1l0.1-2l0.1-1.3l0.2-4.4l-3.1,3.1l-2.9,2.8L82.1,75L79,78.1l4.4-0.2l1.2-0.1l2.1-0.1l1.5-0.1
			L88.4,76.1z M86.7,76.1c-1.1,0.1-2.1,0.1-3.4,0.2c1.2-1.2,2.4-2.4,3.5-3.5C86.8,73.8,86.7,74.9,86.7,76.1z"/>
		<path class="st0" d="M92.7,76.8c0.2,0,0.3,0,0.4-0.1c3.9-0.8,7-1.7,9.8-3c2.1-1,3.9-2.4,5.3-3.8c2.6-2.9,3-6.2,1.2-9.8
			c-1.7-3.4-4.5-5.7-7.2-7.7c-0.4-0.3-1-0.6-1.5-0.6c-0.6,0-1.3,0.2-2,1.3c-0.6,1.1-1.1,2.1-1.7,3c-1.7,2.9-3.7,5.8-5.9,8.6
			c-0.3,0.4-0.6,1.1-0.6,1.7c0,1.1,0,2.2,0,3.4c0,1,0,2,0,2.9c0,0.4,0,1,0,1.5c0,0.2,0,0.6,0,0.8l-0.1,2l2-0.2L92.7,76.8z
			 M92.2,72.9c0-2.1,0-4.3,0-6.3c0-0.2,0.1-0.4,0.2-0.6c2.2-2.8,4.3-5.7,6.1-8.9c0.6-1,1.1-2,1.7-3.1c0.1-0.2,0.3-0.4,0.4-0.4
			s0.2,0.1,0.4,0.2c2.7,2,5.2,4.2,6.6,7.2c1.3,2.7,1.3,5.3-1,7.9c-1.3,1.5-2.9,2.6-4.7,3.5c-2.9,1.5-6.2,2.4-9.3,2.9
			c-0.1,0-0.3,0-0.6,0.1C92.2,74.5,92.2,73.7,92.2,72.9z"/>
		<path class="st0" d="M59.2,85L59.2,85c0.3,0.7,0.8,1.8,2.1,1.8c0.7,0,1.1-0.3,1.7-0.6c1.6-0.9,3.1-1.8,4.7-2.7
			c0.4-0.3,0.9-0.6,1.3-0.9c0.2-0.1,0.4-0.3,0.6-0.4L73,80l-3.9-0.8l-5-0.9l-5.4-1l-2.6-0.4l0.7,2.6v0.1c0,0.2,0.1,0.4,0.2,0.8
			c0.3,0.7,0.7,1.5,1,2.1C58.5,83.2,58.8,84.1,59.2,85z M68.8,80.9c-0.7,0.4-1.2,0.9-1.9,1.3c-1.6,0.9-3,1.8-4.6,2.6
			c-0.4,0.2-0.7,0.3-0.9,0.3s-0.3-0.2-0.6-0.8c-0.7-1.6-1.5-3.3-2.2-4.8c-0.1-0.2-0.1-0.4-0.2-0.6C61.8,79.5,65.2,80.2,68.8,80.9z"
			/>
		<path class="st0" d="M114.1,63.7c-0.2-3.5-1.8-6.4-4-9.1c-2-2.4-4.3-4.3-6.8-5.9c-0.4-0.2-0.4-0.6-0.3-0.9c0.6-2,1.2-3.9,1.6-5.9
			c0.7-3.1,0.7-6.4-0.3-9.5c-0.6-1.8-1.5-3.3-2.6-4.5l-1.2,1.2c1,1,1.7,2.4,2.1,3.8c0.8,2.6,0.9,5.5,0.2,8.6
			c-0.3,1.5-0.7,2.9-1.1,4.4c-0.1,0.4-0.3,1-0.4,1.5c-0.4,1.5,0.3,2.4,1,2.8c2.5,1.7,4.7,3.6,6.4,5.6c2.2,2.7,3.5,5.3,3.6,8.1
			s-0.7,5.2-2.6,7.3c-2,2.2-4.6,3.9-7.9,5.4c-3,1.2-6.3,2.1-10,2.7c-1.2,0.2-1.9,0.9-2.1,2.1c-0.6,3.6-1.3,6.6-2.5,9.5
			c-1.5,3.7-3.6,6.8-5.7,8.5c-2.4,1.8-4.8,2.2-6.6,2.2c-2.8,0-5.3-1-6.6-1.9c-3.1-2.2-3.9-3.1-5.6-5.3c-0.3-0.4-0.7-0.9-1.1-1.5
			c-0.3-0.4-0.7-1-1.1-1.5c-0.6-0.8-1.6-0.8-1.8-0.8s-0.4,0-0.6,0.1c-0.6,0.1-1.1,0.3-1.7,0.6c-0.7,0.2-1.2,0.4-1.9,0.6
			c-2.5,0.7-4.6,1-6.5,1c-1.6,0-3-0.2-4.5-0.7c-1.6-0.4-2.9-1.2-4-2.2L38,91.3c1.3,1.2,2.9,2.1,4.7,2.7c1.7,0.4,3.3,0.7,4.9,0.7
			c2.4,0,4.6-0.4,7-1c1.2-0.3,2.4-0.8,3.6-1.1h0.1c0.2,0,0.4,0.1,0.6,0.2c0.8,1,1.5,2,2.1,2.9c1.7,2.1,2.6,3.3,5.9,5.6
			c1.8,1.2,4.6,2.2,7.6,2.2c2.6,0,5.3-0.7,7.6-2.6c2.7-2.1,4.8-5.7,6.3-9.2c1.2-3.1,2-6.5,2.6-9.9c0.1-0.4,0.2-0.7,0.7-0.7
			c3.6-0.6,7.1-1.5,10.4-2.8s6.2-3.1,8.5-5.8C113.3,69.8,114.3,66.9,114.1,63.7z"/>
	</g>
	<path class="st0" d="M76.2,53.4L75,54.5c0.7,0.8,1.1,1.7,1.3,2.8c0.7,3-0.2,5.5-2.7,7.3c-1.2,0.9-2.5,1.3-3.7,1.3c-1,0-2-0.2-3-0.8
		c-0.6-0.2-1.1-0.7-1.6-1l-1.2,1.2c0.7,0.6,1.2,1,2,1.3c1.2,0.7,2.5,0.9,3.7,0.9c1.7,0,3.3-0.6,4.7-1.6c3-2.2,4.3-5.4,3.4-9.1
		C77.6,55.5,77,54.4,76.2,53.4z"/>
</g>
</svg>
