<svg width="120" height="94" xmlns="http://www.w3.org/2000/svg" xmlns:xlink="http://www.w3.org/1999/xlink" overflow="hidden"><defs><clipPath id="clip0"><rect x="248" y="278" width="120" height="94"/></clipPath></defs><g clip-path="url(#clip0)" transform="translate(-248 -278)"><path d="M329.871 304.5 289.5 344.833C300.705 355.295 318.246 355.033 329.138 344.152 340.029 333.219 340.29 315.747 329.871 304.5Z" stroke="#34212E" stroke-width="1.33333" stroke-miterlimit="8" fill="none" fill-rule="evenodd"/><path d="M328.5 303.381C317.383 292.728 299.722 292.884 288.813 303.797 277.852 314.762 277.748 332.379 288.397 343.5L328.5 303.381Z" stroke="#34212E" stroke-width="1.33333" stroke-miterlimit="8" fill="none" fill-rule="evenodd"/><path d="M312.5 304.868C311.916 305.015 311.438 304.819 310.854 305.163 310.376 305.457 309.898 305.801 309.951 306.39 310.005 306.684 310.27 307.42 310.482 307.617 310.589 307.715 311.438 307.617 311.491 307.813 311.544 308.107 310.535 308.107 310.429 308.157 310.111 308.206 309.845 308.5 309.527 308.5 308.73 308.451 310.005 307.862 310.164 307.764 309.792 307.371 309.474 307.028 309.367 306.537 309.314 306.341 309.42 306.144 309.314 305.997 309.208 305.85 308.889 305.703 308.783 305.555 308.571 305.359 308.358 305.064 308.624 304.721 308.836 304.377 308.836 304.623 309.049 304.819 309.208 305.114 309.474 305.31 309.633 305.604 309.845 305.261 310.27 304.868 310.642 304.721 311.066 304.476 312.288 304.328 312.5 304.868 312.394 304.917 312.5 304.77 312.5 304.868" stroke="#34212E" stroke-width="1.33333" stroke-miterlimit="8" fill-rule="evenodd"/><path d="M313.455 309.916C313.302 310.024 313.047 310.024 312.843 310.131 312.689 310.185 312.485 310.346 312.332 310.453 312.485 310.615 312.996 310.99 312.996 311.313 312.945 311.796 312.485 311.152 312.434 310.99 311.974 310.453 311.208 309.863 310.544 309.702 309.727 309.594 308.961 309.916 308.195 310.185 307.633 310.346 307.174 310.346 306.612 310.346 306.152 310.346 305.795 310.668 305.488 310.937 305.182 311.152 305.08 311.581 304.978 311.957 304.927 312.333 304.927 312.601 304.518 312.762 304.059 312.87 303.701 312.87 303.497 313.461 303.395 313.783 303.395 313.997 303.446 314.266 303.548 314.642 303.752 314.91 303.956 315.233 304.007 315.34 304.161 315.555 304.314 315.608 304.467 315.662 304.671 315.555 304.825 315.555 305.029 315.501 305.386 315.501 305.642 315.608 305.744 315.662 305.846 315.662 305.948 315.823 305.999 316.038 305.591 315.984 305.437 315.984 305.029 315.984 304.773 315.984 304.416 316.145 304.059 316.306 303.905 316.682 303.599 316.951 304.11 317.488 304.212 318.025 303.956 318.777 304.773 319.206 306.101 320.065 305.437 321.193 305.029 321.891 304.927 321.247 304.978 320.763 305.029 320.226 305.029 319.743 304.467 319.421 304.263 319.314 303.65 319.314 303.497 319.099 303.344 318.884 303.446 318.562 303.497 318.401 303.65 317.542 303.395 317.058 302.629 316.79 301.862 316.575 300.943 316.736 300.33 317.219 299.922 317.542 299.564 318.079 299.36 318.508 299.309 318.616 299.207 319.367 299.054 319.367 298.849 319.421 298.696 318.938 298.696 318.777 298.747 318.616 298.849 318.454 298.9 318.347 299.003 318.186 299.054 318.025 299.105 317.917 299.207 317.756 299.564 317.488 299.615 317.327 299.615 317.112 299.105 316.468 298.951 316.306 298.594 315.984 298.134 315.77 297.675 315.662 297.368 315.608 297.011 315.662 296.909 315.34 296.858 315.125 297.062 314.803 297.113 314.534 297.215 314.159 297.266 313.836 297.164 313.461 297.011 312.977 296.653 312.762 296.5 312.279 296.909 312.225 297.317 312.924 297.47 313.246 297.777 313.836 297.777 314.588 297.419 315.179 298.032 315.394 298.798 315.716 299.309 316.253 299.513 316.468 299.666 316.79 299.82 317.112 300.739 316.199 302.169 316.145 303.19 316.897 303.344 316.521 303.65 316.306 303.956 315.984 303.19 315.447 302.629 314.481 302.884 313.514 303.037 312.709 303.752 312.172 304.467 312.333 304.467 311.689 304.825 310.453 305.54 310.4 305.131 309.916 303.139 307.715 304.773 307.5 304.825 308.037 304.722 308.413 304.978 308.95 305.386 309.809 305.897 310.078 306.765 310.078 307.838 310.131 308.808 309.487 309.932 309.433 310.749 309.379 311.464 309.809 312.077 310.4 311.77 310.024 312.434 309.863 312.689 309.809 312.792 309.648 313.711 309.648 313.455 309.916 313.2 310.078 313.507 309.863 313.455 309.916" stroke="#34212E" stroke-width="1.33333" stroke-miterlimit="8" fill-rule="evenodd"/><path d="M307.46 304.511C307.658 304.915 307.064 305.168 306.866 305.319 306.568 305.42 306.32 305.673 306.122 305.875 305.924 306.178 305.825 306.733 305.627 306.986 305.329 307.289 304.983 306.935 304.636 306.885 303.1 306.683 301.266 307.289 300.126 308.349 298.937 309.561 298.689 311.329 299.284 312.894 299.334 312.995 299.581 313.5 299.284 313.5 299.086 313.5 298.838 312.945 298.789 312.743 298.64 312.288 298.59 311.783 298.59 311.278 298.59 311.127 298.689 310.723 298.64 310.521 298.59 310.42 298.045 310.319 297.897 310.218 297.599 310.167 296.658 310.571 296.509 310.268 296.41 309.965 297.153 309.763 297.352 309.763 297.748 309.763 298.293 309.864 298.64 310.117 298.689 309.208 299.532 308.198 300.176 307.693 300.275 307.642 300.523 307.541 300.572 307.39 300.622 307.289 300.523 306.885 300.523 306.733 300.523 306.632 300.523 306.531 300.523 306.38 300.473 306.228 300.424 305.976 300.325 305.875 300.226 305.723 299.78 305.319 299.928 305.066 300.82 305.521 301.018 306.279 300.919 307.238 301.316 307.036 301.712 306.834 302.158 306.733 302.455 306.683 302.901 306.733 303.149 306.582 303.347 306.481 303.248 306.531 303.298 306.228 303.298 306.077 303.347 305.875 303.397 305.723 303.446 305.572 303.446 305.37 303.546 305.218 303.694 304.915 303.843 305.066 303.546 304.713 303.248 304.41 303.1 304.208 302.703 304.107 302.555 304.056 301.91 304.056 302.208 303.602 302.406 303.299 303 303.753 303.199 303.905 303.546 304.056 303.744 304.309 304.041 304.561 304.338 304.359 304.636 303.905 305.032 303.753 305.429 303.652 306.073 303.703 306.37 303.956 306.221 304.107 305.924 304.006 305.775 304.056 305.478 304.056 305.329 304.158 305.032 304.259 304.14 304.764 303.942 305.37 303.694 306.38 304.091 306.329 304.537 306.38 304.983 306.279 305.181 306.228 305.379 306.228 305.478 306.077 305.577 305.976 305.627 305.774 305.775 305.673 306.122 305.319 306.866 304.713 307.46 304.511 307.51 304.663 307.212 304.561 307.46 304.511" stroke="#34212E" stroke-width="1.33333" stroke-miterlimit="8" fill-rule="evenodd"/><path d="M311.406 312.543C311.779 312.989 310.926 312.691 310.82 312.642 310.66 312.642 310.34 312.642 310.18 312.691 310.073 312.691 309.7 312.691 309.647 312.741 309.54 312.84 309.54 313.337 309.487 313.535 309.167 314.33 308.421 314.925 307.568 315.174 307.941 315.521 308.261 315.769 308.474 316.266 308.527 316.415 308.687 317.755 308.261 317.457 308.101 317.358 308.154 316.861 308.154 316.663 308.101 316.365 308.048 316.067 307.834 315.819 307.728 315.62 306.448 314.826 306.502 314.627 306.875 314.528 306.928 314.776 307.141 314.826 307.355 314.876 307.248 314.876 307.515 314.727 307.621 314.677 307.674 314.627 307.834 314.578 308.314 314.379 308.687 314.081 308.901 313.635 309.007 313.436 309.114 313.188 309.221 312.989 309.274 312.592 309.061 312.592 308.794 312.344 308.581 312.046 308.421 311.748 308.901 311.5 309.061 311.699 309.114 311.947 309.38 312.046 309.594 312.195 309.914 312.245 310.18 312.344 310.5 312.294 311.193 312.245 311.406 312.543 311.513 312.691 311.353 312.443 311.406 312.543" stroke="#34212E" stroke-width="1.33333" stroke-miterlimit="8" fill-rule="evenodd"/><path d="M299.195 320.575C298.822 320.782 298.555 320.782 298.288 321.145 298.182 321.301 298.075 321.508 298.075 321.664 298.075 321.975 298.182 321.975 298.395 322.131 298.715 322.338 298.929 322.546 298.982 322.909 299.035 323.116 298.929 323.324 299.035 323.531 299.089 323.635 299.942 324.828 299.195 324.413 298.822 324.257 298.609 323.479 298.395 323.116 298.288 322.909 298.288 322.701 298.022 322.546 297.915 322.494 297.808 322.442 297.648 322.39 297.595 322.39 297.542 322.39 297.488 322.338 297.168 322.234 297.008 321.923 296.795 321.716 296.262 321.145 295.728 320.627 295.622 319.797 295.515 319.33 295.301 318.811 295.942 318.5 296.102 318.708 295.995 319.019 295.995 319.278 295.995 319.641 296.048 319.849 296.208 320.212 296.422 320.678 296.795 321.301 297.328 321.612 297.382 321.093 297.648 320.73 298.022 320.367 298.182 320.263 298.342 320.16 298.555 320.056 298.875 320.263 299.569 320.367 299.195 320.575 299.089 320.627 299.302 320.523 299.195 320.575" stroke="#34212E" stroke-width="1.33333" stroke-miterlimit="8" fill-rule="evenodd"/><path d="M295.097 316.889C294.503 317.493 293.316 317.603 292.939 318.427 292.399 319.417 293.37 320.406 294.287 320.626 294.503 320.681 294.503 320.571 294.665 320.791 294.719 320.956 294.665 321.23 294.665 321.34 294.719 322.055 295.097 322.769 295.582 323.374 296.122 324.088 296.715 324.528 297.579 324.913 297.956 325.023 298.226 325.133 298.604 325.133 298.766 325.133 299.305 325.078 299.467 325.243 299.791 325.957 297.633 325.243 297.579 325.243 297.471 325.243 296.985 325.682 296.931 325.847 296.769 326.177 296.877 326.507 296.985 326.836 297.039 327.056 297.201 327.551 296.877 327.496 296.553 327.441 296.23 326.836 296.23 326.507 296.176 325.847 296.715 325.462 297.201 325.078 295.852 324.253 294.611 322.934 294.233 321.34 294.233 321.23 294.233 321.176 294.233 321.011 294.233 320.901 294.179 320.846 294.072 320.901 294.018 320.846 293.91 320.846 293.856 320.846 293.532 320.736 293.316 320.516 293.154 320.296 292.723 319.856 292.453 319.307 292.507 318.702 292.561 318.098 293.154 317.658 293.694 317.328 294.233 316.999 294.773 316.449 295.474 316.504 295.097 316.669 295.097 316.724 295.097 316.889 294.881 316.999 295.097 316.724 295.097 316.889" stroke="#34212E" stroke-width="1.33333" stroke-miterlimit="8" fill-rule="evenodd"/><path d="M320.482 306.48C320.482 306.165 320.377 305.955 320.273 305.692 320.22 305.482 320.116 305.219 320.116 305.061L320.116 305.061C320.063 304.746 319.802 304.535 319.645 304.43 319.593 304.378 319.593 304.378 319.54 304.325L319.488 304.272C319.279 304.062 318.965 303.799 318.599 303.694 318.494 303.589 318.39 303.589 318.285 303.589 318.18 303.589 318.18 303.589 318.128 303.589 318.023 303.536 317.971 303.536 317.814 303.431L317.762 303.379C317.239 302.958 316.611 302.695 316.14 302.537 316.036 302.485 315.826 302.485 315.67 302.537 315.513 302.537 315.303 302.537 315.199 302.485 315.094 302.432 315.042 302.117 314.99 301.907 314.937 301.801 314.937 301.591 314.885 301.539 314.205 299.961 312.793 299.225 311.066 299.593 310.439 299.698 309.916 300.014 309.497 300.435 309.393 300.54 309.34 300.75 309.183 300.855 309.131 301.013 309.026 301.171 308.974 301.223 308.817 301.328 308.66 301.276 308.451 301.065 308.399 301.013 308.346 300.96 308.242 300.908 307.876 300.697 307.614 300.54 307.196 300.592 306.516 300.645 305.783 301.223 305.313 301.644 304.789 302.064 304.319 302.485 303.743 302.432 303.639 302.432 303.534 302.432 303.377 302.38 302.802 302.327 302.279 302.275 301.599 302.432 300.448 302.748 299.716 303.379 299.036 304.22 298.722 304.588 298.512 304.903 298.251 305.324L298.146 305.482C298.042 305.692 298.042 305.692 297.832 305.639 297.78 305.639 297.728 305.639 297.676 305.639 297.257 305.587 296.996 305.639 296.577 305.797 296.211 305.902 295.949 306.112 295.583 306.375 295.426 306.533 295.269 306.691 295.165 306.848 295.112 306.901 295.06 307.006 294.956 307.059 294.903 307.059 294.851 307.006 294.799 307.006L294.799 307.006 294.642 307.006C294.276 307.059 293.962 307.059 293.596 307.164 293.177 307.269 292.602 307.585 292.183 307.847 291.399 308.426 291.294 309.004 291.556 309.793 290.771 309.898 289.62 310.213 288.836 311.16 288.417 311.685 288.208 312.211 288.208 312.789 288.208 313.157 288.208 313.42 288.208 313.736 288.208 313.788 288.208 313.841 288.208 313.946 288.208 314.156 288.26 314.524 288.208 314.629 288.155 314.682 288.051 314.787 287.894 314.945 287.789 315.05 287.58 315.103 287.475 315.26 287.423 315.365 287.371 315.471 287.319 315.628 287.266 315.733 287.266 315.839 287.214 315.944 287.162 315.996 287.057 316.049 286.9 316.102 286.795 316.154 286.691 316.207 286.534 316.312 286.429 316.364 286.325 316.469 286.168 316.522 286.063 316.627 285.854 316.68 285.749 316.838 285.069 317.416 284.651 318.152 284.389 319.203 284.389 319.308 284.337 319.519 284.285 319.624 284.232 319.939 284.18 320.202 284.128 320.518 284.075 321.149 284.128 321.622 284.442 322.253 284.494 322.305 284.494 322.358 284.546 322.41 284.599 322.515 284.651 322.621 284.703 322.726 284.755 322.884 284.546 323.199 284.337 323.514 284.18 323.672 284.023 323.935 283.971 324.093 283.919 324.198 283.866 324.408 283.814 324.513 283.657 324.881 283.5 325.302 283.5 325.67 283.5 326.038 283.605 326.248 283.657 326.564 283.709 326.669 283.709 326.721 283.762 326.879 283.971 327.668 284.442 328.299 285.226 328.877 285.331 328.982 285.54 329.035 285.697 329.192 286.063 329.35 286.482 329.665 286.534 329.876 286.534 329.928 286.534 330.086 286.534 330.244 286.534 330.349 286.534 330.402 286.534 330.559L286.534 330.664C286.534 330.875 286.534 331.138 286.534 331.348 286.482 331.821 286.482 332.136 286.586 332.61 286.795 333.24 287.057 333.977 287.371 334.45 287.789 335.028 288.312 335.554 288.783 335.869 288.888 335.922 288.992 335.974 289.202 336.027 289.306 336.079 289.515 336.079 289.62 336.027 289.725 336.027 289.777 336.027 289.829 336.027L289.829 336.027C289.882 336.132 289.934 336.185 289.986 336.237 290.143 336.29 290.3 336.342 290.509 336.395 290.666 336.448 290.98 336.5 291.294 336.5 291.346 336.5 291.451 336.5 291.503 336.5 292.131 336.395 292.759 336.027 293.282 335.343 293.334 335.291 293.334 335.238 293.386 335.186 293.386 335.133 293.439 335.133 293.439 335.081 293.439 335.028 293.491 335.028 293.491 335.028 293.543 334.975 293.596 334.923 293.648 334.87 293.648 334.818 293.648 334.765 293.648 334.66L293.648 334.607C293.752 334.45 294.014 334.292 294.223 334.187 294.328 334.134 294.38 334.082 294.537 334.029 294.746 333.871 295.06 333.661 295.322 333.556 295.688 333.346 296.106 333.135 296.42 332.767 296.734 332.452 296.996 332.189 297.1 331.874 297.152 331.768 297.205 331.558 297.205 331.4 297.257 331.19 297.309 330.875 297.414 330.77 297.519 330.664 297.78 330.612 297.989 330.559 298.146 330.507 298.303 330.454 298.46 330.402 298.983 330.191 299.402 329.718 299.82 329.297 299.925 329.192 300.029 329.087 300.134 328.929 300.605 328.456 300.814 328.088 301.128 327.563 301.337 327.142 301.546 326.774 301.703 326.458 301.808 326.143 301.808 326.143 302.122 326.143 302.279 326.143 302.54 326.09 302.697 325.985 303.377 325.565 303.848 324.461 303.848 323.62 304.214 323.62 304.476 323.567 304.842 323.462 305.313 323.304 305.731 322.884 306.097 322.515 306.202 322.41 306.254 322.305 306.411 322.2 306.568 322.042 306.725 321.885 306.882 321.727 307.353 321.254 307.823 320.833 308.242 320.307 308.346 320.15 308.451 319.939 308.608 319.782 308.713 319.571 308.817 319.308 308.974 318.993 309.026 318.835 309.079 318.625 309.183 318.467 309.236 318.362 309.288 318.152 309.34 318.047 309.393 317.942 309.445 317.731 309.445 317.626 309.497 317.521 309.497 317.416 309.549 317.258 310.334 317.574 311.485 316.943 312.008 316.469 312.531 315.996 313.106 315.418 313.525 314.84 313.577 314.735 313.629 314.629 313.734 314.472L313.786 314.367C313.891 314.209 313.996 313.946 314.153 313.788L314.205 313.683C314.257 313.578 314.257 313.578 314.362 313.578 314.414 313.578 314.414 313.578 314.466 313.578 314.571 313.63 314.623 313.63 314.833 313.578 315.042 313.473 315.303 313.052 315.303 313.052 315.46 312.737 315.46 312.526 315.408 312.211 315.826 312.264 316.402 312.158 316.663 312.106 317.134 312.001 317.5 311.58 317.71 311.054 317.762 310.844 317.814 310.581 317.866 310.371 317.866 310.266 317.919 310.161 317.919 310.055 317.919 309.95 317.971 309.793 317.971 309.635 317.971 309.53 318.023 309.425 318.023 309.267 318.076 309.162 318.18 309.109 318.39 309.057 318.442 309.057 318.494 309.004 318.599 309.004 319.227 308.689 319.959 308.005 320.22 307.427 320.482 307.111 320.534 306.743 320.482 306.48ZM292.968 334.292C292.759 334.66 292.497 334.975 292.183 335.238 291.66 335.659 291.085 335.659 290.405 335.554 290.509 335.396 290.614 335.186 290.614 334.975L290.614 334.818 290.457 334.818C290.3 334.818 290.143 334.87 290.039 334.923 289.986 334.975 289.882 334.975 289.829 334.975 289.62 335.028 289.306 334.975 288.94 334.87 288.051 334.45 287.632 333.609 287.214 332.872 287.005 332.294 286.9 331.716 286.9 331.085 286.9 330.664 286.9 330.244 286.848 329.823L286.9 329.823C287.214 329.876 287.423 329.981 287.789 329.981 287.946 329.981 288.155 330.034 288.365 330.086 288.574 330.139 288.783 330.191 288.992 330.191 288.94 330.77 289.097 331.611 289.515 332.084 289.568 332.189 289.829 332.452 290.039 332.294 290.248 332.189 290.143 331.768 290.091 331.663L290.039 331.506C289.882 331.085 289.725 330.717 289.725 330.349 289.725 330.139 289.777 329.876 289.934 329.665 289.986 329.613 290.039 329.508 290.143 329.35 290.352 329.035 290.614 328.719 290.562 328.351L290.562 328.246 290.457 328.246C289.934 328.299 289.672 328.772 289.515 329.14L289.463 329.245C289.359 329.455 289.359 329.455 289.149 329.455 289.097 329.455 288.783 329.455 288.731 329.455 288.679 329.35 288.574 328.824 288.574 328.561 288.574 328.404 288.626 328.141 288.679 328.036 288.992 327.457 289.463 327.247 290.143 327.142 290.3 327.089 290.666 327.037 290.719 326.774 290.719 326.721 290.719 326.564 290.614 326.406 290.509 326.301 290.195 326.248 289.986 326.248 289.882 326.248 289.829 326.248 289.777 326.248 289.568 326.196 289.306 326.143 289.097 325.933 288.992 325.88 288.888 325.775 288.731 325.722 288.731 325.722 288.679 325.67 288.626 325.565 288.522 325.354 288.417 325.197 288.26 325.197 288.208 325.197 288.103 325.197 288.051 325.302 287.946 325.46 287.946 325.88 287.999 325.985 288.051 326.196 288.312 326.406 288.417 326.511 288.469 326.564 288.574 326.669 288.626 326.721L288.679 326.721 288.679 326.721C288.679 326.721 288.679 326.721 288.626 326.774L288.574 326.827 288.574 326.984C288.522 327.195 288.417 327.405 288.26 327.563 288.103 327.773 287.946 328.036 287.894 328.351 287.842 328.719 287.789 329.14 287.946 329.508 286.429 329.35 284.912 328.141 284.232 326.616 284.023 326.038 284.023 325.565 284.18 324.881 284.285 324.408 284.546 324.04 284.755 323.725 284.808 323.62 284.912 323.409 284.965 323.304 285.331 323.672 285.592 323.882 286.011 324.198 285.435 324.776 285.331 325.354 285.592 326.09 285.645 326.248 286.482 327.457 287.005 327.457 287.109 327.457 287.214 327.405 287.371 327.247 287.475 327.037 287.214 326.721 286.9 326.406 286.848 326.353 286.848 326.353 286.848 326.353 286.534 326.038 286.377 325.828 286.377 325.407 286.377 325.092 286.482 324.618 286.795 324.566 286.952 324.566 287.214 324.566 287.475 324.618 287.632 324.618 287.842 324.671 287.946 324.671L288.051 324.671C288.417 324.671 288.679 324.724 288.94 324.566 288.992 324.513 289.254 324.408 289.149 324.198 289.149 324.145 289.097 323.988 288.208 323.988L288.155 323.988C287.685 323.988 286.9 323.935 286.325 323.514 285.017 322.621 284.442 321.411 284.703 320.097 284.912 318.94 285.331 317.574 286.795 316.89 286.952 317.311 287.632 318.31 288.103 318.467 288.26 318.52 288.417 318.467 288.522 318.362L288.574 318.31 288.522 318.204C288.417 317.994 288.312 317.836 288.103 317.679 287.999 317.574 287.789 317.363 287.737 317.258 287.58 316.89 287.58 316.364 287.789 315.944 287.894 315.733 288.103 315.576 288.312 315.471 288.417 315.418 288.522 315.365 288.679 315.26 289.045 314.945 288.992 314.84 288.836 314.472L289.045 314.367C288.574 313.263 289.045 311.738 290.091 311.054 290.405 310.897 290.666 310.686 290.928 310.634 291.032 310.581 291.137 310.581 291.346 310.529L291.451 310.529C291.503 310.529 291.556 310.529 291.608 310.476 291.712 310.424 291.712 310.476 291.765 310.529 291.869 310.634 291.922 310.844 291.974 311.002 292.026 311.16 292.079 311.37 292.288 311.528 292.34 311.633 292.392 311.685 292.497 311.738 292.602 311.843 292.654 311.896 292.706 312.158L292.706 312.158C292.654 312.158 292.602 312.106 292.549 312.106 292.34 312.053 292.131 312.106 291.974 312.158 291.817 312.211 291.608 312.264 291.451 312.158 291.346 312.106 291.242 311.843 291.137 311.685 291.085 311.475 291.032 311.265 290.823 311.212 290.614 311.16 290.248 311.422 290.195 311.633 290.039 312.053 290.3 312.421 290.509 312.632 290.562 312.684 290.614 312.737 290.614 312.737 290.719 312.842 290.823 312.947 290.823 313.052 290.823 313.157 290.823 313.263 290.771 313.315 290.719 313.42 290.666 313.525 290.614 313.63 290.3 314.419 290.509 315.418 290.98 316.049 289.986 316.575 289.568 317.679 289.149 318.678L289.097 318.783C288.783 319.571 288.522 320.518 288.888 321.359 289.254 322.253 289.882 322.936 290.457 323.672 291.137 324.356 291.765 324.724 292.759 324.986 292.34 325.407 291.922 325.775 291.817 326.406 291.66 327.247 291.974 327.668 292.497 327.983 291.869 328.877 291.869 330.244 292.497 331.085 293.177 332.031 293.909 332.557 294.799 332.978 294.589 333.135 294.38 333.135 293.962 333.083L293.857 333.083C293.543 333.083 293.282 332.978 292.968 332.925 292.811 332.872 292.602 332.82 292.445 332.82 292.131 332.767 291.922 332.82 291.869 332.978 291.817 333.083 291.869 333.293 292.183 333.451 292.602 333.661 293.072 333.766 293.491 333.819 293.543 333.819 293.596 333.819 293.596 333.819 293.229 333.977 293.125 334.134 292.968 334.292ZM293.7 316.312C293.648 315.996 293.491 315.786 293.282 315.523 293.125 315.208 292.915 314.945 292.863 314.524 292.811 314.156 292.915 313.893 292.968 313.525L293.02 313.315C293.02 313.263 293.02 313.21 293.072 313.157 293.072 313 293.125 312.789 293.177 312.684 293.177 312.632 293.229 312.579 293.282 312.526 293.386 312.421 293.439 312.316 293.439 312.106 293.439 311.79 293.125 311.633 292.915 311.475 292.811 311.422 292.706 311.37 292.706 311.317 292.497 311.002 292.288 310.476 292.183 310.161 292.079 309.687 292.026 309.057 292.288 308.636 292.654 308.163 293.805 307.69 294.38 307.742 294.485 307.742 294.485 307.742 294.485 307.742 294.485 307.742 294.485 307.795 294.485 307.847 294.485 307.9 294.485 307.953 294.432 308.005L294.432 308.058C294.432 308.215 294.38 308.426 294.432 308.583 294.432 308.636 294.485 308.689 294.485 308.794 294.485 308.846 294.537 308.899 294.537 308.899 294.537 308.951 294.432 309.109 294.328 309.267 294.223 309.372 294.171 309.582 294.119 309.635 294.066 309.793 294.014 310.003 294.014 310.161L294.014 310.266C294.014 310.318 294.014 310.371 293.962 310.424 293.909 310.739 293.857 311.002 293.909 311.317 293.962 311.528 294.119 311.896 294.38 311.948 294.432 311.948 294.589 311.948 294.746 311.79 294.851 311.633 294.799 311.317 294.746 311.002 294.746 310.844 294.694 310.686 294.694 310.581 294.746 309.793 295.269 309.109 296.002 308.741 296.525 308.426 296.943 308.321 297.362 308.268 297.414 308.268 297.466 308.268 297.519 308.268 297.937 308.268 298.199 308.268 298.303 308.11 298.356 307.953 298.146 307.742 298.094 307.69 297.885 307.532 297.414 307.532 296.682 307.69 296.211 307.795 295.792 308.058 295.374 308.268 295.269 307.69 295.688 307.006 296.159 306.638 296.473 306.428 296.943 306.112 297.309 306.112 297.466 306.112 297.78 306.112 297.832 306.112 297.832 306.165 297.832 306.27 297.832 306.323 297.832 306.428 297.832 306.48 297.832 306.533 297.832 306.743 297.885 307.059 298.146 307.164 298.303 307.217 298.356 307.164 298.46 307.164 298.565 307.059 298.565 306.848 298.565 306.691L298.565 306.638C298.565 306.165 298.722 305.797 298.983 305.324 299.349 304.64 299.872 303.904 300.552 303.379 301.233 302.853 302.017 302.59 302.906 302.695 303.011 302.695 303.116 302.695 303.272 302.695 303.639 302.695 304.057 302.695 304.162 302.905 304.162 302.958 304.214 303.011 304.214 303.116 304.266 303.431 304.371 303.694 304.633 303.747 304.685 303.747 304.789 303.747 304.999 303.642 305.051 303.589 305.156 303.273 305.208 303.063 305.26 302.905 305.26 302.853 305.208 302.695 305.208 302.695 305.208 302.643 305.156 302.59 305.156 302.432 305.156 302.432 305.313 302.222 305.365 302.169 305.417 302.169 305.469 302.117 305.574 302.064 305.626 301.959 305.783 301.801 305.94 301.644 305.993 301.591 306.149 301.433 306.829 300.855 307.509 300.803 308.189 301.223L308.242 301.276C308.399 301.381 308.556 301.433 308.608 301.486 308.556 301.539 308.451 301.539 308.399 301.591 308.294 301.644 308.189 301.696 308.085 301.696 307.928 301.801 307.719 302.012 307.614 302.117 307.614 302.117 307.562 302.169 307.509 302.169 307.353 302.327 306.986 302.59 307.143 302.853 307.196 302.958 307.3 303.011 307.353 303.011 307.509 303.063 307.666 302.958 307.771 302.853L307.823 302.8C308.137 302.59 308.346 302.327 308.713 302.169 308.765 302.327 308.869 302.485 309.026 302.537 309.236 302.643 309.497 302.485 309.706 302.38L309.863 302.327C310.02 302.222 310.02 302.222 310.282 302.327L310.386 302.38C310.491 302.432 310.596 302.432 310.7 302.485 310.7 302.485 310.753 302.537 310.805 302.537 311.014 302.695 311.328 302.905 311.59 302.695 311.694 302.643 311.694 302.537 311.694 302.38 311.59 301.959 310.125 301.486 309.602 301.328 309.916 300.75 310.125 300.277 310.7 300.066 311.328 299.856 312.269 299.698 312.95 299.961 313.42 300.119 313.891 300.54 314.1 301.065 314.205 301.276 314.31 301.539 314.414 301.749 314.414 301.801 314.466 301.907 314.466 301.959 314.466 302.012 314.519 302.117 314.519 302.275 314.414 302.327 314.31 302.327 314.205 302.38 314.153 302.38 314.153 302.38 314.1 302.38L313.996 302.327C313.943 302.275 313.891 302.222 313.786 302.117 313.682 302.012 313.577 301.801 313.368 301.801 313.211 301.749 313.054 301.801 313.002 301.907 312.897 302.222 313.368 302.695 313.368 302.695 313.42 302.748 313.473 302.8 313.525 302.8 313.525 302.8 313.577 302.853 313.577 302.8 313.577 302.8 313.577 302.853 313.525 302.905 313.473 302.958 313.42 303.011 313.368 303.063 313.316 303.116 313.263 303.168 313.263 303.221 313.211 303.273 313.106 303.379 312.95 303.536 312.479 304.167 312.217 304.378 312.217 304.64 312.217 304.798 312.322 304.956 312.374 304.956 312.531 305.061 312.845 304.956 312.95 304.851 313.106 304.746 313.316 304.43 313.473 304.272 313.525 304.22 313.577 304.115 313.629 304.062L313.734 303.957C314.048 303.589 314.257 303.273 314.728 303.116 315.408 302.905 316.14 303.063 317.03 303.589 316.82 303.642 316.559 303.747 316.402 303.904 316.402 303.852 316.35 303.852 316.297 303.904 316.245 303.957 316.14 304.062 316.088 304.062 316.088 304.062 316.036 304.062 315.983 304.009 315.931 303.957 315.826 303.957 315.67 303.957 315.146 304.009 314.571 304.746 314.571 305.271 314.623 305.85 315.094 306.218 315.513 306.533 315.513 306.533 315.565 306.533 315.565 306.586 315.722 306.743 316.036 306.954 316.14 306.796 316.193 306.743 316.245 306.638 316.245 306.586 316.245 306.375 315.931 306.165 315.722 306.06L315.67 306.007C315.513 305.902 315.356 305.534 315.356 305.324 315.356 305.219 315.46 305.114 315.67 305.008 315.722 305.008 315.774 305.061 315.826 305.008 316.036 304.956 316.193 304.851 316.35 304.693L316.402 304.64C316.873 304.22 317.71 303.957 318.337 304.062 318.756 304.115 319.017 304.378 319.227 304.693 319.227 304.693 319.227 304.693 319.227 304.746L319.331 304.903C319.645 305.534 319.906 306.06 319.645 306.743 319.383 307.427 318.756 307.9 318.18 308.215 318.128 307.847 318.076 307.427 318.076 307.164 318.076 307.111 318.076 307.059 318.076 306.954 318.076 306.586 318.023 306.375 317.919 306.27 317.762 306.112 317.605 306.165 317.553 306.165 317.343 306.27 317.239 306.691 317.239 306.848 317.239 307.006 317.291 307.217 317.343 307.374 317.396 307.479 317.396 307.69 317.448 307.795 317.5 308.321 317.448 308.741 317.343 309.319 317.186 310.161 317.03 310.739 316.193 310.897 315.617 311.002 315.303 311.054 315.146 310.529 315.042 310.108 314.833 309.687 314.623 309.372 314.414 308.951 313.996 308.583 313.577 308.373 313.211 308.163 312.897 307.9 312.531 307.742 312.479 307.742 312.479 307.69 312.426 307.69 312.113 307.532 311.642 307.217 311.38 307.532L311.223 307.532 311.276 307.637C311.59 308.058 312.06 308.268 312.426 308.478 312.636 308.583 312.95 308.689 313.106 308.899 313.525 309.214 313.786 309.53 314.1 310.055 314.78 311.422 314.676 311.948 314.571 312.053 314.519 312.106 314.362 312.211 314.205 312.264 314.1 312.316 313.891 312.369 313.786 312.474 313.629 312.579 313.368 312.894 313.211 313.157 313.159 313.263 313.106 313.368 313.054 313.473 312.95 313.788 312.845 313.999 312.583 314.261 311.956 315.05 310.805 316.312 309.602 316.102 309.654 315.786 309.602 315.418 309.393 315.208L309.288 315.155 309.236 315.208C309.026 315.523 308.869 315.891 308.817 316.312 308.765 316.469 308.765 316.732 308.713 316.838 308.556 317.363 308.294 317.889 308.085 318.467 307.666 319.361 306.829 320.202 306.097 320.886 305.94 321.043 305.731 321.254 305.574 321.411 304.58 322.41 303.325 322.463 301.546 321.622 301.233 321.517 301.023 321.411 300.709 321.306 300.396 321.254 300.239 321.306 300.186 321.411 300.134 321.517 300.134 321.622 300.239 321.779 300.343 321.885 300.552 321.937 300.657 321.937 300.709 321.937 300.762 321.937 300.814 321.99 300.919 322.042 300.971 322.095 301.128 322.147 301.18 322.2 301.233 322.2 301.337 322.253 301.756 322.41 302.122 322.621 302.436 322.673 302.488 322.673 302.54 322.673 302.593 322.726 302.697 322.726 302.802 322.778 302.959 322.831 303.011 322.831 303.063 322.884 303.116 322.884L303.116 322.936 303.116 322.989C303.22 323.357 302.959 323.935 302.697 324.25 302.54 324.408 302.331 324.566 302.122 324.671L302.122 324.671C302.174 324.513 302.226 324.25 302.069 324.04 302.017 323.988 301.86 323.725 301.599 323.672 301.546 323.672 301.442 323.672 301.389 323.725 301.285 323.83 301.285 324.04 301.337 324.408 301.337 324.513 301.337 324.724 301.337 324.776 301.285 324.934 301.233 325.144 301.18 325.249 301.18 325.302 301.128 325.354 301.128 325.407 300.919 326.038 300.5 326.827 300.082 327.352 299.402 328.299 298.512 328.929 297.309 329.455L297.205 329.508C296.786 329.665 296.316 329.876 295.949 330.086 295.74 330.191 295.531 330.402 295.583 330.559 295.583 330.664 295.688 330.77 295.897 330.875 296.106 330.98 296.368 330.875 296.525 330.77 296.473 331.19 296.368 331.4 296.002 331.663 295.426 332.084 294.432 331.716 293.962 331.295 293.752 331.085 292.863 330.296 292.706 329.403 292.654 329.035 292.706 328.614 292.863 328.299 292.915 328.193 292.968 328.141 293.02 327.983 293.177 327.825 293.386 327.51 293.177 327.142 293.072 326.984 292.968 326.827 292.811 326.721 292.602 326.511 292.392 326.301 292.392 326.038 292.392 325.512 293.02 324.934 293.491 324.724 293.543 324.724 293.648 324.671 293.805 324.671 294.014 324.618 294.328 324.618 294.38 324.461 294.432 324.356 294.485 324.25 294.432 324.093 294.328 323.935 294.066 323.935 293.909 323.935L293.7 323.935C293.177 323.935 292.811 323.935 292.288 323.777 291.242 323.409 290.352 322.621 289.672 321.306 289.306 320.991 289.045 320.413 289.097 319.834 289.202 318.94 289.62 317.889 290.143 317.1 290.3 316.89 290.509 316.68 290.771 316.469 290.823 316.469 290.928 316.417 291.085 316.364 291.294 316.259 291.399 316.259 291.451 316.207 291.608 315.996 291.399 315.681 291.294 315.418 291.242 315.365 291.242 315.313 291.242 315.313 291.085 314.945 290.875 314.472 290.928 313.999 290.928 313.788 291.032 313.525 291.137 313.315 291.242 313.157 291.346 313.105 291.608 313.105 291.765 313.052 291.974 313.052 292.131 312.947 292.183 312.894 292.34 312.789 292.497 312.632 292.497 312.947 292.445 313.157 292.392 313.473 292.288 314.367 292.079 315.313 292.811 316.259 292.863 316.312 293.386 316.943 293.648 316.838 293.805 316.68 293.752 316.417 293.7 316.312Z" stroke="#34212E" stroke-width="1.33333" stroke-miterlimit="8" fill-rule="evenodd"/><path d="M309.162 306.089C309.26 306.147 309.309 306.262 309.359 306.32 309.408 306.378 309.408 306.436 309.408 306.667 309.408 306.725 309.408 306.841 309.408 307.014 309.457 307.592 309.751 307.997 310.046 308.402 309.751 308.575 309.26 308.922 309.309 309.269 309.359 309.442 309.604 309.5 309.653 309.5L309.653 309.5C309.849 309.5 310.046 309.384 310.193 309.269 310.291 309.211 310.34 309.153 310.488 309.153 310.537 309.153 310.586 309.153 310.635 309.153 311.027 309.095 311.371 309.038 311.469 308.806 311.518 308.749 311.518 308.691 311.518 308.575 311.469 308.344 311.175 308.344 310.88 308.228 310.782 308.228 310.586 308.228 310.537 308.17 310.389 307.997 310.095 307.188 310.095 306.783 310.046 306.32 310.291 305.858 310.88 305.511 311.175 305.337 311.42 305.337 311.715 305.337 311.911 305.337 312.156 305.337 312.353 305.222L312.5 305.164 312.451 304.991C312.402 304.817 312.255 304.644 312.009 304.586 311.567 304.412 310.831 304.528 310.537 304.702 310.193 304.875 309.898 305.28 309.653 305.684 309.506 305.453 309.309 305.222 309.211 304.991 309.211 304.933 309.162 304.933 309.162 304.875 309.113 304.759 309.064 304.528 308.868 304.528L308.868 304.528C308.769 304.528 308.671 304.644 308.573 304.759 308.377 305.28 308.622 305.684 308.769 305.916 308.966 305.916 309.064 305.973 309.162 306.089Z" stroke="#34212E" stroke-width="1.33333" stroke-miterlimit="8" fill-rule="evenodd"/><path d="M305.14 308.987C304.989 308.68 304.989 308.423 304.989 308.115 304.989 307.962 304.989 307.756 304.938 307.603L304.938 307.5 304.787 307.5C304.383 307.551 304.18 307.705 304.029 307.962 303.827 308.577 304.585 309.551 305.292 310.372 304.686 310.68 304.383 311.5 304.332 312.167 303.574 312.115 302.917 312.628 302.766 313.449 302.563 314.372 303.069 315.295 303.726 315.859L303.675 315.91C303.523 316.064 303.321 316.269 303.17 316.474 302.159 315.859 300.795 315.962 299.936 316.68 299.936 316.628 299.885 316.628 299.885 316.577 299.784 316.423 299.683 316.167 299.481 316.013 299.026 315.551 298.37 315.244 297.713 315.039 298.016 314.474 298.016 313.757 297.713 313.192 297.561 312.833 297.106 312.115 296.652 312.218L296.5 312.269 296.551 312.423C296.601 312.628 296.753 312.833 296.904 312.987 297.056 313.141 297.106 313.346 297.258 313.5 297.359 313.808 297.309 314.064 297.207 314.474 297.207 314.526 297.157 314.577 297.106 314.628 297.005 314.782 296.904 315.039 296.955 315.244 297.005 315.603 297.359 315.654 297.561 315.654 297.612 315.654 297.713 315.654 297.763 315.705 298.168 315.808 298.673 316.064 298.976 316.321 299.178 316.474 299.582 317.09 299.582 317.192 299.582 317.244 299.431 317.398 299.279 317.5 299.128 317.603 299.128 317.654 299.077 317.705 299.026 317.808 298.976 317.859 298.925 318.013 298.925 318.064 298.875 318.115 298.875 318.115 298.875 318.167 298.824 318.167 298.824 318.218 298.774 318.321 298.673 318.423 298.673 318.577 298.622 318.731 298.723 319.039 298.824 319.192 298.925 319.295 299.026 319.295 299.178 319.295 299.33 319.244 299.38 319.09 299.532 318.628 299.532 318.526 299.582 318.474 299.582 318.423 299.734 318.013 300.138 317.5 300.492 317.295 301.098 316.833 301.957 316.731 302.665 316.936 303.321 317.141 303.574 317.551 303.473 318.321 303.473 318.372 303.473 318.372 303.473 318.423 303.422 318.628 303.372 318.936 303.523 319.192 303.625 319.346 303.928 319.346 304.13 319.398 304.281 319.398 304.433 319.449 304.534 319.5 304.989 319.705 305.039 320.064 304.989 320.628 304.989 320.833 304.938 321.398 305.191 321.5L305.242 321.5C305.444 321.5 305.595 321.192 305.646 321.09 305.797 320.731 305.848 320.423 305.747 320.064 305.595 319.551 305.09 319.09 304.231 318.628 304.433 318.013 304.332 317.5 303.877 317.039 303.928 316.987 303.978 316.936 304.029 316.833 304.13 316.68 304.332 316.526 304.484 316.423 304.837 316.269 305.039 316.269 305.393 316.269L305.444 316.269C305.595 316.269 305.848 316.321 305.949 316.167 305.999 316.115 306.05 316.064 305.999 315.962 305.999 315.808 305.848 315.757 305.696 315.654L305.646 315.654C305.343 315.5 305.039 315.551 304.787 315.551 304.736 315.551 304.686 315.551 304.635 315.603 304.534 315.654 304.433 315.654 304.332 315.603 304.281 315.603 304.18 315.449 304.13 315.397L303.978 315.295C303.776 315.09 303.574 314.731 303.523 314.423 303.473 314.218 303.473 313.962 303.574 313.757 303.726 313.346 303.928 313.295 304.332 313.244 304.383 313.244 304.433 313.192 304.484 313.192 304.938 313.09 304.938 312.782 304.989 312.526 304.989 312.474 304.989 312.423 305.039 312.372 305.09 311.962 305.242 311.705 305.494 311.5 305.848 311.141 306.1 310.987 306.505 310.987 306.606 310.987 306.707 310.987 306.858 310.987 307.313 310.987 307.717 310.987 308.172 310.833L308.324 310.782C308.981 310.577 309.739 310.321 310.446 310.372 311.254 310.474 311.962 311.244 312.265 311.5L312.315 311.551C312.518 311.859 312.72 312.013 312.871 311.962 312.922 311.962 313.023 311.91 313.023 311.654 313.073 311.346 312.72 311.09 312.467 310.833 312.518 310.833 312.518 310.782 312.568 310.782 312.619 310.731 312.669 310.68 312.77 310.68 312.821 310.628 312.922 310.628 312.972 310.628 313.073 310.628 313.174 310.577 313.326 310.526L313.326 310.526C313.326 310.526 313.377 310.526 313.377 310.474L313.377 310.474 313.377 310.474 313.478 310.372 313.478 310.372C313.528 310.321 313.478 310.269 313.478 310.218 313.377 309.91 312.568 310.064 312.568 310.064 312.265 310.115 311.962 310.167 311.76 310.423 311.204 309.91 310.496 309.654 309.84 309.756 309.334 309.756 308.829 309.91 308.374 310.115 307.818 310.269 307.313 310.474 306.707 310.423 305.949 309.962 305.494 309.654 305.14 308.987Z" stroke="#34212E" stroke-width="1.33333" stroke-miterlimit="8" fill-rule="evenodd"/><path d="M296.65 310.465C296.808 310.415 297.073 310.415 297.126 310.415 297.337 310.465 297.76 310.564 297.813 310.614 297.813 310.664 297.813 310.913 297.76 311.012 297.76 311.112 297.707 311.162 297.707 311.211 297.707 311.759 297.76 312.256 297.918 312.704 298.024 313.102 298.288 313.5 298.553 313.5L298.553 313.5C298.658 313.5 298.764 313.45 298.764 313.401 298.87 313.251 298.764 312.953 298.658 312.754L298.658 312.704C298.024 311.211 298.341 309.47 299.504 308.425 300.667 307.38 302.623 306.733 304.209 306.982 304.314 306.982 304.42 307.032 304.579 307.082 304.896 307.181 305.213 307.281 305.477 307.082 305.636 306.932 305.689 306.683 305.847 306.484 305.9 306.335 305.953 306.086 306.059 305.987 306.217 305.838 306.482 305.589 306.746 305.489L306.799 305.44C307.116 305.34 307.697 304.992 307.433 304.494L307.38 304.395 307.327 304.494 307.275 304.494C306.64 304.643 305.847 305.29 305.372 305.788 305.319 305.838 305.266 305.887 305.266 305.987 305.213 306.037 305.213 306.086 305.16 306.136 305.054 306.236 304.949 306.285 304.684 306.285 304.473 306.335 304.156 306.335 303.891 306.335 303.786 306.335 303.68 306.335 303.522 306.335 303.733 305.539 303.997 305.042 304.843 304.544 305.054 304.444 305.266 304.345 305.477 304.345 305.53 304.345 305.583 304.345 305.636 304.345 305.794 304.345 306.059 304.395 306.217 304.245L306.323 304.146 306.217 304.046C305.953 303.648 305.213 303.648 304.79 303.798 304.42 303.847 304.209 304.146 303.944 304.345 303.839 304.395 303.839 304.444 303.786 304.494 303.574 304.295 303.31 304.046 302.94 303.897 302.94 303.897 302.887 303.847 302.834 303.847 302.517 303.648 301.936 303.3 301.724 303.648 301.619 303.748 301.619 303.947 301.619 304.046 301.724 304.245 302.041 304.345 302.2 304.345 302.253 304.345 302.253 304.345 302.253 304.345 302.676 304.444 302.834 304.643 303.099 304.892 303.151 304.942 303.151 304.992 303.204 304.992L303.204 304.992C303.151 305.042 303.151 305.091 303.099 305.141 303.046 305.241 302.993 305.44 302.993 305.539 302.993 305.589 302.993 305.639 302.94 305.688L302.94 305.738C302.887 305.838 302.887 306.037 302.834 306.186 302.834 306.236 302.834 306.335 302.834 306.385 302.834 306.385 302.781 306.385 302.781 306.435 302.676 306.484 302.411 306.484 302.253 306.484 302.094 306.484 301.883 306.484 301.777 306.534 301.407 306.634 301.09 306.733 300.72 306.932 300.773 305.987 300.35 305.39 299.557 304.942L299.451 304.892 299.398 304.942C299.187 305.241 299.451 305.539 299.61 305.788 299.663 305.838 299.716 305.887 299.716 305.887 299.821 306.037 299.874 306.236 299.927 306.335 299.927 306.385 299.927 306.435 299.927 306.534 299.927 306.584 299.927 306.634 299.927 306.634 299.927 306.683 299.927 306.733 299.927 306.833 299.927 306.932 299.98 307.181 299.927 307.231 299.927 307.281 299.821 307.33 299.716 307.38 299.663 307.43 299.61 307.43 299.61 307.48 299.081 307.927 298.13 308.823 297.971 309.768 297.443 309.719 296.967 309.619 296.544 309.619 296.438 309.619 295.698 309.768 295.54 310.067 295.487 310.117 295.487 310.216 295.54 310.365 295.698 310.714 296.174 310.564 296.65 310.465Z" stroke="#34212E" stroke-width="1.33333" stroke-miterlimit="8" fill-rule="evenodd"/><path d="M311.396 312.634C311.396 312.587 311.396 312.587 311.396 312.634L311.396 312.634 311.396 312.634 311.277 312.492 311.277 312.492C311.04 312.35 310.624 312.303 310.208 312.303 310.089 312.303 309.97 312.303 309.851 312.256 309.613 312.209 309.257 312.161 309.079 312.067 308.96 312.02 308.9 311.925 308.722 311.736 308.663 311.689 308.603 311.595 308.544 311.547L308.484 311.5 308.365 311.547C308.128 311.642 307.949 311.831 307.89 311.973 307.831 312.161 307.949 312.398 308.128 312.587 308.187 312.634 308.247 312.681 308.306 312.728 308.425 312.823 308.484 312.87 308.484 313.059 308.425 313.248 308.306 313.484 308.128 313.626 307.89 314.051 307.534 314.24 306.939 314.524 306.88 314.571 306.82 314.571 306.761 314.618 306.702 314.618 306.642 314.665 306.642 314.665 306.583 314.713 306.523 314.713 306.464 314.76 306.464 314.76 306.404 314.76 306.345 314.76 306.286 314.76 306.226 314.713 306.167 314.665 306.048 314.571 305.81 314.476 305.572 314.571L305.513 314.571 305.513 314.618C305.454 314.76 305.572 314.902 306.404 315.421 306.642 315.563 306.999 315.799 306.999 315.847 307.118 316.036 307.236 316.319 307.236 316.602 307.236 316.65 307.236 316.697 307.236 316.791 307.236 317.075 307.236 317.311 307.415 317.406 307.534 317.453 307.593 317.5 307.652 317.5 307.712 317.5 307.771 317.5 307.771 317.453 308.187 317.264 307.831 316.177 307.831 316.177 307.712 315.752 307.355 315.469 307.058 315.232L307.058 315.232C308.009 314.949 308.663 314.429 309.079 313.673 309.079 313.626 309.138 313.532 309.138 313.39 309.138 313.248 309.197 313.059 309.197 313.012 309.257 313.012 309.554 313.012 309.613 313.012 309.673 313.012 309.732 313.012 309.732 313.012 309.792 313.012 309.851 313.012 309.97 313.012 310.089 313.012 310.326 312.965 310.445 313.012 310.445 313.012 310.505 313.012 310.564 313.012 310.98 313.106 311.218 313.154 311.337 313.012 311.574 312.87 311.515 312.681 311.396 312.634L311.396 312.634Z" stroke="#34212E" stroke-width="1.33333" stroke-miterlimit="8" fill-rule="evenodd"/><path d="M295.596 320.147C295.754 321.088 296.228 321.677 296.754 322.324L296.859 322.441C297.017 322.618 297.28 322.912 297.491 323.088 297.544 323.088 297.596 323.147 297.596 323.147L297.649 323.147C297.702 323.147 297.702 323.206 297.754 323.206 297.807 323.206 297.86 323.265 297.912 323.265 298.018 323.382 298.07 323.441 298.123 323.677L298.176 323.853C298.281 324.324 298.597 325.088 298.965 325.382 299.018 325.441 299.123 325.5 299.281 325.5 299.334 325.5 299.386 325.5 299.439 325.441 299.597 325.265 299.439 324.912 299.071 324.324 299.018 324.265 299.018 324.206 299.018 324.206 299.071 324.088 299.071 323.971 299.071 323.853 299.071 323.794 299.071 323.677 299.071 323.5 299.018 323.029 298.702 322.794 298.491 322.559L298.491 322.5C298.439 322.441 298.439 322.441 298.386 322.441 298.281 322.324 298.281 322.324 298.281 322.206 298.281 322.088 298.333 321.853 298.439 321.677 298.544 321.5 298.755 321.324 298.913 321.265 298.965 321.206 299.018 321.206 299.071 321.147L299.071 321.147 299.176 321.088C299.176 321.088 299.176 321.088 299.229 321.088 299.386 320.971 299.386 320.735 299.334 320.735 299.229 320.5 298.702 320.382 298.544 320.382 298.333 320.441 298.123 320.559 297.965 320.794 297.596 321.147 297.333 321.441 297.28 321.971 296.912 321.618 296.649 321.029 296.438 320.559 296.28 320.206 296.228 319.971 296.228 319.559 296.228 319.5 296.228 319.441 296.228 319.382 296.228 319.147 296.28 318.853 296.122 318.618L296.07 318.5 295.964 318.559C295.385 318.912 295.49 319.559 295.543 320.029L295.596 320.147Z" stroke="#34212E" stroke-width="1.33333" stroke-miterlimit="8" fill-rule="evenodd"/><path d="M292.907 317.311C292.325 317.687 291.684 318.008 291.509 318.759 291.451 319.349 291.684 319.885 292.208 320.422 292.441 320.636 292.732 320.904 293.082 320.958L293.14 320.958C293.199 320.958 293.257 320.958 293.257 321.011L293.315 321.065 293.373 321.065 293.373 321.065C293.373 321.119 293.373 321.226 293.373 321.387 293.723 322.781 294.888 324.175 296.461 325.033 295.995 325.409 295.471 325.73 295.529 326.428 295.529 326.749 295.995 327.446 296.403 327.5 296.461 327.5 296.461 327.5 296.52 327.5 296.636 327.5 296.694 327.446 296.753 327.446 296.869 327.286 296.811 327.017 296.753 326.857 296.753 326.803 296.753 326.803 296.753 326.749 296.753 326.696 296.694 326.642 296.694 326.588 296.636 326.374 296.578 326.106 296.694 325.945 296.811 325.784 297.16 325.462 297.277 325.462 297.277 325.462 297.335 325.462 297.394 325.516 298.442 325.73 299.141 325.891 299.433 325.623 299.491 325.57 299.549 325.462 299.433 325.194 299.433 324.819 299.025 324.819 298.734 324.819 298.675 324.819 298.617 324.819 298.559 324.819 298.151 324.819 297.86 324.712 297.51 324.604 296.578 324.229 295.937 323.8 295.413 323.156 294.888 322.513 294.539 321.869 294.48 321.226 294.48 321.172 294.48 321.119 294.48 321.065 294.48 320.958 294.48 320.743 294.422 320.636 294.364 320.475 294.306 320.422 294.072 320.314 294.014 320.314 294.014 320.314 293.956 320.314 293.373 320.207 292.791 319.724 292.558 319.295 292.441 318.974 292.441 318.706 292.616 318.384 292.849 317.955 293.315 317.794 293.839 317.526 294.247 317.365 294.597 317.15 294.888 316.936 294.888 316.936 294.888 316.936 294.946 316.882L294.946 316.882 295.063 316.721 295.063 316.721 295.121 316.507 294.946 316.507C294.306 316.453 293.781 316.721 293.315 317.043 293.199 317.097 293.024 317.15 292.907 317.311Z" stroke="#34212E" stroke-width="1.33333" stroke-miterlimit="8" fill-rule="evenodd"/><path d="M299.232 342.5C300.823 342.5 302.305 342.111 303.732 341.722 304.171 341.625 304.335 341.333 304.445 341.188 304.5 341.042 304.555 340.701 304.39 340.313L304.226 339.972C304.061 339.583 303.787 339.243 303.677 338.903 303.238 337.931 302.799 336.958 302.36 335.938L302.25 335.889C302.195 335.743 302.14 335.597 302.031 335.5L301.372 336.083C301.372 336.083 301.372 336.132 301.427 336.132 301.866 337.153 302.305 338.222 302.799 339.243 303.018 339.729 303.293 340.215 303.622 340.701 303.677 340.847 303.677 340.896 303.512 340.993 302.14 341.382 300.768 341.722 299.341 341.722 299.122 341.722 298.848 341.722 298.628 341.674 297.585 341.576 296.817 341.333 296.159 340.847L295.5 341.431C296.378 342.014 297.311 342.403 298.573 342.451 298.683 342.5 299.012 342.5 299.232 342.5Z" stroke="#34212E" stroke-width="1.33333" stroke-miterlimit="8" fill-rule="evenodd"/><path d="M319.049 323.955C319.257 325.373 319.412 326.791 319.568 328.155 319.568 328.264 319.568 328.373 319.62 328.482 319.723 329.027 319.568 329.409 319.205 329.846 317.598 331.809 315.784 333.664 313.918 335.355 313.815 335.409 313.711 335.464 313.555 335.464 313.555 335.464 313.555 335.464 313.504 335.464 310.964 335.3 308.424 334.864 305.988 334.264 305.418 334.155 304.848 333.936 304.278 333.827 304.226 333.827 304.174 333.773 304.122 333.773L303.5 334.373C303.656 334.482 303.863 334.591 304.07 334.7 304.433 334.755 304.848 334.864 305.159 335.027 305.314 335.082 305.573 335.136 305.729 335.191 308.165 335.791 310.705 336.227 313.4 336.5 313.452 336.5 313.452 336.5 313.504 336.5 313.866 336.5 314.177 336.391 314.436 336.118 316.458 334.264 318.22 332.464 319.827 330.5 320.19 330.064 320.656 329.409 320.449 328.427 320.449 328.373 320.449 328.373 320.449 328.318 320.449 328.264 320.449 328.209 320.449 328.155 320.397 327.718 320.345 327.282 320.293 326.846 320.19 325.864 320.086 324.882 319.879 323.846 319.671 322.536 319.36 321.282 319.049 320.027 318.998 319.646 318.894 319.318 318.842 318.936 318.79 318.827 318.739 318.609 318.687 318.5L318.065 319.155C318.376 320.736 318.739 322.318 319.049 323.955Z" stroke="#34212E" stroke-width="1.33333" stroke-miterlimit="8" fill-rule="evenodd"/><path d="M321.743 325.483 322.14 327.5 323.234 325.793 323.333 325.638C323.383 325.535 323.482 325.431 323.532 325.276L323.681 324.966C323.88 324.655 324.079 324.345 324.277 323.983 324.476 323.517 324.775 323.052 325.023 322.586 325.122 322.379 325.222 322.172 325.371 321.966 325.52 321.604 325.52 321.293 325.47 321.086 325.421 320.931 325.272 320.621 324.874 320.414 324.725 320.362 324.576 320.259 324.427 320.207 324.228 320.103 324.029 320 323.83 319.897 323.383 319.741 322.936 319.483 322.488 319.328L321.941 319.121 320.5 318.5 320.798 320.103 321.246 322.586 321.743 325.483ZM323.482 320.776C323.83 320.931 324.128 321.138 324.526 321.293 324.675 321.345 324.725 321.448 324.625 321.655 324.277 322.276 323.979 323 323.631 323.621 323.433 324.035 323.134 324.448 322.886 324.862 322.786 324.966 322.737 325.172 322.588 325.328 322.24 323.517 321.941 321.707 321.594 319.948 322.24 320.259 322.836 320.517 323.482 320.776Z" stroke="#34212E" stroke-width="1.33333" stroke-miterlimit="8" fill-rule="evenodd"/><path d="M326.158 312.665C326.547 313.565 326.658 314.518 326.658 315.471 326.602 316.741 326.269 317.959 325.825 319.177 325.825 319.229 325.77 319.282 325.714 319.335 324.549 318.859 323.384 318.329 322.219 317.906 321.553 317.694 320.832 317.43 320.166 317.218L319.5 317.853C319.611 317.906 319.666 317.959 319.833 318.012 320.166 318.118 320.443 318.224 320.776 318.329 321.165 318.435 321.497 318.541 321.886 318.753 322.718 319.071 323.439 319.388 324.272 319.759 324.66 319.865 324.938 320.077 325.326 320.182L326.047 320.5 326.491 319.865C326.547 319.812 326.602 319.706 326.658 319.494 327.046 318.329 327.379 317.006 327.49 315.577 327.545 314.412 327.379 313.353 326.935 312.453 326.824 312.135 326.436 311.765 326.269 311.5L325.603 312.135C325.881 312.188 326.103 312.453 326.158 312.665Z" stroke="#34212E" stroke-width="1.33333" stroke-miterlimit="8" fill-rule="evenodd"/><path d="M307.978 343.6C309.2 345.3 310.473 346.4 312.051 347.1 312.61 347.4 313.272 347.5 313.832 347.5 314.29 347.5 314.799 347.4 315.257 347.2 316.683 346.65 317.497 345.55 318.108 344.7 318.719 343.8 319.177 342.75 319.584 341.45 319.788 340.8 319.991 340.1 320.093 339.45 320.144 339.15 320.246 338.9 320.297 338.55L320.5 337.7 319.635 337.55 319.584 337.55C319.533 337.55 319.431 337.5 319.279 337.5L318.77 337.5C317.497 337.5 316.326 337.5 315.054 337.55 314.748 337.55 314.443 337.65 314.188 337.85 313.985 338 313.73 338.2 313.527 338.4 313.17 338.7 312.865 338.9 312.509 339.15 311.287 340 309.811 340.95 308.284 341.65 308.131 341.75 307.673 341.95 307.52 342.45 307.419 342.95 307.724 343.3 307.877 343.45 307.877 343.5 307.928 343.55 307.978 343.6ZM308.589 342.35C310.116 341.6 311.542 340.7 312.916 339.75 313.476 339.35 314.036 338.9 314.647 338.45 314.748 338.4 314.85 338.35 315.054 338.35 316.479 338.35 317.853 338.35 319.279 338.3L319.279 338.3C319.329 338.3 319.329 338.3 319.431 338.35 319.228 339.3 318.973 340.25 318.668 341.2 318.311 342.25 317.904 343.3 317.293 344.25 316.683 345.2 315.97 346 314.901 346.45 314.494 346.6 314.138 346.65 313.781 346.65 313.323 346.65 312.814 346.55 312.356 346.3 310.829 345.65 309.607 344.45 308.64 343.1 308.589 343.05 308.538 342.95 308.487 342.9 308.284 342.6 308.284 342.55 308.589 342.35Z" stroke="#34212E" stroke-width="1.33333" stroke-miterlimit="8" fill-rule="evenodd"/><path d="M320.296 335.469 320.347 334.438 320.398 333.768 320.5 331.5 318.918 333.098 317.439 334.541 317.082 334.902 315.5 336.5 317.745 336.397 318.357 336.345 319.429 336.294 320.194 336.242 320.296 335.469ZM319.429 335.469C318.867 335.521 318.357 335.521 317.694 335.572 318.306 334.954 318.918 334.335 319.48 333.768 319.48 334.284 319.429 334.851 319.429 335.469Z" stroke="#34212E" stroke-width="1.33333" stroke-miterlimit="8" fill-rule="evenodd"/><path d="M322.759 335.397C322.868 335.397 322.923 335.397 322.977 335.345 325.111 334.933 326.807 334.468 328.339 333.798 329.488 333.282 330.473 332.56 331.239 331.837 332.662 330.341 332.881 328.639 331.896 326.782 330.966 325.028 329.434 323.841 327.956 322.81 327.738 322.655 327.409 322.5 327.136 322.5 326.807 322.5 326.424 322.603 326.041 323.171 325.713 323.738 325.439 324.254 325.111 324.718 324.181 326.214 323.087 327.71 321.883 329.155 321.719 329.361 321.555 329.722 321.555 330.032 321.555 330.599 321.555 331.167 321.555 331.786 321.555 332.302 321.555 332.818 321.555 333.282 321.555 333.488 321.555 333.798 321.555 334.056 321.555 334.159 321.555 334.365 321.555 334.468L321.5 335.5 322.594 335.397 322.759 335.397ZM322.485 333.385C322.485 332.302 322.485 331.167 322.485 330.135 322.485 330.032 322.54 329.929 322.594 329.826 323.798 328.381 324.947 326.885 325.932 325.234 326.26 324.718 326.534 324.202 326.862 323.635 326.917 323.532 327.026 323.429 327.081 323.429 327.136 323.429 327.19 323.48 327.3 323.532 328.777 324.564 330.145 325.698 330.911 327.246 331.622 328.639 331.622 329.98 330.364 331.322 329.652 332.095 328.777 332.663 327.792 333.127 326.206 333.901 324.4 334.365 322.704 334.623 322.649 334.623 322.54 334.623 322.375 334.675 322.485 334.21 322.485 333.798 322.485 333.385Z" stroke="#34212E" stroke-width="1.33333" stroke-miterlimit="8" fill-rule="evenodd"/><path d="M305.151 339.591 305.151 339.591C305.311 339.945 305.577 340.5 306.269 340.5 306.642 340.5 306.855 340.349 307.175 340.197 308.027 339.742 308.826 339.288 309.678 338.833 309.891 338.682 310.157 338.53 310.37 338.379 310.476 338.328 310.583 338.227 310.689 338.177L312.5 337.066 310.423 336.662 307.76 336.207 304.885 335.702 303.5 335.5 303.873 336.813 303.873 336.864C303.873 336.965 303.926 337.066 303.979 337.268 304.139 337.621 304.352 338.025 304.512 338.328 304.778 338.682 304.938 339.136 305.151 339.591ZM310.263 337.52C309.891 337.722 309.624 337.975 309.252 338.177 308.4 338.631 307.654 339.086 306.802 339.49 306.589 339.591 306.429 339.642 306.323 339.642 306.216 339.642 306.163 339.54 306.003 339.237 305.63 338.429 305.204 337.571 304.831 336.813 304.778 336.712 304.778 336.611 304.725 336.51 306.536 336.813 308.346 337.167 310.263 337.52Z" stroke="#34212E" stroke-width="1.33333" stroke-miterlimit="8" fill-rule="evenodd"/><path d="M334.487 328.442C334.382 326.59 333.541 325.056 332.385 323.627 331.334 322.357 330.126 321.352 328.812 320.505 328.602 320.4 328.602 320.188 328.655 320.029 328.97 318.971 329.285 317.966 329.495 316.908 329.863 315.267 329.863 313.521 329.338 311.881 329.022 310.929 328.549 310.135 327.971 309.5L327.341 310.135C327.866 310.664 328.234 311.405 328.444 312.146 328.865 313.521 328.917 315.056 328.549 316.696 328.392 317.489 328.182 318.23 327.971 319.024 327.919 319.236 327.814 319.553 327.761 319.818 327.551 320.611 327.919 321.087 328.287 321.299 329.6 322.198 330.756 323.204 331.65 324.262 332.806 325.691 333.489 327.066 333.541 328.548 333.594 330.029 333.173 331.299 332.175 332.41 331.124 333.574 329.758 334.474 328.024 335.267 326.448 335.902 324.714 336.378 322.769 336.696 322.139 336.802 321.771 337.172 321.666 337.807 321.351 339.712 320.983 341.299 320.352 342.833 319.564 344.791 318.461 346.431 317.357 347.331 316.096 348.283 314.835 348.495 313.889 348.495 312.418 348.495 311.104 347.966 310.421 347.49 308.792 346.326 308.372 345.849 307.479 344.685 307.321 344.474 307.111 344.209 306.901 343.892 306.743 343.68 306.533 343.363 306.323 343.098 306.008 342.675 305.482 342.675 305.377 342.675 305.272 342.675 305.167 342.675 305.062 342.728 304.746 342.78 304.484 342.886 304.168 343.045 303.801 343.151 303.538 343.257 303.17 343.363 301.856 343.733 300.753 343.892 299.755 343.892 298.914 343.892 298.178 343.786 297.39 343.521 296.549 343.31 295.866 342.886 295.288 342.357L294.5 343.045C295.183 343.68 296.024 344.156 296.97 344.474 297.863 344.685 298.704 344.844 299.544 344.844 300.806 344.844 301.962 344.632 303.223 344.315 303.853 344.156 304.484 343.892 305.114 343.733L305.167 343.733C305.272 343.733 305.377 343.786 305.482 343.839 305.902 344.368 306.27 344.897 306.585 345.373 307.479 346.484 307.952 347.119 309.686 348.336 310.631 348.971 312.103 349.5 313.679 349.5 315.045 349.5 316.464 349.13 317.673 348.124 319.091 347.013 320.195 345.109 320.983 343.257 321.613 341.616 322.034 339.818 322.349 338.019 322.402 337.807 322.454 337.648 322.717 337.648 324.609 337.331 326.448 336.855 328.182 336.167 329.916 335.479 331.439 334.527 332.648 333.098 334.067 331.669 334.592 330.135 334.487 328.442Z" stroke="#34212E" stroke-width="1.33333" stroke-miterlimit="8" fill-rule="evenodd"/><path d="M314.375 323.5 313.693 324.046C314.091 324.443 314.318 324.89 314.432 325.436 314.829 326.926 314.318 328.167 312.898 329.06 312.216 329.507 311.477 329.706 310.795 329.706 310.227 329.706 309.659 329.606 309.091 329.309 308.75 329.209 308.466 328.961 308.182 328.812L307.5 329.408C307.898 329.706 308.182 329.904 308.636 330.053 309.318 330.401 310.057 330.5 310.739 330.5 311.704 330.5 312.614 330.202 313.409 329.706 315.113 328.614 315.852 327.025 315.341 325.188 315.17 324.543 314.829 323.997 314.375 323.5Z" stroke="#34212E" stroke-width="1.33333" stroke-miterlimit="8" fill-rule="evenodd"/><path d="M251.5 289.824C251.5 285.227 255.227 281.5 259.824 281.5L356.176 281.5C360.773 281.5 364.5 285.227 364.5 289.824L364.5 361.176C364.5 365.773 360.773 369.5 356.176 369.5L259.824 369.5C255.227 369.5 251.5 365.773 251.5 361.176Z" stroke="#34212E" stroke-width="5.33333" stroke-linecap="round" stroke-linejoin="round" stroke-miterlimit="10" fill="none" fill-rule="evenodd"/></g></svg>