<svg width="120" height="94" xmlns="http://www.w3.org/2000/svg" xmlns:xlink="http://www.w3.org/1999/xlink" overflow="hidden"><defs><clipPath id="clip0"><rect x="248" y="278" width="120" height="94"/></clipPath></defs><g clip-path="url(#clip0)" transform="translate(-248 -278)"><path d="M329.371 304 289 344.332C300.205 354.795 317.746 354.533 328.637 343.652 339.529 332.719 339.79 315.247 329.371 304Z" stroke="#34212E" stroke-width="2" stroke-miterlimit="8" fill="none" fill-rule="evenodd"/><path d="M328 302.881C316.883 292.228 299.221 292.384 288.313 303.297 277.352 314.262 277.248 331.879 287.897 343L328 302.881Z" stroke="#34212E" stroke-width="2" stroke-miterlimit="8" fill="none" fill-rule="evenodd"/><path d="M312 304.368C311.416 304.515 310.938 304.319 310.354 304.663 309.876 304.957 309.398 305.301 309.451 305.89 309.504 306.184 309.77 306.92 309.982 307.117 310.089 307.215 310.938 307.117 310.991 307.313 311.044 307.607 310.035 307.607 309.929 307.656 309.611 307.706 309.345 308 309.027 308 308.23 307.951 309.504 307.362 309.664 307.264 309.292 306.871 308.973 306.528 308.867 306.037 308.814 305.841 308.92 305.644 308.814 305.497 308.708 305.35 308.389 305.202 308.283 305.055 308.071 304.859 307.858 304.564 308.124 304.221 308.336 303.877 308.336 304.123 308.549 304.319 308.708 304.613 308.973 304.81 309.133 305.104 309.345 304.761 309.77 304.368 310.142 304.221 310.566 303.975 311.788 303.828 312 304.368 311.894 304.417 312 304.27 312 304.368" stroke="#34212E" stroke-width="2" stroke-miterlimit="8" fill-rule="evenodd"/><path d="M312.955 309.416C312.802 309.524 312.547 309.524 312.343 309.631 312.189 309.685 311.985 309.846 311.832 309.953 311.985 310.115 312.496 310.49 312.496 310.813 312.445 311.296 311.985 310.651 311.934 310.49 311.474 309.953 310.708 309.363 310.044 309.202 309.227 309.094 308.461 309.416 307.695 309.685 307.133 309.846 306.674 309.846 306.112 309.846 305.652 309.846 305.295 310.168 304.988 310.437 304.682 310.651 304.58 311.081 304.478 311.457 304.427 311.833 304.427 312.101 304.018 312.262 303.558 312.37 303.201 312.37 302.997 312.96 302.895 313.283 302.895 313.497 302.946 313.766 303.048 314.142 303.252 314.41 303.456 314.733 303.507 314.84 303.661 315.055 303.814 315.108 303.967 315.162 304.171 315.055 304.324 315.055 304.529 315.001 304.886 315.001 305.142 315.108 305.244 315.162 305.346 315.162 305.448 315.323 305.499 315.538 305.091 315.484 304.937 315.484 304.529 315.484 304.273 315.484 303.916 315.645 303.558 315.806 303.405 316.182 303.099 316.451 303.609 316.988 303.712 317.525 303.456 318.277 304.273 318.706 305.601 319.565 304.937 320.693 304.529 321.391 304.427 320.747 304.478 320.263 304.529 319.726 304.529 319.243 303.967 318.921 303.763 318.814 303.15 318.814 302.997 318.599 302.843 318.384 302.946 318.062 302.997 317.901 303.15 317.042 302.895 316.558 302.128 316.29 301.362 316.075 300.443 316.236 299.83 316.719 299.422 317.042 299.064 317.578 298.86 318.008 298.809 318.115 298.707 318.867 298.553 318.867 298.349 318.921 298.196 318.438 298.196 318.277 298.247 318.115 298.349 317.954 298.4 317.847 298.502 317.686 298.553 317.525 298.605 317.417 298.707 317.256 299.064 316.988 299.115 316.827 299.115 316.612 298.605 315.968 298.451 315.806 298.094 315.484 297.634 315.269 297.175 315.162 296.868 315.108 296.511 315.162 296.409 314.84 296.358 314.625 296.562 314.303 296.613 314.034 296.715 313.659 296.766 313.336 296.664 312.96 296.511 312.477 296.153 312.262 296 311.779 296.409 311.725 296.817 312.423 296.97 312.746 297.277 313.336 297.277 314.088 296.919 314.679 297.532 314.894 298.298 315.216 298.809 315.753 299.013 315.968 299.166 316.29 299.32 316.612 300.239 315.699 301.669 315.645 302.69 316.397 302.843 316.021 303.15 315.806 303.456 315.484 302.69 314.947 302.128 313.981 302.384 313.014 302.537 312.209 303.252 311.672 303.967 311.833 303.967 311.188 304.324 309.953 305.039 309.9 304.631 309.416 302.639 307.215 304.273 307 304.324 307.537 304.222 307.913 304.478 308.45 304.886 309.309 305.397 309.578 306.265 309.578 307.338 309.631 308.308 308.987 309.432 308.933 310.249 308.879 310.964 309.309 311.576 309.9 311.27 309.524 311.934 309.363 312.189 309.309 312.291 309.148 313.211 309.148 312.955 309.416 312.7 309.578 313.007 309.363 312.955 309.416" stroke="#34212E" stroke-width="2" stroke-miterlimit="8" fill-rule="evenodd"/><path d="M306.96 304.011C307.158 304.415 306.564 304.667 306.366 304.819 306.068 304.92 305.82 305.172 305.622 305.374 305.424 305.677 305.325 306.233 305.127 306.485 304.829 306.788 304.483 306.435 304.136 306.384 302.6 306.182 300.766 306.788 299.626 307.849 298.437 309.061 298.189 310.828 298.784 312.394 298.834 312.495 299.081 313 298.784 313 298.586 313 298.338 312.445 298.288 312.243 298.14 311.788 298.09 311.283 298.09 310.778 298.09 310.626 298.189 310.222 298.14 310.02 298.09 309.919 297.545 309.818 297.397 309.717 297.099 309.667 296.158 310.071 296.009 309.768 295.91 309.465 296.653 309.263 296.851 309.263 297.248 309.263 297.793 309.364 298.14 309.616 298.189 308.708 299.032 307.698 299.676 307.193 299.775 307.142 300.023 307.041 300.072 306.889 300.122 306.788 300.023 306.384 300.023 306.233 300.023 306.132 300.023 306.031 300.023 305.879 299.973 305.728 299.924 305.475 299.825 305.374 299.725 305.223 299.279 304.819 299.428 304.566 300.32 305.021 300.518 305.778 300.419 306.738 300.816 306.536 301.212 306.334 301.658 306.233 301.955 306.182 302.401 306.233 302.649 306.081 302.847 305.98 302.748 306.031 302.798 305.728 302.798 305.576 302.847 305.374 302.897 305.223 302.946 305.071 302.946 304.869 303.046 304.718 303.194 304.415 303.343 304.566 303.046 304.213 302.748 303.91 302.6 303.708 302.203 303.607 302.054 303.556 301.41 303.556 301.708 303.102 301.906 302.799 302.5 303.253 302.699 303.405 303.046 303.556 303.244 303.809 303.541 304.061 303.838 303.859 304.136 303.405 304.532 303.253 304.928 303.152 305.573 303.203 305.87 303.455 305.721 303.607 305.424 303.506 305.275 303.556 304.978 303.556 304.829 303.657 304.532 303.758 303.64 304.263 303.442 304.869 303.194 305.879 303.591 305.829 304.037 305.879 304.483 305.778 304.681 305.728 304.879 305.728 304.978 305.576 305.077 305.475 305.127 305.273 305.275 305.172 305.622 304.819 306.366 304.213 306.96 304.011 307.01 304.162 306.712 304.061 306.96 304.011" stroke="#34212E" stroke-width="2" stroke-miterlimit="8" fill-rule="evenodd"/><path d="M310.906 312.042C311.279 312.489 310.426 312.191 310.32 312.142 310.16 312.142 309.84 312.142 309.68 312.191 309.573 312.191 309.2 312.191 309.147 312.241 309.04 312.34 309.04 312.837 308.987 313.035 308.667 313.83 307.921 314.425 307.068 314.673 307.441 315.021 307.761 315.269 307.974 315.766 308.027 315.914 308.187 317.255 307.761 316.957 307.601 316.858 307.654 316.361 307.654 316.163 307.601 315.865 307.548 315.567 307.334 315.319 307.228 315.12 305.948 314.326 306.002 314.127 306.375 314.028 306.428 314.276 306.641 314.326 306.855 314.376 306.748 314.376 307.015 314.227 307.121 314.177 307.174 314.127 307.334 314.078 307.814 313.879 308.187 313.581 308.401 313.135 308.507 312.936 308.614 312.688 308.72 312.489 308.774 312.092 308.561 312.092 308.294 311.844 308.081 311.546 307.921 311.248 308.401 311 308.561 311.199 308.614 311.447 308.88 311.546 309.094 311.695 309.413 311.745 309.68 311.844 310 311.794 310.693 311.745 310.906 312.042 311.013 312.191 310.853 311.943 310.906 312.042" stroke="#34212E" stroke-width="2" stroke-miterlimit="8" fill-rule="evenodd"/><path d="M298.695 320.075C298.322 320.282 298.055 320.282 297.788 320.645 297.682 320.801 297.575 321.008 297.575 321.164 297.575 321.475 297.682 321.475 297.895 321.631 298.215 321.838 298.428 322.046 298.482 322.409 298.535 322.616 298.428 322.823 298.535 323.031 298.588 323.135 299.442 324.328 298.695 323.913 298.322 323.757 298.108 322.979 297.895 322.616 297.788 322.409 297.788 322.201 297.522 322.046 297.415 321.994 297.308 321.942 297.148 321.89 297.095 321.89 297.042 321.89 296.988 321.838 296.668 321.734 296.508 321.423 296.295 321.216 295.762 320.645 295.228 320.126 295.121 319.297 295.015 318.83 294.801 318.311 295.442 318 295.602 318.207 295.495 318.519 295.495 318.778 295.495 319.141 295.548 319.349 295.708 319.712 295.922 320.178 296.295 320.801 296.828 321.112 296.882 320.593 297.148 320.23 297.522 319.867 297.682 319.763 297.842 319.66 298.055 319.556 298.375 319.763 299.069 319.867 298.695 320.075 298.588 320.126 298.802 320.023 298.695 320.075" stroke="#34212E" stroke-width="2" stroke-miterlimit="8" fill-rule="evenodd"/><path d="M294.597 316.389C294.003 316.993 292.816 317.103 292.438 317.927 291.899 318.917 292.87 319.906 293.787 320.126 294.003 320.181 294.003 320.071 294.165 320.291 294.219 320.456 294.165 320.73 294.165 320.84 294.219 321.555 294.597 322.269 295.082 322.874 295.622 323.588 296.215 324.028 297.079 324.413 297.456 324.523 297.726 324.633 298.104 324.633 298.266 324.633 298.805 324.578 298.967 324.742 299.291 325.457 297.133 324.742 297.079 324.742 296.971 324.742 296.485 325.182 296.431 325.347 296.269 325.677 296.377 326.007 296.485 326.336 296.539 326.556 296.701 327.051 296.377 326.996 296.053 326.941 295.73 326.336 295.73 326.007 295.676 325.347 296.215 324.962 296.701 324.578 295.352 323.753 294.111 322.434 293.733 320.84 293.733 320.73 293.733 320.675 293.733 320.511 293.733 320.401 293.679 320.346 293.572 320.401 293.518 320.346 293.41 320.346 293.356 320.346 293.032 320.236 292.816 320.016 292.654 319.796 292.223 319.356 291.953 318.807 292.007 318.202 292.061 317.598 292.654 317.158 293.194 316.828 293.733 316.498 294.273 315.949 294.974 316.004 294.597 316.169 294.597 316.224 294.597 316.389 294.381 316.498 294.597 316.224 294.597 316.389" stroke="#34212E" stroke-width="2" stroke-miterlimit="8" fill-rule="evenodd"/><path d="M319.982 305.98C319.982 305.665 319.877 305.455 319.773 305.192 319.72 304.982 319.616 304.719 319.616 304.561L319.616 304.561C319.563 304.245 319.302 304.035 319.145 303.93 319.093 303.877 319.093 303.877 319.04 303.825L318.988 303.772C318.779 303.562 318.465 303.299 318.099 303.194 317.994 303.089 317.89 303.089 317.785 303.089 317.68 303.089 317.68 303.089 317.628 303.089 317.523 303.036 317.471 303.036 317.314 302.931L317.262 302.879C316.739 302.458 316.111 302.195 315.64 302.037 315.536 301.985 315.326 301.985 315.169 302.037 315.013 302.037 314.803 302.037 314.699 301.985 314.594 301.932 314.542 301.617 314.489 301.406 314.437 301.301 314.437 301.091 314.385 301.038 313.705 299.461 312.293 298.725 310.566 299.093 309.939 299.198 309.416 299.514 308.997 299.934 308.892 300.04 308.84 300.25 308.683 300.355 308.631 300.513 308.526 300.67 308.474 300.723 308.317 300.828 308.16 300.776 307.951 300.565 307.899 300.513 307.846 300.46 307.742 300.408 307.376 300.197 307.114 300.04 306.696 300.092 306.016 300.145 305.283 300.723 304.812 301.144 304.289 301.564 303.819 301.985 303.243 301.932 303.139 301.932 303.034 301.932 302.877 301.88 302.302 301.827 301.779 301.775 301.099 301.932 299.948 302.248 299.216 302.879 298.535 303.72 298.222 304.088 298.012 304.403 297.751 304.824L297.646 304.982C297.542 305.192 297.542 305.192 297.332 305.139 297.28 305.139 297.228 305.139 297.175 305.139 296.757 305.087 296.496 305.139 296.077 305.297 295.711 305.402 295.449 305.612 295.083 305.875 294.926 306.033 294.769 306.191 294.665 306.348 294.612 306.401 294.56 306.506 294.455 306.559 294.403 306.559 294.351 306.506 294.299 306.506L294.299 306.506 294.142 306.506C293.775 306.559 293.462 306.559 293.095 306.664 292.677 306.769 292.102 307.084 291.683 307.347 290.898 307.926 290.794 308.504 291.055 309.293 290.271 309.398 289.12 309.713 288.335 310.659 287.917 311.185 287.708 311.711 287.708 312.289 287.708 312.657 287.708 312.92 287.708 313.236 287.708 313.288 287.708 313.341 287.708 313.446 287.708 313.656 287.76 314.024 287.708 314.129 287.655 314.182 287.551 314.287 287.394 314.445 287.289 314.55 287.08 314.603 286.975 314.76 286.923 314.865 286.871 314.971 286.818 315.128 286.766 315.233 286.766 315.339 286.714 315.444 286.662 315.496 286.557 315.549 286.4 315.601 286.295 315.654 286.191 315.707 286.034 315.812 285.929 315.864 285.825 315.969 285.668 316.022 285.563 316.127 285.354 316.18 285.249 316.337 284.569 316.916 284.151 317.652 283.889 318.703 283.889 318.808 283.837 319.019 283.785 319.124 283.732 319.439 283.68 319.702 283.628 320.018 283.575 320.648 283.628 321.122 283.942 321.753 283.994 321.805 283.994 321.858 284.046 321.91 284.098 322.015 284.151 322.121 284.203 322.226 284.255 322.383 284.046 322.699 283.837 323.014 283.68 323.172 283.523 323.435 283.471 323.593 283.418 323.698 283.366 323.908 283.314 324.013 283.157 324.381 283 324.802 283 325.17 283 325.538 283.105 325.748 283.157 326.064 283.209 326.169 283.209 326.221 283.262 326.379 283.471 327.168 283.942 327.799 284.726 328.377 284.831 328.482 285.04 328.535 285.197 328.692 285.563 328.85 285.982 329.165 286.034 329.376 286.034 329.428 286.034 329.586 286.034 329.744 286.034 329.849 286.034 329.901 286.034 330.059L286.034 330.164C286.034 330.375 286.034 330.638 286.034 330.848 285.982 331.321 285.982 331.636 286.086 332.11 286.295 332.74 286.557 333.476 286.871 333.95 287.289 334.528 287.812 335.054 288.283 335.369 288.388 335.422 288.492 335.474 288.702 335.527 288.806 335.579 289.015 335.579 289.12 335.527 289.225 335.527 289.277 335.527 289.329 335.527L289.329 335.527C289.382 335.632 289.434 335.685 289.486 335.737 289.643 335.79 289.8 335.842 290.009 335.895 290.166 335.947 290.48 336 290.794 336 290.846 336 290.951 336 291.003 336 291.631 335.895 292.259 335.527 292.782 334.843 292.834 334.791 292.834 334.738 292.886 334.686 292.886 334.633 292.939 334.633 292.939 334.581 292.939 334.528 292.991 334.528 292.991 334.528 293.043 334.475 293.095 334.423 293.148 334.37 293.148 334.318 293.148 334.265 293.148 334.16L293.148 334.107C293.252 333.95 293.514 333.792 293.723 333.687 293.828 333.634 293.88 333.582 294.037 333.529 294.246 333.371 294.56 333.161 294.822 333.056 295.188 332.846 295.606 332.635 295.92 332.267 296.234 331.952 296.496 331.689 296.6 331.374 296.652 331.268 296.705 331.058 296.705 330.9 296.757 330.69 296.809 330.375 296.914 330.269 297.019 330.164 297.28 330.112 297.489 330.059 297.646 330.007 297.803 329.954 297.96 329.901 298.483 329.691 298.902 329.218 299.32 328.797 299.425 328.692 299.529 328.587 299.634 328.429 300.105 327.956 300.314 327.588 300.628 327.062 300.837 326.642 301.046 326.274 301.203 325.958 301.308 325.643 301.308 325.643 301.622 325.643 301.779 325.643 302.04 325.59 302.197 325.485 302.877 325.065 303.348 323.961 303.348 323.119 303.714 323.119 303.976 323.067 304.342 322.962 304.812 322.804 305.231 322.383 305.597 322.015 305.702 321.91 305.754 321.805 305.911 321.7 306.068 321.542 306.225 321.385 306.382 321.227 306.853 320.754 307.323 320.333 307.742 319.807 307.846 319.65 307.951 319.439 308.108 319.282 308.212 319.071 308.317 318.808 308.474 318.493 308.526 318.335 308.579 318.125 308.683 317.967 308.736 317.862 308.788 317.652 308.84 317.547 308.892 317.441 308.945 317.231 308.945 317.126 308.997 317.021 308.997 316.916 309.049 316.758 309.834 317.073 310.985 316.443 311.508 315.969 312.031 315.496 312.606 314.918 313.025 314.34 313.077 314.234 313.129 314.129 313.234 313.972L313.286 313.866C313.391 313.709 313.496 313.446 313.653 313.288L313.705 313.183C313.757 313.078 313.757 313.078 313.862 313.078 313.914 313.078 313.914 313.078 313.966 313.078 314.071 313.13 314.123 313.13 314.333 313.078 314.542 312.973 314.803 312.552 314.803 312.552 314.96 312.237 314.96 312.026 314.908 311.711 315.326 311.764 315.902 311.658 316.163 311.606 316.634 311.501 317 311.08 317.209 310.554 317.262 310.344 317.314 310.081 317.366 309.871 317.366 309.766 317.419 309.661 317.419 309.555 317.419 309.45 317.471 309.293 317.471 309.135 317.471 309.03 317.523 308.925 317.523 308.767 317.576 308.662 317.68 308.609 317.89 308.557 317.942 308.557 317.994 308.504 318.099 308.504 318.726 308.189 319.459 307.505 319.72 306.927 319.982 306.611 320.034 306.243 319.982 305.98ZM292.468 333.792C292.259 334.16 291.997 334.475 291.683 334.738 291.16 335.159 290.585 335.159 289.905 335.054 290.009 334.896 290.114 334.686 290.114 334.475L290.114 334.318 289.957 334.318C289.8 334.318 289.643 334.37 289.538 334.423 289.486 334.475 289.382 334.475 289.329 334.475 289.12 334.528 288.806 334.475 288.44 334.37 287.551 333.95 287.132 333.108 286.714 332.372 286.505 331.794 286.4 331.216 286.4 330.585 286.4 330.164 286.4 329.744 286.348 329.323L286.4 329.323C286.714 329.376 286.923 329.481 287.289 329.481 287.446 329.481 287.655 329.533 287.865 329.586 288.074 329.639 288.283 329.691 288.492 329.691 288.44 330.269 288.597 331.111 289.015 331.584 289.068 331.689 289.329 331.952 289.538 331.794 289.748 331.689 289.643 331.268 289.591 331.163L289.538 331.005C289.382 330.585 289.225 330.217 289.225 329.849 289.225 329.639 289.277 329.376 289.434 329.165 289.486 329.113 289.538 329.008 289.643 328.85 289.852 328.535 290.114 328.219 290.062 327.851L290.062 327.746 289.957 327.746C289.434 327.799 289.172 328.272 289.015 328.64L288.963 328.745C288.859 328.955 288.859 328.955 288.649 328.955 288.597 328.955 288.283 328.955 288.231 328.955 288.178 328.85 288.074 328.324 288.074 328.061 288.074 327.904 288.126 327.641 288.178 327.536 288.492 326.957 288.963 326.747 289.643 326.642 289.8 326.589 290.166 326.537 290.219 326.274 290.219 326.221 290.219 326.064 290.114 325.906 290.009 325.801 289.695 325.748 289.486 325.748 289.382 325.748 289.329 325.748 289.277 325.748 289.068 325.696 288.806 325.643 288.597 325.433 288.492 325.38 288.388 325.275 288.231 325.222 288.231 325.222 288.178 325.17 288.126 325.065 288.022 324.854 287.917 324.697 287.76 324.697 287.708 324.697 287.603 324.697 287.551 324.802 287.446 324.96 287.446 325.38 287.499 325.485 287.551 325.696 287.812 325.906 287.917 326.011 287.969 326.064 288.074 326.169 288.126 326.221L288.178 326.221 288.178 326.221C288.178 326.221 288.178 326.221 288.126 326.274L288.074 326.326 288.074 326.484C288.022 326.694 287.917 326.905 287.76 327.062 287.603 327.273 287.446 327.536 287.394 327.851 287.342 328.219 287.289 328.64 287.446 329.008 285.929 328.85 284.412 327.641 283.732 326.116 283.523 325.538 283.523 325.065 283.68 324.381 283.785 323.908 284.046 323.54 284.255 323.225 284.308 323.119 284.412 322.909 284.465 322.804 284.831 323.172 285.092 323.382 285.511 323.698 284.935 324.276 284.831 324.854 285.092 325.59 285.145 325.748 285.982 326.957 286.505 326.957 286.609 326.957 286.714 326.905 286.871 326.747 286.975 326.537 286.714 326.221 286.4 325.906 286.348 325.853 286.348 325.853 286.348 325.853 286.034 325.538 285.877 325.328 285.877 324.907 285.877 324.591 285.982 324.118 286.295 324.066 286.452 324.066 286.714 324.066 286.975 324.118 287.132 324.118 287.342 324.171 287.446 324.171L287.551 324.171C287.917 324.171 288.178 324.224 288.44 324.066 288.492 324.013 288.754 323.908 288.649 323.698 288.649 323.645 288.597 323.487 287.708 323.487L287.655 323.487C287.185 323.487 286.4 323.435 285.825 323.014 284.517 322.121 283.942 320.911 284.203 319.597 284.412 318.44 284.831 317.073 286.295 316.39 286.452 316.811 287.132 317.809 287.603 317.967 287.76 318.02 287.917 317.967 288.022 317.862L288.074 317.809 288.022 317.704C287.917 317.494 287.812 317.336 287.603 317.179 287.499 317.073 287.289 316.863 287.237 316.758 287.08 316.39 287.08 315.864 287.289 315.444 287.394 315.233 287.603 315.076 287.812 314.971 287.917 314.918 288.022 314.865 288.178 314.76 288.545 314.445 288.492 314.34 288.335 313.972L288.545 313.866C288.074 312.762 288.545 311.238 289.591 310.554 289.905 310.397 290.166 310.186 290.428 310.134 290.532 310.081 290.637 310.081 290.846 310.029L290.951 310.029C291.003 310.029 291.055 310.029 291.108 309.976 291.212 309.923 291.212 309.976 291.265 310.029 291.369 310.134 291.422 310.344 291.474 310.502 291.526 310.659 291.579 310.87 291.788 311.027 291.84 311.133 291.892 311.185 291.997 311.238 292.102 311.343 292.154 311.396 292.206 311.658L292.206 311.658C292.154 311.658 292.102 311.606 292.049 311.606 291.84 311.553 291.631 311.606 291.474 311.658 291.317 311.711 291.108 311.764 290.951 311.658 290.846 311.606 290.742 311.343 290.637 311.185 290.585 310.975 290.532 310.765 290.323 310.712 290.114 310.659 289.748 310.922 289.695 311.133 289.538 311.553 289.8 311.921 290.009 312.132 290.062 312.184 290.114 312.237 290.114 312.237 290.219 312.342 290.323 312.447 290.323 312.552 290.323 312.657 290.323 312.762 290.271 312.815 290.219 312.92 290.166 313.025 290.114 313.13 289.8 313.919 290.009 314.918 290.48 315.549 289.486 316.075 289.068 317.179 288.649 318.178L288.597 318.283C288.283 319.071 288.022 320.018 288.388 320.859 288.754 321.753 289.382 322.436 289.957 323.172 290.637 323.855 291.265 324.224 292.259 324.486 291.84 324.907 291.422 325.275 291.317 325.906 291.16 326.747 291.474 327.168 291.997 327.483 291.369 328.377 291.369 329.744 291.997 330.585 292.677 331.531 293.409 332.057 294.299 332.478 294.089 332.635 293.88 332.635 293.462 332.583L293.357 332.583C293.043 332.583 292.782 332.478 292.468 332.425 292.311 332.372 292.102 332.32 291.945 332.32 291.631 332.267 291.422 332.32 291.369 332.478 291.317 332.583 291.369 332.793 291.683 332.951 292.102 333.161 292.572 333.266 292.991 333.319 293.043 333.319 293.095 333.319 293.095 333.319 292.729 333.476 292.625 333.634 292.468 333.792ZM293.2 315.812C293.148 315.496 292.991 315.286 292.782 315.023 292.625 314.708 292.415 314.445 292.363 314.024 292.311 313.656 292.415 313.393 292.468 313.025L292.52 312.815C292.52 312.762 292.52 312.71 292.572 312.657 292.572 312.5 292.625 312.289 292.677 312.184 292.677 312.132 292.729 312.079 292.782 312.026 292.886 311.921 292.939 311.816 292.939 311.606 292.939 311.29 292.625 311.133 292.415 310.975 292.311 310.922 292.206 310.87 292.206 310.817 291.997 310.502 291.788 309.976 291.683 309.661 291.579 309.187 291.526 308.557 291.788 308.136 292.154 307.663 293.305 307.19 293.88 307.242 293.985 307.242 293.985 307.242 293.985 307.242 293.985 307.242 293.985 307.295 293.985 307.347 293.985 307.4 293.985 307.453 293.932 307.505L293.932 307.558C293.932 307.715 293.88 307.926 293.932 308.083 293.932 308.136 293.985 308.189 293.985 308.294 293.985 308.346 294.037 308.399 294.037 308.399 294.037 308.451 293.932 308.609 293.828 308.767 293.723 308.872 293.671 309.082 293.619 309.135 293.566 309.293 293.514 309.503 293.514 309.661L293.514 309.766C293.514 309.818 293.514 309.871 293.462 309.923 293.409 310.239 293.357 310.502 293.409 310.817 293.462 311.027 293.619 311.396 293.88 311.448 293.932 311.448 294.089 311.448 294.246 311.29 294.351 311.133 294.299 310.817 294.246 310.502 294.246 310.344 294.194 310.186 294.194 310.081 294.246 309.293 294.769 308.609 295.502 308.241 296.025 307.926 296.443 307.82 296.862 307.768 296.914 307.768 296.966 307.768 297.019 307.768 297.437 307.768 297.699 307.768 297.803 307.61 297.855 307.453 297.646 307.242 297.594 307.19 297.385 307.032 296.914 307.032 296.182 307.19 295.711 307.295 295.292 307.558 294.874 307.768 294.769 307.19 295.188 306.506 295.659 306.138 295.972 305.928 296.443 305.612 296.809 305.612 296.966 305.612 297.28 305.612 297.332 305.612 297.332 305.665 297.332 305.77 297.332 305.823 297.332 305.928 297.332 305.98 297.332 306.033 297.332 306.243 297.385 306.559 297.646 306.664 297.803 306.716 297.855 306.664 297.96 306.664 298.065 306.559 298.065 306.348 298.065 306.191L298.065 306.138C298.065 305.665 298.222 305.297 298.483 304.824 298.849 304.14 299.372 303.404 300.052 302.879 300.732 302.353 301.517 302.09 302.406 302.195 302.511 302.195 302.616 302.195 302.772 302.195 303.139 302.195 303.557 302.195 303.662 302.405 303.662 302.458 303.714 302.511 303.714 302.616 303.766 302.931 303.871 303.194 304.132 303.247 304.185 303.247 304.289 303.247 304.499 303.141 304.551 303.089 304.656 302.773 304.708 302.563 304.76 302.405 304.76 302.353 304.708 302.195 304.708 302.195 304.708 302.143 304.656 302.09 304.656 301.932 304.656 301.932 304.812 301.722 304.865 301.669 304.917 301.669 304.969 301.617 305.074 301.564 305.126 301.459 305.283 301.301 305.44 301.144 305.492 301.091 305.649 300.933 306.329 300.355 307.009 300.302 307.689 300.723L307.742 300.776C307.899 300.881 308.056 300.933 308.108 300.986 308.056 301.038 307.951 301.038 307.899 301.091 307.794 301.144 307.689 301.196 307.585 301.196 307.428 301.301 307.219 301.512 307.114 301.617 307.114 301.617 307.062 301.669 307.009 301.669 306.853 301.827 306.486 302.09 306.643 302.353 306.696 302.458 306.8 302.511 306.853 302.511 307.009 302.563 307.166 302.458 307.271 302.353L307.323 302.3C307.637 302.09 307.846 301.827 308.212 301.669 308.265 301.827 308.369 301.985 308.526 302.037 308.736 302.143 308.997 301.985 309.206 301.88L309.363 301.827C309.52 301.722 309.52 301.722 309.782 301.827L309.886 301.88C309.991 301.932 310.096 301.932 310.2 301.985 310.2 301.985 310.253 302.037 310.305 302.037 310.514 302.195 310.828 302.405 311.089 302.195 311.194 302.143 311.194 302.037 311.194 301.88 311.089 301.459 309.625 300.986 309.102 300.828 309.416 300.25 309.625 299.777 310.2 299.566 310.828 299.356 311.769 299.198 312.449 299.461 312.92 299.619 313.391 300.04 313.6 300.565 313.705 300.776 313.809 301.038 313.914 301.249 313.914 301.301 313.966 301.406 313.966 301.459 313.966 301.512 314.019 301.617 314.019 301.775 313.914 301.827 313.809 301.827 313.705 301.88 313.653 301.88 313.653 301.88 313.6 301.88L313.496 301.827C313.443 301.775 313.391 301.722 313.286 301.617 313.182 301.512 313.077 301.301 312.868 301.301 312.711 301.249 312.554 301.301 312.502 301.406 312.397 301.722 312.868 302.195 312.868 302.195 312.92 302.248 312.973 302.3 313.025 302.3 313.025 302.3 313.077 302.353 313.077 302.3 313.077 302.3 313.077 302.353 313.025 302.405 312.973 302.458 312.92 302.511 312.868 302.563 312.816 302.616 312.763 302.668 312.763 302.721 312.711 302.773 312.606 302.879 312.449 303.036 311.979 303.667 311.717 303.877 311.717 304.14 311.717 304.298 311.822 304.456 311.874 304.456 312.031 304.561 312.345 304.456 312.449 304.351 312.606 304.245 312.816 303.93 312.973 303.772 313.025 303.72 313.077 303.615 313.129 303.562L313.234 303.457C313.548 303.089 313.757 302.773 314.228 302.616 314.908 302.405 315.64 302.563 316.529 303.089 316.32 303.141 316.059 303.247 315.902 303.404 315.902 303.352 315.849 303.352 315.797 303.404 315.745 303.457 315.64 303.562 315.588 303.562 315.588 303.562 315.536 303.562 315.483 303.509 315.431 303.457 315.326 303.457 315.169 303.457 314.646 303.509 314.071 304.245 314.071 304.771 314.123 305.35 314.594 305.718 315.013 306.033 315.013 306.033 315.065 306.033 315.065 306.086 315.222 306.243 315.536 306.454 315.64 306.296 315.693 306.243 315.745 306.138 315.745 306.086 315.745 305.875 315.431 305.665 315.222 305.56L315.169 305.507C315.013 305.402 314.856 305.034 314.856 304.824 314.856 304.719 314.96 304.614 315.169 304.508 315.222 304.508 315.274 304.561 315.326 304.508 315.536 304.456 315.693 304.351 315.849 304.193L315.902 304.14C316.373 303.72 317.209 303.457 317.837 303.562 318.256 303.615 318.517 303.877 318.726 304.193 318.726 304.193 318.726 304.193 318.726 304.245L318.831 304.403C319.145 305.034 319.406 305.56 319.145 306.243 318.883 306.927 318.256 307.4 317.68 307.715 317.628 307.347 317.576 306.927 317.576 306.664 317.576 306.611 317.576 306.559 317.576 306.454 317.576 306.086 317.523 305.875 317.419 305.77 317.262 305.612 317.105 305.665 317.053 305.665 316.843 305.77 316.739 306.191 316.739 306.348 316.739 306.506 316.791 306.716 316.843 306.874 316.896 306.979 316.896 307.19 316.948 307.295 317 307.82 316.948 308.241 316.843 308.819 316.686 309.661 316.529 310.239 315.693 310.397 315.117 310.502 314.803 310.554 314.646 310.029 314.542 309.608 314.333 309.187 314.123 308.872 313.914 308.451 313.496 308.083 313.077 307.873 312.711 307.663 312.397 307.4 312.031 307.242 311.979 307.242 311.979 307.19 311.926 307.19 311.613 307.032 311.142 306.716 310.88 307.032L310.723 307.032 310.776 307.137C311.089 307.558 311.56 307.768 311.926 307.978 312.136 308.083 312.449 308.189 312.606 308.399 313.025 308.714 313.286 309.03 313.6 309.555 314.28 310.922 314.176 311.448 314.071 311.553 314.019 311.606 313.862 311.711 313.705 311.764 313.6 311.816 313.391 311.869 313.286 311.974 313.129 312.079 312.868 312.394 312.711 312.657 312.659 312.762 312.606 312.868 312.554 312.973 312.449 313.288 312.345 313.498 312.083 313.761 311.456 314.55 310.305 315.812 309.102 315.601 309.154 315.286 309.102 314.918 308.892 314.708L308.788 314.655 308.736 314.708C308.526 315.023 308.369 315.391 308.317 315.812 308.265 315.969 308.265 316.232 308.212 316.337 308.056 316.863 307.794 317.389 307.585 317.967 307.166 318.861 306.329 319.702 305.597 320.386 305.44 320.543 305.231 320.754 305.074 320.911 304.08 321.91 302.825 321.963 301.046 321.122 300.732 321.017 300.523 320.911 300.209 320.806 299.895 320.754 299.739 320.806 299.686 320.911 299.634 321.017 299.634 321.122 299.739 321.279 299.843 321.385 300.052 321.437 300.157 321.437 300.209 321.437 300.262 321.437 300.314 321.49 300.419 321.542 300.471 321.595 300.628 321.647 300.68 321.7 300.732 321.7 300.837 321.753 301.256 321.91 301.622 322.121 301.936 322.173 301.988 322.173 302.04 322.173 302.092 322.226 302.197 322.226 302.302 322.278 302.459 322.331 302.511 322.331 302.563 322.383 302.616 322.383L302.616 322.436 302.616 322.489C302.72 322.857 302.459 323.435 302.197 323.75 302.04 323.908 301.831 324.066 301.622 324.171L301.622 324.171C301.674 324.013 301.726 323.75 301.569 323.54 301.517 323.487 301.36 323.225 301.099 323.172 301.046 323.172 300.942 323.172 300.889 323.225 300.785 323.33 300.785 323.54 300.837 323.908 300.837 324.013 300.837 324.224 300.837 324.276 300.785 324.434 300.732 324.644 300.68 324.749 300.68 324.802 300.628 324.854 300.628 324.907 300.419 325.538 300 326.326 299.582 326.852 298.902 327.799 298.012 328.429 296.809 328.955L296.705 329.008C296.286 329.165 295.815 329.376 295.449 329.586 295.24 329.691 295.031 329.901 295.083 330.059 295.083 330.164 295.188 330.269 295.397 330.375 295.606 330.48 295.868 330.375 296.025 330.269 295.972 330.69 295.868 330.9 295.502 331.163 294.926 331.584 293.932 331.216 293.462 330.795 293.252 330.585 292.363 329.796 292.206 328.903 292.154 328.535 292.206 328.114 292.363 327.799 292.415 327.693 292.468 327.641 292.52 327.483 292.677 327.325 292.886 327.01 292.677 326.642 292.572 326.484 292.468 326.326 292.311 326.221 292.102 326.011 291.892 325.801 291.892 325.538 291.892 325.012 292.52 324.434 292.991 324.224 293.043 324.224 293.148 324.171 293.305 324.171 293.514 324.118 293.828 324.118 293.88 323.961 293.932 323.855 293.985 323.75 293.932 323.593 293.828 323.435 293.566 323.435 293.409 323.435L293.2 323.435C292.677 323.435 292.311 323.435 291.788 323.277 290.742 322.909 289.852 322.121 289.172 320.806 288.806 320.491 288.545 319.912 288.597 319.334 288.702 318.44 289.12 317.389 289.643 316.6 289.8 316.39 290.009 316.18 290.271 315.969 290.323 315.969 290.428 315.917 290.585 315.864 290.794 315.759 290.898 315.759 290.951 315.707 291.108 315.496 290.898 315.181 290.794 314.918 290.742 314.865 290.742 314.813 290.742 314.813 290.585 314.445 290.375 313.972 290.428 313.498 290.428 313.288 290.532 313.025 290.637 312.815 290.742 312.657 290.846 312.605 291.108 312.605 291.265 312.552 291.474 312.552 291.631 312.447 291.683 312.394 291.84 312.289 291.997 312.132 291.997 312.447 291.945 312.657 291.892 312.973 291.788 313.866 291.579 314.813 292.311 315.759 292.363 315.812 292.886 316.443 293.148 316.337 293.305 316.18 293.252 315.917 293.2 315.812Z" stroke="#34212E" stroke-width="2" stroke-miterlimit="8" fill-rule="evenodd"/><path d="M308.662 305.589C308.76 305.647 308.809 305.762 308.858 305.82 308.908 305.878 308.908 305.936 308.908 306.167 308.908 306.225 308.908 306.341 308.908 306.514 308.957 307.092 309.251 307.497 309.546 307.902 309.251 308.075 308.76 308.422 308.809 308.769 308.858 308.942 309.104 309 309.153 309L309.153 309C309.349 309 309.546 308.884 309.693 308.769 309.791 308.711 309.84 308.653 309.987 308.653 310.037 308.653 310.086 308.653 310.135 308.653 310.527 308.595 310.871 308.538 310.969 308.306 311.018 308.248 311.018 308.191 311.018 308.075 310.969 307.844 310.675 307.844 310.38 307.728 310.282 307.728 310.086 307.728 310.037 307.67 309.889 307.497 309.595 306.687 309.595 306.283 309.546 305.82 309.791 305.358 310.38 305.011 310.675 304.837 310.92 304.837 311.215 304.837 311.411 304.837 311.656 304.837 311.853 304.722L312 304.664 311.951 304.491C311.902 304.317 311.755 304.144 311.509 304.086 311.067 303.912 310.331 304.028 310.037 304.201 309.693 304.375 309.398 304.78 309.153 305.184 309.006 304.953 308.809 304.722 308.711 304.491 308.711 304.433 308.662 304.433 308.662 304.375 308.613 304.259 308.564 304.028 308.368 304.028L308.368 304.028C308.269 304.028 308.171 304.144 308.073 304.259 307.877 304.78 308.122 305.184 308.269 305.416 308.466 305.416 308.564 305.473 308.662 305.589Z" stroke="#34212E" stroke-width="2" stroke-miterlimit="8" fill-rule="evenodd"/><path d="M304.64 308.487C304.489 308.179 304.489 307.923 304.489 307.615 304.489 307.462 304.489 307.256 304.438 307.103L304.438 307 304.287 307C303.882 307.051 303.68 307.205 303.529 307.462 303.327 308.077 304.085 309.051 304.792 309.872 304.186 310.18 303.882 311 303.832 311.667 303.074 311.615 302.417 312.128 302.266 312.949 302.063 313.872 302.569 314.795 303.226 315.359L303.175 315.41C303.023 315.564 302.821 315.769 302.67 315.974 301.659 315.359 300.295 315.462 299.436 316.18 299.436 316.128 299.385 316.128 299.385 316.077 299.284 315.923 299.183 315.667 298.981 315.513 298.526 315.051 297.87 314.744 297.213 314.538 297.516 313.974 297.516 313.256 297.213 312.692 297.061 312.333 296.606 311.615 296.152 311.718L296 311.769 296.051 311.923C296.101 312.128 296.253 312.333 296.404 312.487 296.556 312.641 296.606 312.846 296.758 313 296.859 313.308 296.808 313.564 296.707 313.974 296.707 314.026 296.657 314.077 296.606 314.128 296.505 314.282 296.404 314.538 296.455 314.744 296.505 315.103 296.859 315.154 297.061 315.154 297.112 315.154 297.213 315.154 297.263 315.205 297.667 315.308 298.173 315.564 298.476 315.82 298.678 315.974 299.082 316.59 299.082 316.692 299.082 316.744 298.931 316.897 298.779 317 298.627 317.103 298.627 317.154 298.577 317.205 298.526 317.308 298.476 317.359 298.425 317.513 298.425 317.564 298.375 317.615 298.375 317.615 298.375 317.667 298.324 317.667 298.324 317.718 298.274 317.821 298.173 317.923 298.173 318.077 298.122 318.231 298.223 318.539 298.324 318.692 298.425 318.795 298.526 318.795 298.678 318.795 298.83 318.744 298.88 318.59 299.032 318.128 299.032 318.026 299.082 317.974 299.082 317.923 299.234 317.513 299.638 317 299.992 316.795 300.598 316.333 301.457 316.231 302.164 316.436 302.821 316.641 303.074 317.051 302.973 317.821 302.973 317.872 302.973 317.872 302.973 317.923 302.922 318.128 302.872 318.436 303.023 318.692 303.124 318.846 303.428 318.846 303.63 318.897 303.781 318.897 303.933 318.949 304.034 319 304.489 319.205 304.539 319.564 304.489 320.128 304.489 320.333 304.438 320.897 304.691 321L304.741 321C304.944 321 305.095 320.692 305.146 320.59 305.297 320.231 305.348 319.923 305.247 319.564 305.095 319.051 304.59 318.59 303.731 318.128 303.933 317.513 303.832 317 303.377 316.538 303.428 316.487 303.478 316.436 303.529 316.333 303.63 316.18 303.832 316.026 303.983 315.923 304.337 315.769 304.539 315.769 304.893 315.769L304.944 315.769C305.095 315.769 305.348 315.82 305.449 315.667 305.499 315.615 305.55 315.564 305.499 315.462 305.499 315.308 305.348 315.256 305.196 315.154L305.146 315.154C304.842 315 304.539 315.051 304.287 315.051 304.236 315.051 304.186 315.051 304.135 315.103 304.034 315.154 303.933 315.154 303.832 315.103 303.781 315.103 303.68 314.949 303.63 314.897L303.478 314.795C303.276 314.59 303.074 314.231 303.023 313.923 302.973 313.718 302.973 313.462 303.074 313.256 303.226 312.846 303.428 312.795 303.832 312.744 303.882 312.744 303.933 312.692 303.983 312.692 304.438 312.59 304.438 312.282 304.489 312.026 304.489 311.974 304.489 311.923 304.539 311.872 304.59 311.462 304.741 311.205 304.994 311 305.348 310.641 305.6 310.487 306.005 310.487 306.106 310.487 306.207 310.487 306.358 310.487 306.813 310.487 307.217 310.487 307.672 310.333L307.824 310.282C308.481 310.077 309.238 309.82 309.946 309.872 310.754 309.974 311.462 310.744 311.765 311L311.815 311.051C312.017 311.359 312.22 311.513 312.371 311.462 312.422 311.462 312.523 311.41 312.523 311.154 312.573 310.846 312.22 310.59 311.967 310.333 312.017 310.333 312.017 310.282 312.068 310.282 312.119 310.231 312.169 310.18 312.27 310.18 312.321 310.128 312.422 310.128 312.472 310.128 312.573 310.128 312.674 310.077 312.826 310.026L312.826 310.026C312.826 310.026 312.876 310.026 312.876 309.974L312.876 309.974 312.876 309.974 312.978 309.872 312.978 309.872C313.028 309.82 312.978 309.769 312.978 309.718 312.876 309.41 312.068 309.564 312.068 309.564 311.765 309.615 311.462 309.667 311.26 309.923 310.704 309.41 309.996 309.154 309.34 309.256 308.834 309.256 308.329 309.41 307.874 309.615 307.318 309.769 306.813 309.974 306.207 309.923 305.449 309.462 304.994 309.154 304.64 308.487Z" stroke="#34212E" stroke-width="2" stroke-miterlimit="8" fill-rule="evenodd"/><path d="M296.15 309.965C296.308 309.915 296.573 309.915 296.625 309.915 296.837 309.965 297.26 310.064 297.313 310.114 297.313 310.164 297.313 310.413 297.26 310.512 297.26 310.612 297.207 310.661 297.207 310.711 297.207 311.259 297.26 311.756 297.418 312.204 297.524 312.602 297.788 313 298.053 313L298.053 313C298.158 313 298.264 312.95 298.264 312.9 298.37 312.751 298.264 312.453 298.158 312.254L298.158 312.204C297.524 310.711 297.841 308.97 299.004 307.925 300.167 306.88 302.123 306.233 303.709 306.482 303.814 306.482 303.92 306.532 304.079 306.581 304.396 306.681 304.713 306.78 304.977 306.581 305.136 306.432 305.189 306.183 305.347 305.984 305.4 305.835 305.453 305.586 305.559 305.487 305.717 305.338 305.982 305.089 306.246 304.989L306.299 304.94C306.616 304.84 307.197 304.492 306.933 303.994L306.88 303.895 306.827 303.994 306.774 303.994C306.14 304.143 305.347 304.79 304.872 305.288 304.819 305.338 304.766 305.387 304.766 305.487 304.713 305.537 304.713 305.586 304.66 305.636 304.554 305.736 304.449 305.785 304.184 305.785 303.973 305.835 303.656 305.835 303.391 305.835 303.286 305.835 303.18 305.835 303.021 305.835 303.233 305.039 303.497 304.541 304.343 304.044 304.554 303.944 304.766 303.845 304.977 303.845 305.03 303.845 305.083 303.845 305.136 303.845 305.294 303.845 305.559 303.895 305.717 303.745L305.823 303.646 305.717 303.546C305.453 303.148 304.713 303.148 304.29 303.298 303.92 303.347 303.709 303.646 303.444 303.845 303.339 303.895 303.339 303.944 303.286 303.994 303.074 303.795 302.81 303.546 302.44 303.397 302.44 303.397 302.387 303.347 302.334 303.347 302.017 303.148 301.436 302.8 301.224 303.148 301.118 303.248 301.118 303.447 301.118 303.546 301.224 303.745 301.541 303.845 301.7 303.845 301.753 303.845 301.753 303.845 301.753 303.845 302.176 303.944 302.334 304.143 302.599 304.392 302.651 304.442 302.651 304.492 302.704 304.492L302.704 304.492C302.651 304.541 302.651 304.591 302.599 304.641 302.546 304.741 302.493 304.94 302.493 305.039 302.493 305.089 302.493 305.139 302.44 305.188L302.44 305.238C302.387 305.338 302.387 305.537 302.334 305.686 302.334 305.736 302.334 305.835 302.334 305.885 302.334 305.885 302.281 305.885 302.281 305.935 302.176 305.984 301.911 305.984 301.753 305.984 301.594 305.984 301.383 305.984 301.277 306.034 300.907 306.134 300.59 306.233 300.22 306.432 300.273 305.487 299.85 304.89 299.057 304.442L298.951 304.392 298.898 304.442C298.687 304.741 298.951 305.039 299.11 305.288 299.163 305.338 299.216 305.387 299.216 305.387 299.321 305.537 299.374 305.736 299.427 305.835 299.427 305.885 299.427 305.935 299.427 306.034 299.427 306.084 299.427 306.134 299.427 306.134 299.427 306.183 299.427 306.233 299.427 306.333 299.427 306.432 299.48 306.681 299.427 306.731 299.427 306.78 299.321 306.83 299.216 306.88 299.163 306.93 299.11 306.93 299.11 306.98 298.581 307.427 297.63 308.323 297.471 309.268 296.943 309.219 296.467 309.119 296.044 309.119 295.938 309.119 295.198 309.268 295.04 309.567 294.987 309.617 294.987 309.716 295.04 309.865 295.198 310.214 295.674 310.064 296.15 309.965Z" stroke="#34212E" stroke-width="2" stroke-miterlimit="8" fill-rule="evenodd"/><path d="M310.896 312.134C310.896 312.087 310.896 312.087 310.896 312.134L310.896 312.134 310.896 312.134 310.777 311.992 310.777 311.992C310.54 311.85 310.124 311.803 309.708 311.803 309.589 311.803 309.47 311.803 309.351 311.756 309.113 311.709 308.757 311.661 308.578 311.567 308.46 311.52 308.4 311.425 308.222 311.236 308.162 311.189 308.103 311.094 308.044 311.047L307.984 311 307.865 311.047C307.628 311.142 307.449 311.331 307.39 311.472 307.331 311.661 307.449 311.898 307.628 312.087 307.687 312.134 307.747 312.181 307.806 312.228 307.925 312.323 307.984 312.37 307.984 312.559 307.925 312.748 307.806 312.984 307.628 313.126 307.39 313.551 307.033 313.74 306.439 314.024 306.38 314.071 306.32 314.071 306.261 314.118 306.202 314.118 306.142 314.165 306.142 314.165 306.083 314.213 306.023 314.213 305.964 314.26 305.964 314.26 305.904 314.26 305.845 314.26 305.786 314.26 305.726 314.213 305.667 314.165 305.548 314.071 305.31 313.976 305.072 314.071L305.013 314.071 305.013 314.118C304.954 314.26 305.072 314.402 305.904 314.921 306.142 315.063 306.499 315.299 306.499 315.346 306.617 315.535 306.736 315.819 306.736 316.102 306.736 316.15 306.736 316.197 306.736 316.291 306.736 316.575 306.736 316.811 306.915 316.906 307.033 316.953 307.093 317 307.152 317 307.212 317 307.271 317 307.271 316.953 307.687 316.764 307.331 315.677 307.331 315.677 307.212 315.252 306.855 314.969 306.558 314.732L306.558 314.732C307.509 314.449 308.162 313.929 308.578 313.173 308.578 313.126 308.638 313.031 308.638 312.89 308.638 312.748 308.697 312.559 308.697 312.512 308.757 312.512 309.054 312.512 309.113 312.512 309.173 312.512 309.232 312.512 309.232 312.512 309.292 312.512 309.351 312.512 309.47 312.512 309.589 312.512 309.826 312.465 309.945 312.512 309.945 312.512 310.005 312.512 310.064 312.512 310.48 312.606 310.718 312.654 310.837 312.512 311.074 312.37 311.015 312.181 310.896 312.134L310.896 312.134Z" stroke="#34212E" stroke-width="2" stroke-miterlimit="8" fill-rule="evenodd"/><path d="M295.096 319.647C295.254 320.588 295.727 321.176 296.254 321.824L296.359 321.941C296.517 322.118 296.78 322.412 296.991 322.588 297.044 322.588 297.096 322.647 297.096 322.647L297.149 322.647C297.202 322.647 297.202 322.706 297.254 322.706 297.307 322.706 297.36 322.765 297.412 322.765 297.517 322.882 297.57 322.941 297.623 323.176L297.675 323.353C297.781 323.824 298.097 324.588 298.465 324.882 298.518 324.941 298.623 325 298.781 325 298.834 325 298.886 325 298.939 324.941 299.097 324.765 298.939 324.412 298.57 323.824 298.518 323.765 298.518 323.706 298.518 323.706 298.57 323.588 298.57 323.471 298.57 323.353 298.57 323.294 298.57 323.176 298.57 323 298.518 322.529 298.202 322.294 297.991 322.059L297.991 322C297.939 321.941 297.939 321.941 297.886 321.941 297.781 321.824 297.781 321.824 297.781 321.706 297.781 321.588 297.833 321.353 297.939 321.176 298.044 321 298.255 320.824 298.413 320.765 298.465 320.706 298.518 320.706 298.57 320.647L298.57 320.647 298.676 320.588C298.676 320.588 298.676 320.588 298.728 320.588 298.886 320.471 298.886 320.235 298.834 320.235 298.728 320 298.202 319.882 298.044 319.882 297.833 319.941 297.623 320.059 297.465 320.294 297.096 320.647 296.833 320.941 296.78 321.471 296.412 321.118 296.149 320.529 295.938 320.059 295.78 319.706 295.727 319.471 295.727 319.059 295.727 319 295.727 318.941 295.727 318.882 295.727 318.647 295.78 318.353 295.622 318.118L295.57 318 295.464 318.059C294.885 318.412 294.99 319.059 295.043 319.529L295.096 319.647Z" stroke="#34212E" stroke-width="2" stroke-miterlimit="8" fill-rule="evenodd"/><path d="M292.407 316.811C291.824 317.187 291.184 317.508 291.009 318.259 290.95 318.849 291.184 319.385 291.708 319.922 291.941 320.136 292.232 320.404 292.582 320.458L292.64 320.458C292.698 320.458 292.757 320.458 292.757 320.511L292.815 320.565 292.873 320.565 292.873 320.565C292.873 320.619 292.873 320.726 292.873 320.887 293.223 322.281 294.388 323.675 295.961 324.533 295.495 324.909 294.971 325.23 295.029 325.928 295.029 326.249 295.495 326.946 295.903 327 295.961 327 295.961 327 296.02 327 296.136 327 296.194 326.946 296.253 326.946 296.369 326.786 296.311 326.517 296.253 326.357 296.253 326.303 296.253 326.303 296.253 326.249 296.253 326.196 296.194 326.142 296.194 326.088 296.136 325.874 296.078 325.606 296.194 325.445 296.311 325.284 296.66 324.962 296.777 324.962 296.777 324.962 296.835 324.962 296.893 325.016 297.942 325.23 298.641 325.391 298.933 325.123 298.991 325.07 299.049 324.962 298.933 324.694 298.933 324.319 298.525 324.319 298.234 324.319 298.175 324.319 298.117 324.319 298.059 324.319 297.651 324.319 297.36 324.212 297.01 324.104 296.078 323.729 295.437 323.3 294.913 322.656 294.388 322.013 294.039 321.369 293.98 320.726 293.98 320.672 293.98 320.619 293.98 320.565 293.98 320.458 293.98 320.243 293.922 320.136 293.864 319.975 293.805 319.922 293.572 319.814 293.514 319.814 293.514 319.814 293.456 319.814 292.873 319.707 292.291 319.224 292.057 318.795 291.941 318.474 291.941 318.205 292.116 317.884 292.349 317.455 292.815 317.294 293.339 317.026 293.747 316.865 294.097 316.65 294.388 316.436 294.388 316.436 294.388 316.436 294.446 316.382L294.446 316.382 294.563 316.221 294.563 316.221 294.621 316.007 294.446 316.007C293.805 315.953 293.281 316.221 292.815 316.543 292.698 316.597 292.524 316.65 292.407 316.811Z" stroke="#34212E" stroke-width="2" stroke-miterlimit="8" fill-rule="evenodd"/><path d="M298.732 342C300.323 342 301.805 341.611 303.232 341.222 303.671 341.125 303.835 340.833 303.945 340.688 304 340.542 304.055 340.201 303.89 339.812L303.726 339.472C303.561 339.083 303.287 338.743 303.177 338.403 302.738 337.431 302.299 336.458 301.86 335.437L301.75 335.389C301.695 335.243 301.64 335.097 301.53 335L300.872 335.583C300.872 335.583 300.872 335.632 300.927 335.632 301.366 336.653 301.805 337.722 302.299 338.743 302.518 339.229 302.793 339.715 303.122 340.201 303.177 340.347 303.177 340.396 303.012 340.493 301.64 340.882 300.268 341.222 298.841 341.222 298.622 341.222 298.348 341.222 298.128 341.174 297.085 341.076 296.317 340.833 295.659 340.347L295 340.931C295.878 341.514 296.811 341.903 298.073 341.951 298.183 342 298.512 342 298.732 342Z" stroke="#34212E" stroke-width="2" stroke-miterlimit="8" fill-rule="evenodd"/><path d="M318.549 323.455C318.757 324.873 318.912 326.291 319.068 327.655 319.068 327.764 319.068 327.873 319.12 327.982 319.223 328.527 319.068 328.909 318.705 329.345 317.098 331.309 315.284 333.164 313.418 334.855 313.314 334.909 313.211 334.964 313.055 334.964 313.055 334.964 313.055 334.964 313.003 334.964 310.464 334.8 307.924 334.364 305.488 333.764 304.918 333.655 304.348 333.436 303.777 333.327 303.726 333.327 303.674 333.273 303.622 333.273L303 333.873C303.156 333.982 303.363 334.091 303.57 334.2 303.933 334.255 304.348 334.364 304.659 334.527 304.814 334.582 305.073 334.636 305.229 334.691 307.665 335.291 310.205 335.727 312.9 336 312.952 336 312.952 336 313.003 336 313.366 336 313.677 335.891 313.936 335.618 315.958 333.764 317.72 331.964 319.327 330 319.69 329.564 320.156 328.909 319.949 327.927 319.949 327.873 319.949 327.873 319.949 327.818 319.949 327.764 319.949 327.709 319.949 327.655 319.897 327.218 319.845 326.782 319.793 326.345 319.69 325.364 319.586 324.382 319.379 323.345 319.171 322.036 318.86 320.782 318.549 319.527 318.498 319.145 318.394 318.818 318.342 318.436 318.29 318.327 318.238 318.109 318.187 318L317.565 318.655C317.876 320.236 318.238 321.818 318.549 323.455Z" stroke="#34212E" stroke-width="2" stroke-miterlimit="8" fill-rule="evenodd"/><path d="M321.243 324.983 321.64 327 322.734 325.293 322.833 325.138C322.883 325.035 322.982 324.931 323.032 324.776L323.181 324.466C323.38 324.155 323.579 323.845 323.777 323.483 323.976 323.017 324.274 322.552 324.523 322.086 324.622 321.879 324.722 321.672 324.871 321.466 325.02 321.103 325.02 320.793 324.97 320.586 324.921 320.431 324.771 320.121 324.374 319.914 324.225 319.862 324.076 319.759 323.927 319.707 323.728 319.603 323.529 319.5 323.33 319.397 322.883 319.241 322.435 318.983 321.988 318.828L321.441 318.621 320 318 320.298 319.603 320.746 322.086 321.243 324.983ZM322.982 320.276C323.33 320.431 323.628 320.638 324.026 320.793 324.175 320.845 324.225 320.948 324.125 321.155 323.777 321.776 323.479 322.5 323.131 323.121 322.932 323.534 322.634 323.948 322.386 324.362 322.286 324.466 322.237 324.672 322.087 324.828 321.74 323.017 321.441 321.207 321.093 319.448 321.74 319.759 322.336 320.017 322.982 320.276Z" stroke="#34212E" stroke-width="2" stroke-miterlimit="8" fill-rule="evenodd"/><path d="M325.658 312.165C326.046 313.065 326.157 314.018 326.157 314.971 326.102 316.241 325.769 317.459 325.325 318.676 325.325 318.729 325.27 318.782 325.214 318.835 324.049 318.359 322.884 317.829 321.719 317.406 321.053 317.194 320.332 316.929 319.666 316.718L319 317.353C319.111 317.406 319.166 317.459 319.333 317.512 319.666 317.618 319.943 317.724 320.276 317.829 320.665 317.935 320.997 318.041 321.386 318.253 322.218 318.571 322.939 318.888 323.772 319.259 324.16 319.365 324.438 319.576 324.826 319.682L325.547 320 325.991 319.365C326.046 319.312 326.102 319.206 326.157 318.994 326.546 317.829 326.879 316.506 326.99 315.076 327.045 313.912 326.879 312.853 326.435 311.953 326.324 311.635 325.936 311.265 325.769 311L325.103 311.635C325.381 311.688 325.603 311.953 325.658 312.165Z" stroke="#34212E" stroke-width="2" stroke-miterlimit="8" fill-rule="evenodd"/><path d="M307.478 343.1C308.7 344.8 309.973 345.9 311.551 346.6 312.11 346.9 312.772 347 313.332 347 313.79 347 314.299 346.9 314.757 346.7 316.182 346.15 316.997 345.05 317.608 344.2 318.219 343.3 318.677 342.25 319.084 340.95 319.287 340.3 319.491 339.6 319.593 338.95 319.644 338.65 319.746 338.4 319.796 338.05L320 337.2 319.135 337.05 319.084 337.05C319.033 337.05 318.931 337 318.778 337L318.269 337C316.997 337 315.826 337 314.554 337.05 314.248 337.05 313.943 337.15 313.688 337.35 313.485 337.5 313.23 337.7 313.027 337.9 312.67 338.2 312.365 338.4 312.009 338.65 310.787 339.5 309.311 340.45 307.784 341.15 307.631 341.25 307.173 341.45 307.02 341.95 306.919 342.45 307.224 342.8 307.377 342.95 307.377 343 307.428 343.05 307.478 343.1ZM308.089 341.85C309.616 341.1 311.042 340.2 312.416 339.25 312.976 338.85 313.536 338.4 314.146 337.95 314.248 337.9 314.35 337.85 314.554 337.85 315.979 337.85 317.353 337.85 318.778 337.8L318.778 337.8C318.829 337.8 318.829 337.8 318.931 337.85 318.728 338.8 318.473 339.75 318.168 340.7 317.811 341.75 317.404 342.8 316.793 343.75 316.182 344.7 315.47 345.5 314.401 345.95 313.994 346.1 313.637 346.15 313.281 346.15 312.823 346.15 312.314 346.05 311.856 345.8 310.329 345.15 309.107 343.95 308.14 342.6 308.089 342.55 308.038 342.45 307.987 342.4 307.784 342.1 307.784 342.05 308.089 341.85Z" stroke="#34212E" stroke-width="2" stroke-miterlimit="8" fill-rule="evenodd"/><path d="M319.796 334.969 319.847 333.938 319.898 333.268 320 331 318.418 332.598 316.939 334.041 316.582 334.402 315 336 317.245 335.897 317.857 335.845 318.929 335.794 319.694 335.742 319.796 334.969ZM318.929 334.969C318.367 335.021 317.857 335.021 317.194 335.072 317.806 334.454 318.418 333.835 318.98 333.268 318.98 333.784 318.929 334.35 318.929 334.969Z" stroke="#34212E" stroke-width="2" stroke-miterlimit="8" fill-rule="evenodd"/><path d="M322.258 334.897C322.368 334.897 322.423 334.897 322.477 334.845 324.611 334.433 326.307 333.968 327.839 333.298 328.988 332.782 329.973 332.06 330.739 331.337 332.162 329.841 332.381 328.139 331.396 326.282 330.466 324.528 328.934 323.341 327.456 322.31 327.237 322.155 326.909 322 326.636 322 326.307 322 325.924 322.103 325.541 322.671 325.213 323.238 324.939 323.754 324.611 324.218 323.681 325.714 322.587 327.21 321.383 328.655 321.219 328.861 321.055 329.222 321.055 329.532 321.055 330.099 321.055 330.667 321.055 331.286 321.055 331.802 321.055 332.317 321.055 332.782 321.055 332.988 321.055 333.298 321.055 333.556 321.055 333.659 321.055 333.865 321.055 333.968L321 335 322.094 334.897 322.258 334.897ZM321.985 332.885C321.985 331.802 321.985 330.667 321.985 329.635 321.985 329.532 322.04 329.429 322.094 329.325 323.298 327.881 324.447 326.385 325.432 324.734 325.76 324.218 326.034 323.702 326.362 323.135 326.417 323.032 326.526 322.929 326.581 322.929 326.636 322.929 326.69 322.98 326.8 323.032 328.277 324.064 329.645 325.198 330.411 326.746 331.122 328.139 331.122 329.48 329.864 330.821 329.152 331.595 328.277 332.163 327.292 332.627 325.705 333.401 323.9 333.865 322.204 334.123 322.149 334.123 322.04 334.123 321.875 334.175 321.985 333.71 321.985 333.298 321.985 332.885Z" stroke="#34212E" stroke-width="2" stroke-miterlimit="8" fill-rule="evenodd"/><path d="M304.651 339.091 304.651 339.091C304.811 339.444 305.077 340 305.769 340 306.142 340 306.355 339.849 306.675 339.697 307.527 339.242 308.325 338.788 309.178 338.333 309.391 338.182 309.657 338.03 309.87 337.879 309.976 337.828 310.083 337.727 310.189 337.677L312 336.566 309.923 336.162 307.26 335.707 304.385 335.202 303 335 303.373 336.313 303.373 336.364C303.373 336.465 303.426 336.566 303.479 336.768 303.639 337.121 303.852 337.525 304.012 337.828 304.278 338.182 304.438 338.636 304.651 339.091ZM309.763 337.02C309.391 337.222 309.124 337.475 308.752 337.677 307.899 338.131 307.154 338.586 306.302 338.99 306.089 339.091 305.929 339.141 305.823 339.141 305.716 339.141 305.663 339.04 305.503 338.737 305.13 337.929 304.704 337.071 304.331 336.313 304.278 336.212 304.278 336.111 304.225 336.01 306.036 336.313 307.846 336.667 309.763 337.02Z" stroke="#34212E" stroke-width="2" stroke-miterlimit="8" fill-rule="evenodd"/><path d="M333.987 327.942C333.882 326.09 333.041 324.556 331.885 323.127 330.834 321.857 329.626 320.852 328.312 320.005 328.102 319.899 328.102 319.688 328.155 319.529 328.47 318.471 328.785 317.466 328.995 316.407 329.363 314.767 329.363 313.021 328.838 311.381 328.522 310.429 328.049 309.635 327.471 309L326.841 309.635C327.366 310.164 327.734 310.905 327.944 311.646 328.365 313.021 328.417 314.556 328.049 316.196 327.892 316.989 327.682 317.73 327.471 318.524 327.419 318.735 327.314 319.053 327.261 319.317 327.051 320.111 327.419 320.587 327.787 320.799 329.1 321.698 330.256 322.704 331.15 323.762 332.306 325.19 332.989 326.566 333.041 328.048 333.094 329.529 332.673 330.799 331.675 331.91 330.624 333.074 329.258 333.974 327.524 334.767 325.948 335.402 324.214 335.878 322.269 336.196 321.639 336.302 321.271 336.672 321.166 337.307 320.851 339.212 320.483 340.799 319.852 342.333 319.064 344.291 317.961 345.931 316.857 346.831 315.596 347.783 314.335 347.995 313.389 347.995 311.918 347.995 310.604 347.466 309.921 346.989 308.292 345.825 307.872 345.349 306.979 344.185 306.821 343.974 306.611 343.709 306.401 343.392 306.243 343.18 306.033 342.862 305.823 342.598 305.507 342.175 304.982 342.175 304.877 342.175 304.772 342.175 304.667 342.175 304.562 342.228 304.246 342.28 303.984 342.386 303.668 342.545 303.301 342.651 303.038 342.757 302.67 342.862 301.356 343.233 300.253 343.392 299.255 343.392 298.414 343.392 297.678 343.286 296.89 343.021 296.049 342.81 295.366 342.386 294.788 341.857L294 342.545C294.683 343.18 295.524 343.656 296.47 343.974 297.363 344.185 298.204 344.344 299.044 344.344 300.305 344.344 301.461 344.132 302.723 343.815 303.353 343.656 303.984 343.392 304.614 343.233L304.667 343.233C304.772 343.233 304.877 343.286 304.982 343.339 305.402 343.868 305.77 344.397 306.085 344.873 306.979 345.984 307.452 346.619 309.186 347.836 310.131 348.471 311.603 349 313.179 349 314.545 349 315.964 348.63 317.173 347.624 318.591 346.513 319.695 344.608 320.483 342.757 321.113 341.116 321.534 339.318 321.849 337.519 321.902 337.307 321.954 337.148 322.217 337.148 324.109 336.831 325.948 336.355 327.682 335.667 329.416 334.979 330.939 334.026 332.148 332.598 333.567 331.169 334.092 329.635 333.987 327.942Z" stroke="#34212E" stroke-width="2" stroke-miterlimit="8" fill-rule="evenodd"/><path d="M313.875 323 313.193 323.546C313.591 323.943 313.818 324.39 313.932 324.936 314.329 326.426 313.818 327.667 312.398 328.56 311.716 329.007 310.977 329.206 310.295 329.206 309.727 329.206 309.159 329.106 308.591 328.809 308.25 328.709 307.966 328.461 307.682 328.312L307 328.908C307.398 329.206 307.682 329.404 308.136 329.553 308.818 329.901 309.557 330 310.239 330 311.204 330 312.113 329.702 312.909 329.206 314.613 328.113 315.352 326.525 314.841 324.688 314.67 324.043 314.329 323.496 313.875 323Z" stroke="#34212E" stroke-width="2" stroke-miterlimit="8" fill-rule="evenodd"/><path d="M251.5 289.824C251.5 285.227 255.227 281.5 259.824 281.5L356.176 281.5C360.773 281.5 364.5 285.227 364.5 289.824L364.5 361.176C364.5 365.773 360.773 369.5 356.176 369.5L259.824 369.5C255.227 369.5 251.5 365.773 251.5 361.176Z" stroke="#34212E" stroke-width="5.33333" stroke-linecap="round" stroke-linejoin="round" stroke-miterlimit="10" fill="none" fill-rule="evenodd"/></g></svg>