<svg version="1.2" baseProfile="tiny-ps" xmlns="http://www.w3.org/2000/svg" viewBox="0 0 996 997" width="400" height="400">
	<title>americanexpress-svg</title>
	<style>
		tspan { white-space:pre }
		.shp0 { fill: #016fd0 } 
		.shp1 { fill: #ffffff } 
	</style>
	<path id="Layer" class="shp0" d="M-2 -1L995.52 -1L995.52 537.49L946.14 614.64L995.52 683.3L995.52 996.52L-2 996.52L-2 488.89L28.86 453.4L-2 419.45L-2 -1Z" />
	<path id="Layer" class="shp1" d="M191.64 694.1L191.64 537.49L357.46 537.49L375.25 560.68L393.63 537.49L995.52 537.49L995.52 683.3C995.52 683.3 979.78 693.94 961.57 694.1L628.29 694.1L608.24 669.41L608.24 694.1L542.51 694.1L542.51 651.96C542.51 651.96 533.53 657.84 514.12 657.84L491.74 657.84L491.74 694.1L392.22 694.1L374.46 670.41L356.42 694.1L191.64 694.1ZM-2 419.45L35.39 332.28L100.06 332.28L121.28 381.11L121.28 332.28L201.67 332.28L214.3 367.57L226.55 332.28L587.41 332.28L587.41 350.02C587.41 350.02 606.38 332.28 637.55 332.28L754.64 332.69L775.49 380.88L775.49 332.28L842.77 332.28L861.28 359.96L861.28 332.28L929.17 332.28L929.17 488.89L861.28 488.89L843.54 461.11L843.54 488.89L744.7 488.89L734.76 464.2L708.19 464.2L698.41 488.89L631.38 488.89C604.55 488.89 587.41 471.51 587.41 471.51L587.41 488.89L486.34 488.89L466.29 464.2L466.29 488.89L90.48 488.89L80.55 464.2L54.06 464.2L44.2 488.89L-2 488.89L-2 419.45Z" />
	<path id="Layer" fill-rule="evenodd" class="shp0" d="M86.86 351.58L137.25 468.85L103.69 468.85L94.44 445.37L40.33 445.37L31.03 468.85L-1.81 468.85L48.63 351.58L86.86 351.58ZM50.75 419.91L83.78 419.91L67.29 378.87L50.75 419.91ZM140.72 468.83L140.72 351.56L187.38 351.74L214.52 427.34L241.01 351.56L287.3 351.56L287.3 468.83L257.99 468.83L257.99 382.42L226.91 468.83L201.2 468.83L170.04 382.42L170.04 468.83L140.72 468.83ZM307.36 468.83L307.36 351.56L403.02 351.56L403.02 377.79L336.99 377.79L336.99 397.85L401.48 397.85L401.48 422.54L336.99 422.54L336.99 443.37L403.02 443.37L403.02 468.83L307.36 468.83ZM485.23 351.58C506.85 351.58 526.22 364.95 526.22 389.63C526.22 410.72 509.89 424.31 494.06 425.65L532.63 468.85L496.81 468.85L461.66 427.19L449.31 427.19L449.31 468.85L420 468.85L420 351.58L485.23 351.58ZM449.31 402.5L483.26 402.5C489.13 402.5 496.71 397.95 496.71 390.16C496.71 384.1 490.86 377.81 482.82 377.81L449.31 377.81L449.31 402.5ZM568.12 468.83L538.19 468.83L538.19 351.56L568.12 351.56L568.12 468.83ZM639.09 468.83L632.63 468.83C601.37 468.83 582.39 444.2 582.39 410.68C582.39 376.33 601.16 351.56 640.64 351.56L673.04 351.56L673.04 379.34L639.45 379.34C623.43 379.34 612.09 391.84 612.09 410.97C612.09 433.68 625.05 443.22 643.72 443.22L651.44 443.22L639.09 468.83ZM741.12 351.58L791.51 468.85L757.95 468.85L748.69 445.37L694.59 445.37L685.29 468.85L652.45 468.85L702.89 351.58L741.12 351.58ZM705.01 419.91L738.04 419.91L721.55 378.87L705.01 419.91ZM794.93 468.83L794.93 351.56L832.2 351.56L879.8 425.24L879.8 351.56L909.11 351.56L909.11 468.83L873.05 468.83L824.25 393.22L824.25 468.83L794.93 468.83ZM211.7 674.04L211.7 556.78L307.36 556.78L307.36 583.01L241.32 583.01L241.32 603.06L305.82 603.06L305.82 627.75L241.32 627.75L241.32 648.58L307.36 648.58L307.36 674.04L211.7 674.04ZM680.45 674.04L680.45 556.78L776.11 556.78L776.11 583.01L710.07 583.01L710.07 603.06L774.26 603.06L774.26 627.75L710.07 627.75L710.07 648.58L776.11 648.58L776.11 674.04L680.45 674.04ZM311.07 674.04L357.65 616.13L309.97 556.78L346.9 556.78L375.3 593.47L403.8 556.78L439.28 556.78L392.22 615.41L438.89 674.04L401.96 674.04L374.38 637.93L347.48 674.04L311.07 674.04ZM507.13 556.8C533.7 556.8 549.22 573.92 549.22 596.24C549.22 623.18 529.43 637.03 503.32 637.03L472.46 637.03L472.46 674.06L442.37 674.06L442.37 556.8L507.13 556.8ZM472.46 610.32L504.86 610.32C513.42 610.32 519.42 604.64 519.42 596.82C519.42 588.49 513.39 583.32 504.95 583.32L472.46 583.32L472.46 610.32ZM627.19 556.78C648.8 556.78 668.17 570.14 668.17 594.82C668.17 615.91 651.84 629.5 636.01 630.84L674.58 674.04L638.76 674.04L603.61 632.38L591.26 632.38L591.26 674.04L561.95 674.04L561.95 556.78L627.19 556.78ZM591.26 607.69L625.21 607.69C631.09 607.69 638.66 603.14 638.66 595.35C638.66 589.29 632.81 583.01 624.77 583.01L591.26 583.01L591.26 607.69ZM789.69 674.04L789.69 648.58L848.36 648.58C857.04 648.58 860.8 643.89 860.8 638.75C860.8 633.82 857.05 628.83 848.36 628.83L821.85 628.83C798.8 628.83 785.97 614.79 785.97 593.71C785.97 574.91 797.72 556.78 831.97 556.78L889.05 556.78L876.71 583.16L827.34 583.16C817.9 583.16 814.99 588.11 814.99 592.84C814.99 597.7 818.58 603.07 825.79 603.07L853.57 603.07C879.26 603.07 890.4 617.64 890.4 636.72C890.4 657.24 877.98 674.04 852.17 674.04L789.69 674.04ZM897.28 674.04L897.28 648.58L955.95 648.58C964.64 648.58 968.39 643.89 968.39 638.75C968.39 633.82 964.65 628.83 955.95 628.83L929.44 628.83C906.4 628.83 893.56 614.79 893.56 593.71C893.56 574.91 905.32 556.78 939.56 556.78L996.65 556.78L984.31 583.16L934.93 583.16C925.49 583.16 922.59 588.11 922.59 592.84C922.59 597.7 926.18 603.07 933.39 603.07L961.16 603.07C986.85 603.07 998 617.64 998 636.72C998 657.24 985.58 674.04 959.76 674.04L897.28 674.04Z" />
</svg>