<svg version="1.2" baseProfile="tiny-ps" xmlns="http://www.w3.org/2000/svg" viewBox="0 0 73 46" width="190" height="120">
	<title>visa-svg</title>
	<style>
		tspan { white-space:pre }
		.shp0 { fill: #ffffff } 
		.shp1 { fill: #1a1f71 } 
	</style>
	<g id="Layer">
		<g id="Layer">
			<g id="Layer">
				<path id="Layer" class="shp0" d="M72.4 43.2C72.4 44.7 71.2 45.9 69.7 45.9L2.5 45.9C1 45.9 -0.2 44.7 -0.2 43.2L-0.2 2.8C-0.2 1.3 1 0.1 2.5 0.1L69.7 0.1C71.2 0.1 72.4 1.3 72.4 2.8L72.4 43.2L72.4 43.2Z" />
				<path id="Layer" fill-rule="evenodd" class="shp1" d="M27.4 13.5L27.36 13.5L27.4 13.4L27.4 13.5ZM19.3 32.7L14 32.7L10 17.3C9.8 16.4 9.5 16 8.8 15.6C7.6 15 5.6 14.3 3.9 14L4 13.4L12.5 13.4C13.6 13.4 14.6 14.1 14.8 15.4L16.9 26.6L22.1 13.5L27.36 13.5L19.3 32.7ZM39.4 33C37.2 33 35.1 32.5 33.9 32L34.8 27.8C35.9 28.3 37.4 29 39.9 29C41.4 29 42.9 28.4 42.9 27.1C42.9 26.2 42.2 25.6 40.3 24.7C38.4 23.8 35.9 22.3 35.9 19.5C35.9 15.7 39.4 13.1 44.3 13.1C46.3 13.1 47.8 13.6 49 14L48.1 18.1C45.9 17 43.9 17.1 43.2 17.2C41.8 17.4 41.1 18.1 41.1 18.8C41.1 21 48.1 21.3 48.1 26.4C48 30.4 44.6 33 39.4 33ZM60.4 29.8L54 29.8L53 32.7L47.8 32.7L55.3 14.8C55.6 14 56.4 13.4 57.4 13.4L61.7 13.4L65.7 32.7L61.1 32.7L60.4 29.8ZM59.6 25.9L58.1 18.7L55.5 25.9L59.6 25.9ZM34.5 13.4L30.4 32.7L25.4 32.7L29.5 13.4L34.5 13.4Z" />
			</g>
		</g>
	</g>
</svg>