<svg width="125" height="113" xmlns="http://www.w3.org/2000/svg" xmlns:xlink="http://www.w3.org/1999/xlink" overflow="hidden"><defs><clipPath id="clip0"><rect x="0" y="0" width="125" height="113"/></clipPath></defs><g clip-path="url(#clip0)"><rect x="0" y="0" width="125" height="113.362" fill="#FFFFFF"/><path d="M4.69955 5.46922C3.56154 5.74168 2.42368 6.01413 5.38224 17.8955 8.3408 29.7769 13.5755 63.6769 22.4513 76.7573 31.3272 89.8377 46.0066 105.098 58.6376 96.3779 71.2687 87.6577 87.4274 39.1511 98.2378 24.4357 109.048 9.72032 116.274 8.90281 123.5 8.0853" stroke="#404040" stroke-width="3.00802" stroke-miterlimit="8" fill="none" fill-rule="evenodd"/><path d="M97 14.916C97 9.42408 101.253 4.972 106.5 4.972 111.747 4.972 116 9.42408 116 14.916 116 20.4079 111.747 24.86 106.5 24.86 101.253 24.86 97 20.4079 97 14.916Z" fill-rule="evenodd"/><path d="M71 58.6696C71 53.1776 75.4772 48.7256 81 48.7256 86.5229 48.7256 91 53.1776 91 58.6696 91 64.1615 86.5229 68.6136 81 68.6136 75.4772 68.6136 71 64.1615 71 58.6696Z" fill-rule="evenodd"/><path d="M43 100.932C43 95.7143 47.4772 91.4848 53 91.4848 58.5229 91.4848 63 95.7143 63 100.932 63 106.149 58.5229 110.378 53 110.378 47.4772 110.378 43 106.149 43 100.932Z" fill-rule="evenodd"/><path d="M0.148817-1.48817 2.16357-1.28669 4.28945-0.626936 8.15423 1.74618 11.6665 5.39101 14.7844 9.93792 17.3612 15.2848 19.347 21.2422 20.6276 27.5812 20.7641 29.5822 17.7799 29.7857 17.6501 27.8828 17.6762 28.0772 16.4332 21.9244 16.4804 22.1011 14.5537 16.3212 14.6253 16.4975 12.1393 11.3391 12.2531 11.5356 9.26989 7.1851 9.42641 7.37708 6.13246 3.95883 6.42681 4.19555 2.88426 2.0203 3.22356 2.17418 1.42121 1.61483 1.71568 1.67462-0.148817 1.48817ZM23.6466 27.8865 19.5773 34.1603 14.6939 28.4972Z" transform="matrix(-1.00563 1.22465e-16 1.23154e-16 1 97.1876 15.4132)"/><path d="M0.15933-1.48708 2.06002-1.28343 4.05279-0.619176 7.71902 1.6213 10.9885 5.02426 13.9178 9.38556 16.3681 14.4797 18.2317 20.1346 19.3846 26.2196 19.5019 27.8308 16.5186 28.048 16.4076 26.5223 16.4298 26.6922 15.3111 20.7879 15.3601 20.9776 13.5577 15.5084 13.6304 15.6886 11.2687 10.7787 11.3749 10.9643 8.57815 6.80027 8.74122 7.00258 5.69587 3.83293 5.99447 4.07291 2.63838 2.02196 2.9453 2.16464 1.26725 1.60529 1.58087 1.67353-0.15933 1.48708ZM22.3766 26.122 18.336 32.4143 13.4268 26.7735Z" transform="matrix(-1.00563 1.22465e-16 1.23154e-16 1 71.9392 59.1668)"/></g></svg>