<?xml version="1.0" encoding="UTF-8" standalone="no"?>
<svg
   width="227"
   height="227"
   overflow="hidden"
   version="1.1"
   id="svg16"
   sodipodi:docname="pre-deployed-execution-thin.svg"
   inkscape:version="1.3 (0e150ed, 2023-07-21)"
   xmlns:inkscape="http://www.inkscape.org/namespaces/inkscape"
   xmlns:sodipodi="http://sodipodi.sourceforge.net/DTD/sodipodi-0.dtd"
   xmlns="http://www.w3.org/2000/svg"
   xmlns:svg="http://www.w3.org/2000/svg">
  <sodipodi:namedview
     id="namedview16"
     pagecolor="#ffffff"
     bordercolor="#666666"
     borderopacity="1.0"
     inkscape:showpageshadow="2"
     inkscape:pageopacity="0.0"
     inkscape:pagecheckerboard="0"
     inkscape:deskcolor="#d1d1d1"
     inkscape:zoom="2.2192731"
     inkscape:cx="181.36569"
     inkscape:cy="100.03276"
     inkscape:window-width="2560"
     inkscape:window-height="1387"
     inkscape:window-x="1440"
     inkscape:window-y="25"
     inkscape:window-maximized="1"
     inkscape:current-layer="svg16" />
  <defs
     id="defs1">
    <clipPath
       id="clip0">
      <rect
         x="0"
         y="0"
         width="227"
         height="227"
         id="rect1" />
    </clipPath>
  </defs>
  <g
     clip-path="url(#clip0)"
     id="g16">
    <rect
       x="0"
       y="0"
       width="227"
       height="227"
       fill="#FFFFFF"
       id="rect2"
       style="fill:#ffffff;fill-opacity:0" />
    <path
       d="M4.5 41.0007C4.5 20.8419 20.8419 4.5 41.0007 4.5L186.999 4.5C207.158 4.5 223.5 20.8419 223.5 41.0007L223.5 186.999C223.5 207.158 207.158 223.5 186.999 223.5L41.0007 223.5C20.8419 223.5 4.5 207.158 4.5 186.999Z"
       stroke="#000000"
       stroke-width="1.33431"
       stroke-miterlimit="8"
       fill="#F2F2F2"
       fill-rule="evenodd"
       id="path2" />
    <g
       id="g5">
      <g
         id="g4">
        <g
           id="g3">
          <path
             d="M113.227 69.3552C112.793 69.3552 112.214 69.3552 111.779 69.3552 111.779 69.3552 111.779 69.3552 111.779 69.3552 111.779 62.2604 108.304 55.7448 102.657 51.6906 96.8656 47.6365 89.4813 46.6229 82.8208 48.9396 77.3188 38.225 65.1562 32.7229 53.5729 35.474 41.9896 38.225 33.5917 48.65 33.5917 60.6677 33.5917 60.6677 33.5917 60.8125 33.5917 60.9573 25.6281 59.6542 17.6646 62.9844 12.7417 69.3552 7.96354 75.8708 7.09479 84.4135 10.425 91.6531 13.9 98.8927 21.1396 103.671 29.1031 104.105L29.1031 104.25 113.082 104.25C122.639 104.25 130.457 96.4313 130.457 86.875 130.457 77.3188 122.783 69.3552 113.227 69.3552Z"
             transform="matrix(1 0 0 1.00719 44 -11)"
             id="path3" />
        </g>
      </g>
    </g>
    <path
       d="M104.557 108 104.557 79.8065 93.0001 79.8065 113.5 57.9999 134 79.8065 122.443 79.8065 122.443 108Z"
       fill="#F2F2F2"
       fill-rule="evenodd"
       id="path5" />
    <g
       id="g11">
      <g
         id="g10">
        <g
           id="g9">
          <path
             d="M37.5 24.375 18.75 35.75 60 60.75 78.7499 49.375Z"
             transform="matrix(1.24167 0 0 1 39 102)"
             id="path6" />
          <path
             d="M101.25 35.75 60 10.75 42.25 21.5 83.4999 46.5Z"
             transform="matrix(1.24167 0 0 1 39 102)"
             id="path7" />
          <path
             d="M18.75 45.75 18.75 85.7499 57.5 109.25 57.5 65.125 18.75 41.625Z"
             transform="matrix(1.24167 0 0 1 39 102)"
             id="path8" />
          <path
             d="M76.2499 71.9999 67.5 76.9999 67.5 68.25 76.2499 63.25 76.2499 71.9999ZM62.5 65.125 62.5 109.25 101.25 85.7499 101.25 41.625 62.5 65.125Z"
             transform="matrix(1.24167 0 0 1 39 102)"
             id="path9" />
        </g>
      </g>
    </g>
    <path
       d="M44.5 149C44.5 131.603 58.3792 117.5 75.5 117.5 92.6208 117.5 106.5 131.603 106.5 149 106.5 166.397 92.6208 180.5 75.5 180.5 58.3792 180.5 44.5 166.397 44.5 149Z"
       stroke="#000000"
       stroke-width="3.0022"
       stroke-miterlimit="8"
       fill="#FFFFFF"
       fill-rule="evenodd"
       id="path11" />
    <g
       id="g15">
      <g
         id="g14">
        <g
           id="g13">
          <path
             d="M31.8844 28.5C31.8844 30.4675 30.2894 32.0625 28.3219 32.0625 26.3544 32.0625 24.7594 30.4675 24.7594 28.5 24.7594 26.5325 26.3544 24.9375 28.3219 24.9375 30.2894 24.9375 31.8844 26.5325 31.8844 28.5Z"
             transform="matrix(1 0 0 1.01754 46 120)"
             id="path12" />
          <path
             d="M49.2219 16.625C48.2126 14.9031 45.9563 14.0719 42.8688 14.0719 40.9094 14.0719 38.6532 14.4281 36.1594 15.0813 34.4375 8.84688 31.5875 4.75001 28.3219 4.75001 25.1157 4.75001 22.2063 8.78751 20.5438 14.9625 18.1688 14.3688 16.0313 14.0125 14.1313 14.0125 11.0438 14.0125 8.78751 14.8438 7.77813 16.5656 6.11563 19.4156 8.31251 23.9875 12.8844 28.6188 8.49063 33.1313 6.47188 37.525 8.07501 40.3157 9.08438 42.0375 11.3406 42.8688 14.4281 42.8688 16.2094 42.8688 18.2875 42.5719 20.5438 42.0375 22.2656 48.2126 25.1157 52.2501 28.3219 52.2501 31.5282 52.2501 34.4375 48.2126 36.1 42.0375 38.475 42.6313 40.6125 42.9875 42.5125 42.9875 45.6001 42.9875 47.8563 42.1563 48.8657 40.4344 50.4688 37.6438 48.4501 33.25 44.0563 28.7375 48.7469 24.0469 50.8844 19.475 49.2219 16.625ZM42.8688 16.4469C45.0657 16.4469 46.6688 16.9813 47.1438 17.8125 48.0344 19.3563 46.4313 22.9782 42.3938 27.0157 40.9688 25.7094 39.3657 24.4032 37.5844 23.1563 37.4063 21.1375 37.1094 19.1781 36.6938 17.3375 38.95 16.7438 41.0875 16.4469 42.8688 16.4469ZM32.2407 34.675C30.9938 35.3875 29.7469 36.0407 28.5 36.6344 27.2532 36.0407 26.0063 35.3875 24.7594 34.675 23.5719 33.9625 22.3844 33.25 21.3156 32.5375 21.1969 31.2313 21.1969 29.925 21.1969 28.5 21.1969 27.1938 21.2563 25.9469 21.3156 24.7 22.5032 23.8688 23.75 23.0969 25.1157 22.325 26.2438 21.6719 27.3719 21.0781 28.5 20.5438 29.6282 21.0781 30.7563 21.6719 31.8844 22.325 33.0719 23.0375 34.2594 23.75 35.3282 24.4625 35.4469 25.7688 35.4469 27.075 35.4469 28.5 35.4469 29.9844 35.3875 31.4094 35.2688 32.775 34.3188 33.4282 33.3094 34.0219 32.2407 34.675ZM34.9719 35.8032C34.7938 36.9313 34.6157 38.0594 34.4375 39.0688 33.4282 38.7125 32.3594 38.3563 31.2907 37.8813 32.0032 37.525 32.7157 37.1094 33.4282 36.6938 33.9625 36.3969 34.4969 36.1 34.9719 35.8032ZM25.7094 37.8813C24.5219 38.3563 23.3938 38.7719 22.2656 39.1282 22.0281 38 21.85 36.8125 21.6719 35.5657 22.325 35.9813 22.9188 36.3375 23.6313 36.7532 24.2844 37.1094 24.9969 37.525 25.7094 37.8813ZM18.8813 30.7563C17.9313 30.0438 17.1 29.3313 16.3281 28.6188 17.1 27.9063 17.9906 27.1938 18.8813 26.4813 18.8813 27.1344 18.8219 27.7875 18.8219 28.5 18.8219 29.2719 18.8219 30.0438 18.8813 30.7563ZM21.6125 21.6719C21.7906 20.3656 21.9688 19.1188 22.2063 17.9313 23.3344 18.2875 24.5219 18.7625 25.7094 19.2375 25.1157 19.5344 24.4625 19.8906 23.8688 20.2469 23.1563 20.7219 22.3844 21.1969 21.6125 21.6719ZM31.2313 19.2375C32.3 18.7625 33.3688 18.4063 34.4375 18.05 34.675 19.1188 34.8532 20.2469 35.0313 21.4344 34.3782 21.0188 33.7844 20.6625 33.0719 20.2469 32.4782 19.95 31.8844 19.5938 31.2313 19.2375ZM37.7625 26.2438C38.8313 27.075 39.7813 27.8469 40.6719 28.6782 39.7813 29.45 38.8313 30.2813 37.7625 31.0532 37.8219 30.2219 37.8219 29.3907 37.8219 28.5594 37.8219 27.7282 37.8219 26.9563 37.7625 26.2438ZM28.3219 7.12501C30.1032 7.12501 32.4188 10.2719 33.9032 15.7344 32.1813 16.3281 30.3407 17.0406 28.5 17.8719 26.5407 16.9813 24.6407 16.2094 22.8 15.6156 24.2844 10.2125 26.5407 7.12501 28.3219 7.12501ZM9.79689 17.8125C10.3313 16.9219 11.875 16.4469 14.0719 16.4469 15.7938 16.4469 17.7531 16.7438 19.8906 17.2781 19.475 19.1781 19.1781 21.2563 19 23.3938 17.3375 24.5813 15.8531 25.7688 14.5469 27.0157 10.5688 22.9782 8.90626 19.3563 9.79689 17.8125ZM14.4281 40.5532C12.2313 40.5532 10.6281 40.0188 10.1531 39.1875 9.26251 37.6438 10.8063 34.2 14.6063 30.2813 15.9719 31.4688 17.4563 32.6563 19.0594 33.8438 19.2375 35.9219 19.5344 37.9407 19.95 39.7813 17.9906 40.3157 16.0906 40.5532 14.4281 40.5532ZM28.3219 49.8751C26.5407 49.8751 24.2844 46.7876 22.8 41.4438 24.6407 40.85 26.5407 40.1375 28.5 39.2469 30.3407 40.0782 32.1219 40.7907 33.8438 41.325 32.3594 46.7876 30.1032 49.8751 28.3219 49.8751ZM46.8469 39.1875C46.3125 40.0782 44.7688 40.5532 42.5719 40.5532 40.85 40.5532 38.8313 40.2563 36.7532 39.7219 37.1094 37.9407 37.4063 36.1 37.5844 34.0813 39.3657 32.8344 40.9688 31.5875 42.3938 30.2813 46.1938 34.2 47.7376 37.6438 46.8469 39.1875Z"
             transform="matrix(1 0 0 1.01754 46 120)"
             id="path13" />
        </g>
      </g>
    </g>
  </g>
</svg>
