<?xml version="1.0" encoding="UTF-8" standalone="no"?>
<!-- Created with Inkscape (http://www.inkscape.org/) -->

<svg
   version="1.1"
   id="svg1"
   width="266.66666"
   height="266.66666"
   viewBox="0 0 266.66666 266.66666"
   sodipodi:docname="select_icon.svg"
   inkscape:version="1.3 (0e150ed, 2023-07-21)"
   inkscape:export-filename="select_icon.svg"
   inkscape:export-xdpi="180"
   inkscape:export-ydpi="180"
   xmlns:inkscape="http://www.inkscape.org/namespaces/inkscape"
   xmlns:sodipodi="http://sodipodi.sourceforge.net/DTD/sodipodi-0.dtd"
   xmlns="http://www.w3.org/2000/svg"
   xmlns:svg="http://www.w3.org/2000/svg">
  <defs
     id="defs1" />
  <sodipodi:namedview
     id="namedview1"
     pagecolor="#ffffff"
     bordercolor="#999999"
     borderopacity="1"
     inkscape:showpageshadow="2"
     inkscape:pageopacity="0"
     inkscape:pagecheckerboard="0"
     inkscape:deskcolor="#d1d1d1"
     inkscape:zoom="0.88500003"
     inkscape:cx="117.51412"
     inkscape:cy="116.94915"
     inkscape:window-width="1664"
     inkscape:window-height="830"
     inkscape:window-x="1972"
     inkscape:window-y="655"
     inkscape:window-maximized="0"
     inkscape:current-layer="g1" />
  <g
     inkscape:groupmode="layer"
     inkscape:label="Image"
     id="g1">
    <path
       style="fill:#000000"
       d="M 120.51023,249.45959 C 106.72872,245.97665 96.00898,236.76151 81.143302,215.61813 64.265607,191.61307 60.922003,188.27828 47.386355,181.95019 c -6.629163,-3.09923 -13.853023,-7.54528 -16.053023,-9.88013 -3.417733,-3.62721 -4,-5.28428 -4,-11.38353 0,-12.41587 7.597608,-17.69186 27.316616,-18.9694 15.740604,-1.01978 23.193814,0.95904 34.364048,9.12366 16.633804,12.15808 17.475204,10.16305 17.577414,-41.67753 0.0654,-33.151475 -0.20052,-38.398948 -2.0222,-39.910806 -6.497632,-5.392557 -9.979452,-20.105 -7.154978,-30.233392 2.277637,-8.167468 12.838418,-19.062843 20.740458,-21.397574 16.6539,-4.920552 33.52717,3.64916 39.86613,20.247485 3.72167,9.745061 0.39529,25.586173 -6.59004,31.383481 -1.71796,1.425776 -2.09745,4.993774 -2.09745,19.720121 0,16.598765 0.17917,17.905935 2.33333,17.022775 9.56039,-3.91957 19.84095,-0.85862 25.41092,7.56589 l 3.07759,4.65481 7.42557,-1.89122 c 4.28201,-1.09059 9.4142,-1.51815 12.12303,-1.00998 5.28332,0.99116 12.29622,7.21683 12.29622,10.91591 0,2.05418 1.11322,2.4359 7.10379,2.4359 5.65922,0 8.06129,0.73032 11.81236,3.59141 8.47753,6.46612 9.08507,9.27449 9.07378,41.94343 -0.006,16.0225 -0.62727,33.03183 -1.38163,37.79849 -2.77264,17.51988 -11.35323,28.95163 -26.10053,34.77318 -7.50951,2.96441 -9.53267,3.10887 -47.8411,3.41608 -22,0.17642 -41.87039,-0.15192 -44.15643,-0.72966 z m 90.8231,-14.12627 c 8.376,-4.188 12.71818,-9.17237 15.54423,-17.84315 0.96801,-2.97003 1.78057,-17.74483 2.11462,-38.4501 l 0.54252,-33.62658 -3.37342,-3.37342 c -3.71697,-3.71697 -6.32148,-4.10845 -12.65182,-1.90168 -5.98244,2.08549 -10.8428,-1.15801 -10.8428,-7.2358 0,-8.28641 -3.35578,-9.1518 -18.30585,-4.72075 -10.70064,3.17157 -13.69415,2.35422 -13.69415,-3.73904 0,-4.24137 -5.64407,-9.77614 -9.96918,-9.77614 -2.14114,0 -5.59128,1.99798 -9.20972,5.33334 -3.18229,2.93333 -6.64888,5.33333 -7.70354,5.33333 -4.76151,0 -5.11756,-2.57384 -5.11756,-36.993939 V 54.545452 l -3.27273,-3.272727 c -4.32979,-4.329794 -10.45808,-4.329794 -14.78787,0 l -3.27273,3.272727 v 45.32831 c 0,51.515978 -0.65262,57.045518 -7.5464,63.939298 -4.09976,4.09976 -5.08078,4.46305 -10.425236,3.86065 -4.035162,-0.45482 -7.921479,-2.19937 -12.297322,-5.52022 -11.946004,-9.06586 -16.632472,-10.57431 -30.585036,-9.8445 -13.80475,0.72207 -19.146004,3.00458 -19.146004,8.18176 0,4.20688 2.9518,6.57566 15.083423,12.10422 13.234864,6.03132 21.11507,13.4583 33.902537,31.95265 10.82836,15.66092 18.399748,24.55062 24.778088,29.0924 8.48672,6.04308 11.34696,6.36865 52.90261,6.0217 l 39.33334,-0.3284 z M 148.10192,41.147761 c -1.82396,-6.087863 -9.18815,-12.730435 -15.40675,-13.897051 -13.65289,-2.561297 -26.02851,7.378999 -26.02851,20.906515 v 4.242876 l 3.90113,-5.385347 c 9.66259,-13.338823 30.13886,-11.88618 36.23682,2.57074 l 1.86205,4.414504 0.45174,-3.975897 c 0.24845,-2.186743 -0.20896,-6.181096 -1.01648,-8.87634 z M 35.333332,76.822276 C 27.320796,73.034345 22.421881,68.057475 18.77455,59.999998 13.343604,48.002262 15.865655,36.043987 25.954821,25.954821 36.307403,15.602239 48.194378,13.281439 60.666664,19.17772 77.297539,27.039976 84.262913,44.927632 76.822276,60.666664 68.96002,77.297539 51.072365,84.262913 35.333332,76.822276 Z M 56.438411,67.51463 c 13.699488,-5.724012 17.03914,-23.684137 6.385116,-34.338161 -8.648734,-8.648733 -20.998324,-8.648733 -29.647058,0 -16.488734,16.488735 1.704882,43.345276 23.261942,34.338161 z m 138.894919,9.307646 c -8.01254,-3.787931 -12.91145,-8.764801 -16.55879,-16.822278 -5.43094,-11.997736 -2.90889,-23.956011 7.18027,-34.045177 10.35259,-10.352582 22.23956,-12.673382 34.71185,-6.777101 16.63087,7.862256 23.59625,25.749912 16.15561,41.488944 -7.86226,16.630875 -25.74991,23.596249 -41.48894,16.155612 z m 21.10508,-9.307646 c 13.69948,-5.724012 17.03913,-23.684137 6.38511,-34.338161 -8.64873,-8.648733 -20.99832,-8.648733 -29.64706,0 -16.48873,16.488735 1.70488,43.345276 23.26195,34.338161 z"
       id="path1" />
  </g>
</svg>
