<?xml version="1.0" encoding="UTF-8" standalone="no"?>
<!-- Created with Inkscape (http://www.inkscape.org/) -->

<svg
   version="1.1"
   id="svg132"
   width="226.88"
   height="226.88"
   viewBox="0 0 226.88 226.88"
   sodipodi:docname="warm-start-icon.svg"
   inkscape:version="1.2.2 (732a01da63, 2022-12-09)"
   xmlns:inkscape="http://www.inkscape.org/namespaces/inkscape"
   xmlns:sodipodi="http://sodipodi.sourceforge.net/DTD/sodipodi-0.dtd"
   xmlns="http://www.w3.org/2000/svg"
   xmlns:svg="http://www.w3.org/2000/svg">
  <defs
     id="defs136">
    <clipPath
       clipPathUnits="userSpaceOnUse"
       id="clipPath148">
      <path
         d="M 0,4.5776e-5 H 170.16 V 170.16005 H 0 Z"
         clip-rule="evenodd"
         id="path146" />
    </clipPath>
    <clipPath
       clipPathUnits="userSpaceOnUse"
       id="clipPath168">
      <path
         d="M 0,170.16 H 170.16 V 6.1035e-5 L 1.5259e-5,4.5776e-5"
         clip-rule="evenodd"
         id="path166" />
    </clipPath>
    <clipPath
       clipPathUnits="userSpaceOnUse"
       id="clipPath178">
      <path
         d="M 0,170.16 H 170.16 V 4.5776e-5 H 1.5259e-5"
         clip-rule="evenodd"
         id="path176" />
    </clipPath>
    <clipPath
       clipPathUnits="userSpaceOnUse"
       id="clipPath192">
      <path
         d="M 1.5259e-5,170.16 H 170.16 V 6.1035e-5 H 2.2888e-5"
         clip-rule="evenodd"
         id="path190" />
    </clipPath>
    <clipPath
       clipPathUnits="userSpaceOnUse"
       id="clipPath202">
      <path
         d="M 1.5259e-5,170.16 H 170.16 V 6.1035e-5 H 2.2888e-5"
         clip-rule="evenodd"
         id="path200" />
    </clipPath>
    <clipPath
       clipPathUnits="userSpaceOnUse"
       id="clipPath212">
      <path
         d="M 2.2888e-5,170.16 H 170.16 V 6.1035e-5 H 3.0518e-5"
         clip-rule="evenodd"
         id="path210" />
    </clipPath>
    <clipPath
       clipPathUnits="userSpaceOnUse"
       id="clipPath222">
      <path
         d="M 2.2888e-5,170.16 H 170.16 V 6.1035e-5 H 3.0518e-5"
         clip-rule="evenodd"
         id="path220" />
    </clipPath>
    <clipPath
       clipPathUnits="userSpaceOnUse"
       id="clipPath232">
      <path
         d="M 0,170.16 H 170.16 V 6.1035e-5 H 7.629e-6"
         clip-rule="evenodd"
         id="path230" />
    </clipPath>
    <clipPath
       clipPathUnits="userSpaceOnUse"
       id="clipPath242">
      <path
         d="M 0,170.16 H 170.16 V 6.1035e-5 H 7.629e-6"
         clip-rule="evenodd"
         id="path240" />
    </clipPath>
    <clipPath
       clipPathUnits="userSpaceOnUse"
       id="clipPath252">
      <path
         d="M 0,170.16 H 170.16 V 6.1035e-5 H 7.629e-6"
         clip-rule="evenodd"
         id="path250" />
    </clipPath>
    <clipPath
       clipPathUnits="userSpaceOnUse"
       id="clipPath262">
      <path
         d="M 0,170.16 H 170.16 V 6.1035e-5 H 7.629e-6"
         clip-rule="evenodd"
         id="path260" />
    </clipPath>
    <clipPath
       clipPathUnits="userSpaceOnUse"
       id="clipPath272">
      <path
         d="M -7.629e-6,170.16 H 170.16 V 6.1035e-5 H 0"
         clip-rule="evenodd"
         id="path270" />
    </clipPath>
    <clipPath
       clipPathUnits="userSpaceOnUse"
       id="clipPath282">
      <path
         d="M -7.629e-6,170.16 H 170.16 V 6.1035e-5 H 0"
         clip-rule="evenodd"
         id="path280" />
    </clipPath>
    <clipPath
       clipPathUnits="userSpaceOnUse"
       id="clipPath292">
      <path
         d="M 1.1444e-5,170.16 H 170.16 V 6.1035e-5 H 1.5259e-5"
         clip-rule="evenodd"
         id="path290" />
    </clipPath>
    <clipPath
       clipPathUnits="userSpaceOnUse"
       id="clipPath302">
      <path
         d="M 1.1444e-5,170.16 H 170.16 V 6.1035e-5 H 1.5259e-5"
         clip-rule="evenodd"
         id="path300" />
    </clipPath>
    <clipPath
       clipPathUnits="userSpaceOnUse"
       id="clipPath360">
      <path
         d="M -7.629e-6,170.16 H 170.16 V 6.1035e-5 L -7.629e-6,3.0518e-5"
         clip-rule="evenodd"
         id="path358" />
    </clipPath>
    <clipPath
       clipPathUnits="userSpaceOnUse"
       id="clipPath370">
      <path
         d="M -7.629e-6,170.16 H 170.16 V 6.1035e-5 L -7.629e-6,3.0518e-5"
         clip-rule="evenodd"
         id="path368" />
    </clipPath>
    <clipPath
       clipPathUnits="userSpaceOnUse"
       id="clipPath380">
      <path
         d="M 7.629e-6,170.16 H 170.16 V 3.0518e-5 L 1.5259e-5,4.5776e-5"
         clip-rule="evenodd"
         id="path378" />
    </clipPath>
    <clipPath
       clipPathUnits="userSpaceOnUse"
       id="clipPath390">
      <path
         d="M 7.629e-6,170.16 H 170.16 V 3.0518e-5 L 1.5259e-5,4.5776e-5"
         clip-rule="evenodd"
         id="path388" />
    </clipPath>
    <clipPath
       clipPathUnits="userSpaceOnUse"
       id="clipPath400">
      <path
         d="M 7.629e-6,170.16 H 170.16 V 3.0518e-5 H 1.5259e-5"
         clip-rule="evenodd"
         id="path398" />
    </clipPath>
    <clipPath
       clipPathUnits="userSpaceOnUse"
       id="clipPath410">
      <path
         d="M 7.629e-6,170.16 H 170.16 V 3.0518e-5 H 1.5259e-5"
         clip-rule="evenodd"
         id="path408" />
    </clipPath>
    <clipPath
       clipPathUnits="userSpaceOnUse"
       id="clipPath420">
      <path
         d="M 7.629e-6,170.16 H 170.16 V 3.0518e-5 H 1.5259e-5"
         clip-rule="evenodd"
         id="path418" />
    </clipPath>
    <clipPath
       clipPathUnits="userSpaceOnUse"
       id="clipPath430">
      <path
         d="M 7.629e-6,170.16 H 170.16 V 3.0518e-5 H 1.5259e-5"
         clip-rule="evenodd"
         id="path428" />
    </clipPath>
    <clipPath
       clipPathUnits="userSpaceOnUse"
       id="clipPath440">
      <path
         d="M 0,170.16 H 170.16 V 3.0518e-5 L 7.629e-6,4.5776e-5"
         clip-rule="evenodd"
         id="path438" />
    </clipPath>
    <clipPath
       clipPathUnits="userSpaceOnUse"
       id="clipPath450">
      <path
         d="M 0,170.16 H 170.16 V 3.0518e-5 L 7.629e-6,4.5776e-5"
         clip-rule="evenodd"
         id="path448" />
    </clipPath>
    <clipPath
       clipPathUnits="userSpaceOnUse"
       id="clipPath460">
      <path
         d="M 0,170.16 H 170.16 V 3.0518e-5 L 7.629e-6,4.5776e-5"
         clip-rule="evenodd"
         id="path458" />
    </clipPath>
    <clipPath
       clipPathUnits="userSpaceOnUse"
       id="clipPath470">
      <path
         d="M 0,170.16 H 170.16 V 3.0518e-5 L 7.629e-6,4.5776e-5"
         clip-rule="evenodd"
         id="path468" />
    </clipPath>
    <clipPath
       clipPathUnits="userSpaceOnUse"
       id="clipPath480">
      <path
         d="M -1.5259e-5,170.16 H 170.16 V 6.1035e-5 L -1.5259e-5,4.5776e-5"
         clip-rule="evenodd"
         id="path478" />
    </clipPath>
    <clipPath
       clipPathUnits="userSpaceOnUse"
       id="clipPath490">
      <path
         d="M -1.5259e-5,170.16 H 170.16 V 6.1035e-5 L -1.5259e-5,4.5776e-5"
         clip-rule="evenodd"
         id="path488" />
    </clipPath>
    <clipPath
       clipPathUnits="userSpaceOnUse"
       id="clipPath500">
      <path
         d="M -7.629e-6,170.16 H 170.16 V 3.0518e-5 L -7.629e-6,1.5259e-5"
         clip-rule="evenodd"
         id="path498" />
    </clipPath>
    <clipPath
       clipPathUnits="userSpaceOnUse"
       id="clipPath510">
      <path
         d="M -7.629e-6,170.16 H 170.16 V 3.0518e-5 L -7.629e-6,1.5259e-5"
         clip-rule="evenodd"
         id="path508" />
    </clipPath>
  </defs>
  <sodipodi:namedview
     id="namedview134"
     pagecolor="#ffffff"
     bordercolor="#000000"
     borderopacity="0.25"
     inkscape:showpageshadow="2"
     inkscape:pageopacity="0.0"
     inkscape:pagecheckerboard="0"
     inkscape:deskcolor="#d1d1d1"
     showgrid="false"
     inkscape:zoom="3.7596966"
     inkscape:cx="113.44"
     inkscape:cy="113.44"
     inkscape:window-width="1920"
     inkscape:window-height="1111"
     inkscape:window-x="-9"
     inkscape:window-y="-9"
     inkscape:window-maximized="1"
     inkscape:current-layer="g140">
    <inkscape:page
       x="0"
       y="0"
       id="page138"
       width="226.88"
       height="226.88" />
  </sodipodi:namedview>
  <g
     id="g140"
     inkscape:groupmode="layer"
     inkscape:label="Page 1"
     transform="matrix(1.3333333,0,0,-1.3333333,0,226.88)">
    <g
       id="g142">
      <g
         id="g144"
         clip-path="url(#clipPath148)">
        <path
           d="M 0,1.5259e-5 H 170.16 V 170.16002 H 0 Z"
           style="fill:#ffffff;fill-opacity:1;fill-rule:evenodd;stroke:none"
           id="path150" />
      </g>
    </g>
    <path
       d="M 1.44,140.84 C 1.44,156.24 13.923,168.72 29.321,168.72 H 140.84 C 156.24,168.72 168.72,156.24 168.72,140.84 V 29.321 C 168.72,13.923 156.24,1.44 140.84,1.44 H 29.321 C 13.923,1.44 1.44,13.923 1.44,29.321 Z"
       style="fill:#f2f2f2;fill-opacity:1;fill-rule:evenodd;stroke:none"
       id="path152" />
    <path
       d="M 1.44,140.84 C 1.44,156.24 13.923,168.72 29.321,168.72 H 140.84 C 156.24,168.72 168.72,156.24 168.72,140.84 V 29.321 C 168.72,13.923 156.24,1.44 140.84,1.44 H 29.321 C 13.923,1.44 1.44,13.923 1.44,29.321 Z"
       style="fill:none;stroke:#000000;stroke-width:0.96;stroke-linecap:butt;stroke-linejoin:miter;stroke-miterlimit:10;stroke-dasharray:none;stroke-opacity:1"
       id="path154" />
    <path
       d="M 43.38,100.89 C 43.38,105.71 47.287,109.62 52.106,109.62 H 114.33 C 119.15,109.62 123.06,105.71 123.06,100.89 V 40.466 C 123.06,35.647 119.15,31.74 114.33,31.74 H 52.106 C 47.287,31.74 43.38,35.647 43.38,40.466 Z"
       style="fill:#f2f2f2;fill-opacity:1;fill-rule:evenodd;stroke:none"
       id="path156" />
    <path
       d="M 43.38,100.89 C 43.38,105.71 47.287,109.62 52.106,109.62 H 114.33 C 119.15,109.62 123.06,105.71 123.06,100.89 V 40.466 C 123.06,35.647 119.15,31.74 114.33,31.74 H 52.106 C 47.287,31.74 43.38,35.647 43.38,40.466 Z"
       style="fill:none;stroke:#000000;stroke-width:2.28;stroke-linecap:butt;stroke-linejoin:miter;stroke-miterlimit:10;stroke-dasharray:none;stroke-opacity:1"
       id="path158" />
    <path
       d="M 68.34,69.9 C 68.34,87.661 75.244,102.06 83.76,102.06 92.276,102.06 99.18,87.661 99.18,69.9 99.18,52.139 92.276,37.74 83.76,37.74 75.244,37.74 68.34,52.139 68.34,69.9 Z"
       style="fill:none;stroke:#000000;stroke-width:2.28;stroke-linecap:butt;stroke-linejoin:miter;stroke-miterlimit:10;stroke-dasharray:none;stroke-opacity:1"
       id="path160" />
    <g
       id="g162">
      <g
         id="g164"
         clip-path="url(#clipPath168)">
        <path
           d="M 76.573,82.991 C 92.971,92.192 109.45,93.968 113.38,86.959 117.32,79.95 107.21,66.809 90.815,57.609 74.417,48.409 57.936,46.632 54.004,53.642 50.071,60.651 60.176,73.791 76.573,82.991 Z"
           style="fill:none;stroke:#000000;stroke-width:2.25;stroke-linecap:butt;stroke-linejoin:miter;stroke-miterlimit:10;stroke-dasharray:none;stroke-opacity:1"
           id="path170" />
      </g>
    </g>
    <g
       id="g172">
      <g
         id="g174"
         clip-path="url(#clipPath178)">
        <path
           d="M 90.938,82.059 C 107.03,72.339 116.71,58.882 112.56,52.002 108.4,45.122 91.987,47.425 75.892,57.145 59.797,66.865 50.118,80.322 54.273,87.202 58.428,94.082 74.844,91.779 90.938,82.059 Z"
           style="fill:none;stroke:#000000;stroke-width:2.25;stroke-linecap:butt;stroke-linejoin:miter;stroke-miterlimit:10;stroke-dasharray:none;stroke-opacity:1"
           id="path180" />
      </g>
    </g>
    <path
       d="M 76.98,69.72 C 76.98,73.001 79.935,75.66 83.58,75.66 87.225,75.66 90.18,73.001 90.18,69.72 90.18,66.439 87.225,63.78 83.58,63.78 79.935,63.78 76.98,66.439 76.98,69.72 Z"
       style="fill:#000000;fill-opacity:1;fill-rule:evenodd;stroke:none"
       id="path182" />
    <path
       d="M 76.98,69.72 C 76.98,73.001 79.935,75.66 83.58,75.66 87.225,75.66 90.18,73.001 90.18,69.72 90.18,66.439 87.225,63.78 83.58,63.78 79.935,63.78 76.98,66.439 76.98,69.72 Z"
       style="fill:none;stroke:#000000;stroke-width:2.28;stroke-linecap:butt;stroke-linejoin:miter;stroke-miterlimit:10;stroke-dasharray:none;stroke-opacity:1"
       id="path184" />
    <g
       id="g186">
      <g
         id="g188"
         clip-path="url(#clipPath192)">
        <path
           d="M 114.64,31.74 C 114.72,31.74 114.78,31.677 114.78,31.6 V 19.64 C 114.78,19.563 114.72,19.5 114.64,19.5 H 114.08 C 114,19.5 113.94,19.563 113.94,19.64 V 31.6 C 113.94,31.677 114,31.74 114.08,31.74 Z"
           style="fill:#000000;fill-opacity:1;fill-rule:evenodd;stroke:none"
           id="path194" />
      </g>
    </g>
    <g
       id="g196">
      <g
         id="g198"
         clip-path="url(#clipPath202)">
        <path
           d="M 114.64,31.74 C 114.72,31.74 114.78,31.677 114.78,31.6 V 19.64 C 114.78,19.563 114.72,19.5 114.64,19.5 H 114.08 C 114,19.5 113.94,19.563 113.94,19.64 V 31.6 C 113.94,31.677 114,31.74 114.08,31.74 Z"
           style="fill:none;stroke:#000000;stroke-width:2.28;stroke-linecap:butt;stroke-linejoin:miter;stroke-miterlimit:10;stroke-dasharray:none;stroke-opacity:1"
           id="path204" />
      </g>
    </g>
    <g
       id="g206">
      <g
         id="g208"
         clip-path="url(#clipPath212)">
        <path
           d="M 101.8,31.74 C 101.88,31.74 101.94,31.677 101.94,31.6 V 19.64 C 101.94,19.563 101.88,19.5 101.8,19.5 H 101.24 C 101.16,19.5 101.1,19.563 101.1,19.64 V 31.6 C 101.1,31.677 101.16,31.74 101.24,31.74 Z"
           style="fill:#000000;fill-opacity:1;fill-rule:evenodd;stroke:none"
           id="path214" />
      </g>
    </g>
    <g
       id="g216">
      <g
         id="g218"
         clip-path="url(#clipPath222)">
        <path
           d="M 101.8,31.74 C 101.88,31.74 101.94,31.677 101.94,31.6 V 19.64 C 101.94,19.563 101.88,19.5 101.8,19.5 H 101.24 C 101.16,19.5 101.1,19.563 101.1,19.64 V 31.6 C 101.1,31.677 101.16,31.74 101.24,31.74 Z"
           style="fill:none;stroke:#000000;stroke-width:2.28;stroke-linecap:butt;stroke-linejoin:miter;stroke-miterlimit:10;stroke-dasharray:none;stroke-opacity:1"
           id="path224" />
      </g>
    </g>
    <g
       id="g226">
      <g
         id="g228"
         clip-path="url(#clipPath232)">
        <path
           d="M 89.44,31.74 C 89.517,31.74 89.58,31.677 89.58,31.6 V 19.64 C 89.58,19.563 89.517,19.5 89.44,19.5 H 88.88 C 88.803,19.5 88.74,19.563 88.74,19.64 V 31.6 C 88.74,31.677 88.803,31.74 88.88,31.74 Z"
           style="fill:#000000;fill-opacity:1;fill-rule:evenodd;stroke:none"
           id="path234" />
      </g>
    </g>
    <g
       id="g236">
      <g
         id="g238"
         clip-path="url(#clipPath242)">
        <path
           d="M 89.44,31.74 C 89.517,31.74 89.58,31.677 89.58,31.6 V 19.64 C 89.58,19.563 89.517,19.5 89.44,19.5 H 88.88 C 88.803,19.5 88.74,19.563 88.74,19.64 V 31.6 C 88.74,31.677 88.803,31.74 88.88,31.74 Z"
           style="fill:none;stroke:#000000;stroke-width:2.28;stroke-linecap:butt;stroke-linejoin:miter;stroke-miterlimit:10;stroke-dasharray:none;stroke-opacity:1"
           id="path244" />
      </g>
    </g>
    <g
       id="g246">
      <g
         id="g248"
         clip-path="url(#clipPath252)">
        <path
           d="M 76.72,31.74 C 76.797,31.74 76.86,31.677 76.86,31.6 V 19.64 C 76.86,19.563 76.797,19.5 76.72,19.5 H 76.16 C 76.083,19.5 76.02,19.563 76.02,19.64 V 31.6 C 76.02,31.677 76.083,31.74 76.16,31.74 Z"
           style="fill:#000000;fill-opacity:1;fill-rule:evenodd;stroke:none"
           id="path254" />
      </g>
    </g>
    <g
       id="g256">
      <g
         id="g258"
         clip-path="url(#clipPath262)">
        <path
           d="M 76.72,31.74 C 76.797,31.74 76.86,31.677 76.86,31.6 V 19.64 C 76.86,19.563 76.797,19.5 76.72,19.5 H 76.16 C 76.083,19.5 76.02,19.563 76.02,19.64 V 31.6 C 76.02,31.677 76.083,31.74 76.16,31.74 Z"
           style="fill:none;stroke:#000000;stroke-width:2.28;stroke-linecap:butt;stroke-linejoin:miter;stroke-miterlimit:10;stroke-dasharray:none;stroke-opacity:1"
           id="path264" />
      </g>
    </g>
    <g
       id="g266">
      <g
         id="g268"
         clip-path="url(#clipPath272)">
        <path
           d="M 63.98,31.74 C 64.068,31.74 64.14,31.668 64.14,31.58 V 19.66 C 64.14,19.572 64.068,19.5 63.98,19.5 H 63.34 C 63.252,19.5 63.18,19.572 63.18,19.66 V 31.58 C 63.18,31.668 63.252,31.74 63.34,31.74 Z"
           style="fill:#000000;fill-opacity:1;fill-rule:evenodd;stroke:none"
           id="path274" />
      </g>
    </g>
    <g
       id="g276">
      <g
         id="g278"
         clip-path="url(#clipPath282)">
        <path
           d="M 63.98,31.74 C 64.068,31.74 64.14,31.668 64.14,31.58 V 19.66 C 64.14,19.572 64.068,19.5 63.98,19.5 H 63.34 C 63.252,19.5 63.18,19.572 63.18,19.66 V 31.58 C 63.18,31.668 63.252,31.74 63.34,31.74 Z"
           style="fill:none;stroke:#000000;stroke-width:2.28;stroke-linecap:butt;stroke-linejoin:miter;stroke-miterlimit:10;stroke-dasharray:none;stroke-opacity:1"
           id="path284" />
      </g>
    </g>
    <g
       id="g286">
      <g
         id="g288"
         clip-path="url(#clipPath292)">
        <path
           d="M 51.62,31.74 C 51.708,31.74 51.78,31.668 51.78,31.58 V 19.66 C 51.78,19.572 51.708,19.5 51.62,19.5 H 50.98 C 50.892,19.5 50.82,19.572 50.82,19.66 V 31.58 C 50.82,31.668 50.892,31.74 50.98,31.74 Z"
           style="fill:#000000;fill-opacity:1;fill-rule:evenodd;stroke:none"
           id="path294" />
      </g>
    </g>
    <g
       id="g296">
      <g
         id="g298"
         clip-path="url(#clipPath302)">
        <path
           d="M 51.62,31.74 C 51.708,31.74 51.78,31.668 51.78,31.58 V 19.66 C 51.78,19.572 51.708,19.5 51.62,19.5 H 50.98 C 50.892,19.5 50.82,19.572 50.82,19.66 V 31.58 C 50.82,31.668 50.892,31.74 50.98,31.74 Z"
           style="fill:none;stroke:#000000;stroke-width:2.28;stroke-linecap:butt;stroke-linejoin:miter;stroke-miterlimit:10;stroke-dasharray:none;stroke-opacity:1"
           id="path304" />
      </g>
    </g>
    <path
       d="M 122.82,101.78 C 122.82,101.87 122.89,101.94 122.98,101.94 H 134.78 C 134.87,101.94 134.94,101.87 134.94,101.78 V 101.14 C 134.94,101.05 134.87,100.98 134.78,100.98 H 122.98 C 122.89,100.98 122.82,101.05 122.82,101.14 Z"
       style="fill:#000000;fill-opacity:1;fill-rule:evenodd;stroke:none"
       id="path306" />
    <path
       d="M 122.82,101.78 C 122.82,101.87 122.89,101.94 122.98,101.94 H 134.78 C 134.87,101.94 134.94,101.87 134.94,101.78 V 101.14 C 134.94,101.05 134.87,100.98 134.78,100.98 H 122.98 C 122.89,100.98 122.82,101.05 122.82,101.14 Z"
       style="fill:none;stroke:#000000;stroke-width:2.28;stroke-linecap:butt;stroke-linejoin:miter;stroke-miterlimit:10;stroke-dasharray:none;stroke-opacity:1"
       id="path308" />
    <path
       d="M 122.82,88.72 C 122.82,88.797 122.88,88.86 122.96,88.86 H 134.8 C 134.88,88.86 134.94,88.797 134.94,88.72 V 88.16 C 134.94,88.083 134.88,88.02 134.8,88.02 H 122.96 C 122.88,88.02 122.82,88.083 122.82,88.16 Z"
       style="fill:#000000;fill-opacity:1;fill-rule:evenodd;stroke:none"
       id="path310" />
    <path
       d="M 122.82,88.72 C 122.82,88.797 122.88,88.86 122.96,88.86 H 134.8 C 134.88,88.86 134.94,88.797 134.94,88.72 V 88.16 C 134.94,88.083 134.88,88.02 134.8,88.02 H 122.96 C 122.88,88.02 122.82,88.083 122.82,88.16 Z"
       style="fill:none;stroke:#000000;stroke-width:2.28;stroke-linecap:butt;stroke-linejoin:miter;stroke-miterlimit:10;stroke-dasharray:none;stroke-opacity:1"
       id="path312" />
    <path
       d="M 122.82,76.24 C 122.82,76.317 122.88,76.38 122.96,76.38 H 134.8 C 134.88,76.38 134.94,76.317 134.94,76.24 V 75.68 C 134.94,75.603 134.88,75.54 134.8,75.54 H 122.96 C 122.88,75.54 122.82,75.603 122.82,75.68 Z"
       style="fill:#000000;fill-opacity:1;fill-rule:evenodd;stroke:none"
       id="path314" />
    <path
       d="M 122.82,76.24 C 122.82,76.317 122.88,76.38 122.96,76.38 H 134.8 C 134.88,76.38 134.94,76.317 134.94,76.24 V 75.68 C 134.94,75.603 134.88,75.54 134.8,75.54 H 122.96 C 122.88,75.54 122.82,75.603 122.82,75.68 Z"
       style="fill:none;stroke:#000000;stroke-width:2.28;stroke-linecap:butt;stroke-linejoin:miter;stroke-miterlimit:10;stroke-dasharray:none;stroke-opacity:1"
       id="path316" />
    <path
       d="M 122.82,63.4 C 122.82,63.477 122.88,63.54 122.96,63.54 H 134.8 C 134.88,63.54 134.94,63.477 134.94,63.4 V 62.84 C 134.94,62.763 134.88,62.7 134.8,62.7 H 122.96 C 122.88,62.7 122.82,62.763 122.82,62.84 Z"
       style="fill:#000000;fill-opacity:1;fill-rule:evenodd;stroke:none"
       id="path318" />
    <path
       d="M 122.82,63.4 C 122.82,63.477 122.88,63.54 122.96,63.54 H 134.8 C 134.88,63.54 134.94,63.477 134.94,63.4 V 62.84 C 134.94,62.763 134.88,62.7 134.8,62.7 H 122.96 C 122.88,62.7 122.82,62.763 122.82,62.84 Z"
       style="fill:none;stroke:#000000;stroke-width:2.28;stroke-linecap:butt;stroke-linejoin:miter;stroke-miterlimit:10;stroke-dasharray:none;stroke-opacity:1"
       id="path320" />
    <path
       d="M 122.82,50.42 C 122.82,50.508 122.89,50.58 122.98,50.58 H 134.78 C 134.87,50.58 134.94,50.508 134.94,50.42 V 49.78 C 134.94,49.692 134.87,49.62 134.78,49.62 H 122.98 C 122.89,49.62 122.82,49.692 122.82,49.78 Z"
       style="fill:#000000;fill-opacity:1;fill-rule:evenodd;stroke:none"
       id="path322" />
    <path
       d="M 122.82,50.42 C 122.82,50.508 122.89,50.58 122.98,50.58 H 134.78 C 134.87,50.58 134.94,50.508 134.94,50.42 V 49.78 C 134.94,49.692 134.87,49.62 134.78,49.62 H 122.98 C 122.89,49.62 122.82,49.692 122.82,49.78 Z"
       style="fill:none;stroke:#000000;stroke-width:2.28;stroke-linecap:butt;stroke-linejoin:miter;stroke-miterlimit:10;stroke-dasharray:none;stroke-opacity:1"
       id="path324" />
    <path
       d="M 122.82,37.94 C 122.82,38.028 122.89,38.1 122.98,38.1 H 134.78 C 134.87,38.1 134.94,38.028 134.94,37.94 V 37.3 C 134.94,37.212 134.87,37.14 134.78,37.14 H 122.98 C 122.89,37.14 122.82,37.212 122.82,37.3 Z"
       style="fill:#000000;fill-opacity:1;fill-rule:evenodd;stroke:none"
       id="path326" />
    <path
       d="M 122.82,37.94 C 122.82,38.028 122.89,38.1 122.98,38.1 H 134.78 C 134.87,38.1 134.94,38.028 134.94,37.94 V 37.3 C 134.94,37.212 134.87,37.14 134.78,37.14 H 122.98 C 122.89,37.14 122.82,37.212 122.82,37.3 Z"
       style="fill:none;stroke:#000000;stroke-width:2.28;stroke-linecap:butt;stroke-linejoin:miter;stroke-miterlimit:10;stroke-dasharray:none;stroke-opacity:1"
       id="path328" />
    <path
       d="M 30.78,102.4 C 30.78,102.48 30.843,102.54 30.92,102.54 H 42.88 C 42.957,102.54 43.02,102.48 43.02,102.4 V 101.84 C 43.02,101.76 42.957,101.7 42.88,101.7 H 30.92 C 30.843,101.7 30.78,101.76 30.78,101.84 Z"
       style="fill:#000000;fill-opacity:1;fill-rule:evenodd;stroke:none"
       id="path330" />
    <path
       d="M 30.78,102.4 C 30.78,102.48 30.843,102.54 30.92,102.54 H 42.88 C 42.957,102.54 43.02,102.48 43.02,102.4 V 101.84 C 43.02,101.76 42.957,101.7 42.88,101.7 H 30.92 C 30.843,101.7 30.78,101.76 30.78,101.84 Z"
       style="fill:none;stroke:#000000;stroke-width:2.28;stroke-linecap:butt;stroke-linejoin:miter;stroke-miterlimit:10;stroke-dasharray:none;stroke-opacity:1"
       id="path332" />
    <path
       d="M 30.78,89.44 C 30.78,89.517 30.843,89.58 30.92,89.58 H 42.88 C 42.957,89.58 43.02,89.517 43.02,89.44 V 88.88 C 43.02,88.803 42.957,88.74 42.88,88.74 H 30.92 C 30.843,88.74 30.78,88.803 30.78,88.88 Z"
       style="fill:#000000;fill-opacity:1;fill-rule:evenodd;stroke:none"
       id="path334" />
    <path
       d="M 30.78,89.44 C 30.78,89.517 30.843,89.58 30.92,89.58 H 42.88 C 42.957,89.58 43.02,89.517 43.02,89.44 V 88.88 C 43.02,88.803 42.957,88.74 42.88,88.74 H 30.92 C 30.843,88.74 30.78,88.803 30.78,88.88 Z"
       style="fill:none;stroke:#000000;stroke-width:2.28;stroke-linecap:butt;stroke-linejoin:miter;stroke-miterlimit:10;stroke-dasharray:none;stroke-opacity:1"
       id="path336" />
    <path
       d="M 30.78,76.96 C 30.78,77.037 30.843,77.1 30.92,77.1 H 42.88 C 42.957,77.1 43.02,77.037 43.02,76.96 V 76.4 C 43.02,76.323 42.957,76.26 42.88,76.26 H 30.92 C 30.843,76.26 30.78,76.323 30.78,76.4 Z"
       style="fill:#000000;fill-opacity:1;fill-rule:evenodd;stroke:none"
       id="path338" />
    <path
       d="M 30.78,76.96 C 30.78,77.037 30.843,77.1 30.92,77.1 H 42.88 C 42.957,77.1 43.02,77.037 43.02,76.96 V 76.4 C 43.02,76.323 42.957,76.26 42.88,76.26 H 30.92 C 30.843,76.26 30.78,76.323 30.78,76.4 Z"
       style="fill:none;stroke:#000000;stroke-width:2.28;stroke-linecap:butt;stroke-linejoin:miter;stroke-miterlimit:10;stroke-dasharray:none;stroke-opacity:1"
       id="path340" />
    <path
       d="M 30.78,64.1 C 30.78,64.188 30.852,64.26 30.94,64.26 H 42.86 C 42.948,64.26 43.02,64.188 43.02,64.1 V 63.46 C 43.02,63.372 42.948,63.3 42.86,63.3 H 30.94 C 30.852,63.3 30.78,63.372 30.78,63.46 Z"
       style="fill:#000000;fill-opacity:1;fill-rule:evenodd;stroke:none"
       id="path342" />
    <path
       d="M 30.78,64.1 C 30.78,64.188 30.852,64.26 30.94,64.26 H 42.86 C 42.948,64.26 43.02,64.188 43.02,64.1 V 63.46 C 43.02,63.372 42.948,63.3 42.86,63.3 H 30.94 C 30.852,63.3 30.78,63.372 30.78,63.46 Z"
       style="fill:none;stroke:#000000;stroke-width:2.28;stroke-linecap:butt;stroke-linejoin:miter;stroke-miterlimit:10;stroke-dasharray:none;stroke-opacity:1"
       id="path344" />
    <path
       d="M 30.78,51.14 C 30.78,51.228 30.852,51.3 30.94,51.3 H 42.86 C 42.948,51.3 43.02,51.228 43.02,51.14 V 50.5 C 43.02,50.412 42.948,50.34 42.86,50.34 H 30.94 C 30.852,50.34 30.78,50.412 30.78,50.5 Z"
       style="fill:#000000;fill-opacity:1;fill-rule:evenodd;stroke:none"
       id="path346" />
    <path
       d="M 30.78,51.14 C 30.78,51.228 30.852,51.3 30.94,51.3 H 42.86 C 42.948,51.3 43.02,51.228 43.02,51.14 V 50.5 C 43.02,50.412 42.948,50.34 42.86,50.34 H 30.94 C 30.852,50.34 30.78,50.412 30.78,50.5 Z"
       style="fill:none;stroke:#000000;stroke-width:2.28;stroke-linecap:butt;stroke-linejoin:miter;stroke-miterlimit:10;stroke-dasharray:none;stroke-opacity:1"
       id="path348" />
    <path
       d="M 30.78,38.66 C 30.78,38.748 30.852,38.82 30.94,38.82 H 42.86 C 42.948,38.82 43.02,38.748 43.02,38.66 V 38.02 C 43.02,37.932 42.948,37.86 42.86,37.86 H 30.94 C 30.852,37.86 30.78,37.932 30.78,38.02 Z"
       style="fill:#000000;fill-opacity:1;fill-rule:evenodd;stroke:none"
       id="path350" />
    <path
       d="M 30.78,38.66 C 30.78,38.748 30.852,38.82 30.94,38.82 H 42.86 C 42.948,38.82 43.02,38.748 43.02,38.66 V 38.02 C 43.02,37.932 42.948,37.86 42.86,37.86 H 30.94 C 30.852,37.86 30.78,37.932 30.78,38.02 Z"
       style="fill:none;stroke:#000000;stroke-width:2.28;stroke-linecap:butt;stroke-linejoin:miter;stroke-miterlimit:10;stroke-dasharray:none;stroke-opacity:1"
       id="path352" />
    <g
       id="g354">
      <g
         id="g356"
         clip-path="url(#clipPath360)">
        <path
           d="M 52.448,126.53 C 53.037,128.19 54.863,129.06 56.527,128.48 L 130.61,102.29 C 132.27,101.7 133.14,99.877 132.56,98.213 L 128.3,86.159 C 127.71,84.494 125.88,83.622 124.22,84.21 L 50.136,110.39 C 48.472,110.98 47.6,112.81 48.188,114.47 Z"
           style="fill:#ffffff;fill-opacity:1;fill-rule:evenodd;stroke:none"
           id="path362" />
      </g>
    </g>
    <g
       id="g364">
      <g
         id="g366"
         clip-path="url(#clipPath370)">
        <path
           d="M 52.448,126.53 C 53.037,128.19 54.863,129.06 56.527,128.48 L 130.61,102.29 C 132.27,101.7 133.14,99.877 132.56,98.213 L 128.3,86.159 C 127.71,84.494 125.88,83.622 124.22,84.21 L 50.136,110.39 C 48.472,110.98 47.6,112.81 48.188,114.47 Z"
           style="fill:none;stroke:#000000;stroke-width:2.75;stroke-linecap:butt;stroke-linejoin:miter;stroke-miterlimit:10;stroke-dasharray:none;stroke-opacity:1"
           id="path372" />
      </g>
    </g>
    <g
       id="g374">
      <g
         id="g376"
         clip-path="url(#clipPath380)">
        <path
           d="M 125.59,101.59 C 125.68,101.55 125.73,101.45 125.7,101.36 L 120.88,87.708 C 120.84,87.614 120.74,87.565 120.65,87.598 L 119.97,87.837 C 119.88,87.87 119.83,87.973 119.86,88.066 L 124.69,101.72 C 124.72,101.81 124.82,101.86 124.92,101.83 Z"
           style="fill:#000000;fill-opacity:1;fill-rule:evenodd;stroke:none"
           id="path382" />
      </g>
    </g>
    <g
       id="g384">
      <g
         id="g386"
         clip-path="url(#clipPath390)">
        <path
           d="M 125.59,101.59 C 125.68,101.55 125.73,101.45 125.7,101.36 L 120.88,87.708 C 120.84,87.614 120.74,87.565 120.65,87.598 L 119.97,87.837 C 119.88,87.87 119.83,87.973 119.86,88.066 L 124.69,101.72 C 124.72,101.81 124.82,101.86 124.92,101.83 Z"
           style="fill:none;stroke:#000000;stroke-width:2.25;stroke-linecap:butt;stroke-linejoin:miter;stroke-miterlimit:10;stroke-dasharray:none;stroke-opacity:1"
           id="path392" />
      </g>
    </g>
    <g
       id="g394">
      <g
         id="g396"
         clip-path="url(#clipPath400)">
        <path
           d="M 110.93,106.77 C 111.02,106.74 111.07,106.63 111.04,106.54 L 106.22,92.889 C 106.18,92.796 106.08,92.747 105.99,92.78 L 105.31,93.019 C 105.22,93.052 105.17,93.154 105.2,93.248 L 110.03,106.9 C 110.06,106.99 110.16,107.04 110.26,107.01 Z"
           style="fill:#000000;fill-opacity:1;fill-rule:evenodd;stroke:none"
           id="path402" />
      </g>
    </g>
    <g
       id="g404">
      <g
         id="g406"
         clip-path="url(#clipPath410)">
        <path
           d="M 110.93,106.77 C 111.02,106.74 111.07,106.63 111.04,106.54 L 106.22,92.889 C 106.18,92.796 106.08,92.747 105.99,92.78 L 105.31,93.019 C 105.22,93.052 105.17,93.154 105.2,93.248 L 110.03,106.9 C 110.06,106.99 110.16,107.04 110.26,107.01 Z"
           style="fill:none;stroke:#000000;stroke-width:2.25;stroke-linecap:butt;stroke-linejoin:miter;stroke-miterlimit:10;stroke-dasharray:none;stroke-opacity:1"
           id="path412" />
      </g>
    </g>
    <g
       id="g414">
      <g
         id="g416"
         clip-path="url(#clipPath420)">
        <path
           d="M 96.846,111.75 C 96.939,111.71 96.988,111.61 96.955,111.52 L 92.131,97.868 C 92.098,97.774 91.995,97.726 91.902,97.759 L 91.226,97.997 C 91.133,98.03 91.084,98.133 91.117,98.226 L 95.941,111.88 C 95.974,111.97 96.077,112.02 96.17,111.99 Z"
           style="fill:#000000;fill-opacity:1;fill-rule:evenodd;stroke:none"
           id="path422" />
      </g>
    </g>
    <g
       id="g424">
      <g
         id="g426"
         clip-path="url(#clipPath430)">
        <path
           d="M 96.846,111.75 C 96.939,111.71 96.988,111.61 96.955,111.52 L 92.131,97.868 C 92.098,97.774 91.995,97.726 91.902,97.759 L 91.226,97.997 C 91.133,98.03 91.084,98.133 91.117,98.226 L 95.941,111.88 C 95.974,111.97 96.077,112.02 96.17,111.99 Z"
           style="fill:none;stroke:#000000;stroke-width:2.25;stroke-linecap:butt;stroke-linejoin:miter;stroke-miterlimit:10;stroke-dasharray:none;stroke-opacity:1"
           id="path432" />
      </g>
    </g>
    <g
       id="g434">
      <g
         id="g436"
         clip-path="url(#clipPath440)">
        <path
           d="M 82.326,116.88 C 82.419,116.85 82.468,116.74 82.435,116.65 L 77.61,103 C 77.577,102.91 77.475,102.86 77.381,102.89 L 76.705,103.13 C 76.612,103.16 76.563,103.27 76.596,103.36 L 81.421,117.01 C 81.454,117.1 81.556,117.15 81.65,117.12 Z"
           style="fill:#000000;fill-opacity:1;fill-rule:evenodd;stroke:none"
           id="path442" />
      </g>
    </g>
    <g
       id="g444">
      <g
         id="g446"
         clip-path="url(#clipPath450)">
        <path
           d="M 82.326,116.88 C 82.419,116.85 82.468,116.74 82.435,116.65 L 77.61,103 C 77.577,102.91 77.475,102.86 77.381,102.89 L 76.705,103.13 C 76.612,103.16 76.563,103.27 76.596,103.36 L 81.421,117.01 C 81.454,117.1 81.556,117.15 81.65,117.12 Z"
           style="fill:none;stroke:#000000;stroke-width:2.25;stroke-linecap:butt;stroke-linejoin:miter;stroke-miterlimit:10;stroke-dasharray:none;stroke-opacity:1"
           id="path452" />
      </g>
    </g>
    <g
       id="g454">
      <g
         id="g456"
         clip-path="url(#clipPath460)">
        <path
           d="M 67.666,122.06 C 67.759,122.03 67.808,121.93 67.775,121.83 L 62.95,108.18 C 62.917,108.09 62.815,108.04 62.722,108.07 L 62.046,108.31 C 61.952,108.34 61.903,108.45 61.936,108.54 L 66.761,122.19 C 66.794,122.28 66.896,122.33 66.99,122.3 Z"
           style="fill:#000000;fill-opacity:1;fill-rule:evenodd;stroke:none"
           id="path462" />
      </g>
    </g>
    <g
       id="g464">
      <g
         id="g466"
         clip-path="url(#clipPath470)">
        <path
           d="M 67.666,122.06 C 67.759,122.03 67.808,121.93 67.775,121.83 L 62.95,108.18 C 62.917,108.09 62.815,108.04 62.722,108.07 L 62.046,108.31 C 61.952,108.34 61.903,108.45 61.936,108.54 L 66.761,122.19 C 66.794,122.28 66.896,122.33 66.99,122.3 Z"
           style="fill:none;stroke:#000000;stroke-width:2.25;stroke-linecap:butt;stroke-linejoin:miter;stroke-miterlimit:10;stroke-dasharray:none;stroke-opacity:1"
           id="path472" />
      </g>
    </g>
    <g
       id="g474">
      <g
         id="g476"
         clip-path="url(#clipPath480)">
        <path
           d="M 101.9,154.38 C 103.13,157.87 107.07,159.67 110.7,158.39 114.33,157.1 116.27,153.23 115.03,149.73 113.8,146.24 109.85,144.44 106.23,145.72 102.6,147.01 100.66,150.88 101.9,154.38 Z"
           style="fill:#ffffff;fill-opacity:1;fill-rule:evenodd;stroke:none"
           id="path482" />
      </g>
    </g>
    <g
       id="g484">
      <g
         id="g486"
         clip-path="url(#clipPath490)">
        <path
           d="M 101.9,154.38 C 103.13,157.87 107.07,159.67 110.7,158.39 114.33,157.1 116.27,153.23 115.03,149.73 113.8,146.24 109.85,144.44 106.23,145.72 102.6,147.01 100.66,150.88 101.9,154.38 Z"
           style="fill:none;stroke:#000000;stroke-width:2.5;stroke-linecap:butt;stroke-linejoin:miter;stroke-miterlimit:10;stroke-dasharray:none;stroke-opacity:1"
           id="path492" />
      </g>
    </g>
    <g
       id="g494">
      <g
         id="g496"
         clip-path="url(#clipPath500)">
        <path
           d="M 124.96,104.67 C 131.91,119.37 123.68,137.43 106.58,144.99 89.485,152.56 69.99,146.76 63.04,132.05 62.275,130.43 61.683,128.74 61.272,127 Z"
           style="fill:#d9d9d9;fill-opacity:1;fill-rule:evenodd;stroke:none"
           id="path502" />
      </g>
    </g>
    <g
       id="g504">
      <g
         id="g506"
         clip-path="url(#clipPath510)">
        <path
           d="M 124.96,104.67 C 131.91,119.37 123.68,137.43 106.58,144.99 89.485,152.56 69.99,146.76 63.04,132.05 62.275,130.43 61.683,128.74 61.272,127 Z"
           style="fill:none;stroke:#000000;stroke-width:2.25;stroke-linecap:butt;stroke-linejoin:miter;stroke-miterlimit:10;stroke-dasharray:none;stroke-opacity:1"
           id="path512" />
      </g>
    </g>
  </g>
</svg>
