<?xml version="1.0" encoding="UTF-8" standalone="no"?>
<!-- Created with Inkscape (http://www.inkscape.org/) -->

<svg
   version="1.1"
   id="svg3151"
   width="10"
   height="10"
   viewBox="0 0 63.273654 36.31801"
   sodipodi:docname="clouddeploymentmodel_palette.svg"
   inkscape:version="1.2.2 (732a01da63, 2022-12-09)"
   xmlns:inkscape="http://www.inkscape.org/namespaces/inkscape"
   xmlns:sodipodi="http://sodipodi.sourceforge.net/DTD/sodipodi-0.dtd"
   xmlns="http://www.w3.org/2000/svg"
   xmlns:svg="http://www.w3.org/2000/svg">
  <defs
     id="defs3155">
    <clipPath
       clipPathUnits="userSpaceOnUse"
       id="clipPath3167">
      <path
         d="M 0,2.2888e-5 H 113.28 V 113.28002 H 0 Z"
         clip-rule="evenodd"
         id="path3165" />
    </clipPath>
    <clipPath
       clipPathUnits="userSpaceOnUse"
       id="clipPath3177">
      <path
         d="M 31.92,34.8 H 85.92 V 88.8 H 31.92 Z"
         clip-rule="evenodd"
         id="path3175" />
    </clipPath>
    <clipPath
       clipPathUnits="userSpaceOnUse"
       id="clipPath3187">
      <path
         d="M 0,0 H 23.291 V 23.286 H 0 Z"
         id="path3185" />
    </clipPath>
  </defs>
  <sodipodi:namedview
     id="namedview3153"
     pagecolor="#ffffff"
     bordercolor="#000000"
     borderopacity="0.25"
     inkscape:showpageshadow="2"
     inkscape:pageopacity="0.0"
     inkscape:pagecheckerboard="0"
     inkscape:deskcolor="#d1d1d1"
     showgrid="false"
     inkscape:zoom="1.5625"
     inkscape:cx="29.119999"
     inkscape:cy="25.279999"
     inkscape:window-width="1920"
     inkscape:window-height="1111"
     inkscape:window-x="-9"
     inkscape:window-y="-9"
     inkscape:window-maximized="1"
     inkscape:current-layer="g3159">
    <inkscape:page
       x="0"
       y="0"
       id="page3157"
       width="63.273655"
       height="36.318008" />
  </sodipodi:namedview>
  <g
     id="g3159"
     inkscape:groupmode="layer"
     inkscape:label="Page 1"
     transform="matrix(1.3333333,0,0,-1.3333333,-46.964172,100.47599)">
    <g
       id="g3171">
      <g
         id="g3173"
         clip-path="url(#clipPath3177)">
        <g
           id="g3179"
           transform="matrix(0.75,0,-4.7e-8,0.75,31.92,34.8)">
          <g
             id="g3181"
             transform="scale(3.0913,3.092)">
            <g
               id="g3183"
               clip-path="url(#clipPath3187)">
              <path
                 d="M 18.91,11.648 C 18.838,11.648 18.742,11.648 18.67,11.648 18.67,11.648 18.67,11.648 18.67,11.648 18.67,12.824 18.094,13.904 17.158,14.576 16.198,15.248 14.974,15.416 13.87,15.032 12.958,16.808 10.942,17.72 9.0218,17.264 7.1018,16.808 5.7098,15.08 5.7098,13.088 5.7098,13.088 5.7098,13.064 5.7098,13.04 4.3898,13.256 3.0698,12.704 2.2538,11.648 1.4618,10.568 1.3178,9.1519 1.8698,7.9519 2.4458,6.7519 3.6458,5.9599 4.9658,5.8879 V 5.8639 H 18.886 C 20.47,5.8639 21.766,7.1599 21.766,8.7439 21.766,10.328 20.494,11.648 18.91,11.648 Z"
                 style="fill:#e7e6e6;fill-opacity:1;fill-rule:nonzero;stroke:none"
                 id="path3189" />
              <path
                 d="M 18.903,11.526 H 18.915 18.563 L 18.525,12.073 18.527,12.06 18.452,12.488 18.455,12.472 18.328,12.877 18.333,12.864 18.16,13.246 18.171,13.228 17.691,13.933 17.709,13.912 17.079,14.482 17.097,14.469 16.722,14.701 16.735,14.694 16.345,14.874 16.359,14.869 15.954,14.996 15.967,14.993 15.547,15.075 15.559,15.074 15.132,15.111 H 15.147 L 14.719,15.096 14.734,15.097 14.314,15.03 14.328,15.033 13.821,14.888 13.383,15.587 13.396,15.57 12.908,16.11 12.923,16.097 12.368,16.539 12.384,16.529 11.769,16.874 11.786,16.866 11.118,17.113 11.138,17.108 10.441,17.235 10.46,17.233 9.74,17.248 9.7598,17.249 9.0398,17.144 9.0609,17.149 8.3709,16.917 8.3887,16.925 7.7512,16.587 7.7677,16.598 7.2052,16.17 7.2206,16.184 6.7406,15.667 6.7519,15.681 6.3544,15.096 6.3646,15.114 6.0721,14.462 6.0784,14.479 5.8909,13.789 5.8947,13.811 5.8347,13.076 5.8351,13.086 V 12.902 L 5.2091,12.959 5.2255,12.958 4.738,12.936 4.755,12.938 4.2825,12.848 4.2969,12.851 3.8319,12.701 3.8472,12.708 3.4122,12.498 3.4266,12.506 3.0216,12.236 3.0332,12.245 2.6657,11.93 2.6777,11.941 2.3477,11.566 2.3585,11.581 2.0885,11.161 2.0967,11.176 1.8942,10.733 1.8998,10.748 1.7573,10.283 1.7609,10.298 1.6784,9.8179 1.6801,9.8345 1.6651,9.3545 1.6646,9.3695 1.7096,8.8895 1.7069,8.9061 1.8194,8.4336 1.8149,8.4481 1.9874,7.9906 1.979,8.0085 2.2265,7.581 2.2186,7.5928 2.5111,7.2028 2.4999,7.2157 2.8449,6.8707 2.833,6.8812 3.2155,6.5887 3.2021,6.5976 3.6221,6.3576 3.6087,6.3642 4.0587,6.1767 4.0421,6.1822 4.5146,6.0622 4.4997,6.065 5.0926,5.992 V 5.8633 L 4.9725,5.9834 H 18.892 L 18.88,5.9828 19.458,6.0427 19.435,6.0382 19.975,6.2031 19.952,6.1934 20.439,6.4634 20.422,6.4517 20.85,6.7967 20.832,6.7797 21.185,7.2072 21.172,7.1883 21.442,7.6833 21.433,7.6609 21.598,8.2009 21.593,8.1782 21.653,8.7557 V 8.7309 L 21.593,9.3084 21.598,9.2857 21.433,9.8257 21.441,9.8045 21.179,10.299 21.191,10.281 20.846,10.716 20.864,10.698 20.436,11.051 20.454,11.039 19.974,11.309 19.996,11.299 19.456,11.471 19.48,11.466 Z M 19.517,11.704 20.081,11.524 20.581,11.243 21.026,10.875 21.386,10.422 21.659,9.9069 21.831,9.3448 21.893,8.7433 21.831,8.1418 21.659,7.579 21.377,7.0632 21.01,6.6175 20.565,6.2582 20.057,5.9771 19.494,5.805 18.899,5.7432 H 4.8524 V 5.8858 L 4.9578,5.7666 4.4628,5.8275 3.9744,5.9515 3.5094,6.1453 3.0759,6.393 2.6807,6.6952 2.324,7.0519 2.0221,7.4544 1.7661,7.8966 1.5874,8.3705 1.4712,8.8587 1.4247,9.3545 1.4402,9.8504 1.5254,10.346 1.6725,10.826 1.8818,11.284 2.1613,11.718 2.5029,12.106 2.8823,12.432 3.3003,12.71 3.7502,12.928 4.2302,13.082 4.7184,13.175 5.2227,13.199 5.7259,13.153 5.5949,13.033 V 13.091 L 5.6562,13.842 5.849,14.551 6.1497,15.222 6.5583,15.823 7.0515,16.355 7.6301,16.795 8.2849,17.141 8.9944,17.381 9.735,17.489 10.475,17.473 11.192,17.342 11.878,17.088 12.51,16.733 13.08,16.279 13.581,15.723 13.977,15.092 13.842,15.144 14.269,15.266 14.703,15.336 15.146,15.351 15.587,15.312 16.02,15.227 16.438,15.096 16.842,14.909 17.233,14.667 17.881,14.08 18.375,13.355 18.555,12.956 18.687,12.537 18.764,12.095 18.795,11.654 18.675,11.766 H 18.921 Z"
                 style="fill:#000000;fill-opacity:1;fill-rule:nonzero;stroke:none"
                 id="path3191" />
            </g>
          </g>
        </g>
      </g>
    </g>
  </g>
</svg>
