<svg width="514" height="437" xmlns="http://www.w3.org/2000/svg" xmlns:xlink="http://www.w3.org/1999/xlink" overflow="hidden"><defs><clipPath id="clip0"><rect x="476" y="157" width="514" height="437"/></clipPath></defs><g clip-path="url(#clip0)" transform="translate(-476 -157)"><path d="M477.5 481.834C477.5 469.499 487.499 459.5 499.834 459.5L967.166 459.5C979.501 459.5 989.5 469.499 989.5 481.834L989.5 571.166C989.5 583.501 979.501 593.5 967.166 593.5L499.834 593.5C487.499 593.5 477.5 583.501 477.5 571.166Z" stroke="#000000" stroke-width="1.33333" stroke-miterlimit="8" fill-rule="evenodd"/><path d="M686 480 686 312.935 639 312.935 733 165 827 312.935 780 312.935 780 480Z" stroke="#FFFFFF" stroke-width="8" stroke-miterlimit="8" fill-rule="evenodd"/><rect x="934.5" y="529.5" width="30" height="31" stroke="#FFFFFF" stroke-width="1.33333" stroke-miterlimit="8" fill="#FFFFFF"/><rect x="889.5" y="529.5" width="30" height="31" stroke="#FFFFFF" stroke-width="1.33333" stroke-miterlimit="8" fill="#FFFFFF"/></g></svg>