<svg width="147" height="162" xmlns="http://www.w3.org/2000/svg" xmlns:xlink="http://www.w3.org/1999/xlink" overflow="hidden"><defs><clipPath id="clip0"><rect x="0" y="0" width="147" height="162"/></clipPath><linearGradient x1="74.0001" y1="2.49748" x2="74.0001" y2="160.335" gradientUnits="userSpaceOnUse" spreadMethod="reflect" id="fill1"><stop offset="0" stop-color="#FFFFFF"/><stop offset="0.027027" stop-color="#FEFEFE"/><stop offset="0.0540541" stop-color="#FEFEFE"/><stop offset="0.0810811" stop-color="#FEFEFE"/><stop offset="0.108108" stop-color="#FEFEFE"/><stop offset="0.135135" stop-color="#FEFEFE"/><stop offset="0.162162" stop-color="#FDFDFD"/><stop offset="0.189189" stop-color="#FDFDFD"/><stop offset="0.216216" stop-color="#FCFCFC"/><stop offset="0.243243" stop-color="#FCFCFC"/><stop offset="0.27027" stop-color="#FBFBFB"/><stop offset="0.297297" stop-color="#FBFBFB"/><stop offset="0.324324" stop-color="#FAFAFA"/><stop offset="0.351351" stop-color="#F9F9F9"/><stop offset="0.378378" stop-color="#F8F8F8"/><stop offset="0.405405" stop-color="#F8F8F8"/><stop offset="0.432432" stop-color="#F7F7F7"/><stop offset="0.459459" stop-color="#F6F6F6"/><stop offset="0.486486" stop-color="#F5F5F5"/><stop offset="0.513514" stop-color="#F4F4F4"/><stop offset="0.540541" stop-color="#F3F3F3"/><stop offset="0.567568" stop-color="#F1F1F1"/><stop offset="0.594595" stop-color="#F0F0F0"/><stop offset="0.621622" stop-color="#EFEFEF"/><stop offset="0.648649" stop-color="#EEEEEE"/><stop offset="0.675676" stop-color="#ECECEC"/><stop offset="0.702703" stop-color="#EBEBEB"/><stop offset="0.72973" stop-color="#E9E9E9"/><stop offset="0.756757" stop-color="#E8E8E8"/><stop offset="0.783784" stop-color="#E6E6E6"/><stop offset="0.810811" stop-color="#E5E5E5"/><stop offset="0.837838" stop-color="#E3E3E3"/><stop offset="0.864865" stop-color="#E2E2E2"/><stop offset="0.891892" stop-color="#E0E0E0"/><stop offset="0.918919" stop-color="#DEDEDE"/><stop offset="0.945946" stop-color="#DCDCDC"/><stop offset="0.972973" stop-color="#DADADA"/><stop offset="1" stop-color="#D9D9D9"/></linearGradient><linearGradient x1="74.0001" y1="2.49748" x2="74.0001" y2="160.335" gradientUnits="userSpaceOnUse" spreadMethod="reflect" id="fill2"><stop offset="0" stop-color="#CDCDCD"/><stop offset="0.0333333" stop-color="#CCCCCC"/><stop offset="0.0666667" stop-color="#CCCCCC"/><stop offset="0.1" stop-color="#CCCCCC"/><stop offset="0.133333" stop-color="#CCCCCC"/><stop offset="0.166667" stop-color="#CBCBCB"/><stop offset="0.2" stop-color="#CBCBCB"/><stop offset="0.233333" stop-color="#CACACA"/><stop offset="0.266667" stop-color="#CACACA"/><stop offset="0.3" stop-color="#C9C9C9"/><stop offset="0.333333" stop-color="#C9C9C9"/><stop offset="0.366667" stop-color="#C8C8C8"/><stop offset="0.4" stop-color="#C7C7C7"/><stop offset="0.433333" stop-color="#C6C6C6"/><stop offset="0.466667" stop-color="#C5C5C5"/><stop offset="0.5" stop-color="#C4C4C4"/><stop offset="0.533333" stop-color="#C3C3C3"/><stop offset="0.566667" stop-color="#C2C2C2"/><stop offset="0.6" stop-color="#C1C1C1"/><stop offset="0.633333" stop-color="#BFBFBF"/><stop offset="0.666667" stop-color="#BEBEBE"/><stop offset="0.7" stop-color="#BDBDBD"/><stop offset="0.733333" stop-color="#BBBBBB"/><stop offset="0.766667" stop-color="#BABABA"/><stop offset="0.8" stop-color="#B8B8B8"/><stop offset="0.833333" stop-color="#B6B6B6"/><stop offset="0.866667" stop-color="#B5B5B5"/><stop offset="0.9" stop-color="#B3B3B3"/><stop offset="0.933333" stop-color="#B1B1B1"/><stop offset="0.966667" stop-color="#AFAFAF"/><stop offset="1" stop-color="#AEAEAE"/></linearGradient></defs><g clip-path="url(#clip0)"><rect x="0" y="0" width="147" height="161.834" fill="#FFFFFF"/><path d="M2.50005 2.49748 145.5 2.49748 145.5 147.041 132.193 160.335 2.50005 160.335Z" fill="url(#fill1)" fill-rule="evenodd"/><path d="M132.193 160.335 134.854 149.7 145.5 147.041Z" fill="url(#fill2)" fill-rule="evenodd"/><path d="M132.193 160.335 134.854 149.7 145.5 147.041 132.193 160.335 2.50005 160.335 2.50005 2.49748 145.5 2.49748 145.5 147.041" stroke="#404040" stroke-miterlimit="8" fill="none" fill-rule="evenodd"/><path d="M24.5001 105.891C24.5001 101.753 27.858 98.3988 32.0002 98.3988L79.9999 98.3988C84.1421 98.3988 87.5001 101.753 87.5001 105.891L87.5001 135.86C87.5001 139.998 84.1421 143.352 79.9999 143.352L32.0002 143.352C27.858 143.352 24.5001 139.998 24.5001 135.86Z" stroke="#404040" stroke-miterlimit="8" fill="#FFFFFF" fill-rule="evenodd"/><path d="M24.5001 26.9724C24.5001 22.8345 27.858 19.48 32.0002 19.48L79.9999 19.48C84.1421 19.48 87.5001 22.8345 87.5001 26.9724L87.5001 56.9413C87.5001 61.0792 84.1421 64.4337 79.9999 64.4337L32.0002 64.4337C27.858 64.4337 24.5001 61.0792 24.5001 56.9413Z" stroke="#404040" stroke-miterlimit="8" fill="#FFFFFF" fill-rule="evenodd"/><path d="M56 63.9342 56.0001 91.2948" stroke="#404040" stroke-width="3.66667" stroke-miterlimit="8" fill="none" fill-rule="evenodd"/><path d="M0 17.9815 12.9866 0 25.9733 17.9815Z" fill="#404040" fill-rule="evenodd" transform="matrix(1.00103 0 0 -1 43 97.8993)"/><text fill="#404040" font-family="Calibri,Calibri_MSFontService,sans-serif" font-weight="700" font-size="64" transform="matrix(1 0 0 0.998972 94.6548 101)">D</text></g></svg>