<svg width="184" height="178" xmlns="http://www.w3.org/2000/svg" xmlns:xlink="http://www.w3.org/1999/xlink" overflow="hidden"><defs><clipPath id="clip0"><rect x="0" y="0" width="184" height="178"/></clipPath></defs><g clip-path="url(#clip0)"><rect x="0" y="0" width="184" height="178.334" fill="#FFFFFF"/><path d="M5.50005 66.6248 168.297 66.6249" stroke="#000000" stroke-width="0.533333" stroke-miterlimit="8" fill="none" fill-rule="evenodd"/><path d="M5.50005 109.705 168.297 109.706" stroke="#000000" stroke-width="0.533333" stroke-miterlimit="8" fill="none" fill-rule="evenodd"/><path d="M5.50005 155.792 168.297 155.792" stroke="#000000" stroke-width="0.533333" stroke-miterlimit="8" fill="none" fill-rule="evenodd"/><path d="M0 0 0.00115486 105.686" stroke="#000000" stroke-width="0.533333" stroke-miterlimit="8" fill="none" fill-rule="evenodd" transform="matrix(-1 0 0 1.00188 48.5012 67.6267)"/><path d="M30.5001 155.792C30.5001 146.385 38.3351 138.76 48.0001 138.76 57.665 138.76 65.5001 146.385 65.5001 155.792 65.5001 165.198 57.665 172.824 48.0001 172.824 38.3351 172.824 30.5001 165.198 30.5001 155.792Z" stroke="#000000" stroke-width="0.533333" stroke-miterlimit="8" fill="none" fill-rule="evenodd"/><path d="M37 66.1238C37 60.0373 42.1487 55.1032 48.5 55.1032 54.8513 55.1032 60 60.0373 60 66.1238 60 72.2104 54.8513 77.1445 48.5 77.1445 42.1487 77.1445 37 72.2104 37 66.1238Z" fill-rule="evenodd"/><path d="M113.5 109.705C113.5 100.299 121.111 92.6736 130.5 92.6736 139.889 92.6736 147.5 100.299 147.5 109.705 147.5 119.112 139.889 126.737 130.5 126.737 121.111 126.737 113.5 119.112 113.5 109.705Z" stroke="#000000" stroke-width="0.533333" stroke-miterlimit="8" fill="none" fill-rule="evenodd"/><path d="M118 155.291C118 149.204 123.149 144.27 129.5 144.27 135.851 144.27 141 149.204 141 155.291 141 161.377 135.851 166.311 129.5 166.311 123.149 166.311 118 161.377 118 155.291Z" fill-rule="evenodd"/><path d="M0 0 0.0901837 61.4767" stroke="#000000" stroke-width="0.533333" stroke-miterlimit="8" fill="none" fill-rule="evenodd" transform="matrix(-1 0 0 1.00188 130.59 92.6736)"/><g><g><g><path d="M119.542 73.9271C114.351 73.9271 110.104 69.6802 110.104 64.4896 110.104 59.299 114.351 55.0521 119.542 55.0521 124.732 55.0521 128.979 59.299 128.979 64.4896 128.979 69.6802 124.732 73.9271 119.542 73.9271ZM82.8927 40.2667C78.0167 38.3792 75.8146 32.874 77.7021 27.9979 79.5896 23.1219 85.0948 20.9198 89.9708 22.8073 94.8469 24.6948 97.049 30.2 95.1615 35.076 93.274 39.7948 87.7687 42.1542 82.8927 40.2667ZM78.6458 77.0729C75.9719 77.0729 73.9271 75.0281 73.9271 72.3542 73.9271 69.6802 75.9719 67.6354 78.6458 67.6354 81.3198 67.6354 83.3646 69.6802 83.3646 72.3542 83.3646 75.0281 81.3198 77.0729 78.6458 77.0729ZM119.542 45.6146C115.452 45.6146 111.677 46.8729 108.531 49.075L93.274 57.5687 101.768 42.3115C102.554 41.0531 103.341 39.7948 103.97 38.3792 107.902 28.7844 103.183 17.774 93.5885 13.8417 83.9938 9.90938 72.9833 14.6281 69.051 24.2229 65.1188 33.8177 69.8375 44.8281 79.4323 48.7604 81.3198 49.5469 83.2073 49.8615 85.0948 50.0187L70.9385 64.175 67.4781 71.8823 22.0208 97.5208 12.5833 113.25 58.1979 92.8021 37.75 138.417 53.4792 128.979 78.8031 83.6792 86.5104 80.2188 100.667 66.0625C101.453 75.8146 109.632 83.3646 119.542 83.3646 129.923 83.3646 138.417 74.8708 138.417 64.4896 138.417 54.1083 129.923 45.6146 119.542 45.6146Z" transform="matrix(1 0 0 1.00188 42 -10.0188)"/></g></g></g></g></svg>