<svg width="228" height="149" xmlns="http://www.w3.org/2000/svg" xmlns:xlink="http://www.w3.org/1999/xlink" overflow="hidden"><defs><clipPath id="clip0"><rect x="0" y="0" width="228" height="149"/></clipPath><clipPath id="clip1"><rect x="142" y="33" width="81" height="80"/></clipPath><clipPath id="clip2"><rect x="142" y="33" width="81" height="80"/></clipPath></defs><g clip-path="url(#clip0)"><rect x="0" y="0" width="228" height="149.392" fill="#FFFFFF"/><g clip-path="url(#clip1)"><g clip-path="url(#clip2)"></g></g><path d="M0 0C17.3517 0 34.7033 9.35775 34.7033 18.7155 34.7033 28.0732 52.055 37.4309 69.4066 37.4309" stroke="#000000" stroke-width="8.33943" stroke-miterlimit="8" fill="none" fill-rule="evenodd" transform="matrix(1 0 0 -1.00263 79 111.724)"/><path d="M8.6471 3.00789 2.99999 3.00789 2.99999 71.187 66.9999 71.187 66.9999 65.1713 8.6471 65.1713Z" fill-rule="evenodd"/><path d="M17 24.0632 29.0001 24.0632 29.0001 57.1502 17 57.1502Z" fill-rule="evenodd"/><path d="M34 40.1053 46.0002 40.1053 46.0002 57.1501 34 57.1501Z" fill-rule="evenodd"/><g><g><g><path d="M33.25 20.5625C31.8063 20.5625 30.625 19.3813 30.625 17.9375 30.625 16.4938 31.8063 15.3125 33.25 15.3125 34.6938 15.3125 35.875 16.4938 35.875 17.9375 35.875 19.3813 34.6938 20.5625 33.25 20.5625ZM23.0563 11.2C21.7 10.675 21.0875 9.14376 21.6125 7.78751 22.1375 6.43126 23.6688 5.81876 25.025 6.34376 26.3813 6.86876 26.9938 8.40001 26.4688 9.75626 25.9438 11.0688 24.4125 11.725 23.0563 11.2ZM21.875 21.4375C21.1313 21.4375 20.5625 20.8688 20.5625 20.125 20.5625 19.3813 21.1313 18.8125 21.875 18.8125 22.6188 18.8125 23.1875 19.3813 23.1875 20.125 23.1875 20.8688 22.6188 21.4375 21.875 21.4375ZM33.25 12.6875C32.1125 12.6875 31.0625 13.0375 30.1875 13.65L25.9438 16.0125 28.3063 11.7688C28.525 11.4188 28.7438 11.0688 28.9188 10.675 30.0125 8.00626 28.7 4.94376 26.0313 3.85 23.3625 2.75625 20.3 4.06875 19.2063 6.73751 18.1125 9.40626 19.425 12.4688 22.0938 13.5625 22.6188 13.7813 23.1438 13.8688 23.6688 13.9125L19.7313 17.85 18.7688 19.9938 6.12501 27.125 3.5 31.5 16.1875 25.8125 10.5 38.5 14.875 35.875 21.9188 23.275 24.0625 22.3125 28 18.375C28.2188 21.0875 30.4938 23.1875 33.25 23.1875 36.1375 23.1875 38.5 20.825 38.5 17.9375 38.5 15.05 36.1375 12.6875 33.25 12.6875Z" transform="matrix(1 0 0 1.00263 28 -1.00263)"/></g></g></g><path d="M8.6471 77.2028 2.99999 77.2028 2.99999 146.384 66.9999 146.384 66.9999 140.28 8.6471 140.28Z" fill-rule="evenodd"/><path d="M17 85.2238 29.0001 85.2238 29.0001 132.348 17 132.348Z" fill-rule="evenodd"/><path d="M34 122.321 46.0002 122.321 46.0002 132.348 34 132.348Z" fill-rule="evenodd"/><g><g><g><path d="M33.25 20.5625C31.8063 20.5625 30.625 19.3813 30.625 17.9375 30.625 16.4938 31.8063 15.3125 33.25 15.3125 34.6938 15.3125 35.875 16.4938 35.875 17.9375 35.875 19.3813 34.6938 20.5625 33.25 20.5625ZM23.0563 11.2C21.7 10.675 21.0875 9.14376 21.6125 7.78751 22.1375 6.43126 23.6688 5.81876 25.025 6.34376 26.3813 6.86876 26.9938 8.40001 26.4688 9.75626 25.9438 11.0688 24.4125 11.725 23.0563 11.2ZM21.875 21.4375C21.1313 21.4375 20.5625 20.8688 20.5625 20.125 20.5625 19.3813 21.1313 18.8125 21.875 18.8125 22.6188 18.8125 23.1875 19.3813 23.1875 20.125 23.1875 20.8688 22.6188 21.4375 21.875 21.4375ZM33.25 12.6875C32.1125 12.6875 31.0625 13.0375 30.1875 13.65L25.9438 16.0125 28.3063 11.7688C28.525 11.4188 28.7438 11.0688 28.9188 10.675 30.0125 8.00626 28.7 4.94376 26.0313 3.85 23.3625 2.75625 20.3 4.06875 19.2063 6.73751 18.1125 9.40626 19.425 12.4688 22.0938 13.5625 22.6188 13.7813 23.1438 13.8688 23.6688 13.9125L19.7313 17.85 18.7688 19.9938 6.12501 27.125 3.5 31.5 16.1875 25.8125 10.5 38.5 14.875 35.875 21.9188 23.275 24.0625 22.3125 28 18.375C28.2188 21.0875 30.4938 23.1875 33.25 23.1875 36.1375 23.1875 38.5 20.825 38.5 17.9375 38.5 15.05 36.1375 12.6875 33.25 12.6875Z" transform="matrix(1 0 0 1.00263 28 74.1949)"/></g></g></g><path d="M77 35.0921C94.8217 35.0921 112.643 44.9693 112.643 54.8464 112.643 64.7235 130.465 74.6006 148.287 74.6006" stroke="#000000" stroke-width="8.33943" stroke-miterlimit="8" fill="none" fill-rule="evenodd"/><g><g><g><path d="M16.5017 11.5512 11.5512 11.5512 11.5512 67.6569 67.6569 67.6569 67.6569 62.7064 16.5017 62.7064Z" transform="matrix(1.01 0 0 1 158 32.0843)"/><path d="M21.4522 28.8779 30.5281 28.8779 30.5281 57.7559 21.4522 57.7559Z" transform="matrix(1.01 0 0 1 158 32.0843)"/><path d="M33.8284 11.5512 42.9044 11.5512 42.9044 57.7559 33.8284 57.7559Z" transform="matrix(1.01 0 0 1 158 32.0843)"/><path d="M46.2047 28.8779 55.2806 28.8779 55.2806 57.7559 46.2047 57.7559Z" transform="matrix(1.01 0 0 1 158 32.0843)"/><path d="M58.581 42.9044 67.6569 42.9044 67.6569 57.7559 58.581 57.7559Z" transform="matrix(1.01 0 0 1 158 32.0843)"/></g></g></g><path d="M148.5 63.6671 164.5 74.6961 148.5 85.7251Z" stroke="#000000" stroke-width="1.33782" stroke-miterlimit="8" fill-rule="evenodd"/></g></svg>