<?xml version="1.0" encoding="UTF-8" standalone="no"?>
<svg
   xmlns:dc="http://purl.org/dc/elements/1.1/"
   xmlns:cc="http://creativecommons.org/ns#"
   xmlns:rdf="http://www.w3.org/1999/02/22-rdf-syntax-ns#"
   xmlns:svg="http://www.w3.org/2000/svg"
   xmlns="http://www.w3.org/2000/svg"
   xmlns:sodipodi="http://sodipodi.sourceforge.net/DTD/sodipodi-0.dtd"
   xmlns:inkscape="http://www.inkscape.org/namespaces/inkscape"
   width="66.753899"
   height="52.007248"
   overflow="hidden"
   version="1.1"
   id="svg3023"
   sodipodi:docname="DataPreparationTask_Icon.svg"
   inkscape:version="1.0.2-2 (e86c870879, 2021-01-15)">
  <metadata
     id="metadata3027">
    <rdf:RDF>
      <cc:Work
         rdf:about="">
        <dc:format>image/svg+xml</dc:format>
        <dc:type
           rdf:resource="http://purl.org/dc/dcmitype/StillImage" />
        <dc:title></dc:title>
      </cc:Work>
    </rdf:RDF>
  </metadata>
  <sodipodi:namedview
     pagecolor="#ffffff"
     bordercolor="#666666"
     borderopacity="1"
     objecttolerance="10"
     gridtolerance="10"
     guidetolerance="10"
     inkscape:pageopacity="0"
     inkscape:pageshadow="2"
     inkscape:window-width="1920"
     inkscape:window-height="991"
     id="namedview3025"
     showgrid="false"
     fit-margin-top="0"
     fit-margin-left="0"
     fit-margin-right="0"
     fit-margin-bottom="0"
     showguides="false"
     inkscape:zoom="3.6953642"
     inkscape:cx="-36.869687"
     inkscape:cy="39.156018"
     inkscape:window-x="-9"
     inkscape:window-y="-9"
     inkscape:window-maximized="1"
     inkscape:current-layer="svg3023" />
  <defs
     id="defs2985" />
  <rect
     x="-76.5"
     y="-10.992991"
     width="151"
     height="95.999687"
     fill="#ffffff"
     fill-opacity="0"
     id="rect2987"
     style="stroke-width:1.00055" />
  <path
     id="path3173"
     style="color:#000000;font-style:normal;font-variant:normal;font-weight:normal;font-stretch:normal;font-size:medium;line-height:normal;font-family:sans-serif;font-variant-ligatures:normal;font-variant-position:normal;font-variant-caps:normal;font-variant-numeric:normal;font-variant-alternates:normal;font-variant-east-asian:normal;font-feature-settings:normal;font-variation-settings:normal;text-indent:0;text-align:start;text-decoration:none;text-decoration-line:none;text-decoration-style:solid;text-decoration-color:#000000;letter-spacing:normal;word-spacing:normal;text-transform:none;writing-mode:lr-tb;direction:ltr;text-orientation:mixed;dominant-baseline:auto;baseline-shift:baseline;text-anchor:start;white-space:normal;shape-padding:0;shape-margin:0;inline-size:0;clip-rule:nonzero;display:inline;overflow:visible;visibility:visible;isolation:auto;mix-blend-mode:normal;color-interpolation:sRGB;color-interpolation-filters:linearRGB;solid-color:#000000;solid-opacity:1;vector-effect:none;fill:#404040;fill-opacity:1;fill-rule:evenodd;stroke:none;stroke-linecap:butt;stroke-linejoin:miter;stroke-miterlimit:8;stroke-dasharray:3.0018, 1.0006;stroke-dashoffset:0;stroke-opacity:1;color-rendering:auto;image-rendering:auto;shape-rendering:auto;text-rendering:auto;enable-background:accumulate;stop-color:#000000"
     d="M 7.0351562 0.005859375 C 6.7562142 0.0069888 6.4662492 0.031294465 6.1699219 0.10742188 L 6.4179688 1.0761719 C 6.7998857 0.97805619 7.2519151 1.0048792 7.7578125 1.0449219 C 8.2637099 1.0849646 8.8236291 1.1384474 9.4101562 0.9921875 L 9.1679688 0.021484375 C 8.7938544 0.11477572 8.3437778 0.08707146 7.8359375 0.046875 C 7.5820174 0.02677677 7.3140983 0.00472995 7.0351562 0.005859375 z M 10.289062 0.005859375 L 10.289062 1.0078125 L 13.291016 1.0078125 L 13.291016 0.005859375 L 10.289062 0.005859375 z M 14.291016 0.005859375 L 14.291016 1.0078125 L 17.292969 1.0078125 L 17.292969 0.005859375 L 14.291016 0.005859375 z M 18.291016 0.005859375 L 18.298828 1.0078125 C 18.847065 1.0034049 19.33947 0.986413 19.734375 1.1171875 L 19.738281 1.1191406 L 19.744141 1.1191406 C 20.111819 1.2337123 20.454104 1.4364982 20.728516 1.703125 L 21.425781 0.98632812 C 21.037312 0.60887941 20.562828 0.32955816 20.048828 0.16796875 C 20.048828 0.16796875 20.046875 0.16796875 20.046875 0.16796875 C 19.415288 -0.04063968 18.805636 0.001722005 18.291016 0.005859375 z M 5.109375 0.5625 L 5.0429688 0.60546875 L 4.9121094 0.69921875 L 4.9082031 0.70117188 C 4.0258082 1.3527068 3.494845 2.410687 3.5019531 3.5097656 L 3.5 3.5097656 L 3.5 3.515625 L 3.5 4.2773438 L 4.5 4.2773438 L 4.5 3.5097656 L 4.0996094 3.5097656 L 4.5 3.5058594 C 4.4936423 2.7432865 4.883293 1.9676953 5.4960938 1.5117188 L 5.4980469 1.5097656 L 5.6035156 1.4355469 L 5.6484375 1.4042969 L 5.109375 0.5625 z M 22.109375 1.9042969 L 21.232422 2.3847656 C 21.614037 3.0816531 21.46747 4.0695458 21.5 5.109375 L 22.5 5.078125 C 22.472367 4.1948391 22.708463 2.9983252 22.109375 1.9042969 z M 7.5 5.0058594 L 7.5 5.5078125 L 7.5 10.005859 L 4.5 10.005859 L 4.5 9.28125 L 3.5 9.28125 L 3.5 10.005859 L 0 10.005859 L 0 11.007812 L 3.5 11.007812 L 3.5 12.283203 L 4.5 12.283203 L 4.5 11.007812 L 7.5 11.007812 L 7.5 16.007812 L 19.5 16.007812 L 19.5 11.007812 L 21.5 11.007812 L 21.5 13.099609 L 22.5 13.099609 L 22.5 11.007812 L 27.550781 11.007812 C 27.784019 13.087992 29.419803 14.723796 31.5 14.957031 L 31.5 25.005859 L 22.5 25.005859 L 22.5 22.103516 L 21.5 22.103516 L 21.5 25.005859 L 0 25.005859 L 0 26.007812 L 3.5 26.007812 L 3.5 28.292969 L 4.5 28.292969 L 4.5 26.007812 L 31.5 26.007812 L 31.5 36.085938 C 28.441508 36.526756 26.021464 38.947385 25.580078 42.005859 L 18.5 42.005859 L 18.5 37.005859 L 7.5 37.005859 L 7.5 37.507812 L 7.5 42.005859 L 4.5 42.005859 L 4.5 41.300781 L 3.5 41.300781 L 3.5 42.005859 L 0 42.005859 L 0 43.007812 L 3.5 43.007812 L 3.5 44.302734 L 4.5 44.302734 L 4.5 43.007812 L 7.5 43.007812 L 7.5 48.007812 L 18.5 48.007812 L 18.5 43.007812 L 21.5 43.007812 L 21.5 45.117188 L 22.5 45.117188 L 22.5 43.007812 L 25.5 43.007812 C 25.5 46.868013 28.639754 50.007812 32.5 50.007812 C 36.360264 50.007812 39.5 46.868009 39.5 43.007812 L 48.660156 43.007812 C 49.162538 44.729353 50.906111 46.007812 53 46.007812 C 55.093889 46.007813 56.837462 44.729353 57.339844 43.007812 L 66.753906 43.007812 L 66.753906 42.007812 L 57.5 42.007812 C 57.5 40.268658 56.243926 38.802922 54.5 38.251953 L 54.5 32.927734 C 57.886745 32.439891 60.5 29.527544 60.5 26.007812 L 66.753906 26.007812 L 66.753906 25.007812 L 60.419922 25.007812 C 59.932087 21.620813 57.019789 19.005859 53.5 19.005859 C 49.980893 19.005859 47.068742 21.619788 46.580078 25.005859 L 32.5 25.005859 L 32.5 14.957031 C 34.580197 14.723796 36.215981 13.087992 36.449219 11.007812 L 66.753906 11.007812 L 66.753906 10.007812 L 36.449219 10.007812 C 36.197804 7.7607003 34.314251 6.0078125 32 6.0078125 C 29.68641 6.0078125 27.80307 7.7596752 27.550781 10.005859 L 19.5 10.005859 L 19.5 5.0058594 L 7.5 5.0058594 z M 3.5 5.2792969 L 3.5 8.28125 L 4.5 8.28125 L 4.5 5.2792969 L 3.5 5.2792969 z M 21.5 6.09375 L 21.5 9.0957031 L 22.5 9.0957031 L 22.5 6.09375 L 21.5 6.09375 z M 3.5 13.283203 L 3.5 16.285156 L 4.5 16.285156 L 4.5 13.283203 L 3.5 13.283203 z M 21.5 14.099609 L 21.5 17.101562 L 22.5 17.101562 L 22.5 14.099609 L 21.5 14.099609 z M 3.5 17.285156 L 3.5 20.287109 L 4.5 20.287109 L 4.5 17.285156 L 3.5 17.285156 z M 21.5 18.101562 L 21.5 21.103516 L 22.5 21.103516 L 22.5 18.101562 L 21.5 18.101562 z M 53.5 20.007812 L 53.5 25.007812 L 47.589844 25.005859 C 48.066032 22.166165 50.522685 20.007813 53.5 20.007812 z M 54.5 20.097656 C 57.01491 20.518549 58.98927 22.492925 59.410156 25.007812 L 54.5 25.007812 L 54.5 20.097656 z M 3.5 21.289062 L 3.5 24.291016 L 4.5 24.291016 L 4.5 21.289062 L 3.5 21.289062 z M 32.5 26.007812 L 46.5 26.007812 C 46.5 29.868013 49.639754 33.007812 53.5 33.007812 L 53.5 38.052734 C 53.333562 38.036145 53.171422 38.007812 53 38.007812 C 50.515453 38.007813 48.501203 39.797642 48.5 42.005859 L 39.419922 42.005859 C 38.931261 38.619792 36.019125 36.005859 32.5 36.005859 L 32.5 26.007812 z M 47.5 26.007812 L 53.5 26.007812 L 53.5 32.005859 C 50.180526 32.005859 47.5 29.327242 47.5 26.007812 z M 54.5 26.007812 L 59.5 26.007812 C 59.5 28.985752 57.34066 31.440926 54.5 31.916016 L 54.5 26.007812 z M 21.5 26.107422 L 21.5 29.107422 L 22.5 29.107422 L 22.5 26.107422 L 21.5 26.107422 z M 3.5 29.292969 L 3.5 32.294922 L 4.5 32.294922 L 4.5 29.292969 L 3.5 29.292969 z M 21.5 30.109375 L 21.5 33.111328 L 22.5 33.111328 L 22.5 30.109375 L 21.5 30.109375 z M 3.5 33.294922 L 3.5 36.296875 L 4.5 36.296875 L 4.5 33.294922 L 3.5 33.294922 z M 21.5 34.111328 L 21.5 37.113281 L 22.5 37.113281 L 22.5 34.111328 L 21.5 34.111328 z M 32.5 37.007812 C 35.477334 37.007812 37.933972 39.166162 38.410156 42.005859 L 32.5 42.005859 L 32.5 37.007812 z M 31.5 37.097656 L 31.5 42.005859 L 26.589844 42.005859 C 27.011412 39.49188 28.985735 37.518443 31.5 37.097656 z M 3.5 37.298828 L 3.5 40.300781 L 4.5 40.300781 L 4.5 37.298828 L 3.5 37.298828 z M 21.5 38.113281 L 21.5 41.115234 L 22.5 41.115234 L 22.5 38.113281 L 21.5 38.113281 z M 26.5 43.007812 L 31.5 43.007812 L 31.5 48.916016 C 28.659352 48.440925 26.5 45.985748 26.5 43.007812 z M 32.5 43.007812 L 38.5 43.007812 C 38.5 46.327247 35.819496 49.005859 32.5 49.005859 L 32.5 43.007812 z M 3.5 45.302734 L 3.5 48.304688 L 4.5 48.304688 L 4.5 45.302734 L 3.5 45.302734 z M 21.5 46.119141 L 21.5 48.503906 C 21.499938 48.676391 21.482016 48.847487 21.447266 49.013672 L 22.427734 49.21875 C 22.477145 48.982456 22.499914 48.742546 22.5 48.503906 L 22.5 46.119141 L 21.5 46.119141 z M 4.5878906 49.160156 L 3.625 49.431641 L 3.65625 49.544922 L 3.7089844 49.701172 L 3.7109375 49.705078 C 4.0774177 50.723377 4.9192692 51.529229 5.9550781 51.847656 L 6.25 50.892578 C 5.5299197 50.671212 4.9105236 50.078398 4.6542969 49.369141 C 4.6542969 49.369141 4.6523438 49.367188 4.6523438 49.367188 L 4.6132812 49.248047 L 4.5878906 49.160156 z M 21.144531 49.789062 C 20.776149 50.41361 20.100715 50.871096 19.384766 50.976562 C 19.275094 50.992238 19.176395 51.00316 19.091797 51.003906 L 19.099609 52.003906 C 19.256094 52.002527 19.399001 51.985196 19.527344 51.966797 L 19.529297 51.966797 C 20.558509 51.815182 21.478717 51.192533 22.005859 50.298828 L 21.144531 49.789062 z M 7.0898438 51.005859 L 7.0898438 52.007812 L 10.089844 52.007812 L 10.089844 51.005859 L 7.0898438 51.005859 z M 11.091797 51.005859 L 11.091797 52.007812 L 14.09375 52.007812 L 14.09375 51.005859 L 11.091797 51.005859 z M 15.09375 51.005859 L 15.09375 52.007812 L 18.095703 52.007812 L 18.095703 51.005859 L 15.09375 51.005859 z " />
</svg>
