<?xml version="1.0" encoding="UTF-8" standalone="no"?>
<svg
   width="145"
   height="145"
   overflow="hidden"
   version="1.1"
   id="svg316"
   sodipodi:docname="error-correction-icon-workflow.svg"
   inkscape:version="1.2.2 (732a01da63, 2022-12-09)"
   xmlns:inkscape="http://www.inkscape.org/namespaces/inkscape"
   xmlns:sodipodi="http://sodipodi.sourceforge.net/DTD/sodipodi-0.dtd"
   xmlns="http://www.w3.org/2000/svg"
   xmlns:svg="http://www.w3.org/2000/svg">
  <sodipodi:namedview
     id="namedview318"
     pagecolor="#ffffff"
     bordercolor="#000000"
     borderopacity="0.25"
     inkscape:showpageshadow="2"
     inkscape:pageopacity="0.0"
     inkscape:pagecheckerboard="0"
     inkscape:deskcolor="#d1d1d1"
     showgrid="false"
     inkscape:zoom="3.7577093"
     inkscape:cx="113.5"
     inkscape:cy="99.395662"
     inkscape:window-width="1920"
     inkscape:window-height="1111"
     inkscape:window-x="-9"
     inkscape:window-y="-9"
     inkscape:window-maximized="1"
     inkscape:current-layer="g314" />
  <defs
     id="defs238">
    <clipPath
       id="clip0">
      <rect
         x="0"
         y="0"
         width="227"
         height="227"
         id="rect226" />
    </clipPath>
    <clipPath
       id="clip1">
      <path
         d="M 88.08,-57.1931 210.892,15.8079 137.891,138.62 15.0789,65.619 Z"
         fill-rule="evenodd"
         clip-rule="evenodd"
         id="path229" />
    </clipPath>
    <clipPath
       id="clip2">
      <path
         d="M 88.08,-57.1931 210.892,15.8079 137.891,138.62 15.079,65.619 Z"
         fill-rule="evenodd"
         clip-rule="evenodd"
         id="path232" />
    </clipPath>
    <clipPath
       id="clip3">
      <path
         d="M 88.08,-57.1931 210.892,15.8079 137.891,138.62 15.079,65.619 Z"
         fill-rule="evenodd"
         clip-rule="evenodd"
         id="path235" />
    </clipPath>
  </defs>
  <g
     clip-path="url(#clip0)"
     id="g314">
    <rect
       x="0"
       y="0"
       width="145"
       height="145"
       fill="#ffffff"
       id="rect240"
       style="stroke-width:0.638767" />
    <path
       d="M 96.773128,32.257709 V 139.00709"
       stroke="#000000"
       stroke-width="2.9831"
       stroke-miterlimit="8"
       fill="none"
       fill-rule="evenodd"
       id="path242" />
    <path
       d="M 83.997797,32.896476 V 138.75478"
       stroke="#000000"
       stroke-width="2.9831"
       stroke-miterlimit="8"
       fill="none"
       fill-rule="evenodd"
       id="path244" />
    <path
       d="M 108.90969,32.896476 V 138.75478"
       stroke="#000000"
       stroke-width="2.9831"
       stroke-miterlimit="8"
       fill="none"
       fill-rule="evenodd"
       id="path246" />
    <path
       d="M 61.002203,32.896476 61.002139,138.70304"
       stroke="#000000"
       stroke-width="2.9831"
       stroke-miterlimit="8"
       fill="none"
       fill-rule="evenodd"
       id="path248" />
    <path
       d="M 48.865703,32.896476 48.865575,138.70304"
       stroke="#000000"
       stroke-width="2.9831"
       stroke-miterlimit="8"
       fill="none"
       fill-rule="evenodd"
       id="path250" />
    <path
       d="M 36.090308,32.896476 36.090245,138.70304"
       stroke="#000000"
       stroke-width="2.9831"
       stroke-miterlimit="8"
       fill="none"
       fill-rule="evenodd"
       id="path252" />
    <path
       d="M 16.927313,68.028634 H 128.00306"
       stroke="#000000"
       stroke-width="2.9831"
       stroke-miterlimit="8"
       fill="none"
       fill-rule="evenodd"
       id="path254" />
    <path
       d="M 16.927313,80.165198 H 128.00306"
       stroke="#000000"
       stroke-width="2.9831"
       stroke-miterlimit="8"
       fill="none"
       fill-rule="evenodd"
       id="path256" />
    <path
       d="M 16.927313,92.940529 H 128.00306"
       stroke="#000000"
       stroke-width="2.9831"
       stroke-miterlimit="8"
       fill="none"
       fill-rule="evenodd"
       id="path258" />
    <path
       d="M 16.927313,105.71586 H 128.00306"
       stroke="#000000"
       stroke-width="2.9831"
       stroke-miterlimit="8"
       fill="none"
       fill-rule="evenodd"
       id="path260" />
    <path
       d="M 16.927313,117.85242 H 128.00306"
       stroke="#000000"
       stroke-width="2.9831"
       stroke-miterlimit="8"
       fill="none"
       fill-rule="evenodd"
       id="path262" />
    <path
       d="M 16.927313,55.253304 128.00306,55.253432"
       stroke="#000000"
       stroke-width="2.9831"
       stroke-miterlimit="8"
       fill="none"
       fill-rule="evenodd"
       id="path264" />
    <path
       d="M 26.508811,52.705456 C 26.508811,47.056971 31.087808,42.477974 36.736293,42.477974 H 108.2639 C 113.91187,42.477974 118.49119,47.056971 118.49119,52.705456 V 119.12229 C 118.49119,124.7709 113.91187,129.35022 108.2639,129.35022 H 36.736293 C 31.087808,129.35022 26.508811,124.7709 26.508811,119.12229 Z"
       stroke="#000000"
       stroke-width="2.9831"
       stroke-miterlimit="8"
       fill="#bfbfbf"
       fill-rule="evenodd"
       id="path266" />
    <path
       d="M 62.847727,66.751101 59.429623,65.229559 54.614537,63.536764 54.920123,61.921643 C 57.410099,51.346863 61.626852,44.394273 66.409361,44.394273 L 67.389868,44.571722"
       stroke="#000000"
       stroke-width="2.9831"
       stroke-miterlimit="8"
       fill="none"
       fill-rule="evenodd"
       id="path268" />
    <path
       d="M 66.751101,124.18707 66.46174,124.24009 C 61.654511,124.24009 57.416167,117.19002 54.913352,106.46769 L 54.614537,104.87396 59.445784,103.16079"
       stroke="#000000"
       stroke-width="2.9831"
       stroke-miterlimit="8"
       fill="none"
       fill-rule="evenodd"
       id="path270" />
    <path
       d="M 66.140051,78.194662 C 69.179986,78.194649 71.644357,80.659006 71.644352,83.698961 71.644369,86.738903 69.179998,89.203251 66.140062,89.203279 63.100094,89.203251 60.63576,86.738903 60.635735,83.698972 60.635766,80.659011 63.100101,78.194653 66.140051,78.194662 Z"
       stroke="#000000"
       stroke-width="1.70463"
       stroke-miterlimit="8"
       fill-rule="evenodd"
       id="path276" />
    <path
       d="M 41.440549,60.599713 C 44.66114,60.737312 48.46609,61.448166 52.633307,62.6909 L 54.257755,63.255557 53.274662,68.393732 C 52.920104,70.772022 52.644771,73.268537 52.458046,75.856616 L 52.455983,75.914748 52.269339,76.03158 C 49.047302,78.215181 46.103436,80.468455 43.499873,82.719016 L 42.200624,83.892438 41.01226,82.819108 C 33.112794,75.350245 29.223693,68.180022 31.642457,63.990619 33.093668,61.476972 36.609665,60.393385 41.440549,60.599713 Z"
       stroke="#000000"
       stroke-width="2.9831"
       stroke-miterlimit="8"
       fill="none"
       fill-rule="evenodd"
       id="path280" />
    <path
       d="M 42.20056,83.892675 43.500079,85.066318 C 46.103622,87.316852 49.047464,89.570171 52.26949,91.753736 L 52.457647,91.871468 52.457991,91.881964 C 52.644688,94.470117 52.920035,96.966669 53.274614,99.344898 L 54.266075,104.52674 52.632987,105.09447 C 42.215036,108.20113 34.060899,107.98408 31.642145,103.79468 29.223392,99.605275 33.112504,92.435091 41.011923,84.966201 Z"
       stroke="#000000"
       stroke-width="2.9831"
       stroke-miterlimit="8"
       fill="none"
       fill-rule="evenodd"
       id="path282" />
    <path
       d="M 78.16036,78.383737 C 81.200295,78.383724 83.664666,80.848081 83.664661,83.888036 83.664678,86.927978 81.200307,89.392326 78.160371,89.392354 75.120403,89.392326 72.656069,86.927978 72.656044,83.888047 72.656075,80.848086 75.12041,78.383728 78.16036,78.383737 Z"
       stroke="#000000"
       stroke-width="1.70463"
       stroke-miterlimit="8"
       fill-rule="evenodd"
       id="path288" />
    <path
       d="M 76.784277,44.300401 C 81.621787,44.300427 85.886835,51.25356 88.405338,61.829125 L 88.708352,63.413022 83.615251,65.183497 C 81.378277,66.065583 79.078599,67.075404 76.743837,68.207785 L 76.713303,68.224012 76.595741,68.161556 C 74.261091,67.029194 71.961325,66.01934 69.72438,65.13733 L 64.854187,63.444344 65.16321,61.829117 C 67.681742,51.25354 71.94679,44.300392 76.784277,44.300401 Z"
       stroke="#000000"
       stroke-width="2.9831"
       stroke-miterlimit="8"
       fill="none"
       fill-rule="evenodd"
       id="path292" />
    <path
       d="M 101.30303,60.834716 C 106.13391,60.628367 109.64986,61.711933 111.10114,64.225619 113.51986,68.414965 109.63077,75.585183 101.73135,83.054064 L 100.5941,84.08114 99.243713,82.861568 C 98.375862,82.111385 97.470217,81.360894 96.529056,80.612765 L 90.520153,76.207784 90.514415,76.045436 C 90.32776,73.457332 90.052419,70.960777 89.697858,68.582516 L 88.708734,63.413068 90.110308,62.925846 C 94.277432,61.683183 98.082437,60.972291 101.30303,60.834716 Z"
       stroke="#000000"
       stroke-width="2.9831"
       stroke-miterlimit="8"
       fill="none"
       fill-rule="evenodd"
       id="path294" />
    <path
       d="M 100.59375,84.080962 101.73125,85.108279 C 109.63069,92.577159 113.51978,99.747342 111.10103,103.93675 108.6823,108.12614 100.52814,108.34316 90.110169,105.23651 L 88.700045,104.7463 89.697465,99.533174 C 90.05208,97.154895 90.327371,94.658383 90.514086,92.070288 L 90.518172,91.955616 96.528402,87.549584 C 97.469578,86.801494 98.375234,86.051006 99.243115,85.30083 Z"
       stroke="#000000"
       stroke-width="2.9831"
       stroke-miterlimit="8"
       fill="none"
       fill-rule="evenodd"
       id="path296" />
    <path
       d="M 76.71354,99.938709 76.744302,99.95507 C 79.079036,101.08745 81.378714,102.09727 83.615683,102.97934 L 88.700237,104.74683 88.405537,106.28704 C 85.88706,116.86263 81.622005,123.81577 76.784491,123.81578 71.946977,123.81578 67.681917,116.86259 65.163426,106.28703 L 64.8627,104.71552 69.724352,103.0255 C 71.961277,102.14346 74.260977,101.13367 76.595727,100.00127 Z"
       stroke="#000000"
       stroke-width="2.9831"
       stroke-miterlimit="8"
       fill="none"
       fill-rule="evenodd"
       id="path298" />
    <path
       d="M 69.462665,38.645374 H 82.061057 L 71.694515,62.638084 H 71.704736 L 82.027203,86.529229 H 82.081498 L 82.05467,86.591828 82.081498,86.654427 H 82.027203 L 71.726454,110.49511 82.081498,134.46035 H 69.483106 L 59.150419,110.54621 H 59.106344 L 59.128381,110.49511 59.106344,110.44401 H 59.150419 L 69.456278,86.591828 59.116628,62.661846 H 59.085903 Z"
       stroke="#000000"
       stroke-width="0.213078"
       stroke-miterlimit="8"
       fill="#ffffff"
       fill-rule="evenodd"
       id="path300" />
    <rect
       x="65.154182"
       y="130.94714"
       width="16.607929"
       height="7.0264316"
       fill="#ffffff"
       id="rect302"
       style="stroke-width:0.638767" />
    <g
       clip-path="url(#clip1)"
       id="g310"
       transform="scale(0.63876652)">
      <g
         clip-path="url(#clip2)"
         id="g308">
        <g
           clip-path="url(#clip3)"
           id="g306">
          <path
             d="M 175.696,34.5338 168.058,26.7041 171.026,16.1763 189.384,11.5065 C 183.997,4.84161 175.484,1.68627 167.018,3.40568 158.679,5.20113 151.89,11.3802 149.754,19.633 L 70.6131,39.765 C 64.7176,33.6637 55.801,31.4799 47.7459,33.9633 39.6908,36.4467 33.5931,43.2099 32.0454,51.639 L 50.4028,46.9692 57.9131,54.7228 54.9447,65.2506 36.5872,69.9204 C 41.9745,76.5853 50.4868,79.7406 58.9534,78.0212 67.2921,76.2258 74.0813,70.0467 76.2168,61.7939 L 155.358,41.662 C 161.253,47.7632 170.17,49.947 178.225,47.4636 186.28,44.9802 192.378,38.217 193.926,29.7879 Z"
             id="path304" />
        </g>
      </g>
    </g>
    <rect
       x="65.154182"
       y="36.409691"
       width="16.607929"
       height="3.8325992"
       fill="#ffffff"
       id="rect312"
       style="stroke-width:0.638767" />
    <path
       style="fill:#000000;stroke:#000000;stroke-opacity:0"
       d="M 78.239156,69.19109 91.012896,76.642438"
       id="path1245" />
    <rect
       style="fill:#000000;stroke:#000000;stroke-width:0.750972;stroke-opacity:0"
       id="rect1301"
       width="15.315366"
       height="2.1514347"
       x="102.98602"
       y="18.726748"
       transform="matrix(0.86079375,0.50895395,-0.59324016,0.80502553,0,0)" />
    <rect
       style="fill:#000000;stroke:#000000;stroke-width:0.750972;stroke-opacity:0"
       id="rect1301-8"
       width="15.315366"
       height="2.1514347"
       x="-12.532647"
       y="89.799957"
       transform="matrix(0.69128384,-0.72258332,0.64911722,0.76068839,0,0)" />
    <rect
       style="fill:#000000;stroke:#000000;stroke-width:0.933782;stroke-opacity:0"
       id="rect1301-1"
       width="16.385027"
       height="3.1092272"
       x="74.88858"
       y="-161.35075"
       transform="matrix(-0.81605756,0.57797064,-0.95553693,-0.29487146,0,0)" />
    <rect
       style="fill:#000000;stroke:#000000;stroke-width:0.708858;stroke-opacity:0"
       id="rect1301-1-5"
       width="13.526327"
       height="2.1704361"
       x="-105.20791"
       y="-38.271454"
       transform="matrix(-0.76850798,-0.6398402,0.46367484,-0.88600544,0,0)" />
    <rect
       style="fill:#000000;stroke:#000000;stroke-width:0.825355;stroke-opacity:0"
       id="rect1301-7"
       width="14.443824"
       height="2.7555463"
       x="68.294716"
       y="-95.331055"
       transform="matrix(-0.03528477,0.9993773,-0.99564423,-0.09323392,0,0)" />
    <rect
       style="fill:#000000;stroke:#000000;stroke-width:0.825355;stroke-opacity:0"
       id="rect1301-7-4"
       width="14.443824"
       height="2.7555463"
       x="71.485481"
       y="-56.822006"
       transform="matrix(-0.03528477,0.9993773,-0.99564423,-0.09323392,0,0)" />
  </g>
</svg>
