<?xml version="1.0" encoding="UTF-8" standalone="no"?>
<svg
   xmlns:dc="http://purl.org/dc/elements/1.1/"
   xmlns:cc="http://creativecommons.org/ns#"
   xmlns:rdf="http://www.w3.org/1999/02/22-rdf-syntax-ns#"
   xmlns:svg="http://www.w3.org/2000/svg"
   xmlns="http://www.w3.org/2000/svg"
   xmlns:sodipodi="http://sodipodi.sourceforge.net/DTD/sodipodi-0.dtd"
   xmlns:inkscape="http://www.inkscape.org/namespaces/inkscape"
   viewBox="0 0 90.759767 25.821177"
   height="25.821177"
   width="90.759766"
   xml:space="preserve"
   id="svg2"
   version="1.1"
   sodipodi:docname="EvaluationTask_Icon.svg"
   inkscape:version="1.0.2-2 (e86c870879, 2021-01-15)"><sodipodi:namedview
     pagecolor="#ffffff"
     bordercolor="#666666"
     borderopacity="1"
     objecttolerance="10"
     gridtolerance="10"
     guidetolerance="10"
     inkscape:pageopacity="0"
     inkscape:pageshadow="2"
     inkscape:window-width="1920"
     inkscape:window-height="991"
     id="namedview10012"
     showgrid="false"
     inkscape:zoom="7.6189106"
     inkscape:cx="30.68217"
     inkscape:cy="28.266836"
     inkscape:window-x="-9"
     inkscape:window-y="-9"
     inkscape:window-maximized="1"
     inkscape:current-layer="svg2"
     showguides="true"
     fit-margin-top="0"
     fit-margin-left="0"
     fit-margin-right="0"
     fit-margin-bottom="0" /><metadata
     id="metadata8"><rdf:RDF><cc:Work
         rdf:about=""><dc:format>image/svg+xml</dc:format><dc:type
           rdf:resource="http://purl.org/dc/dcmitype/StillImage" /><dc:title></dc:title></cc:Work></rdf:RDF></metadata><defs
     id="defs6" /><path
     id="path52"
     style="fill:#000000;fill-opacity:1;fill-rule:evenodd;stroke:none;stroke-width:1.33333"
     d="M 77.880859 0 L 74.839844 9.8398438 L 65 9.8398438 L 72.960938 15.919922 L 69.919922 25.759766 L 77.880859 19.679688 L 85.839844 25.759766 L 82.800781 15.919922 L 90.759766 9.8398438 L 80.919922 9.8398438 L 77.880859 0 z M 12.880859 0.060546875 L 9.8398438 9.9003906 L 0 9.9003906 L 7.9609375 15.980469 L 4.9199219 25.820312 L 12.880859 19.740234 L 20.839844 25.820312 L 17.800781 15.980469 L 25.759766 9.9003906 L 15.919922 9.9003906 L 12.880859 0.060546875 z M 45.599609 0.060546875 L 42.574219 9.8398438 L 32.800781 9.8398438 L 40.707031 15.882812 L 37.693359 25.662109 L 45.599609 19.617188 L 53.505859 25.662109 L 50.494141 15.882812 L 58.400391 9.8398438 L 48.626953 9.8398438 L 45.599609 0.060546875 z M 77.898438 2.5488281 L 80.357422 10.429688 L 88.433594 10.429688 L 81.900391 15.369141 L 84.394531 23.365234 L 77.90625 18.457031 L 77.90625 2.6914062 C 77.90625 2.6432282 77.899957 2.5966031 77.898438 2.5488281 z " /></svg>
