<?xml version="1.0" encoding="UTF-8" standalone="no"?>
<!-- Created with Inkscape (http://www.inkscape.org/) -->

<svg
   version="1.1"
   id="svg2"
   width="102.08"
   height="102.08"
   viewBox="0 0 102.08 102.08"
   xmlns="http://www.w3.org/2000/svg"
   xmlns:svg="http://www.w3.org/2000/svg">
  <defs
     id="defs6">
    <clipPath
       clipPathUnits="userSpaceOnUse"
       id="clipPath22">
      <path
         d="M 1.141e-6,0 H 76.560001 V 76.56 H 1.141e-6 Z"
         clip-rule="evenodd"
         id="path20" />
    </clipPath>
    <clipPath
       clipPathUnits="userSpaceOnUse"
       id="clipPath34">
      <path
         d="M 0,1.5259e-5 H 76.56 V 76.560015 H 0 Z"
         clip-rule="evenodd"
         id="path32" />
    </clipPath>
    <clipPath
       clipPathUnits="userSpaceOnUse"
       id="clipPath44">
      <path
         d="M 0,1.5259e-5 H 76.56 V 76.560015 H 0 Z"
         clip-rule="evenodd"
         id="path42" />
    </clipPath>
    <clipPath
       clipPathUnits="userSpaceOnUse"
       id="clipPath56">
      <path
         d="M -3.815e-6,76.56 H 76.56 V 2.2888e-5 L -7.629e-6,1.5259e-5"
         clip-rule="evenodd"
         id="path54" />
    </clipPath>
    <clipPath
       clipPathUnits="userSpaceOnUse"
       id="clipPath66">
      <path
         d="M -3.815e-6,76.56 H 76.56 V 2.2888e-5 L -7.629e-6,1.5259e-5"
         clip-rule="evenodd"
         id="path64" />
    </clipPath>
    <clipPath
       clipPathUnits="userSpaceOnUse"
       id="clipPath76">
      <path
         d="M -2.682e-6,76.56 H 76.56 V 1.5259e-5 L -1.1742e-5,0"
         clip-rule="evenodd"
         id="path74" />
    </clipPath>
    <clipPath
       clipPathUnits="userSpaceOnUse"
       id="clipPath86">
      <path
         d="M -2.682e-6,76.56 H 76.56 V 1.5259e-5 L -1.1742e-5,0"
         clip-rule="evenodd"
         id="path84" />
    </clipPath>
    <clipPath
       clipPathUnits="userSpaceOnUse"
       id="clipPath192">
      <path
         d="M -3.815e-6,76.56 H 76.56 V 2.2888e-5 L -5.722e-6,1.5259e-5"
         clip-rule="evenodd"
         id="path190" />
    </clipPath>
    <clipPath
       clipPathUnits="userSpaceOnUse"
       id="clipPath202">
      <path
         d="M 0,76.56 H 76.56 V -7.629e-6 H 9.537e-6"
         clip-rule="evenodd"
         id="path200" />
    </clipPath>
  </defs>
  <g
     id="g8"
     transform="matrix(1.3333333,0,0,-1.3333333,0,102.08)">
    <path
       d="m 0,0.060005 h 76.5 v 76.5 H 0 Z"
       style="fill:#ffffff;fill-opacity:1;fill-rule:evenodd;stroke:none"
       id="path10" />
    <path
       d="m 17.122,0.9248 h 55.387 v 54.171 H 17.122 Z"
       style="fill:#ffffff;fill-opacity:1;fill-rule:evenodd;stroke:none"
       id="path12" />
    <path
       d="m 17.122,0.9248 h 55.387 v 54.171 H 17.122 Z"
       style="fill:none;stroke:#0d0d0d;stroke-width:1.5;stroke-linecap:butt;stroke-linejoin:miter;stroke-miterlimit:10;stroke-dasharray:none;stroke-opacity:1"
       id="path14" />
    <g
       id="g16">
      <g
         id="g18"
         clip-path="url(#clipPath22)">
        <text
           xml:space="preserve"
           transform="matrix(1,0,0,-1,22.368,5.592)"
           style="font-variant:normal;font-weight:bold;font-size:72.12px;font-family:Calibri;-inkscape-font-specification:Calibri-Bold;writing-mode:lr-tb;fill:#000000;fill-opacity:1;fill-rule:nonzero;stroke:none"
           id="text26"><tspan
             x="0"
             y="0"
             id="tspan24">H</tspan></text>
      </g>
    </g>
    <g
       id="g28">
      <g
         id="g30"
         clip-path="url(#clipPath34)">
        <path
           d="m 42.608,55.471 h 7.587 L 43.952,41.137 h 0.006 l 6.217,-14.273 h 0.032 l -0.016,-0.037 0.016,-0.038 H 50.175 L 43.971,12.547 50.207,-1.7709 H 42.62 L 36.398,12.516 h -0.027 l 0.013,0.031 -0.013,0.03 h 0.027 l 6.206,14.25 -6.227,14.296 h -0.018 z"
           style="fill:#ffffff;fill-opacity:1;fill-rule:evenodd;stroke:none"
           id="path36" />
      </g>
    </g>
    <g
       id="g38">
      <g
         id="g40"
         clip-path="url(#clipPath44)">
        <path
           d="m 42.608,55.471 h 7.587 L 43.952,41.137 h 0.006 l 6.217,-14.273 h 0.032 l -0.016,-0.037 0.016,-0.038 H 50.175 L 43.971,12.547 50.207,-1.7709 H 42.62 L 36.398,12.516 h -0.027 l 0.013,0.031 -0.013,0.03 h 0.027 l 6.206,14.25 -6.227,14.296 h -0.018 z"
           style="fill:none;stroke:#000000;stroke-width:0.5;stroke-linecap:butt;stroke-linejoin:miter;stroke-miterlimit:10;stroke-dasharray:none;stroke-opacity:1"
           id="path46" />
      </g>
    </g>
    <path
       d="m 40.557,54.3 h 8.8983 v 6.3369 H 40.557 Z"
       style="fill:#ffffff;fill-opacity:1;fill-rule:evenodd;stroke:none"
       id="path48" />
    <g
       id="g50">
      <g
         id="g52"
         clip-path="url(#clipPath56)">
        <path
           d="m 34.634,74.135 c 1.293,1.292 3.388,1.292 4.681,0 l 9.359,-9.36 c 1.293,-1.292 1.293,-3.388 0,-4.68 L 17.529,28.95 c -1.292,-1.292 -3.387,-1.292 -4.68,0 l -9.3595,9.36 c -1.2923,1.292 -1.2923,3.388 0,4.68 z"
           style="fill:#ffffff;fill-opacity:1;fill-rule:evenodd;stroke:none"
           id="path58" />
      </g>
    </g>
    <g
       id="g60">
      <g
         id="g62"
         clip-path="url(#clipPath66)">
        <path
           d="m 34.634,74.135 c 1.293,1.292 3.388,1.292 4.681,0 l 9.359,-9.36 c 1.293,-1.292 1.293,-3.388 0,-4.68 L 17.529,28.95 c -1.292,-1.292 -3.387,-1.292 -4.68,0 l -9.3595,9.36 c -1.2923,1.292 -1.2923,3.388 0,4.68 z"
           style="fill:none;stroke:#000000;stroke-width:0.5;stroke-linecap:butt;stroke-linejoin:miter;stroke-miterlimit:10;stroke-dasharray:none;stroke-opacity:1"
           id="path68" />
      </g>
    </g>
    <g
       id="g70">
      <g
         id="g72"
         clip-path="url(#clipPath76)">
        <path
           d="m 3.1397,57.757 c -1.5603,1.56 -1.5603,4.09 0,5.65 L 14.44,74.708 c 1.561,1.56 4.091,1.56 5.651,0 L 48.854,45.945 c 1.561,-1.561 1.561,-4.09 0,-5.651 l -11.3,-11.3 c -1.561,-1.561 -4.091,-1.561 -5.651,-0.001 z"
           style="fill:#ffffff;fill-opacity:1;fill-rule:evenodd;stroke:none"
           id="path78" />
      </g>
    </g>
    <g
       id="g80">
      <g
         id="g82"
         clip-path="url(#clipPath86)">
        <path
           d="m 3.1397,57.757 c -1.5603,1.56 -1.5603,4.09 0,5.65 L 14.44,74.708 c 1.561,1.56 4.091,1.56 5.651,0 L 48.854,45.945 c 1.561,-1.561 1.561,-4.09 0,-5.651 l -11.3,-11.3 c -1.561,-1.561 -4.091,-1.561 -5.651,-0.001 z"
           style="fill:none;stroke:#000000;stroke-width:0.5;stroke-linecap:butt;stroke-linejoin:miter;stroke-miterlimit:10;stroke-dasharray:none;stroke-opacity:1"
           id="path88" />
      </g>
    </g>
    <path
       d="m 5.7155,61.529 c 0,0.699 0.567,1.266 1.2663,1.266 0.6994,0 1.2664,-0.567 1.2664,-1.266 0,-0.7 -0.567,-1.267 -1.2664,-1.267 -0.6993,0 -1.2663,0.567 -1.2663,1.267 z"
       style="fill:#ffffff;fill-opacity:1;fill-rule:evenodd;stroke:none"
       id="path90" />
    <path
       d="m 5.7155,61.529 c 0,0.699 0.567,1.266 1.2663,1.266 0.6994,0 1.2664,-0.567 1.2664,-1.266 0,-0.7 -0.567,-1.267 -1.2664,-1.267 -0.6993,0 -1.2663,0.567 -1.2663,1.267 z"
       style="fill:none;stroke:#000000;stroke-width:0.3;stroke-linecap:butt;stroke-linejoin:miter;stroke-miterlimit:10;stroke-dasharray:none;stroke-opacity:1"
       id="path92" />
    <path
       d="m 10.398,66.028 c 0,0.7 0.567,1.267 1.266,1.267 0.7,0 1.267,-0.567 1.267,-1.267 0,-0.699 -0.567,-1.266 -1.267,-1.266 -0.699,0 -1.266,0.567 -1.266,1.266 z"
       style="fill:#ffffff;fill-opacity:1;fill-rule:evenodd;stroke:none"
       id="path94" />
    <path
       d="m 10.398,66.028 c 0,0.7 0.567,1.267 1.266,1.267 0.7,0 1.267,-0.567 1.267,-1.267 0,-0.699 -0.567,-1.266 -1.267,-1.266 -0.699,0 -1.266,0.567 -1.266,1.266 z"
       style="fill:none;stroke:#000000;stroke-width:0.3;stroke-linecap:butt;stroke-linejoin:miter;stroke-miterlimit:10;stroke-dasharray:none;stroke-opacity:1"
       id="path96" />
    <path
       d="m 14.872,70.687 c 0,0.7 0.567,1.267 1.266,1.267 0.7,0 1.266,-0.567 1.266,-1.267 0,-0.699 -0.566,-1.266 -1.266,-1.266 -0.699,0 -1.266,0.567 -1.266,1.266 z"
       style="fill:#ffffff;fill-opacity:1;fill-rule:evenodd;stroke:none"
       id="path98" />
    <path
       d="m 14.872,70.687 c 0,0.7 0.567,1.267 1.266,1.267 0.7,0 1.266,-0.567 1.266,-1.267 0,-0.699 -0.566,-1.266 -1.266,-1.266 -0.699,0 -1.266,0.567 -1.266,1.266 z"
       style="fill:none;stroke:#000000;stroke-width:0.3;stroke-linecap:butt;stroke-linejoin:miter;stroke-miterlimit:10;stroke-dasharray:none;stroke-opacity:1"
       id="path100" />
    <path
       d="m 6.2097,40.199 c 0,0.699 0.5669,1.266 1.2663,1.266 0.6994,0 1.2664,-0.567 1.2664,-1.266 0,-0.7 -0.567,-1.267 -1.2664,-1.267 -0.6994,0 -1.2663,0.567 -1.2663,1.267 z"
       style="fill:#ffffff;fill-opacity:1;fill-rule:evenodd;stroke:none"
       id="path102" />
    <path
       d="m 6.2097,40.199 c 0,0.699 0.5669,1.266 1.2663,1.266 0.6994,0 1.2664,-0.567 1.2664,-1.266 0,-0.7 -0.567,-1.267 -1.2664,-1.267 -0.6994,0 -1.2663,0.567 -1.2663,1.267 z"
       style="fill:none;stroke:#000000;stroke-width:0.3;stroke-linecap:butt;stroke-linejoin:miter;stroke-miterlimit:10;stroke-dasharray:none;stroke-opacity:1"
       id="path104" />
    <path
       d="m 9.999,36.554 c 0,0.699 0.567,1.266 1.266,1.266 0.7,0 1.267,-0.567 1.267,-1.266 0,-0.7 -0.567,-1.267 -1.267,-1.267 -0.699,0 -1.266,0.567 -1.266,1.267 z"
       style="fill:#ffffff;fill-opacity:1;fill-rule:evenodd;stroke:none"
       id="path106" />
    <path
       d="m 9.999,36.554 c 0,0.699 0.567,1.266 1.266,1.266 0.7,0 1.267,-0.567 1.267,-1.266 0,-0.7 -0.567,-1.267 -1.267,-1.267 -0.699,0 -1.266,0.567 -1.266,1.267 z"
       style="fill:none;stroke:#000000;stroke-width:0.3;stroke-linecap:butt;stroke-linejoin:miter;stroke-miterlimit:10;stroke-dasharray:none;stroke-opacity:1"
       id="path108" />
    <path
       d="m 13.646,33.164 c 0,0.699 0.567,1.266 1.267,1.266 0.699,0 1.266,-0.567 1.266,-1.266 0,-0.7 -0.567,-1.267 -1.266,-1.267 -0.7,0 -1.267,0.567 -1.267,1.267 z"
       style="fill:#ffffff;fill-opacity:1;fill-rule:evenodd;stroke:none"
       id="path110" />
    <path
       d="m 13.646,33.164 c 0,0.699 0.567,1.266 1.267,1.266 0.699,0 1.266,-0.567 1.266,-1.266 0,-0.7 -0.567,-1.267 -1.266,-1.267 -0.7,0 -1.267,0.567 -1.267,1.267 z"
       style="fill:none;stroke:#000000;stroke-width:0.3;stroke-linecap:butt;stroke-linejoin:miter;stroke-miterlimit:10;stroke-dasharray:none;stroke-opacity:1"
       id="path112" />
    <path
       d="m 35.284,69.863 c 0,0.699 0.567,1.266 1.266,1.266 0.699,0 1.266,-0.567 1.266,-1.266 0,-0.7 -0.567,-1.267 -1.266,-1.267 -0.699,0 -1.266,0.567 -1.266,1.267 z"
       style="fill:#ffffff;fill-opacity:1;fill-rule:evenodd;stroke:none"
       id="path114" />
    <path
       d="m 35.284,69.863 c 0,0.699 0.567,1.266 1.266,1.266 0.699,0 1.266,-0.567 1.266,-1.266 0,-0.7 -0.567,-1.267 -1.266,-1.267 -0.699,0 -1.266,0.567 -1.266,1.267 z"
       style="fill:none;stroke:#000000;stroke-width:0.3;stroke-linecap:butt;stroke-linejoin:miter;stroke-miterlimit:10;stroke-dasharray:none;stroke-opacity:1"
       id="path116" />
    <path
       d="m 38.98,66.146 c 0,0.7 0.567,1.267 1.267,1.267 0.699,0 1.266,-0.567 1.266,-1.267 0,-0.699 -0.567,-1.266 -1.266,-1.266 -0.7,0 -1.267,0.567 -1.267,1.266 z"
       style="fill:#ffffff;fill-opacity:1;fill-rule:evenodd;stroke:none"
       id="path118" />
    <path
       d="m 38.98,66.146 c 0,0.7 0.567,1.267 1.267,1.267 0.699,0 1.266,-0.567 1.266,-1.267 0,-0.699 -0.567,-1.266 -1.266,-1.266 -0.7,0 -1.267,0.567 -1.267,1.266 z"
       style="fill:none;stroke:#000000;stroke-width:0.3;stroke-linecap:butt;stroke-linejoin:miter;stroke-miterlimit:10;stroke-dasharray:none;stroke-opacity:1"
       id="path120" />
    <path
       d="m 42.874,62.533 c 0,0.699 0.567,1.266 1.266,1.266 0.699,0 1.266,-0.567 1.266,-1.266 0,-0.7 -0.567,-1.267 -1.266,-1.267 -0.699,0 -1.266,0.567 -1.266,1.267 z"
       style="fill:#ffffff;fill-opacity:1;fill-rule:evenodd;stroke:none"
       id="path122" />
    <path
       d="m 42.874,62.533 c 0,0.699 0.567,1.266 1.266,1.266 0.699,0 1.266,-0.567 1.266,-1.266 0,-0.7 -0.567,-1.267 -1.266,-1.267 -0.699,0 -1.266,0.567 -1.266,1.267 z"
       style="fill:none;stroke:#000000;stroke-width:0.3;stroke-linecap:butt;stroke-linejoin:miter;stroke-miterlimit:10;stroke-dasharray:none;stroke-opacity:1"
       id="path124" />
    <path
       d="m 33.733,33.23 c 0,0.699 0.567,1.266 1.267,1.266 0.699,0 1.266,-0.567 1.266,-1.266 0,-0.699 -0.567,-1.266 -1.266,-1.266 -0.7,0 -1.267,0.567 -1.267,1.266 z"
       style="fill:#ffffff;fill-opacity:1;fill-rule:evenodd;stroke:none"
       id="path126" />
    <path
       d="m 33.733,33.23 c 0,0.699 0.567,1.266 1.267,1.266 0.699,0 1.266,-0.567 1.266,-1.266 0,-0.699 -0.567,-1.266 -1.266,-1.266 -0.7,0 -1.267,0.567 -1.267,1.266 z"
       style="fill:none;stroke:#000000;stroke-width:0.3;stroke-linecap:butt;stroke-linejoin:miter;stroke-miterlimit:10;stroke-dasharray:none;stroke-opacity:1"
       id="path128" />
    <path
       d="m 38.486,37.415 c 0,0.699 0.567,1.266 1.266,1.266 0.7,0 1.267,-0.567 1.267,-1.266 0,-0.699 -0.567,-1.266 -1.267,-1.266 -0.699,0 -1.266,0.567 -1.266,1.266 z"
       style="fill:#ffffff;fill-opacity:1;fill-rule:evenodd;stroke:none"
       id="path130" />
    <path
       d="m 38.486,37.415 c 0,0.699 0.567,1.266 1.266,1.266 0.7,0 1.267,-0.567 1.267,-1.266 0,-0.699 -0.567,-1.266 -1.267,-1.266 -0.699,0 -1.266,0.567 -1.266,1.266 z"
       style="fill:none;stroke:#000000;stroke-width:0.3;stroke-linecap:butt;stroke-linejoin:miter;stroke-miterlimit:10;stroke-dasharray:none;stroke-opacity:1"
       id="path132" />
    <path
       d="m 43.201,41.824 c 0,0.699 0.567,1.266 1.266,1.266 0.699,0 1.266,-0.567 1.266,-1.266 0,-0.699 -0.567,-1.266 -1.266,-1.266 -0.699,0 -1.266,0.567 -1.266,1.266 z"
       style="fill:#ffffff;fill-opacity:1;fill-rule:evenodd;stroke:none"
       id="path134" />
    <path
       d="m 43.201,41.824 c 0,0.699 0.567,1.266 1.266,1.266 0.699,0 1.266,-0.567 1.266,-1.266 0,-0.699 -0.567,-1.266 -1.266,-1.266 -0.699,0 -1.266,0.567 -1.266,1.266 z"
       style="fill:none;stroke:#000000;stroke-width:0.3;stroke-linecap:butt;stroke-linejoin:miter;stroke-miterlimit:10;stroke-dasharray:none;stroke-opacity:1"
       id="path136" />
    <path
       d="m 9.1101,58.05 c 0,0.699 0.5669,1.266 1.2659,1.266 0.7,0 1.267,-0.567 1.267,-1.266 0,-0.699 -0.567,-1.266 -1.267,-1.266 -0.699,0 -1.2659,0.567 -1.2659,1.266 z"
       style="fill:#ffffff;fill-opacity:1;fill-rule:evenodd;stroke:none"
       id="path138" />
    <path
       d="m 9.1101,58.05 c 0,0.699 0.5669,1.266 1.2659,1.266 0.7,0 1.267,-0.567 1.267,-1.266 0,-0.699 -0.567,-1.266 -1.267,-1.266 -0.699,0 -1.2659,0.567 -1.2659,1.266 z"
       style="fill:none;stroke:#000000;stroke-width:0.3;stroke-linecap:butt;stroke-linejoin:miter;stroke-miterlimit:10;stroke-dasharray:none;stroke-opacity:1"
       id="path140" />
    <path
       d="m 13.606,62.557 c 0,0.699 0.566,1.266 1.266,1.266 0.699,0 1.266,-0.567 1.266,-1.266 0,-0.7 -0.567,-1.267 -1.266,-1.267 -0.7,0 -1.266,0.567 -1.266,1.267 z"
       style="fill:#ffffff;fill-opacity:1;fill-rule:evenodd;stroke:none"
       id="path142" />
    <path
       d="m 13.606,62.557 c 0,0.699 0.566,1.266 1.266,1.266 0.699,0 1.266,-0.567 1.266,-1.266 0,-0.7 -0.567,-1.267 -1.266,-1.267 -0.7,0 -1.266,0.567 -1.266,1.267 z"
       style="fill:none;stroke:#000000;stroke-width:0.3;stroke-linecap:butt;stroke-linejoin:miter;stroke-miterlimit:10;stroke-dasharray:none;stroke-opacity:1"
       id="path144" />
    <path
       d="m 18.519,67.192 c 0,0.699 0.567,1.266 1.266,1.266 0.7,0 1.267,-0.567 1.267,-1.266 0,-0.7 -0.567,-1.267 -1.267,-1.267 -0.699,0 -1.266,0.567 -1.266,1.267 z"
       style="fill:#ffffff;fill-opacity:1;fill-rule:evenodd;stroke:none"
       id="path146" />
    <path
       d="m 18.519,67.192 c 0,0.699 0.567,1.266 1.266,1.266 0.7,0 1.267,-0.567 1.267,-1.266 0,-0.7 -0.567,-1.267 -1.267,-1.267 -0.699,0 -1.266,0.567 -1.266,1.267 z"
       style="fill:none;stroke:#000000;stroke-width:0.3;stroke-linecap:butt;stroke-linejoin:miter;stroke-miterlimit:10;stroke-dasharray:none;stroke-opacity:1"
       id="path148" />
    <path
       d="m 9.4595,43.465 c 0,0.699 0.5665,1.266 1.2665,1.266 0.699,0 1.266,-0.567 1.266,-1.266 0,-0.7 -0.567,-1.267 -1.266,-1.267 -0.7,0 -1.2665,0.567 -1.2665,1.267 z"
       style="fill:#ffffff;fill-opacity:1;fill-rule:evenodd;stroke:none"
       id="path150" />
    <path
       d="m 9.4595,43.465 c 0,0.699 0.5665,1.266 1.2665,1.266 0.699,0 1.266,-0.567 1.266,-1.266 0,-0.7 -0.567,-1.267 -1.266,-1.267 -0.7,0 -1.2665,0.567 -1.2665,1.267 z"
       style="fill:none;stroke:#000000;stroke-width:0.3;stroke-linecap:butt;stroke-linejoin:miter;stroke-miterlimit:10;stroke-dasharray:none;stroke-opacity:1"
       id="path152" />
    <path
       d="m 13.249,39.82 c 0,0.699 0.567,1.266 1.266,1.266 0.7,0 1.267,-0.567 1.267,-1.266 0,-0.7 -0.567,-1.267 -1.267,-1.267 -0.699,0 -1.266,0.567 -1.266,1.267 z"
       style="fill:#ffffff;fill-opacity:1;fill-rule:evenodd;stroke:none"
       id="path154" />
    <path
       d="m 13.249,39.82 c 0,0.699 0.567,1.266 1.266,1.266 0.7,0 1.267,-0.567 1.267,-1.266 0,-0.7 -0.567,-1.267 -1.267,-1.267 -0.699,0 -1.266,0.567 -1.266,1.267 z"
       style="fill:none;stroke:#000000;stroke-width:0.3;stroke-linecap:butt;stroke-linejoin:miter;stroke-miterlimit:10;stroke-dasharray:none;stroke-opacity:1"
       id="path156" />
    <path
       d="m 16.896,36.43 c 0,0.699 0.567,1.266 1.266,1.266 0.7,0 1.267,-0.567 1.267,-1.266 0,-0.7 -0.567,-1.267 -1.267,-1.267 -0.699,0 -1.266,0.567 -1.266,1.267 z"
       style="fill:#ffffff;fill-opacity:1;fill-rule:evenodd;stroke:none"
       id="path158" />
    <path
       d="m 16.896,36.43 c 0,0.699 0.567,1.266 1.266,1.266 0.7,0 1.267,-0.567 1.267,-1.266 0,-0.7 -0.567,-1.267 -1.267,-1.267 -0.699,0 -1.266,0.567 -1.266,1.267 z"
       style="fill:none;stroke:#000000;stroke-width:0.3;stroke-linecap:butt;stroke-linejoin:miter;stroke-miterlimit:10;stroke-dasharray:none;stroke-opacity:1"
       id="path160" />
    <path
       d="m 32.056,66.913 c 0,0.7 0.567,1.267 1.266,1.267 0.7,0 1.267,-0.567 1.267,-1.267 0,-0.699 -0.567,-1.266 -1.267,-1.266 -0.699,0 -1.266,0.567 -1.266,1.266 z"
       style="fill:#ffffff;fill-opacity:1;fill-rule:evenodd;stroke:none"
       id="path162" />
    <path
       d="m 32.056,66.913 c 0,0.7 0.567,1.267 1.266,1.267 0.7,0 1.267,-0.567 1.267,-1.267 0,-0.699 -0.567,-1.266 -1.267,-1.266 -0.699,0 -1.266,0.567 -1.266,1.266 z"
       style="fill:none;stroke:#000000;stroke-width:0.3;stroke-linecap:butt;stroke-linejoin:miter;stroke-miterlimit:10;stroke-dasharray:none;stroke-opacity:1"
       id="path164" />
    <path
       d="m 35.752,63.197 c 0,0.699 0.567,1.266 1.267,1.266 0.699,0 1.266,-0.567 1.266,-1.266 0,-0.7 -0.567,-1.267 -1.266,-1.267 -0.7,0 -1.267,0.567 -1.267,1.267 z"
       style="fill:#ffffff;fill-opacity:1;fill-rule:evenodd;stroke:none"
       id="path166" />
    <path
       d="m 35.752,63.197 c 0,0.699 0.567,1.266 1.267,1.266 0.699,0 1.266,-0.567 1.266,-1.266 0,-0.7 -0.567,-1.267 -1.266,-1.267 -0.7,0 -1.267,0.567 -1.267,1.267 z"
       style="fill:none;stroke:#000000;stroke-width:0.3;stroke-linecap:butt;stroke-linejoin:miter;stroke-miterlimit:10;stroke-dasharray:none;stroke-opacity:1"
       id="path168" />
    <path
       d="m 39.646,59.583 c 0,0.699 0.567,1.266 1.266,1.266 0.7,0 1.267,-0.567 1.267,-1.266 0,-0.699 -0.567,-1.266 -1.267,-1.266 -0.699,0 -1.266,0.567 -1.266,1.266 z"
       style="fill:#ffffff;fill-opacity:1;fill-rule:evenodd;stroke:none"
       id="path170" />
    <path
       d="m 39.646,59.583 c 0,0.699 0.567,1.266 1.266,1.266 0.7,0 1.267,-0.567 1.267,-1.266 0,-0.699 -0.567,-1.266 -1.267,-1.266 -0.699,0 -1.266,0.567 -1.266,1.266 z"
       style="fill:none;stroke:#000000;stroke-width:0.3;stroke-linecap:butt;stroke-linejoin:miter;stroke-miterlimit:10;stroke-dasharray:none;stroke-opacity:1"
       id="path172" />
    <path
       d="m 30.728,36.405 c 0,0.699 0.567,1.266 1.266,1.266 0.7,0 1.267,-0.567 1.267,-1.266 0,-0.7 -0.567,-1.267 -1.267,-1.267 -0.699,0 -1.266,0.567 -1.266,1.267 z"
       style="fill:#ffffff;fill-opacity:1;fill-rule:evenodd;stroke:none"
       id="path174" />
    <path
       d="m 30.728,36.405 c 0,0.699 0.567,1.266 1.266,1.266 0.7,0 1.267,-0.567 1.267,-1.266 0,-0.7 -0.567,-1.267 -1.267,-1.267 -0.699,0 -1.266,0.567 -1.266,1.267 z"
       style="fill:none;stroke:#000000;stroke-width:0.3;stroke-linecap:butt;stroke-linejoin:miter;stroke-miterlimit:10;stroke-dasharray:none;stroke-opacity:1"
       id="path176" />
    <path
       d="m 35.481,40.59 c 0,0.699 0.567,1.266 1.266,1.266 0.699,0 1.266,-0.567 1.266,-1.266 0,-0.7 -0.567,-1.267 -1.266,-1.267 -0.699,0 -1.266,0.567 -1.266,1.267 z"
       style="fill:#ffffff;fill-opacity:1;fill-rule:evenodd;stroke:none"
       id="path178" />
    <path
       d="m 35.481,40.59 c 0,0.699 0.567,1.266 1.266,1.266 0.699,0 1.266,-0.567 1.266,-1.266 0,-0.7 -0.567,-1.267 -1.266,-1.267 -0.699,0 -1.266,0.567 -1.266,1.267 z"
       style="fill:none;stroke:#000000;stroke-width:0.3;stroke-linecap:butt;stroke-linejoin:miter;stroke-miterlimit:10;stroke-dasharray:none;stroke-opacity:1"
       id="path180" />
    <path
       d="m 40.195,44.999 c 0,0.699 0.567,1.266 1.266,1.266 0.7,0 1.267,-0.567 1.267,-1.266 0,-0.7 -0.567,-1.267 -1.267,-1.267 -0.699,0 -1.266,0.567 -1.266,1.267 z"
       style="fill:#ffffff;fill-opacity:1;fill-rule:evenodd;stroke:none"
       id="path182" />
    <path
       d="m 40.195,44.999 c 0,0.699 0.567,1.266 1.266,1.266 0.7,0 1.267,-0.567 1.267,-1.266 0,-0.7 -0.567,-1.267 -1.267,-1.267 -0.699,0 -1.266,0.567 -1.266,1.267 z"
       style="fill:none;stroke:#000000;stroke-width:0.3;stroke-linecap:butt;stroke-linejoin:miter;stroke-miterlimit:10;stroke-dasharray:none;stroke-opacity:1"
       id="path184" />
    <g
       id="g186">
      <g
         id="g188"
         clip-path="url(#clipPath192)">
        <path
           d="m 28.531,65.472 c 0.037,0 0.081,-0.008 0.133,-0.023 0.051,-0.015 0.11,-0.047 0.177,-0.096 0.067,-0.049 0.145,-0.119 0.235,-0.211 0.095,-0.095 0.161,-0.181 0.2,-0.258 0.039,-0.077 0.059,-0.147 0.061,-0.211 0.002,-0.064 -0.02,-0.122 -0.066,-0.175 -0.046,-0.053 -0.105,-0.099 -0.177,-0.138 -1.638,-0.836 -3.21,-1.806 -4.714,-2.908 -1.505,-1.102 -2.922,-2.309 -4.251,-3.62 -1.336,-1.318 -2.562,-2.721 -3.678,-4.212 -1.116,-1.49 -2.118,-3.046 -3.006,-4.668 -0.054,-0.094 -0.106,-0.169 -0.157,-0.223 -0.051,-0.054 -0.108,-0.083 -0.171,-0.088 -0.062,-0.005 -0.131,0.016 -0.206,0.061 -0.075,0.045 -0.164,0.119 -0.267,0.223 -0.073,0.075 -0.134,0.142 -0.181,0.203 -0.047,0.06 -0.081,0.119 -0.101,0.177 -0.021,0.058 -0.031,0.111 -0.03,0.161 0,0.049 0.009,0.095 0.028,0.139 0.412,0.849 0.859,1.679 1.34,2.49 0.481,0.811 1,1.605 1.556,2.383 0.556,0.778 1.148,1.535 1.778,2.27 0.629,0.735 1.294,1.449 1.996,2.142 0.702,0.692 1.427,1.343 2.174,1.952 0.746,0.61 1.515,1.188 2.306,1.734 0.791,0.546 1.597,1.055 2.417,1.528 0.821,0.473 1.656,0.919 2.505,1.338 0.029,0.02 0.062,0.03 0.099,0.03 z"
           style="fill:#000000;fill-opacity:1;fill-rule:evenodd;stroke:none"
           id="path194" />
      </g>
    </g>
    <g
       id="g196">
      <g
         id="g198"
         clip-path="url(#clipPath202)">
        <path
           d="m 24.438,37.161 c -0.036,-0.001 -0.08,0.006 -0.131,0.02 -0.05,0.014 -0.109,0.045 -0.174,0.092 -0.066,0.048 -0.143,0.116 -0.232,0.205 -0.092,0.093 -0.158,0.178 -0.195,0.253 -0.038,0.075 -0.058,0.144 -0.059,0.207 -10e-4,0.063 0.021,0.122 0.066,0.175 0.046,0.053 0.105,0.099 0.176,0.139 1.627,0.851 3.188,1.833 4.684,2.946 1.496,1.112 2.906,2.327 4.231,3.643 1.33,1.322 2.552,2.729 3.667,4.219 1.114,1.49 2.117,3.044 3.006,4.661 0.055,0.095 0.107,0.169 0.158,0.223 0.05,0.054 0.107,0.084 0.169,0.09 0.062,0.005 0.13,-0.014 0.204,-0.057 0.074,-0.043 0.161,-0.116 0.262,-0.217 0.072,-0.073 0.131,-0.139 0.178,-0.198 0.046,-0.058 0.079,-0.116 0.098,-0.173 0.02,-0.057 0.03,-0.11 0.029,-0.159 -0.001,-0.049 -0.01,-0.095 -0.029,-0.138 -0.414,-0.846 -0.862,-1.673 -1.343,-2.482 -0.482,-0.809 -1,-1.602 -1.556,-2.38 -0.556,-0.778 -1.147,-1.535 -1.775,-2.271 -0.627,-0.737 -1.29,-1.453 -1.99,-2.148 -0.699,-0.695 -1.42,-1.349 -2.163,-1.963 -0.743,-0.614 -1.508,-1.197 -2.294,-1.749 -0.787,-0.551 -1.587,-1.067 -2.402,-1.547 -0.815,-0.48 -1.644,-0.933 -2.486,-1.36 -0.029,-0.021 -0.062,-0.031 -0.099,-0.031 z"
           style="fill:#000000;fill-opacity:1;fill-rule:evenodd;stroke:none"
           id="path204" />
      </g>
    </g>
  </g>
</svg>
