<svg width="57" height="64" xmlns="http://www.w3.org/2000/svg" xmlns:xlink="http://www.w3.org/1999/xlink" overflow="hidden"><defs><clipPath id="clip0"><rect x="583" y="322" width="57" height="64"/></clipPath></defs><g clip-path="url(#clip0)" transform="translate(-583 -322)"><path d="M0.0012114 5.50028C0.0012114 8.53802 2.23968 11.0003 5.00126 11.0003 7.76285 11.0003 10.0013 8.53802 10.0013 5.50028 10.0013 2.46253 7.76285 0.00022209 5.00126 0.00022209 2.23968 0.00022209 0.0012114 2.46253 0.0012114 5.50028Z" stroke="#000000" stroke-width="1.6" stroke-miterlimit="8" fill="none" fill-rule="evenodd" transform="matrix(1 0 0 -1 606 360)"/><path d="M0.581666 33.5237C-2.45045 28.4931 6.69683 17.4672 21.0111 8.89341 35.3267 0.320963 49.389-2.55243 52.4212 2.47676 55.452 7.50721 46.3061 18.5331 31.9919 27.1069 17.6762 35.6793 3.61389 38.5527 0.581666 33.5237Z" stroke="#000000" stroke-width="1.66667" stroke-miterlimit="8" fill="none" fill-rule="evenodd" transform="matrix(1 0 0 -1 585 372)"/><path d="M10.5012 60.0001C4.70257 60.0001 0.00113967 46.569 0.00113967 30.0001 0.00113967 13.4313 4.70257 0.000104154 10.5012 0.000104154 16.2999 0.000104154 21.0012 13.4313 21.0012 30.0001 21.0012 46.569 16.2999 60.0001 10.5012 60.0001Z" stroke="#000000" stroke-width="1.6" stroke-miterlimit="8" fill="none" fill-rule="evenodd" transform="matrix(1 0 0 -1 600 384)"/><path d="M52.4207 34.4542C49.3898 39.6244 35.3272 36.6712 21.0114 27.8606 6.69694 19.0486-2.45049 7.71502 0.581676 2.54611 3.61395-2.6228 17.6764 0.329127 31.991 9.14112 46.3068 17.9517 55.4529 29.2853 52.4207 34.4542Z" stroke="#000000" stroke-width="1.66667" stroke-miterlimit="8" fill="none" fill-rule="evenodd" transform="matrix(1 0 0 -1 585 374)"/></g></svg>