<svg width="177" height="156" xmlns="http://www.w3.org/2000/svg" xmlns:xlink="http://www.w3.org/1999/xlink" overflow="hidden"><defs><clipPath id="clip0"><rect x="562" y="284" width="177" height="156"/></clipPath><clipPath id="clip1"><rect x="579" y="298" width="122" height="123"/></clipPath><clipPath id="clip2"><rect x="579" y="298" width="122" height="123"/></clipPath><clipPath id="clip3"><rect x="579" y="298" width="122" height="123"/></clipPath></defs><g clip-path="url(#clip0)" transform="translate(-562 -284)"><g clip-path="url(#clip1)"><g clip-path="url(#clip2)"><g clip-path="url(#clip3)"><path d="M596.778 351.132 605.006 351.132 611.833 337.298 624.275 355.226 636.987 330.452 650.26 356.477 654.804 352.313 657.807 351.132 668.738 351.132 668.738 351.662C668.734 354.478 668.398 357.283 667.737 360.021L659.519 360.021 647.657 370.911 636.947 349.891 625.416 372.403 613.124 354.705 610.511 360.061 597.739 360.061C597.083 357.323 596.747 354.518 596.738 351.702L596.738 351.172ZM632.753 298C662.401 297.996 686.438 322.027 686.442 351.675 686.444 362.121 683.397 372.341 677.677 381.081L700.909 406.396 684.894 421.04 662.482 396.356C637.804 412.777 604.486 406.084 588.065 381.406 571.643 356.728 578.336 323.41 603.014 306.989 611.824 301.126 622.171 297.999 632.753 298ZM662.382 322.023C646.019 305.699 619.521 305.729 603.196 322.092 586.871 338.454 586.902 364.953 603.264 381.278 619.627 397.603 646.125 397.572 662.45 381.209 670.277 373.364 674.673 362.735 674.674 351.652 674.679 340.535 670.255 329.873 662.382 322.023Z"/></g></g></g><path d="M568.5 290.5 698.5 290.5 732.5 362.5 698.5 434.5 568.5 434.5Z" stroke="#000000" stroke-width="10.6667" stroke-miterlimit="8" fill="none" fill-rule="evenodd"/></g></svg>