<?xml version="1.0" encoding="utf-8"?>
<!-- Generator: Adobe Illustrator 25.4.1, SVG Export Plug-In . SVG Version: 6.00 Build 0)  -->
<svg version="1.1" id="Ebene_1" xmlns="http://www.w3.org/2000/svg" xmlns:xlink="http://www.w3.org/1999/xlink" x="0px" y="0px"
	 viewBox="0 0 225.9 68" style="enable-background:new 0 0 225.9 68;" xml:space="preserve">
<style type="text/css">
	.st0{fill:#FFFFFF;}
	.st1{font-family:'MyriadPro-Regular';}
	.st2{font-size:19.4779px;}
</style>
<g>
	<g>
		<path class="st0" d="M81.9,20.5c0-2.4,0-4.6-0.1-6.5c-0.1-1.9-0.1-3.8-0.3-5.7c0.5,0.1,1,0.1,1.6,0.2s1.3,0.1,2,0.1
			c1,0,2.1,0,3.2-0.1c1.1-0.1,2.2-0.1,3.2-0.1c2.1,0,3.7,0.2,4.9,0.5c1.2,0.3,2.1,0.8,2.8,1.3c0.9,0.8,1.6,1.6,2.1,2.6
			c0.4,0.9,0.7,2.1,0.7,3.4c0,1.7-0.3,3.1-0.8,4.3c-0.6,1.2-1.3,2.2-2.4,2.9c-1,0.8-2.2,1.3-3.6,1.7c-1.4,0.4-2.9,0.5-4.6,0.5h-2.3
			c0,2.2,0,4.4,0.1,6.6c0,2.2,0.1,4.4,0.3,6.5c-0.5-0.1-1-0.1-1.6-0.1h-2h-2c-0.6,0-1.1,0-1.6,0.1c0.1-1.8,0.2-3.7,0.3-5.6
			c0.1-1.9,0.1-4.1,0.1-6.5V20.5z M95.1,16.8c0-1.1-0.1-2.1-0.4-2.8c-0.3-0.8-0.6-1.4-1-1.8c-0.4-0.5-0.9-0.8-1.5-1
			c-0.6-0.2-1.2-0.3-1.8-0.3h-1h-0.4c-0.1,0-0.3,0-0.4,0c0,2.1-0.1,4.2-0.1,6.3c0,2,0,4.1,0,6.2c0.7,0,1.5-0.1,2.3-0.2
			c0.8-0.1,1.5-0.4,2.1-0.9c0.6-0.5,1.2-1.1,1.6-2C94.9,19.3,95.1,18.2,95.1,16.8"/>
		<path class="st0" d="M106,12.6c-0.1-2.4-0.1-4.9-0.3-7.3c0.4,0.1,0.9,0.1,1.5,0.2c0.6,0,1.2,0.1,1.9,0.1c0.6,0,1.3,0,1.9-0.1
			c0.6,0,1.1-0.1,1.5-0.2c-0.1,2.5-0.2,4.9-0.3,7.3c-0.1,2.4-0.1,5.1-0.1,8v2.9c0,2.9,0,5.5,0.1,8c0.1,2.4,0.1,4.8,0.3,7.2
			c-0.4-0.1-0.9-0.1-1.5-0.1h-1.9h-1.9c-0.6,0-1.1,0-1.5,0.1c0.1-2.4,0.2-4.8,0.3-7.2c0.1-2.4,0.1-5.1,0.1-8v-2.9
			C106.1,17.7,106.1,15.1,106,12.6"/>
		<path class="st0" d="M117.8,19.9c1.2-1,2.6-1.8,4-2.3c1.4-0.5,2.9-0.8,4.3-0.8c1.2,0,2.3,0.1,3.2,0.4c1,0.3,1.8,0.7,2.6,1.3
			c0.7,0.6,1.3,1.3,1.7,2.2c0.4,0.9,0.6,2,0.6,3.3c0,1.9,0,3.6-0.1,5.2c0,1.6-0.1,3.2-0.1,4.8c0,0.7,0.1,1.3,0.2,1.7
			c0.1,0.4,0.3,0.7,0.5,0.9c0.2,0.2,0.5,0.3,0.8,0.4c0.3,0.1,0.7,0.1,1.2,0.1v1.1c-0.9,0.4-1.6,0.6-2.2,0.8
			c-0.6,0.2-1.2,0.3-1.9,0.3c-1.1,0-2-0.3-2.7-0.8c-0.7-0.5-1.2-1.3-1.5-2.3c-0.7,0.9-1.5,1.7-2.4,2.3c-0.9,0.6-2,0.8-3.4,0.8
			c-1.1,0-2.1-0.1-2.9-0.4c-0.8-0.3-1.5-0.7-2-1.3c-0.5-0.5-0.9-1.2-1.1-1.9c-0.2-0.7-0.4-1.4-0.4-2.1c0-1,0.2-1.8,0.5-2.5
			c0.3-0.7,0.8-1.3,1.3-1.8c0.6-0.5,1.3-0.9,2.1-1.3c0.8-0.3,1.7-0.6,2.7-0.9c1.2-0.3,2.2-0.6,2.9-0.8c0.7-0.2,1.3-0.4,1.6-0.7
			c0.4-0.2,0.6-0.5,0.7-0.7c0.1-0.3,0.2-0.6,0.2-1c0-1.1-0.4-2-1.1-2.7c-0.8-0.8-1.8-1.1-3.1-1.1c-0.5,0-1,0.1-1.5,0.2
			c-0.5,0.1-1,0.3-1.5,0.6c-0.5,0.2-0.9,0.5-1.3,0.8c-0.4,0.3-0.7,0.6-0.9,0.9h-0.3L117.8,19.9z M128.3,31.9c0-1.3,0-2.2,0-2.9
			c0-0.7,0-1.2,0-1.7c-0.6,0.4-1.3,0.6-2,0.9c-0.7,0.2-1.3,0.5-1.9,0.8c-0.6,0.3-1,0.8-1.4,1.4c-0.4,0.6-0.6,1.4-0.6,2.6
			c0,1.1,0.2,1.9,0.7,2.5c0.5,0.6,1.1,0.9,1.8,0.9c1,0,1.8-0.4,2.4-1.1C128,34.5,128.3,33.4,128.3,31.9"/>
		<path class="st0" d="M146,20.7c0.8-1.2,1.8-2.2,2.9-2.9c1.1-0.7,2.4-1,3.8-1c2.2,0,3.9,0.6,5.1,1.9c1.2,1.3,1.8,3.4,1.8,6.2
			c0,1.5,0,2.8-0.1,4c-0.1,1.1-0.1,2.3-0.1,3.4c0,0.9,0,2,0.1,3.1c0,1.1,0.1,2.2,0.2,3.2c-0.4-0.1-0.9-0.1-1.5-0.1h-1.9h-1.9
			c-0.6,0-1.1,0-1.5,0.1c0.2-1.5,0.3-3.3,0.4-5.4c0.1-2.1,0.1-4.5,0.1-7.1c0-1.9-0.3-3.2-1-4.1c-0.6-0.9-1.5-1.3-2.7-1.3
			c-1.3,0-2.3,0.6-2.9,1.7c-0.6,1.1-0.9,2.7-0.9,4.8V29c0,1.8,0,3.5,0.1,5.1c0,1.6,0.1,3.1,0.3,4.6c-0.4-0.1-0.9-0.1-1.4-0.1H143
			h-1.9c-0.6,0-1,0-1.5,0.1c0.1-1.5,0.2-3,0.3-4.6c0-1.6,0.1-3.3,0.1-5.1v-1.8c0-1.8,0-3.5-0.1-5.1c0-1.6-0.1-3.2-0.3-4.8
			c0.5,0.1,1.1,0.1,1.6,0.2c0.5,0,1,0.1,1.6,0.1c0.5,0,1.1,0,1.6-0.1c0.5,0,1.1-0.1,1.7-0.2L146,20.7L146,20.7z"/>
		<path class="st0" d="M180.4,7.7c2.4,0,4.6,0.3,6.6,1c2,0.6,3.8,1.6,5.3,2.9c1.5,1.3,2.7,2.9,3.6,4.9c0.9,2,1.3,4.3,1.3,7
			c0,1.7-0.3,3.4-0.8,5c-0.5,1.6-1.3,3-2.2,4.3c-1,1.3-2.2,2.4-3.5,3.4c-1.4,1-3,1.8-4.7,2.4c1.1,0.6,2.2,1.2,3.3,1.9
			c1.1,0.7,2.1,1.3,3.1,1.9c1,0.6,1.9,1.2,2.8,1.7c0.9,0.5,1.7,0.9,2.3,1.2c-1,0.1-2,0.4-3,0.8c-1,0.4-2,0.9-3.2,1.5
			c-1-0.8-1.9-1.5-2.7-2.1c-0.8-0.6-1.6-1.2-2.4-1.8c-0.8-0.6-1.7-1.3-2.7-2c-1-0.7-2.2-1.5-3.7-2.5c-2.2,0-4.2-0.3-6.2-0.9
			c-2-0.6-3.7-1.5-5.2-2.8c-1.5-1.3-2.7-2.9-3.6-4.9c-0.9-2-1.3-4.4-1.3-7.1c0-2.2,0.4-4.2,1.2-6.1c0.8-1.9,2-3.6,3.4-5
			c1.5-1.4,3.3-2.6,5.3-3.4C175.6,8.1,177.9,7.7,180.4,7.7 M190,22.5c0-1.9-0.2-3.6-0.7-5.2c-0.5-1.5-1.1-2.8-2-3.9
			c-0.8-1.1-1.9-1.9-3.1-2.5c-1.2-0.6-2.5-0.9-3.9-0.9c-1.5,0-2.9,0.4-4,1.1c-1.2,0.7-2.2,1.7-3,2.9c-0.8,1.2-1.5,2.7-1.9,4.4
			c-0.4,1.7-0.6,3.4-0.6,5.3c0,2.4,0.3,4.3,0.8,6c0.5,1.6,1.2,2.9,2,3.9c0.9,1,1.8,1.7,3,2.1c1.1,0.4,2.3,0.7,3.5,0.7
			c1.3,0,2.6-0.3,3.8-0.8c1.2-0.6,2.3-1.4,3.2-2.6c0.9-1.1,1.6-2.6,2.2-4.4C189.7,27.1,190,25,190,22.5"/>
		<path class="st0" d="M208.9,33.2c0,2.3,0.1,4.1,0.3,5.5c-0.5-0.1-1-0.1-1.6-0.1h-2h-2c-0.6,0-1.1,0-1.6,0.1
			c0.1-1.8,0.2-3.7,0.3-5.6c0.1-1.9,0.1-4.1,0.1-6.5v-6c0-2.4,0-4.6-0.1-6.5c-0.1-1.9-0.1-3.8-0.3-5.7c0.5,0.1,1,0.1,1.6,0.2
			c0.6,0,1.3,0.1,2,0.1c0.7,0,1.4,0,2-0.1c0.6,0,1.1-0.1,1.6-0.2c-0.1,0.9-0.2,2.2-0.3,4c0,1.8-0.1,3.7-0.1,5.9v4.2
			c1-1.2,2.1-2.5,3.2-3.9c1.2-1.4,2.3-2.8,3.3-4.1c1.1-1.3,2-2.5,2.9-3.6c0.9-1.1,1.5-1.9,1.9-2.5c0.4,0.1,0.8,0.1,1.2,0.2
			c0.4,0,0.8,0.1,1.2,0.1c0.4,0,0.8,0,1.3-0.1c0.4,0,0.9-0.1,1.4-0.2c-0.5,0.5-1.3,1.3-2.3,2.4c-1,1.1-2.1,2.3-3.3,3.6
			c-1.2,1.3-2.3,2.6-3.3,3.8c-1.1,1.2-1.9,2.2-2.5,2.9c0.9,1.4,2,3,3.1,4.8c1.2,1.7,2.3,3.4,3.4,5.1c1.1,1.7,2.2,3.2,3.2,4.6
			c1,1.4,1.8,2.5,2.3,3.2c-0.9-0.1-1.6-0.1-2.3-0.1h-2h-1.9c-0.6,0-1.3,0-1.9,0.1c-1.5-2.2-3-4.5-4.4-6.8c-1.4-2.3-2.9-4.6-4.4-6.9
			h-0.1C208.8,28.1,208.8,30.9,208.9,33.2"/>
	</g>
	<g>
		<g>
			<path class="st0" d="M13.8,38.9c-0.7-1-0.7-2.5,0-3.4c-0.6-0.4-1-0.8-0.8-1.7c0.2-0.7,0.6-1.1,1.1-1.6c-1.1-0.2-1.8-0.6-2.5-1.4
				c-0.7-0.7-1.4-1.6-1.8-2.5c-0.4-1-0.1-2,0.2-2.9l0-0.1c0.4-1.1,0.9-2.3,2-2.9c-0.5-0.7-0.7-1.8-0.4-2.7c0-0.1,0.1-0.2,0.2-0.3
				c0.1-0.1,0.2-0.2,0.2-0.3c0-0.1-0.1-0.2-0.2-0.3c-0.1-0.1-0.1-0.1-0.2-0.2c-0.2-0.3-0.6-0.6-0.3-1.1c0.1-0.2,0.4-0.5,0.7-0.4
				c0.2,0.1,0.3,0.3,0.4,0.5c0.1,0.2,0.2,0.4,0.3,0.5c0.2,0.1,0.4,0,0.6,0c0.2-0.1,0.4-0.1,0.6-0.1c0.1,0,0.2,0,0.2,0.1c0,0,0,0,0,0
				c0-0.2-0.1-0.3-0.2-0.4c-0.1-0.1-0.1-0.1-0.2-0.2c-0.1-0.2-0.2-0.4-0.3-0.6c-0.1-0.2-0.2-0.4-0.3-0.5c-0.1-0.1-0.1-0.1-0.2-0.1
				c0,0-0.1,0-0.2,0l-0.1,0c-0.1,0-0.3,0.1-0.4,0.1c-0.3,0.1-0.6,0.2-0.9,0.5c-1.2,0.7-1.7,2.4-1.2,3.7l0,0.1
				c0.2,0.4,0.2,0.5-0.2,0.8c-0.1,0.1-0.3,0.2-0.4,0.3c-0.2,0.1-0.4,0.3-0.6,0.5c-0.3,0.4-0.3,1-0.1,1.4c0.1,0.2,0.2,0.3,0.4,0.5
				c0.2,0.2,0.3,0.4,0.5,0.6l0,0.1l-0.1,0.1C9.5,25,9.4,25,9.2,25c-0.5-0.2-1.2-1.2-1.4-1.7c-1.6,0.7-2.1,2.2-2.3,3.5
				c-0.3,1.4,0.4,2.8,1.8,3.8c0.7,0.4,1.5,0.5,2,0.5c0,0,0.1,0,0.1,0c0.9,0,1,0.2,1,0.3c0.1,0.2-0.2,0.4-0.3,0.4
				c-0.2,0.1-0.6,0.1-0.9,0.1l-0.1,0c-0.2,0-0.3,0-0.5-0.1c-0.3,0-0.6-0.1-0.8-0.1c-0.3,0-0.4,0.6-0.4,0.9c0,0.4,0.2,0.7,0.5,1
				c0,0,0,0,0.1,0.1c0.3,0.3,0.7,0.6,0.5,0.9c-0.1,0.2-0.2,0.2-0.4,0.2c-0.6,0-1.5-1.3-1.6-1.5c-0.3-0.8-0.2-1.5,0.4-2.1
				c-0.4-0.3-0.8-0.6-1.1-0.9c-0.1,0.2-0.2,0.3-0.3,0.5c-0.3,0.4-0.5,0.8-0.7,1.3c-0.2,0.7-0.2,1.2,0.1,1.9c0.7,1.7,2.4,3,4.1,3.2
				C8.9,36.7,9,36.2,9,35.8c0.1-0.3,0.2-0.6,0.4-0.8c0.1-0.2,0.3-0.4,0.3-0.7l0,0l0,0c0,0,0,0,0,0c0,0,0,0,0,0l-0.1,0
				c-0.1-0.1-0.2-0.1-0.3-0.2c-0.2-0.1-0.4-0.3-0.5-0.6c-0.1-0.1-0.1-0.6,0.1-0.8c0.1-0.1,0.2-0.1,0.2-0.1c0.1,0,0.2,0.1,0.4,0.4
				c0,0.1,0.1,0.1,0.1,0.2c0.1,0.1,0.2,0.2,0.4,0.3c0.3,0.2,0.5,0.3,0.8,0.4c0.1,0,0.2,0,0.3,0c0.3,0,0.6,0,0.7,0.2
				c0.2,0.2,0.2,0.3,0.1,0.4c-0.1,0.3-0.4,0.3-0.6,0.4c-0.8,0.2-1.3,0.4-1.6,1c-0.1,0.2-0.1,0.4-0.1,0.6c0,0.2,0.1,0.8,0.2,1
				c0.1,0,0.4,0,0.5,0c0.2,0,0.2,0,0.3-0.3l0.1-0.1c0.2-0.4,0.5-0.9,1.1-1l0.1,0l0,0.1c0.1,0.4-0.2,0.8-0.5,1.1
				c-0.1,0.1-0.2,0.2-0.2,0.3c-0.1,0.3-0.2,0.5-0.2,0.8c0,0.5,0.1,0.9,0.3,1.3l0.1,0.2c0.1,0.2,0.2,0.6,0,0.7
				c-0.2,0.1-0.5-0.1-0.6-0.2c-0.5-0.5-0.7-1.4-0.6-2.1c-0.2,0-0.5-0.1-0.7-0.1C9.4,38,9.2,37.9,9,37.9c-0.4,0-0.6-0.1-1-0.2
				c0,0,0,0,0,0c0.1,0.5,0.1,0.9,0.1,1.3c0,0.7,0,1.3,0.3,1.9c0.4,0.9,0.9,1.8,1.9,2.2c0.4,0.2,0.7,0.2,0.9,0.2
				c0.1,0,0.2-0.1,0.3-0.1c0.1-0.1,0.3-0.1,0.5-0.1l0.2,0l0,0.2c0,0.3-0.1,0.5-0.2,0.6c0.7,0.1,1.3,0.1,1.9-0.4
				c0.4-0.3,0.6-0.6,0.8-1c0.1-0.2,0.3-0.4,0.4-0.6c-0.1,0-0.1,0-0.2,0c-0.5-0.1-1-0.2-1.4-0.4C13,41.3,13,41.1,13,41
				c0.1-0.2,0.3-0.3,0.7-0.2c0.2,0,0.4,0.1,0.6,0.2c0.3,0.1,0.6,0.2,1,0.2l0.1,0c0.4,0,0.6,0,0.9-0.2C15.3,40.5,14.6,40,13.8,38.9z"
				/>
			<path class="st0" d="M43.6,10.2C43.6,10.2,43.6,10.2,43.6,10.2c-0.2-0.4-0.6-0.7-1-0.8c-0.7-0.1-1.6,0.2-2.1,0.7l0,0
				c-0.2,0.2-0.3,0.3-0.6,0.3c-0.1,0-0.2,0-0.2,0c-0.2,0.1-0.3,0.2-0.3,0.3c0,0.3,0.1,0.6,0.3,0.8c0,0,0,0,0.1,0
				c0.3,0.2,0.5,0.3,0.6,0.6c0,0.1,0,0.2-0.1,0.3c-0.2,0.2-0.5-0.1-0.7-0.2c0,0-0.1,0-0.1-0.1c-0.5-0.3-1-0.7-1.1-1.4
				c0-0.6,0.6-1.4,1.2-1.4c0.1,0,0.2,0,0.3,0.1c0,0,0.1,0,0.1,0c0.1,0,0.2-0.1,0.3-0.2c0.1-0.1,0.2-0.1,0.2-0.2
				C40.7,9,41,8.9,41.2,8.8c-1-0.6-1.8-0.7-2.5-0.5c-0.5,0.2-0.8,0.5-1.1,0.9l-0.1,0.1c-0.1,0.1-0.1,0.2-0.2,0.2
				c-0.2,0.2-0.4,0.5-0.6,0.7c-0.1,0.1-0.4,0.2-0.6,0.1c-0.1,0-0.2-0.1-0.2-0.3c0-0.2,0.3-0.5,0.7-0.9c0.1-0.1,0.3-0.3,0.3-0.3
				c0-0.1,0.1-0.1,0.2-0.2c0.1-0.1,0.1-0.1,0.2-0.2c0-0.1,0.1-0.1,0.1-0.1c0,0,0,0-0.1,0c-0.1,0-0.1-0.1-0.2-0.2
				c0,0-0.6-0.6-0.4-0.9c0-0.1,0.1-0.2,0.4-0.1c0.2,0,0.3,0.2,0.4,0.3c0.1,0.1,0.2,0.2,0.2,0.2l0.1,0.1c0,0,0.1,0,0.1,0
				c0.1,0,0.2-0.1,0.3-0.1c0-0.1,0-0.2-0.1-0.3c0-0.1,0-0.2-0.1-0.3c-0.1-0.3-0.2-0.5-0.3-0.8C37.5,5.6,37,5.2,36.5,5
				c-0.7-0.3-1.7-0.1-2.4,0.2c-0.7,0.2-1,0.8-1.3,1.4c0.6,0.2,2.2,0.7,2.3,1.2c0,0.1,0,0.2-0.1,0.3c-0.2,0.2-0.6,0-0.8-0.2
				c-0.1,0-0.1-0.1-0.1-0.1c-0.1,0-0.2-0.1-0.3-0.1l-0.2,0c-0.3-0.1-0.3-0.1-0.5,0l-0.2,0.1c-0.3,0.2-0.5,0.3-0.8,0.2
				c-0.1-0.1-0.2-0.2-0.3-0.4c-0.4,0.2-0.7,0.4-1,0.7l-0.1,0.1c-0.1,0.1-0.3,0.2-0.4,0.2c-0.1,0-0.2-0.1-0.2-0.2
				c-0.1-0.3,0.2-0.6,0.4-0.8c0,0,0.1-0.1,0.1-0.1c0.1-0.1,0.3-0.3,0.5-0.4c0.1,0,0.2-0.1,0.3-0.1c0.1,0,0.2-0.1,0.2-0.1
				c-0.1-0.1-0.2-0.1-0.4-0.3l-0.1,0c-0.7-0.5-1.4-0.4-2.2,0.3c-0.1,0.1-0.3,0.2-0.4,0.4c-0.1,0.1-0.2,0.2-0.3,0.3
				c-0.1,0.1-0.1,0.1-0.2,0.1c-0.2,0.2-0.2,0.2-0.2,0.4c0,0.1,0,0.1,0,0.1c0.1,0.1,0.1,0.2,0,0.4c-0.1,0.2-0.2,0.6-0.3,0.6
				c-0.1,0.1-0.3,0.1-0.4,0.1C27,9,26.9,8.7,26.8,8.4c0-0.1-0.1-0.2-0.1-0.2c-0.1-0.2-0.6-0.2-1-0.2c-0.1,0-0.3,0-0.4,0
				c-1-0.1-1.9,0.2-2.6,0.7C22,9.2,21.4,10,21,10.7c-0.2,0.5-0.4,0.9-0.4,1.4c0,0,0,0,0,0.1c0,0.1,0,0.4-0.1,0.5
				c-0.1,0-0.2,0.1-0.3,0c-0.2-0.1-0.3-0.4-0.3-0.7c0-0.1,0-0.2,0-0.3c0-0.1,0-0.2,0-0.3c0,0-0.4,0-0.6,0c-0.5,0-1,0.3-1.3,0.6
				c-0.5,0.4-0.9,1.1-0.8,1.8c0.5-0.3,0.9-0.5,1.4-0.6c0.8-0.2,1.3-0.2,1.6,0c0.1,0.1,0.4,0.3,0.3,0.5c-0.1,0.2-0.4,0.2-0.8,0.2
				c-0.1,0-0.2,0-0.2,0c-0.4,0-0.9,0.2-1.5,0.5c-0.8,0.4-1.3,1.2-1.4,2c0,0.1,0,0.3,0,0.4c0.1,0.3,0.1,0.6,0,0.8
				c-0.1,0.2-0.3,0.2-0.4,0.2c-0.3,0-0.5-0.4-0.5-0.7c-0.1-0.3,0-0.7,0.1-1c0-0.1,0-0.1,0-0.2l0-0.1c0-0.2,0.1-0.4,0.2-0.6
				c0-0.1,0.2-0.3,0.3-0.4c0.1-0.1,0.2-0.3,0.2-0.4c0,0,0-0.1-0.1-0.1c-0.1-0.1-0.1-0.2-0.1-0.3c0-0.2,0-0.4,0-0.6l0-0.1
				c0-0.1,0-0.1,0-0.2c0,0,0-0.1,0-0.1c0,0,0,0-0.2,0c-0.7-0.1-2,0.4-2.4,1c-0.3,0.4-0.3,1.1-0.1,1.7c0.1,0.4,0.3,1,0.6,1.3
				c0.1,0.1,0.2,0.1,0.3,0.2c0.3,0.2,0.6,0.4,0.6,0.7c0,0.2-0.1,0.3-0.2,0.4c-0.1,0.1-0.1,0.1-0.1,0.2c-0.1,0.2-0.1,0.3-0.1,0.5
				c0,0.1,0,0.1,0,0.2l0,0.2c-0.1,0.4-0.2,0.7-0.1,1.1c0,0.4,0.2,0.7,0.4,1.1c0.2,0.3,0.3,0.5,0.4,0.8c0,0.1,0.1,0.4-0.1,0.5
				c-0.3,0.2-0.9-0.5-0.9-0.6c-0.8-1-0.6-2-0.5-3c0-0.3,0.1-0.6,0.1-0.9c-0.1,0.2-0.3,0.3-0.4,0.3c-0.2,0.1-0.4,0.2-0.6,0.2
				c-0.3,0.1-0.4,0.1-0.5,0.3c-0.1,0.3-0.2,0.5-0.3,0.8c-0.1,0.6,0.2,1.1,0.3,1.5c0,0,0,0.1,0.1,0.1c0.2,0.3,0.4,0.6,0.2,0.8
				c0,0.1-0.1,0.1-0.4,0.2c-0.1,0-0.3,0.1-0.3,0.1c-0.3,0.2-0.5,0.5-0.7,0.7c-0.6,0.8-1,2-1.2,3c-0.1,0.7,0.2,1.3,0.5,1.8
				c0.8,1.4,1.8,2.3,2.9,2.7c0.5,0.2,1,0.2,1.5,0.2l0.2,0c0.2,0,0.5,0,0.6,0.2c0.1,0.1,0,0.2,0,0.4c-0.1,0.2-0.4,0.2-0.7,0.3
				c-0.1,0-0.2,0-0.3,0.1c-0.5,0.2-1.2,0.9-1.2,1.4c0,0.3,0.2,0.6,0.5,0.8c0.1,0.1,0.3,0.3,0.4,0.5c0.2,0.4,0,0.7-0.2,0.9
				c-0.1,0.1-0.2,0.2-0.2,0.3c-0.2,0.4-0.2,0.8-0.2,1.2c0.2,1,1.1,1.9,1.4,2.1c0.5,0.4,1.6,0.8,2.3,0.4c0.4-0.2,0.5-0.5,0.6-1
				c-0.2,0.1-0.5,0.2-0.7,0.1c-0.2-0.1-0.3-0.2-0.3-0.3c0-0.2,0.1-0.3,0.4-0.5c0.4-0.2,0.9-0.4,1.4-0.6l0.2-0.1
				c1.3-0.5,2.3-1.3,3-2.3c0.5-0.6,0.9-1.5,1.2-2.2c0-0.1,0.1-0.2,0.1-0.2c0.1-0.2,0.1-0.4,0.2-0.5c0,0,0-0.2,0-0.4
				c0-0.5,0-0.7,0.1-0.8c0.1-0.1,0.1-0.1,0.2-0.1c0.2,0,0.5,0.3,0.5,0.4c0.2,0.3,0.1,0.5,0.1,0.7c0,0,0,0,0,0
				c0.2-0.1,0.5-0.2,0.6-0.4c0.3-0.3,0.6-1,0.5-1.4l0,0c0,0,0,0,0-0.1c0,0-0.1,0-0.2-0.1c-0.1,0-0.2-0.1-0.4-0.1c-0.1,0-0.1,0-0.2,0
				c-0.4-0.1-0.8-0.3-1.2-0.5c-0.1,0-0.2-0.1-0.2-0.1c-0.1-0.1-0.2-0.1-0.3-0.2c0,0-0.1,0-0.2,0c-0.2,0-0.4-0.1-0.5-0.2
				c-0.1-0.2-0.2-0.3-0.1-0.4c0.1-0.1,0.3-0.2,0.6-0.1c0.3,0.1,0.6,0.2,0.9,0.3c2,0.9,3.4,0.8,4.5-0.2c0.2-0.2,0.4-0.4,0.6-0.6
				c0.8-0.8,1.8-1.7,2.2-2.7c0.3-0.6,0.5-1.2,0.7-1.8c0.1-0.2,0.1-0.4,0.1-0.6c0.1-0.4,0.2-0.9,0.4-1.2l0.1-0.1l0.1,0.1
				c0.3,0.2,0.3,0.6,0.3,0.9c1.3,0.3,2.6-1.1,3.3-2c0.2-0.3,0.4-0.5,0.5-0.8c0.1-0.1,0.1-0.2,0.2-0.4c0.2-0.3,0.5-0.6,0.6-0.8
				c0.1-0.1,0.3-0.2,0.4-0.3c0.1-0.1,0.3-0.2,0.4-0.2c0.1-0.2,0.3-0.7-0.5-2.2c-0.3-0.5-0.6-1-1.1-1.3c-0.2-0.2-0.5-0.3-0.8-0.4
				c-0.5-0.2-1-0.5-1.3-0.9l-0.1-0.1l0.1-0.1c0.3-0.3,0.8,0,1.1,0.2c0.1,0,0.1,0.1,0.2,0.1c0.4,0.2,0.8,0.4,1.2,0.7
				c0.4,0.3,0.9,0.6,1.1,1.1c0.2,0.4,0.4,0.8,0.6,1.3c0.2,0.6,0.5,0.6,1.1,0.4c1-0.2,1.1-0.8,1.3-1.7c0.1-0.6,0.2-1.1,0.1-1.7
				c0-0.1-0.1-0.3-0.1-0.5c-0.1-0.2-0.1-0.4-0.1-0.6c0-0.2,0-0.7,0.3-0.8c0.1,0,0.2-0.1,0.4,0.1c0.1,0.1,0.1,0.4,0.2,0.8
				c0,0.1,0,0.2,0,0.2c0.1,0.3,0.1,0.7,0.2,1.2c0.7-0.3,1.3-0.9,1.6-1.6c0.3-0.7,0-1.3-0.3-2L43.6,10.2z M17.6,16.5
				c0.2-0.3,0.9-0.5,1.1-0.5c0.4,0,1,0.1,1.4,0.3c0.2-1.1,1.2-2.2,1.8-2.7c0,0,0.1-0.1,0.2-0.1c0.1,0,0.2-0.1,0.2-0.2
				c0-0.1,0-0.3,0-0.5c0-0.1,0-0.2,0-0.2c0,0,0-0.1,0-0.1c0-0.1,0-0.2,0-0.2c0-0.2-0.1-0.4-0.2-0.5c0,0-0.1-0.1-0.1-0.2
				c-0.2-0.2-0.6-0.6-0.3-0.9l0.1-0.1l0.1,0.1c0.9,0.5,1.3,1.2,1.3,2.3c0.4-0.2,0.8-0.4,1.2-0.5c0.2,0,0.4-0.1,0.5-0.1
				c0.2,0,0.4,0,0.6-0.1c0,0,0.1,0,0.1,0c0-0.1,0-0.1,0-0.2c0-0.2,0.1-0.3,0.1-0.5l0-0.1c0-0.1,0-0.1,0-0.2c0-0.1,0.1-0.3,0.2-0.4
				c0.1-0.1,0.1-0.2,0.1-0.2c0,0,0,0,0,0c0,0-0.1-0.1-0.1-0.1c-0.3-0.3-0.5-0.5-0.9-0.6c0,0-0.1,0-0.1,0c-0.2,0-0.6-0.1-0.7-0.3
				c-0.1-0.1,0-0.3,0.1-0.4c0.3-0.4,0.9,0,1.3,0.2c0,0,0.1,0.1,0.1,0.1c0.4,0.2,0.6,0.4,0.9,0.7c0.1,0,0.1-0.1,0.2-0.2
				c0.3-0.3,0.6-0.6,0.9-0.7C28.1,9,28.9,9,29.3,9.4l0.1,0.1l-0.1,0.1c-0.2,0.2-0.4,0.2-0.7,0.2c-0.1,0-0.1,0-0.2,0
				c-0.3,0-0.5,0.1-0.7,0.3c-0.9,0.6-1.2,1.2-1.4,2.1c0.1,0,0.3,0,0.4,0c0.3,0,0.6,0,0.8-0.1c0.2,0,0.4-0.1,0.5-0.2
				c0,0,0.1-0.1,0.1-0.2c0-0.1,0.1-0.2,0.2-0.2c0.5-0.6,1.4-1.3,2.1-1.5c0,0,0.1,0,0.1,0l0.1,0l0.1,0.1c0.3,0.5-0.4,0.9-0.7,1.1
				l-0.1,0c-0.3,0.2-0.6,0.4-0.8,0.6c-0.1,0.1-0.2,0.4-0.3,0.6c-0.1,0.3-0.2,0.5-0.4,0.7c-0.3,0.3-0.7,0.1-1,0
				c-0.1,0-0.3-0.1-0.4-0.1c-1.7-0.3-3.9,0.4-5.1,1.7c-1.3,1.2-1.6,3.2-0.9,5l0,0c0.1,0.3,0.2,0.6,0.1,0.8c0,0-0.1,0.1-0.3,0.1h0
				c-0.3,0-0.6-0.5-0.7-0.9c-0.2-0.5-0.3-1.1-0.3-1.8c0-0.1,0-0.2,0-0.3c0-0.1,0.1-0.4,0-0.5c-0.1-0.1-0.5-0.2-0.8-0.2
				c-0.1,0-0.3,0-0.5,0.1c-0.5,0.1-1.1,0.2-1.2-0.1C17.5,16.7,17.5,16.6,17.6,16.5z M21.1,33.3c-0.2,0.3-1,0.2-2-0.1
				c-0.1,0-0.1,0-0.2,0c-0.1,0.1-0.5,0.4-0.6,0.5c-0.1,0.2-0.1,0.4,0,0.7c0,0.1,0,0.1,0.1,0.2c0,0,0,0.1,0,0.1
				c0.1,0.2,0.1,0.5,0,0.7c0,0-0.1,0.1-0.2,0.1c0,0-0.1,0-0.1,0c-0.4-0.1-0.8-0.8-0.9-1.2c0-0.7,0.4-1.1,0.9-1.5
				c-1.5-0.9-2.7-2.4-3-4c0-0.1,0-0.2,0-0.3c0,0,0,0,0,0l-0.1,0l-0.1,0c0,0-0.1,0-0.1,0c0,0-0.1,0-0.1,0c-0.3-0.1-0.6-0.3-0.8-0.6
				c-0.6-0.6-0.8-1.2-0.7-1.8c0.1-0.7,0.7-1.2,1.3-1.5c0.1-0.1,0.2-0.2,0.4-0.2c0.5-0.3,1-0.7,1.6-0.6l0.2,0l-0.1,0.3l0,0l-0.1,0.2
				c0,0,0,0,0,0c0,0,0,0,0,0c-0.3,0.3-0.7,0.5-1,0.6c-0.5,0.2-1,0.5-1.2,0.9c-0.2,0.3-0.2,0.6,0,1c0.2,0.5,0.8,1,1.4,1.1
				c0.1,0,0.1,0,0.2,0c0.2,0,0.3,0.1,0.3,0.3c0,0.1,0,0.3,0,0.4c0,0.1,0,0.2,0,0.2c0.1,0.7,0.4,1.3,0.9,2c0.6,0.7,1.2,1.2,2.1,1.6
				c0.3,0.1,0.7,0.2,1.1,0.3c0,0,0.1,0,0.2,0c0.3,0,0.7,0,0.8,0.2C21.2,33.1,21.2,33.2,21.1,33.3z M22,32.7c0,0-0.1,0.1-0.2,0.1
				c-0.1,0-0.2-0.1-0.3-0.1c-0.4-0.2-0.7-1-0.9-1.5L20.6,31c-0.1-0.2-0.1-0.3-0.3-0.4c-0.1,0-0.1-0.1-0.2-0.1c0,0-0.1,0-0.1-0.1
				c0,0,0,0,0,0c0,0-0.1,0-0.1,0c-0.3-0.1-0.5-0.4-0.7-0.6l-0.1-0.1c-0.6-0.7-1.1-1.2-1.3-2.2l0-0.2c-0.1-0.5-0.2-1.1,0.4-1.4
				l0.1-0.1l0.1,0.1c0.2,0.2,0.2,0.5,0.1,0.8c0,0.1,0,0.1,0,0.2c0,0.3,0.1,0.6,0.2,0.9c0.2,0.5,0.5,1,0.9,1.4
				c0.1-0.5,0.4-0.8,0.8-1.2c0.2-0.2,0.3-0.3,0.6-0.4c0.2,0,0.7,0,0.8,0.3c0,0.1,0.1,0.2-0.1,0.4c0,0,0,0,0,0l-0.1,0.1l0,0
				c-0.1,0-0.2,0.1-0.2,0.1c-0.2,0.1-0.4,0.2-0.5,0.4c-0.1,0.2-0.2,0.4-0.2,0.5c0,0.2,0,0.2,0.2,0.3c0,0,0.1,0.1,0.1,0.1l0.1,0
				c0.3,0.2,0.6,0.5,0.7,0.9c0,0.1,0,0.2,0,0.3c0,0.1,0,0.2,0.1,0.4c0,0,0,0.1,0.1,0.1C22,32.2,22.1,32.5,22,32.7z M34.3,19.3
				c-0.1,0.2-0.4,0.1-0.8,0c-0.1,0-0.1,0-0.1,0c-0.1,0-0.3,0-0.4,0c-0.1,0-0.2,0-0.2,0c0,0-0.1,0-0.1,0c-0.1,0-0.3,0-0.4,0
				c0,0-0.1,0.3-0.1,0.5c0,0.2,0,0.3-0.1,0.3c-0.3,0.9-1,1.6-1.9,1.9c0,0,0,0,0,0c0.3,0.3,0.6,0.7,0.8,1.2c0,0,0.3,1.3-0.1,1.6
				c0,0-0.1,0-0.2,0c-0.1,0-0.2,0-0.2-0.1c-0.2-0.1-0.2-0.5-0.2-0.8c0-0.1,0-0.2,0-0.2c-0.1-0.3-0.1-0.7-0.3-0.9
				c-0.1-0.1-0.4-0.3-0.6-0.5c-0.8-0.6-0.9-0.8-0.8-1l0-0.1l0.1,0c0.3-0.1,0.5,0,0.6,0.1c0.1,0.1,0.1,0.1,0.2,0.1c0,0,0.1,0,0.1,0
				c0,0,0.1-0.1,0.2-0.1c0.1,0,0.1-0.1,0.2-0.1c0.1,0,0.1-0.1,0.2-0.1c0.5-0.3,0.8-0.6,1.1-1.1c0.1-0.2,0.3-0.5,0.3-0.7
				c0-0.2,0-0.3-0.2-0.4c-0.1-0.1-0.1-0.1-0.2-0.2c-0.2-0.3-0.3-0.5-0.3-0.7c0-0.2,0.2-0.4,0.4-0.5l0.1-0.1l0.1,0.1
				c0.1,0.1,0.1,0.2,0.2,0.3c0.1,0.1,0.2,0.3,0.3,0.4c0.2,0.1,0.5,0.2,0.8,0.3c0.1,0,0.2,0,0.3,0c0.3,0,0.7,0.1,1,0.3l0,0l0.1,0.1h0
				l0,0c0,0,0,0,0,0l0,0C34.3,19.1,34.4,19.2,34.3,19.3z M35.3,16.4c0.1-0.2,0.5-0.3,0.9-0.4c0,0,0.9-0.1,1,0.2c0,0,0,0.1,0,0.2l0,0
				l-0.1,0.1c0,0,0,0,0,0l0,0c0,0,0,0-0.1,0c0,0,0,0,0,0c-0.1,0.1-0.2,0.1-0.4,0.1c-0.1,0-0.2,0-0.3,0.1c-0.1,0-0.2,0.1-0.2,0.1
				c0,0-0.1,0-0.1,0.1c0.3,0.2,0.7,0.6,0.6,0.9c0,0.2-0.1,0.3-0.2,0.3c-0.2,0.1-0.4-0.2-0.7-0.5c0,0,0-0.1-0.1-0.1
				c-0.3-0.4-1.2-1.2-2.1-1.3c-0.8-0.1-1.6,0.2-2.4,0.4L31,16.9c-0.5,0.2-1,0.2-1.5,0.2c-0.1,0-0.3,0-0.4,0c-0.5,0-0.8,0.2-1.2,0.6
				c-0.2,0.2-0.4,0.6-0.5,1c0,0.1,0,0.1,0,0.2c-0.1,0.3-0.1,0.6-0.6,0.8c-0.1,0-0.1,0-0.2,0.1c-0.4,0.1-0.7,0.2-0.8,0.6
				c-0.1,0.3-0.1,0.5,0,0.8c0.1,0.3,0.3,0.7,0.5,1l0.1,0.1c0.1,0.1,0.2,0.3,0.3,0.3c0.1,0,0.2,0,0.3,0c0.1,0,0.1,0,0.2,0
				c0.3,0,0.7-0.1,1,0.1c0,0,0,0,0.1,0c0.1,0,0.3,0.1,0.3,0.3c0,0.1,0,0.2-0.1,0.3c-0.1,0.1-0.4,0.1-0.6,0.1l-0.1,0
				c-0.4,0-0.7,0-1.1,0.2c-0.2,0.1-0.4,0.3-0.5,0.5C26,23.9,26,24,25.9,24.1c0.5,0.6,0.6,1.1,0.4,1.8c1,0.5,1.6,1,1.8,1.6
				c0.1,0.4,0.1,0.8-0.1,1.2c-0.1,0.1-0.2,0.4-0.5,0.4c0,0-0.1,0-0.1,0c-0.3-0.1-0.3-0.7-0.3-1c0.1-0.6,0-1-0.5-1.3
				c-0.1,0-0.3-0.1-0.4-0.1c-0.3,0-0.5-0.1-0.7-0.3c-0.2-0.2-0.1-0.6-0.1-0.8c0,0,0-0.1,0-0.1c0.2-0.8-0.1-1.3-0.9-1.5
				c-0.7-0.3-1.8-0.1-2.4,0.4c-0.4,0.3-0.8,0.9-1,1.3c0,0,0,0.1-0.1,0.2c-0.1,0.5-0.2,0.7-0.4,0.8c-0.1,0-0.3,0-0.4-0.1
				C20,26.5,19.9,26.1,20,26c0-0.2,0.1-0.3,0.2-0.4c0,0,0.1-0.1,0.1-0.1c0-0.1,0.1-0.1,0.1-0.2c0.1-0.1,0.1-0.2,0.2-0.3
				c0.1-0.1,0.1-0.2,0.2-0.2c0.1-0.1,0.3-0.3,0.3-0.3c0-0.1-0.5-0.8-0.7-1c-0.3-0.3-0.9-0.6-1.3-0.7c-0.1,0-0.2,0-0.3,0
				c-0.3,0-0.7-0.1-0.7-0.4c0-0.2,0.1-0.5,0.2-0.7c0-0.1,0.1-0.2,0.1-0.2c0.2-0.4,0.2-0.8,0.1-1.1c-0.1-0.2-0.2-0.4-0.4-0.6
				c-0.2-0.2-0.3-0.4-0.4-0.7l-0.1-0.2l0.2,0c0.5-0.1,1.1,0.8,1.3,1.1c0.4,0.7,0.4,1.4,0,2.1c0.7,0.3,1.5,0.6,2,1.1
				c0.2,0.2,0.3,0.4,0.5,0.7c0,0,0,0.1,0.1,0.1c1-0.8,2.6-0.9,3.7-0.2c0.2-0.3,0.4-0.5,0.6-0.7c0,0,0.1-0.1,0.1-0.1
				c-0.8-0.6-1.4-1.7-1.1-2.7c0.2-0.9,1-1.4,1.8-1.4c0-0.7,0.4-1.7,1.1-2c-0.8-0.9-1.7-2-1.4-2.7c0.1-0.3,0.4-0.5,0.8-0.5l0.2,0
				l0,0.2c0,0.2,0,0.4,0,0.6c0,0.3,0,0.6,0.2,1c0.4,0.8,0.9,1.1,1.9,1.2c0.6,0,1.2-0.1,1.9-0.3c0.5-0.2,1.1-0.3,1.7-0.4
				C33.8,15.6,34.6,15.9,35.3,16.4z M35.9,10.8c-0.3,0.1-0.5,0.1-0.8,0.1c-0.3,0-0.6,0-1,0.2c-0.7,0.4-1,0.8-0.9,1.3
				c0,0.4,0.3,1.2,0.5,1.3c0,0,0.2,0,0.4,0c0.4,0,0.7,0,0.8,0.3c0,0.1,0,0.2-0.1,0.2c-0.2,0.2-0.5,0.3-1,0.3c-0.1,0-0.2,0-0.2,0
				c-0.1,0-0.2,0.1-0.3,0.2c-0.2,0.1-0.4,0.2-0.7,0.2c0,0,0,0,0,0c-0.1,0-0.4,0-0.4-0.2c-0.1-0.3,0.5-0.6,0.9-0.8
				c-0.4-0.4-0.7-0.8-0.8-1.4c0-0.1,0-0.2,0-0.3c0-0.1,0-0.2,0-0.3c0-0.1-0.2-0.2-0.3-0.2c-0.1-0.1-0.2-0.2-0.3-0.3
				c-0.2-0.2-0.5-0.6-0.2-1.1c0.1-0.1,0.2-0.3,0.3-0.3c0,0,0,0,0,0c0.2,0,0.2,0.2,0.3,0.3c0,0,0,0.1,0.1,0.1
				c0.1,0.3,0.3,0.5,0.5,0.7c0.3-0.3,0.7-0.7,1.1-0.9c0.4-0.2,1.2-0.3,1.7-0.1c0.3,0.1,0.4,0.2,0.5,0.4l0.1,0.2L35.9,10.8z"/>
			<path class="st0" d="M9.5,9.3C-2.7,21.4-2.9,41.1,9,53.4L53.6,8.8C41.3-3,21.6-2.9,9.5,9.3z M43,14.6c-0.1,0-0.2,0.1-0.2,0.1
				c-0.2,0.1-0.3,0.1-0.4,0.2c0,0.1-0.1,0.2-0.1,0.4c0,0.1,0,0.2,0,0.2c0,0.1-0.1,0.2-0.1,0.3c-0.1,0.3-0.1,0.5-0.2,0.8
				c-0.2,0.6-0.6,1-1.1,1.2c-0.2,0.1-0.9,0.2-1.4,0.1c0,0.3,0,0.6-0.1,0.9c0,0-0.3,0.5-0.5,0.6c-0.2,0.1-0.3,0.1-0.4,0
				c0,0-0.1,0-0.1,0c-0.1,0-0.1,0-0.2,0.1L38,19.7c-0.2,0.2-0.3,0.4-0.4,0.7l-0.1,0.1c-0.1,0.1-0.1,0.3-0.2,0.4
				c-0.5,0.6-1.1,1.2-1.7,1.8c-0.5,0.5-1.9,1.2-2.7,0.9c0,0.1-0.1,0.3-0.1,0.4c0,0.2-0.1,0.3-0.2,0.4c-0.1,0.2-0.1,0.3-0.2,0.5
				c-0.1,0.2-0.2,0.4-0.2,0.6c-0.1,0.3-0.3,0.6-0.4,0.8c-0.1,0.2-0.2,0.4-0.4,0.6c-0.5,0.5-1,1.1-1.5,1.5c-0.2,0.2-0.3,0.3-0.5,0.5
				c-0.1,0.1-0.2,0.2-0.3,0.4c-0.4,0.4-0.8,0.9-1.3,1.1c-0.4,0.1-0.7,0.2-1.1,0.2c0,0.9-0.5,2.1-1.3,2.6c-0.2,0.1-0.4,0.2-0.6,0.2
				c-0.3,0.1-0.3,0.1-0.5,0.3c-0.2,0.4-0.4,0.8-0.7,1.2c-0.4,0.6-0.6,1-1.1,1.5c-0.1,0.1-0.2,0.2-0.3,0.4c-0.4,0.5-0.9,1-1.5,1.2
				c-0.1,0.1-0.3,0.1-0.5,0.2c-0.3,0.1-0.5,0.2-0.7,0.3c-0.2,0.1-0.2,0.4-0.3,0.7c0,0.2-0.1,0.4-0.1,0.5c-0.2,0.4-0.5,0.7-0.8,1
				c-0.4,0.3-0.8,0.6-1.2,0.8c-0.3,0.2-0.6,0.3-0.9,0.5c-0.1,0.1-0.2,0.1-0.3,0.2c-0.2,0.1-0.5,0.3-0.6,0.5c0,0,0,0,0,0.1
				c0,0.1,0,0.2,0,0.2c-0.1,0.1-0.1,0.2-0.2,0.2c0,0,0,0-0.1,0.1c0,0-0.1,0.1-0.1,0.1c0,0.1-0.1,0.1-0.1,0.2c-0.6,0.8-1.2,1.2-2,1.3
				c-0.1,0-0.2,0-0.3,0c-0.3,0-0.6-0.1-0.8-0.1c-0.2-0.1-0.4-0.1-0.6-0.2c-0.1,0-0.1-0.1-0.2-0.2c0,0,0,0,0,0c-0.1,0-0.2,0-0.3,0
				c-0.1,0-0.3,0-0.5,0c-0.2,0-0.3-0.1-0.5-0.2c-0.5-0.3-1.1-0.9-1.6-1.5c-0.4-0.5-0.6-1.3-0.9-2c-0.2-0.5-0.2-0.9-0.1-1.4
				c0-0.2,0-0.5,0-0.8l0-0.1c0-0.1,0-0.2,0-0.3c0-0.2,0-0.3,0-0.4c-0.1-0.3-0.5-0.5-0.9-0.8c-0.2-0.1-0.4-0.2-0.5-0.3
				C5,35.7,4.5,35,4.3,34.1c0-0.1-0.1-0.2-0.1-0.3c-0.1-0.3-0.2-0.6-0.2-1c0-0.5,0.2-0.9,0.3-1.3c0.1-0.1,0.1-0.3,0.2-0.4
				c0.1-0.2,0.3-0.5,0.4-0.7c0.2-0.3,0.5-0.6,0.4-0.8c0-0.1-0.1-0.2-0.2-0.3c0-0.1-0.1-0.2-0.1-0.2c-0.3-0.7-0.4-1.2-0.3-1.9
				c0-0.3,0.1-0.7,0.2-1c0-0.2,0.1-0.3,0.1-0.5c0.2-1.2,0.7-2,1.5-2.6c0.1-0.1,0.3-0.2,0.4-0.3c0.1-0.1,0.2-0.2,0.4-0.2
				c0.1-0.1,0.3-0.2,0.4-0.2c0.1-0.1,0.3-0.1,0.3-0.2c0.1-0.1,0.1-0.2,0.2-0.3c0.1-0.1,0.1-0.3,0.2-0.4c0.1-0.1,0.3-0.2,0.4-0.3
				c0.1-0.1,0.3-0.2,0.4-0.3c0.1-0.1,0-0.5,0-0.8c0-0.1,0-0.2,0-0.3c0-0.3,0-0.7,0-1c0-0.7,0.3-1.2,0.7-1.8c0.8-1,2.1-1.4,3-1.5
				c-0.2-0.8-0.1-1.5,0.7-2.1c0.5-0.4,1.1-0.7,1.6-0.8c0.4-0.1,0.8-0.2,1.1-0.2l0.2,0l0,0c0.1,0,0.1,0,0.2,0.1
				c0.1-0.1,0.2-0.2,0.2-0.3c0.2-0.2,0.3-0.3,0.5-0.5c0.3-0.3,0.7-0.5,1.1-0.7c0.4-0.2,0.8-0.2,1.2-0.2c0.1,0,0.1,0,0.2,0
				c0.2,0,0.2,0,0.3-0.2l0.1-0.2c0.3-0.4,0.5-0.8,0.9-1.2C22,8.3,22.7,7.5,24,7.2c0.7-0.2,1.3-0.1,1.9,0c0.1,0,0.3,0,0.4,0
				c0.6,0,1.2-0.3,1.7-0.8c0.5-0.4,1.3-1.1,2.1-1.2c0.4,0,0.8,0.1,1.2,0.3c0.1,0.1,0.2,0.1,0.2,0.2C31.9,6,32,6.1,32.2,6
				c0.1-0.1,0.2-0.2,0.3-0.4c0.1-0.2,0.2-0.3,0.3-0.5c0.4-0.5,1-0.8,1.7-0.9c1.9-0.4,3.4,0.4,4.2,2.2c0,0.1,0.1,0.3,0.1,0.4
				C38.9,7,39,7.3,39.1,7.4c0.1,0.1,0.3,0.1,0.5,0.1c0.2,0,0.3,0,0.5,0c0.5,0.1,1.2,0.4,1.8,0.9l0,0c0.1,0.1,0.2,0.1,0.3,0.2
				c0.1,0,0.1,0,0.2,0c0.1,0,0.2,0,0.3,0.1c0.4,0.1,0.7,0.4,1,0.7l0.1,0.1c0,0,0.1,0.1,0.1,0.1c0.2,0.2,0.5,0.4,0.6,0.7l0,0
				c0,0.2,0.1,0.5,0.2,0.7c0.1,0.3,0.2,0.6,0.2,0.9c0,0.3,0,0.7-0.2,1C44.4,13.5,43.7,14.3,43,14.6z"/>
		</g>
		<g>
			<path class="st0" d="M33.4,46.5c-2-0.4-4-0.8-6-1.1c0,0.1,0,0.2,0.1,0.4c0.4,0.9,0.9,1.9,1.3,2.8c0.1,0.3,0.2,0.5,0.3,0.5
				c0.1,0,0.2-0.1,0.5-0.2c0.9-0.5,1.8-1,2.7-1.5C32.6,47,33,46.8,33.4,46.5z"/>
			<path class="st0" d="M31.1,52.3c1.1,1.6,2.4,2.9,4.2,3.7c0.5,0.2,1.1,0.4,1.6,0.4c0.4,0,0.8-0.1,1.3-0.2c1.2-0.5,2.1-1.4,2.8-2.5
				c0.7-1.1,1.2-2.3,1.5-3.5c0.3-1.1,0.6-2.2,0.9-3.3c-0.1,0-0.2,0-0.2,0h0c-1.6,0-3.2,0-4.8,0c-0.1,0-0.3,0.1-0.4,0.2
				c-0.7,0.5-1.3,1-2,1.5c-1.6,1.1-3.2,2.1-4.9,3c-0.4,0.2-0.4,0.3-0.1,0.6C31,52.2,31.1,52.2,31.1,52.3z"/>
			<path class="st0" d="M41.8,43.8c0.7,0,1.3-0.1,1.9-0.1c0-0.6,0.1-1.2,0.1-1.9C43.1,42.4,42.5,43.1,41.8,43.8z"/>
			<path class="st0" d="M54.8,10.1L10.3,54.7C22.6,66.2,42,65.9,54.1,53.9C66.1,41.8,66.4,22.5,54.8,10.1z M44.6,23.6
				c0.7,0.3,1.4,0.5,2.1,0.8c1.2,0.5,2.4,1,3.6,1.6c0-0.1,0.1-0.1,0.1-0.2c0.4-1.3,0.8-2.7,0.8-4c0-1-0.1-2.1-0.5-3
				c-0.1-0.1-0.3-0.5-0.5-0.7l0.7-0.7c0.2,0.3,0.6,0.7,0.7,1c0.4,1,0.6,2.2,0.6,3.5c-0.1,1.5-0.5,3-0.9,4.3
				c-0.1,0.2-0.2,0.3-0.2,0.4l-0.4,0.7l-0.8-0.3c-0.4-0.2-0.7-0.3-1.1-0.5c-0.9-0.4-1.7-0.7-2.5-1.1c-0.4-0.2-0.8-0.3-1.2-0.4
				c-0.3-0.1-0.6-0.2-1-0.4c-0.1,0-0.2-0.1-0.3-0.2L44.6,23.6z M29.8,51.5c0.1-0.6,0.6-0.8,0.8-0.9c1.8-0.9,3.4-2,4.8-2.9
				c0.4-0.3,0.7-0.6,1.1-0.9c0.3-0.2,0.5-0.4,0.8-0.6c0.3-0.2,0.6-0.3,1-0.3c1.4,0,2.8,0,4.2,0l0.6,0c0.2,0,0.3,0,0.4,0.1l0.1,0
				l1,0.2l-0.3,1c-0.1,0.3-0.2,0.7-0.3,1c-0.2,0.8-0.4,1.5-0.6,2.3c-0.4,1.4-1,2.7-1.7,3.7c-0.7,1-1.6,2.3-3.2,2.9
				c-0.5,0.2-1.1,0.3-1.6,0.3c-0.7,0-1.3-0.2-2-0.5c-1.8-0.8-3.3-2.1-4.6-4c0-0.1-0.1-0.1-0.1-0.2C30,52.5,29.7,52.1,29.8,51.5z
				 M29.1,49.9c-0.8,0-1.1-0.6-1.2-1l0,0c-0.2-0.5-0.5-1-0.7-1.5c-0.2-0.4-0.4-0.8-0.6-1.2c-0.1-0.2-0.1-0.3-0.1-0.4l0-0.1l-0.4-1.5
				l1.5,0.3l3.1,0.6l2.9,0.5l2.3,0.4l-1.9,1.3c-0.1,0.1-0.2,0.2-0.4,0.2c-0.3,0.2-0.5,0.4-0.8,0.5c-0.9,0.5-1.8,1-2.7,1.5
				C29.8,49.8,29.5,49.9,29.1,49.9z M43.8,44.6l-1.2,0.1l-0.7,0l-2.5,0.1l1.8-1.8l0.4-0.4l1.6-1.6l1.8-1.8l-0.1,2.5l0,0.8l-0.1,1.2
				l0,0.9L43.8,44.6z M46,43.2c0-0.2,0-0.3,0-0.4c0-0.3,0-0.6,0-0.9c0-0.6,0-1.1,0-1.7c0-0.6,0-1.3,0-1.9c0-0.3,0.1-0.7,0.3-1
				c1.3-1.6,2.5-3.3,3.4-5c0.3-0.5,0.6-1.1,1-1.8c0.3-0.6,0.8-0.8,1.1-0.8c0.3,0,0.6,0.1,0.8,0.3c1.6,1.2,3.2,2.5,4.1,4.5
				c1,2.1,0.8,4-0.7,5.7c-0.8,0.9-1.8,1.6-3,2.2c-1.6,0.8-3.4,1.3-5.6,1.8c-0.1,0-0.2,0-0.3,0l-0.1,0l-1.2,0.2L46,43.2z M45.6,33.5
				L45,30.2l-0.5-2.8l-0.3-1.8l1.7,0.7l0.7,0.3c0.5,0.2,1,0.4,1.5,0.7c0.2,0.1,0.5,0.2,0.7,0.4c0.2,0.1,0.3,0.2,0.5,0.3
				c0.4,0.2,0.6,0.5,0.7,0.8c0.1,0.2,0.1,0.6-0.1,1c-0.1,0.2-0.2,0.5-0.4,0.7c-0.3,0.5-0.5,1-0.8,1.5c-0.2,0.4-0.5,0.7-0.7,1.1
				l-0.2,0.3c-0.1,0.1-0.2,0.2-0.2,0.4l-0.1,0.2L46,35.7L45.6,33.5z M31.4,36.8c0.3,0.2,0.6,0.4,0.9,0.6c0.6,0.3,1.2,0.4,1.7,0.4
				c0.7,0,1.5-0.3,2.2-0.8c1.4-1,2-2.5,1.6-4.2c-0.1-0.6-0.4-1.2-0.8-1.6l0.7-0.7c0.5,0.6,0.9,1.3,1.1,2.1c0.5,2.1-0.1,3.9-1.9,5.2
				c-0.9,0.6-1.8,0.9-2.7,0.9c-0.7,0-1.4-0.2-2.2-0.5c-0.4-0.2-0.8-0.5-1.2-0.8L31.4,36.8z M26.4,41.8c0.1,0,0.1,0,0.2,0.1
				c0.6,0.1,1.3,0.3,1.9,0.5c2.8,0.7,5.5,1.1,8.4,1.3c0,0,0,0,0,0c0.1,0,0.3-0.1,0.4-0.1c2.1-1.8,4.1-3.7,5.9-5.8
				c0.4-0.4,0.6-0.8,0.5-1.4c0-0.1,0-0.2,0-0.4c-0.2-1.5-0.3-3-0.6-4.5c-0.3-1.7-0.8-3.4-1.2-5.1l0.7-0.7c0.1,0.1,0.2,0.3,0.2,0.5
				c0.1,0.4,0.2,0.8,0.3,1.1c0.3,1.3,0.7,2.7,0.9,4c0.2,1.1,0.3,2.1,0.5,3.2c0.1,0.4,0.1,0.9,0.2,1.3c0,0.1,0,0.1,0,0.2
				c0,0,0,0.1,0,0.1c0.2,1-0.3,1.8-0.7,2.2c-1.8,2.1-3.8,4-6,5.9c-0.3,0.2-0.7,0.4-1,0.4c0,0-0.1,0-0.1,0c-3-0.2-5.8-0.7-8.5-1.3
				c-0.2-0.1-0.4-0.1-0.7-0.2c-0.4-0.1-0.8-0.2-1.2-0.3c-0.3-0.1-0.5-0.2-0.6-0.3L26.4,41.8z M18.1,50.2c0.7,0.6,1.5,0.9,2.6,1
				c0.3,0,0.5,0,0.8,0c1.5,0,3-0.4,4.4-0.8c0.2-0.1,0.2-0.2,0.1-0.3c-0.3-0.6-0.6-1.1-0.8-1.7c-0.5-1.2-1-2.5-1.4-3.7c0,0,0,0,0-0.1
				l0.7-0.7c0.1,0.1,0.2,0.3,0.2,0.4l0.1,0.2c0.4,1.2,0.9,2.4,1.4,3.5c0.2,0.4,0.4,0.9,0.6,1.3l0.2,0.4c0.2,0.4,0.2,0.8,0.1,1
				c-0.1,0.2-0.3,0.5-0.8,0.7c-1.5,0.5-3,0.9-4.7,0.9c-0.3,0-0.6,0-0.9,0c-1.3-0.1-2.3-0.5-3.2-1.3L18.1,50.2z M52.9,44.8
				c-1.9,0.8-4,1.3-6,1.6c-0.3,0-0.4,0.1-0.4,0.4c-0.3,2-0.8,3.9-1.5,5.7c-0.8,2-2.1,4.1-3.6,5.3C40,59,38.5,59.4,37,59.4
				c-1.7,0-3.4-0.6-4.4-1.3c-1.9-1.3-2.5-2-3.4-3.2c-0.4-0.6-0.8-1.1-1.3-1.7c-0.1-0.1-0.2-0.1-0.3-0.1c0,0-0.1,0-0.1,0
				c-0.7,0.2-1.4,0.4-2,0.6c-1.3,0.4-2.7,0.6-4,0.6c-1,0-1.9-0.1-2.9-0.4c-1.1-0.3-2-0.8-2.7-1.5l0.7-0.7c0.6,0.6,1.4,1,2.3,1.3
				c0.8,0.2,1.7,0.4,2.6,0.4c1.1,0,2.4-0.2,3.8-0.6c0.4-0.1,0.7-0.2,1.1-0.3c0.3-0.1,0.6-0.2,0.9-0.3c0.1,0,0.2,0,0.4,0
				c0.2,0,0.7,0,1.1,0.5c0.2,0.3,0.4,0.6,0.6,0.8c0.2,0.3,0.4,0.6,0.6,0.8c0.9,1.2,1.4,1.7,3.2,3c0.8,0.5,2.2,1.1,3.8,1.1
				c1,0,2.5-0.2,3.8-1.3c1.3-1,2.5-2.8,3.3-4.9c0.7-1.7,1.1-3.5,1.4-5.5c0.1-0.7,0.5-1.1,1.2-1.2c2.1-0.3,4-0.8,5.8-1.6
				c1.9-0.8,3.4-1.8,4.6-3.1c1.1-1.2,1.6-2.6,1.5-4.2c-0.1-1.6-0.8-3.1-2.1-4.7c-1-1.2-2.3-2.3-3.7-3.3c-0.4-0.3-0.8-0.8-0.6-1.6
				c0.1-0.3,0.2-0.6,0.2-0.8c0.3-0.9,0.5-1.7,0.7-2.5c0.4-1.8,0.3-3.5-0.1-5c-0.3-0.9-0.7-1.6-1.3-2.2l0.7-0.7
				c0.7,0.7,1.2,1.6,1.5,2.6c0.6,1.8,0.6,3.7,0.2,5.5c-0.2,1.2-0.6,2.3-0.9,3.4c-0.1,0.2-0.1,0.4,0.2,0.5c1.5,1,2.8,2.1,3.9,3.4
				c1.3,1.5,2.2,3.2,2.3,5.2c0.1,1.9-0.5,3.5-1.7,4.9C56.5,43,54.8,44,52.9,44.8z"/>
			<path class="st0" d="M46.9,32.8c0.3-0.5,0.6-0.9,0.9-1.4c0.4-0.7,0.8-1.5,1.2-2.2c0.1-0.2,0-0.3-0.2-0.4
				c-0.4-0.2-0.8-0.4-1.2-0.6c-0.7-0.3-1.4-0.6-2.2-0.9c0.4,2,0.8,4,1.1,6C46.7,33.1,46.8,32.9,46.9,32.8z"/>
			<path class="st0" d="M52.7,41.5c1-0.5,2-1.1,2.7-2c1.4-1.5,1.3-3,0.6-4.6c-0.9-1.7-2.3-3-3.9-4.1c-0.1-0.1-0.2-0.1-0.3-0.1
				c-0.1,0-0.2,0.1-0.3,0.3c-0.3,0.6-0.6,1.2-1,1.8c-1,1.8-2.2,3.5-3.5,5.1C47,38,47,38.1,47,38.2c0,1.2,0,2.4,0,3.7
				c0,0.4,0,0.9-0.1,1.3c0.2,0,0.3,0,0.4,0C49.1,42.8,51,42.3,52.7,41.5z"/>
		</g>
	</g>
	<text transform="matrix(1 0 0 1 81.6387 62.0929)" class="st0 st1 st2">Beta Version</text>
</g>
</svg>
