<?xml version="1.0" encoding="utf-8"?>
<svg version="1.1" id="Layer_1" xmlns="http://www.w3.org/2000/svg" xmlns:xlink="http://www.w3.org/1999/xlink" x="0px"
     y="0px" viewBox="0 0 122.4 122.88" style="enable-background:new 0 0 122.4 122.88" xml:space="preserve"><style type="text/css">.st0{fill-rule:evenodd;clip-rule:evenodd;}</style>
  <g><path class="st0" d="M22.72,70.1c-8.37,1.51-16.51,4.35-20.93,15.44c-2.87,7.19-2.21,15.85,1.44,23.7 c9.88-30.07,44.48-12.31,22.22,13.6c16.29,0.81,26.61-10.58,28.23-25.95c0.77-7.26,1.4-11.17,2.99-14.3 c0.85-1.73,2.03-3.17,3.61-4.9c5.34-5.86,11.28-10.98,17.1-17.06c10.95-11.46,34.31-0.88,43.23-23.29 c2.87-7.19,2.21-15.85-1.44-23.7c-9.88,30.07-44.48,12.31-22.22-13.6C80.66-0.77,70.34,10.62,68.72,25.99 c-0.7,6.74,0.48,12.49-7,20.2c-5.27,5.27-10.84,10.61-16.25,15.77c-2.14,2.06-3.69,3.32-5.49,4.2c-3.24,1.62-7.26,2.1-17.17,3.87 L22.72,70.1L22.72,70.1z"/></g></svg>