<svg width="130" height="130" xmlns="http://www.w3.org/2000/svg" xmlns:xlink="http://www.w3.org/1999/xlink" overflow="hidden"><defs><clipPath id="clip0"><rect x="575" y="295" width="130" height="130"/></clipPath></defs><g clip-path="url(#clip0)" transform="translate(-575 -295)"><path d="M602.145 368.668C593.802 370.18 585.688 373.023 581.282 384.123 578.422 391.32 579.08 399.989 582.718 407.846 592.566 377.747 627.054 395.524 604.866 421.459 621.103 422.27 631.39 410.869 633.004 395.484 633.772 388.217 634.4 384.304 635.985 381.171 636.832 379.439 638.008 377.997 639.583 376.266 644.906 370.4 650.827 365.275 656.628 359.189 667.542 347.718 690.827 358.308 699.718 335.877 702.578 328.68 701.921 320.011 698.282 312.154 688.434 342.253 653.946 324.476 676.134 298.541 659.897 297.73 649.611 309.131 647.996 324.516 647.298 331.262 648.474 337.018 641.018 344.735 635.765 350.01 630.213 355.356 624.821 360.521 622.688 362.583 621.143 363.844 619.349 364.725 616.119 366.346 612.112 366.827 602.234 368.598L602.145 368.668 602.145 368.668Z" stroke="#000000" stroke-width="6.66667" stroke-miterlimit="8" fill="none" fill-rule="evenodd"/></g></svg>