<svg width="132" height="144" xmlns="http://www.w3.org/2000/svg" xmlns:xlink="http://www.w3.org/1999/xlink" xml:space="preserve" overflow="hidden"><g transform="translate(-47 -389)"><path d="M51.5001 505.5 72.5002 484.5 72.5002 495 153.5 495 153.5 484.5 174.5 505.5 153.5 526.5 153.5 516 72.5002 516 72.5002 526.5Z" stroke="#000000" stroke-width="4.58333" stroke-miterlimit="8" fill-rule="evenodd"/><g><g><g><path d="M145.093 413.744C133.602 412.829 122.888 407.586 115.115 399.075 113.649 397.377 111.085 397.188 109.386 398.653 109.236 398.783 109.095 398.924 108.965 399.075 101.191 407.586 90.4769 412.829 78.9866 413.744 76.8515 413.945 75.2243 415.745 75.2405 417.889L75.2405 428.347C75.2405 451.082 89.6997 471.878 109.776 484.747 111.155 485.633 112.924 485.633 114.303 484.747 134.38 471.875 148.839 451.082 148.839 428.347L148.839 417.889C148.855 415.745 147.228 413.945 145.093 413.744ZM141.797 428.347C141.797 446.438 131.019 464.689 112.965 477.179L112.04 477.819 111.116 477.179C93.0613 464.688 82.281 446.433 82.281 428.347L82.281 420.491 83.6504 420.275C93.8522 418.662 103.348 414.063 110.938 407.058L112.039 406.044 113.141 407.058C120.731 414.063 130.226 418.662 140.428 420.275L141.797 420.491Z"/><path d="M112.039 410.437C104.517 417.015 95.3591 421.441 85.531 423.246L85.531 428.347C85.531 445.059 95.4186 461.998 112.04 473.857 128.66 462 138.547 445.06 138.547 428.347L138.547 423.246C128.719 421.441 119.561 417.015 112.039 410.437ZM109.257 452.736 98.3024 441.78 102.025 438.058 109.257 445.29 124.068 430.479 127.791 434.202Z"/></g></g></g></g></svg>