<svg width="145" height="114" xmlns="http://www.w3.org/2000/svg" xmlns:xlink="http://www.w3.org/1999/xlink" xml:space="preserve" overflow="hidden"><g transform="translate(-46 -684)"><rect x="49.5" y="767.5" width="23" height="26.9998" stroke="#000000" stroke-width="6.875" stroke-miterlimit="8"/><rect x="107.5" y="767.5" width="23" height="26.9998" stroke="#000000" stroke-width="6.875" stroke-miterlimit="8"/><rect x="164.5" y="767.5" width="22.9997" height="26.9998" stroke="#000000" stroke-width="6.875" stroke-miterlimit="8"/><path d="M0 0 34.5825 0.000360892" stroke="#000000" stroke-width="6.875" stroke-linejoin="round" stroke-miterlimit="10" fill="none" fill-rule="evenodd" transform="matrix(1 0 0 -1 72.5 781.5)"/><path d="M130.5 781.5 164.488 781.5" stroke="#000000" stroke-width="6.875" stroke-linejoin="round" stroke-miterlimit="10" fill="none" fill-rule="evenodd"/><path d="M109.089 712.857C110.818 712.857 112.198 713.342 113.229 714.311 114.261 715.279 114.776 716.555 114.776 718.139 114.776 718.66 114.714 719.16 114.589 719.639L114.901 719.889C116.86 717.451 118.719 715.67 120.479 714.545 122.24 713.42 124.297 712.857 126.651 712.857 128.797 712.857 130.479 713.462 131.698 714.67 132.917 715.878 133.526 717.524 133.526 719.607 133.526 720.274 133.458 721.107 133.323 722.107 133.188 723.107 133.026 723.993 132.839 724.764L130.37 734.514C130.016 735.91 129.839 737.128 129.839 738.17 129.839 738.982 129.974 739.545 130.245 739.857 130.516 740.17 130.901 740.326 131.401 740.326 132.005 740.326 132.682 740.04 133.432 739.467 134.182 738.894 135.068 738.024 136.089 736.857L138.339 739.107C136.297 741.191 134.469 742.67 132.854 743.545 131.24 744.42 129.464 744.857 127.526 744.857 125.318 744.857 123.703 744.311 122.682 743.217 121.662 742.123 121.151 740.514 121.151 738.389 121.151 736.868 121.453 734.92 122.057 732.545L123.432 727.357C123.787 726.024 124.089 724.706 124.339 723.404 124.589 722.102 124.714 721.035 124.714 720.201 124.714 719.264 124.516 718.566 124.12 718.107 123.724 717.649 123.162 717.42 122.432 717.42 121.412 717.42 120.245 718.024 118.932 719.232 117.62 720.441 116.568 721.717 115.776 723.061 114.985 724.404 114.36 726.16 113.901 728.326L110.401 744.357 101.432 744.357 106.464 722.639C106.776 721.285 106.932 720.253 106.932 719.545 106.932 718.857 106.818 718.326 106.589 717.951 106.36 717.576 105.964 717.389 105.401 717.389 104.755 717.389 104.057 717.68 103.307 718.264 102.557 718.847 101.682 719.712 100.682 720.857L98.4325 718.607C100.516 716.482 102.365 714.993 103.979 714.139 105.594 713.285 107.297 712.857 109.089 712.857ZM91.4012 699.482C93.4845 699.482 95.4429 699.67 97.2762 700.045L95.87 706.295 91.8387 706.295C91.7554 705.003 91.547 704.087 91.2137 703.545 90.8804 703.003 90.3595 702.732 89.6512 702.732 88.8179 702.732 88.1408 703.024 87.62 703.607 87.0991 704.191 86.6616 704.982 86.3075 705.982 85.9533 706.982 85.5991 708.295 85.245 709.92L84.4637 713.357 91.1512 713.357 90.3075 717.264 83.5887 717.264 77.9325 743.389C76.8283 748.451 75.047 752.206 72.5887 754.654 70.1304 757.102 67.0575 758.326 63.37 758.326 62.4741 758.326 61.7554 758.274 61.2137 758.17L61.9637 754.67C62.3804 754.732 62.7554 754.764 63.0887 754.764 64.2762 754.764 65.2606 754.107 66.0418 752.795 66.8231 751.482 67.5158 749.514 68.12 746.889L74.8075 717.264 70.0887 717.264 70.6512 714.732C72.0887 714.712 73.1043 714.607 73.6981 714.42 74.2918 714.232 74.7814 713.889 75.1668 713.389 75.5523 712.889 75.922 711.962 76.2762 710.607 76.797 708.628 77.4533 706.988 78.245 705.686 79.0366 704.384 80.0679 703.248 81.3387 702.279 82.6095 701.311 84.0939 700.602 85.7918 700.154 87.4898 699.706 89.3595 699.482 91.4012 699.482Z" fill-rule="evenodd"/><text fill="#000000" fill-opacity="0" font-family="Arial,Arial_MSFontService,sans-serif" font-size="58.8438" x="61.2137" y="750.971">𝒇𝒏</text><path d="M0 10.5 22 10.5 22 0 43 21 22 41.9999 22 31.5 0 31.5Z" stroke="#000000" stroke-width="4.58333" stroke-miterlimit="8" fill-rule="evenodd" transform="matrix(-1 0 0 1 187.5 706.5)"/></g></svg>