<svg width="210" height="286" xmlns="http://www.w3.org/2000/svg" xmlns:xlink="http://www.w3.org/1999/xlink" xml:space="preserve" overflow="hidden"><g transform="translate(304 -337)"><path d="M-298.905 341.928-164.907 341.928-98.2563 408.796-98.2563 618.929-299.256 618.929-299.256 342.28C-299.256 342.085-299.099 341.928-298.905 341.928Z" stroke="#000000" stroke-width="8.40266" stroke-linecap="round" stroke-linejoin="round" stroke-miterlimit="10" fill="none" fill-rule="evenodd"/><path d="M-164.232 341.928-164.232 410.928" stroke="#000000" stroke-width="8.40266" stroke-linecap="round" stroke-linejoin="round" stroke-miterlimit="10" fill="none" fill-rule="evenodd"/><path d="M0.0681132 0.02021 65.0681 0.02021" stroke="#000000" stroke-width="8.40266" stroke-linecap="round" stroke-linejoin="round" stroke-miterlimit="10" fill="none" fill-rule="evenodd" transform="matrix(-1 1.22465e-16 1.22465e-16 1 -99 411)"/><rect x="-266.5" y="508.5" width="23" height="27.0002" stroke="#000000" stroke-width="6.875" stroke-miterlimit="8"/><rect x="-209.5" y="508.5" width="22.9997" height="27.0002" stroke="#000000" stroke-width="6.875" stroke-miterlimit="8"/><rect x="-152.5" y="508.5" width="24.0001" height="27.0002" stroke="#000000" stroke-width="6.875" stroke-miterlimit="8"/><path d="M0 0 34.5825 0.000360892" stroke="#000000" stroke-width="6.875" stroke-linejoin="round" stroke-miterlimit="10" fill="none" fill-rule="evenodd" transform="matrix(1 0 0 -1 -243.5 522.5)"/><path d="M-186.5 522.5-152.512 522.5" stroke="#000000" stroke-width="6.875" stroke-linejoin="round" stroke-miterlimit="10" fill="none" fill-rule="evenodd"/><path d="M-207.449 454.015C-205.72 454.015-204.34 454.499-203.309 455.468-202.277 456.437-201.762 457.713-201.762 459.296-201.762 459.817-201.824 460.317-201.949 460.796L-201.637 461.046C-199.678 458.608-197.819 456.827-196.059 455.702-194.298 454.577-192.241 454.015-189.887 454.015-187.741 454.015-186.059 454.619-184.84 455.827-183.621 457.035-183.012 458.681-183.012 460.765-183.012 461.431-183.079 462.265-183.215 463.265-183.35 464.265-183.512 465.15-183.699 465.921L-186.168 475.671C-186.522 477.067-186.699 478.285-186.699 479.327-186.699 480.14-186.564 480.702-186.293 481.015-186.022 481.327-185.637 481.483-185.137 481.483-184.533 481.483-183.856 481.197-183.106 480.624-182.356 480.051-181.47 479.181-180.449 478.015L-178.199 480.265C-180.241 482.348-182.069 483.827-183.684 484.702-185.298 485.577-187.074 486.015-189.012 486.015-191.22 486.015-192.835 485.468-193.856 484.374-194.876 483.28-195.387 481.671-195.387 479.546-195.387 478.025-195.085 476.077-194.481 473.702L-193.106 468.515C-192.751 467.181-192.449 465.864-192.199 464.562-191.949 463.259-191.824 462.192-191.824 461.358-191.824 460.421-192.022 459.723-192.418 459.265-192.814 458.806-193.376 458.577-194.106 458.577-195.126 458.577-196.293 459.181-197.606 460.39-198.918 461.598-199.97 462.874-200.762 464.218-201.553 465.562-202.178 467.317-202.637 469.483L-206.137 485.515-215.106 485.515-210.074 463.796C-209.762 462.442-209.606 461.41-209.606 460.702-209.606 460.015-209.72 459.483-209.949 459.108-210.178 458.733-210.574 458.546-211.137 458.546-211.783 458.546-212.481 458.838-213.231 459.421-213.981 460.004-214.856 460.869-215.856 462.015L-218.106 459.765C-216.022 457.64-214.173 456.15-212.559 455.296-210.944 454.442-209.241 454.015-207.449 454.015ZM-225.137 440.64C-223.053 440.64-221.095 440.827-219.262 441.202L-220.668 447.452-224.699 447.452C-224.783 446.16-224.991 445.244-225.324 444.702-225.658 444.16-226.178 443.89-226.887 443.89-227.72 443.89-228.397 444.181-228.918 444.765-229.439 445.348-229.876 446.14-230.231 447.14-230.585 448.14-230.939 449.452-231.293 451.077L-232.074 454.515-225.387 454.515-226.231 458.421-232.949 458.421-238.606 484.546C-239.71 489.608-241.491 493.364-243.949 495.812-246.408 498.259-249.481 499.483-253.168 499.483-254.064 499.483-254.783 499.431-255.324 499.327L-254.574 495.827C-254.158 495.89-253.783 495.921-253.449 495.921-252.262 495.921-251.277 495.265-250.496 493.952-249.715 492.64-249.022 490.671-248.418 488.046L-241.731 458.421-246.449 458.421-245.887 455.89C-244.449 455.869-243.434 455.765-242.84 455.577-242.246 455.39-241.757 455.046-241.371 454.546-240.986 454.046-240.616 453.119-240.262 451.765-239.741 449.785-239.085 448.145-238.293 446.843-237.501 445.541-236.47 444.405-235.199 443.437-233.928 442.468-232.444 441.759-230.746 441.312-229.048 440.864-227.178 440.64-225.137 440.64Z" fill-rule="evenodd"/><text fill="#000000" fill-opacity="0" font-family="Arial,Arial_MSFontService,sans-serif" font-size="58.8438" x="-255.324" y="492.128">𝒇𝒏</text><path d="M0 10.5 23.0001 10.5 23.0001 0 44 21 23.0001 41.9999 23.0001 31.4999 0 31.4999Z" stroke="#000000" stroke-width="4.58333" stroke-miterlimit="8" fill-rule="evenodd" transform="matrix(-1 0 0 1 -128.5 447.5)"/></g></svg>