<svg width="186" height="253" xmlns="http://www.w3.org/2000/svg" xmlns:xlink="http://www.w3.org/1999/xlink" xml:space="preserve" overflow="hidden"><g transform="translate(280 -370)"><path d="M-274.916 374.936-156.918 374.936-98.2257 433.838-98.2257 618.937-275.226 618.937-275.226 375.247C-275.226 375.075-275.088 374.936-274.916 374.936Z" stroke="#000000" stroke-width="8.40266" stroke-linecap="round" stroke-linejoin="round" stroke-miterlimit="10" fill="none" fill-rule="evenodd"/><path d="M-156.232 374.937-156.232 434.937" stroke="#000000" stroke-width="8.40266" stroke-linecap="round" stroke-linejoin="round" stroke-miterlimit="10" fill="none" fill-rule="evenodd"/><path d="M0.0597301 0.02021 57.0598 0.02021" stroke="#000000" stroke-width="8.40266" stroke-linecap="round" stroke-linejoin="round" stroke-miterlimit="10" fill="none" fill-rule="evenodd" transform="matrix(-1 1.22465e-16 1.22465e-16 1 -99 435)"/><path d="M-111.5 516-136.5 516-136.5 527.5-159.5 504.5-136.5 481.5-136.5 493-111.5 493Z" stroke="#000000" stroke-width="3.4375" stroke-miterlimit="8" fill="#FFFFFF" fill-rule="evenodd"/><path d="M-170.778 489.667-170.778 470.867C-170.778 467.406-173.141 464.6-176.055 464.6L-253.243 464.6C-255.794 464.6-257.861 462.145-257.861 459.117-257.861 456.089-255.794 453.633-253.243 453.633L-182.653 453.633C-180.466 453.633-178.694 455.738-178.694 458.333L-178.694 461.467-176.055 461.467-176.055 458.333C-176.06 454.009-179.011 450.505-182.653 450.5L-253.243 450.5C-257 450.503-260.141 453.893-260.5 458.333L-260.5 530.4C-260.492 538.183-255.18 544.49-248.625 544.5L-177.375 544.5C-173.733 544.495-170.782 540.991-170.778 536.667L-170.778 521C-167.863 521-165.5 518.194-165.5 514.733L-165.5 495.933C-165.5 492.472-167.863 489.667-170.778 489.667ZM-173.417 536.667C-173.417 539.262-175.189 541.367-177.375 541.367L-248.625 541.367C-253.724 541.36-257.855 536.454-257.861 530.4L-257.861 465.758C-256.563 467.036-254.929 467.735-253.243 467.733L-176.055 467.733C-174.598 467.733-173.417 469.136-173.417 470.867L-173.417 489.667-183.972 489.667C-191.259 489.667-197.167 496.681-197.167 505.333-197.167 513.986-191.259 521-183.972 521L-173.417 521ZM-168.139 514.733C-168.139 516.464-169.32 517.867-170.778 517.867L-183.972 517.867C-189.802 517.867-194.528 512.255-194.528 505.333-194.528 498.411-189.802 492.8-183.972 492.8L-170.778 492.8C-169.32 492.8-168.139 494.203-168.139 495.933Z" stroke="#000000" stroke-width="1.14583" stroke-miterlimit="8" fill-rule="evenodd"/><path d="M-182 498C-184.761 498-187 500.91-187 504.5-187 508.09-184.761 511-182 511-179.239 511-177 508.09-177 504.5-177 500.91-179.239 498-182 498ZM-182 507.75C-183.381 507.75-184.5 506.295-184.5 504.5-184.5 502.705-183.381 501.25-182 501.25-180.619 501.25-179.5 502.705-179.5 504.5-179.5 506.295-180.619 507.75-182 507.75Z" fill-rule="evenodd"/></g></svg>