<svg width="151" height="95" xmlns="http://www.w3.org/2000/svg" xmlns:xlink="http://www.w3.org/1999/xlink" xml:space="preserve" overflow="hidden"><g transform="translate(-59 -413)"><path d="M208.5 479 183.5 479 183.5 490.5 160.5 467.5 183.5 444.5 183.5 456 208.5 456Z" stroke="#000000" stroke-width="3.4375" stroke-miterlimit="8" fill="#FFFFFF" fill-rule="evenodd"/><path d="M149.222 452.667 149.222 433.867C149.222 430.406 146.859 427.6 143.944 427.6L66.757 427.6C64.2065 427.6 62.1389 425.145 62.1389 422.117 62.1389 419.088 64.2065 416.633 66.757 416.633L137.347 416.633C139.533 416.633 141.305 418.738 141.305 421.333L141.305 424.467 143.944 424.467 143.944 421.333C143.94 417.009 140.989 413.505 137.347 413.5L66.757 413.5C63.0001 413.503 59.8594 416.893 59.5 421.333L59.5 493.4C59.508 501.183 64.8198 507.49 71.3749 507.5L142.625 507.5C146.267 507.495 149.218 503.991 149.222 499.667L149.222 484C152.137 484 154.5 481.194 154.5 477.733L154.5 458.933C154.5 455.472 152.137 452.667 149.222 452.667ZM146.583 499.667C146.583 502.262 144.811 504.367 142.625 504.367L71.3749 504.367C66.2763 504.36 62.1447 499.454 62.1389 493.4L62.1389 428.758C63.437 430.036 65.0706 430.735 66.757 430.733L143.944 430.733C145.402 430.733 146.583 432.136 146.583 433.867L146.583 452.667 136.028 452.667C128.74 452.667 122.833 459.681 122.833 468.333 122.833 476.986 128.74 484 136.028 484L146.583 484ZM151.861 477.733C151.861 479.464 150.679 480.867 149.222 480.867L136.028 480.867C130.198 480.867 125.472 475.255 125.472 468.333 125.472 461.411 130.198 455.8 136.028 455.8L149.222 455.8C150.679 455.8 151.861 457.203 151.861 458.933Z" stroke="#000000" stroke-width="1.14583" stroke-miterlimit="8" fill-rule="evenodd"/><path d="M138 461C135.239 461 133 463.91 133 467.5 133 471.09 135.239 474 138 474 140.761 474 143 471.09 143 467.5 143 463.91 140.761 461 138 461ZM138 470.75C136.619 470.75 135.5 469.295 135.5 467.5 135.5 465.705 136.619 464.25 138 464.25 139.381 464.25 140.5 465.705 140.5 467.5 140.5 469.295 139.381 470.75 138 470.75Z" fill-rule="evenodd"/></g></svg>