<svg width="153" height="95" xmlns="http://www.w3.org/2000/svg" xmlns:xlink="http://www.w3.org/1999/xlink" xml:space="preserve" overflow="hidden"><defs><clipPath id="clip0"><rect x="54" y="697" width="153" height="95"/></clipPath></defs><g clip-path="url(#clip0)" transform="translate(-54 -697)"><path d="M132.334 758.75C129.461 758.75 127.111 755.9 127.111 752.417 127.111 748.934 129.461 746.084 132.334 746.084 135.206 746.084 137.556 748.934 137.556 752.417 137.556 755.9 135.206 758.75 132.334 758.75ZM145.389 736.583 142.778 736.583 142.778 719.167C142.778 715.683 140.428 712.833 137.556 712.833L64.4444 712.833C63.0082 712.833 61.8332 711.409 61.8332 709.667 61.8332 707.925 63.0082 706.5 64.4444 706.5L137.556 706.5 137.556 703.334C137.556 699.85 135.206 697 132.334 697L64.4444 697C58.7 697 54 702.7 54 709.667L54 779.333C54 786.3 58.7 792 64.4444 792L137.556 792C140.428 792 142.778 789.15 142.778 785.667L142.778 768.25 145.389 768.25C146.825 768.25 148 766.825 148 765.084L148 739.75C148 738.009 146.825 736.583 145.389 736.583Z" fill-rule="evenodd"/><path d="M154.5 739 179.5 739 179.5 727.5 202.5 750.5 179.5 773.5 179.5 762 154.5 762Z" stroke="#000000" stroke-width="4.58333" stroke-miterlimit="8" fill-rule="evenodd"/></g></svg>