<svg width="210" height="286" xmlns="http://www.w3.org/2000/svg" xmlns:xlink="http://www.w3.org/1999/xlink" xml:space="preserve" overflow="hidden"><g transform="translate(304 -337)"><path d="M-298.905 341.928-164.907 341.928-98.2563 408.796-98.2563 618.929-299.256 618.929-299.256 342.28C-299.256 342.085-299.099 341.928-298.905 341.928Z" stroke="#000000" stroke-width="8.40266" stroke-linecap="round" stroke-linejoin="round" stroke-miterlimit="10" fill="none" fill-rule="evenodd"/><path d="M-164.232 341.928-164.232 410.928" stroke="#000000" stroke-width="8.40266" stroke-linecap="round" stroke-linejoin="round" stroke-miterlimit="10" fill="none" fill-rule="evenodd"/><path d="M0.0681132 0.02021 65.0681 0.02021" stroke="#000000" stroke-width="8.40266" stroke-linecap="round" stroke-linejoin="round" stroke-miterlimit="10" fill="none" fill-rule="evenodd" transform="matrix(-1 1.22465e-16 1.22465e-16 1 -99 411)"/><path d="M-193.833 494.75C-196.736 494.75-199.111 491.9-199.111 488.417-199.111 484.934-196.736 482.084-193.833 482.084-190.931 482.084-188.556 484.934-188.556 488.417-188.556 491.9-190.931 494.75-193.833 494.75ZM-180.639 472.583-183.278 472.583-183.278 455.167C-183.278 451.683-185.653 448.833-188.556 448.833L-262.444 448.833C-263.896 448.833-265.083 447.409-265.083 445.667-265.083 443.925-263.896 442.5-262.444 442.5L-188.556 442.5-188.556 439.334C-188.556 435.85-190.931 433-193.833 433L-262.444 433C-268.25 433-273 438.7-273 445.667L-273 515.333C-273 522.3-268.25 528-262.444 528L-188.556 528C-185.653 528-183.278 525.15-183.278 521.667L-183.278 504.25-180.639 504.25C-179.188 504.25-178 502.825-178 501.084L-178 475.75C-178 474.009-179.188 472.583-180.639 472.583Z" fill-rule="evenodd"/><path d="M-171.5 475.25-147 475.25-147 463.5-123.5 487-147 510.5-147 498.75-171.5 498.75Z" stroke="#000000" stroke-width="4.58333" stroke-miterlimit="8" fill-rule="evenodd"/></g></svg>