<svg version="1.2" xmlns="http://www.w3.org/2000/svg" viewBox="0 0 327 329" width="327" height="329"><defs><linearGradient id="P" gradientUnits="userSpaceOnUse"/><linearGradient id="g1" x1="15.5" y1="12" x2="15.5" y2=".5" href="#P"><stop stop-color="#d0a560"/><stop offset=".8" stop-color="#fff5aa"/><stop offset="1" stop-color="#d4a962"/></linearGradient><linearGradient id="g2" x1="316" y1="313.5" x2="327" y2="313.5" href="#P"><stop stop-color="#d0a560"/><stop offset=".8" stop-color="#fff5aa"/><stop offset="1" stop-color="#d4a962"/></linearGradient><linearGradient id="g3" x1="173.5" y1="309" x2="173.5" y2=".7" href="#P"><stop stop-color="#c29457"/><stop offset=".5" stop-color="#d0a560"/><stop offset=".8" stop-color="#fff5aa"/><stop offset="1" stop-color="#d4a962"/></linearGradient></defs><style>.a{fill:url(#g1)}.b{fill:url(#g2)}.c{fill:url(#g3)}</style><path class="a" d="m19.5 0.5l11.5 11.5h-31c4.5-11.2 19.5-11.5 19.5-11.5z"/><path class="b" d="m316 298c0 0 11 5.5 11 11 0 5.5-10 20-10 20z"/><path class="c" d="m148.3 0.9c16.1 0.4 20.7 8.1 20.7 8.1 0 0 140.1 140.1 149 148 8.9 7.9 9 19 9 19v133l-307-308c0 0 112.1-0.5 128.3-0.1z"/></svg>