<svg width="227" height="227" xmlns="http://www.w3.org/2000/svg" xmlns:xlink="http://www.w3.org/1999/xlink" overflow="hidden"><defs><clipPath id="clip0"><rect x="0" y="0" width="227" height="227"/></clipPath></defs><g clip-path="url(#clip0)"><rect x="0" y="0" width="227" height="227" fill="#FFFFFF"/><path d="M4.5 41.0007C4.5 20.8419 20.8419 4.5 41.0007 4.5L186.999 4.5C207.158 4.5 223.5 20.8419 223.5 41.0007L223.5 186.999C223.5 207.158 207.158 223.5 186.999 223.5L41.0007 223.5C20.8419 223.5 4.5 207.158 4.5 186.999Z" stroke="#000000" stroke-width="1.33431" stroke-miterlimit="8" fill="#F2F2F2" fill-rule="evenodd"/><g><g><g><path d="M59 23.9687C64.4083 23.9687 68.8333 19.5437 68.8333 14.1354 68.8333 8.72708 64.4083 4.30208 59 4.30208 53.5916 4.30208 49.1666 8.72708 49.1666 14.1354 49.1666 19.5437 53.5916 23.9687 59 23.9687" transform="matrix(1 0 0 1 2 90)"/><path d="M83.5833 60.8437 88.4999 46.0937 29.5 46.0937 34.4166 60.8437 41.7916 60.8437 46.7083 108.781 39.3333 108.781 39.3333 113.698 78.6666 113.698 78.6666 108.781 71.2916 108.781 76.2083 60.8437Z" transform="matrix(1 0 0 1 2 90)"/><path d="M78.9124 35.5229C78.6666 34.5396 78.1749 33.5562 77.4374 32.8187 74.4874 30.3604 71.0458 28.6396 67.1124 27.4104 64.4083 26.9187 61.7041 26.4271 59 26.4271 56.2958 26.4271 53.5916 26.9187 50.8875 27.6562 46.9541 28.6396 43.5125 30.6062 40.5625 33.0646 39.825 33.8021 39.3333 34.7854 39.0875 35.7687L37.8583 41.1771 80.2645 41.1771 78.9124 35.5229Z" transform="matrix(1 0 0 1 2 90)"/></g></g></g><path d="M90.0726 109.31C90.3971 108.864 91.0221 108.765 91.4687 109.089L94.7026 111.44C95.1491 111.764 95.248 112.389 94.9235 112.836L82.1357 130.432C81.8112 130.878 81.1862 130.977 80.7397 130.653L77.5058 128.302C77.0592 127.978 76.9603 127.353 77.2848 126.906Z" stroke="#000000" stroke-width="1.33431" stroke-miterlimit="8" fill-rule="evenodd"/><path d="M27.4273 112.808C27.1056 112.359 27.2086 111.735 27.6572 111.413L30.9062 109.084C31.3548 108.762 31.9792 108.865 32.3008 109.314L44.9747 126.992C45.2963 127.441 45.1933 128.065 44.7447 128.387L41.4957 130.716C41.0471 131.038 40.4227 130.935 40.1011 130.486Z" stroke="#000000" stroke-width="1.33431" stroke-miterlimit="8" fill-rule="evenodd"/><path d="M84.1687 91.9322C84.0427 91.3948 84.3761 90.8569 84.9135 90.7308L88.8056 89.8178C89.343 89.6917 89.8808 90.0252 90.0069 90.5626L94.9749 111.739C95.1009 112.277 94.7675 112.815 94.2301 112.941L90.3381 113.854C89.8007 113.98 89.2628 113.646 89.1367 113.109Z" stroke="#000000" stroke-width="1.33431" stroke-miterlimit="8" fill-rule="evenodd"/><path d="M33.1921 90.494C33.3337 89.9604 33.881 89.6427 34.4145 89.7844L38.2784 90.81C38.812 90.9516 39.1296 91.4989 38.988 92.0324L33.4076 113.056C33.2659 113.59 32.7186 113.907 32.1851 113.766L28.3212 112.74C27.7877 112.599 27.47 112.051 27.6116 111.518Z" stroke="#000000" stroke-width="1.33431" stroke-miterlimit="8" fill-rule="evenodd"/><path d="M0 0 20.7812 26.8197" stroke="#000000" stroke-width="3.66936" stroke-miterlimit="8" fill="none" fill-rule="evenodd" transform="matrix(1 0 0 -1 84 101.82)"/><g><g><g><path d="M55.3781 49.5C55.3781 52.9173 52.6079 55.6875 49.1906 55.6875 45.7734 55.6875 43.0031 52.9173 43.0031 49.5 43.0031 46.0828 45.7734 43.3125 49.1906 43.3125 52.6079 43.3125 55.3781 46.0828 55.3781 49.5Z" transform="matrix(1.0101 0 0 1 113 11)"/><path d="M85.4907 28.875C83.7375 25.8844 79.8188 24.4406 74.4563 24.4406 71.0532 24.4406 67.1344 25.0594 62.8032 26.1938 59.8125 15.3656 54.8625 8.25 49.1906 8.25 43.6219 8.25 38.5688 15.2625 35.6813 25.9875 31.5563 24.9563 27.8438 24.3375 24.5438 24.3375 19.1813 24.3375 15.2625 25.7813 13.5094 28.7719 10.6219 33.7219 14.4375 41.6625 22.3781 49.7063 14.7469 57.5438 11.2406 65.175 14.025 70.0219 15.7781 73.0125 19.6969 74.4563 25.0594 74.4563 28.1531 74.4563 31.7625 73.9407 35.6813 73.0125 38.6719 83.7375 43.6219 90.75 49.1906 90.75 54.7594 90.75 59.8125 83.7375 62.7 73.0125 66.825 74.0438 70.5375 74.6625 73.8375 74.6625 79.2 74.6625 83.1188 73.2188 84.8719 70.2281 87.6563 65.3813 84.15 57.75 76.5188 49.9125 84.6656 41.7656 88.3782 33.825 85.4907 28.875ZM74.4563 28.5656C78.2719 28.5656 81.0563 29.4938 81.8813 30.9375 83.4282 33.6188 80.6438 39.9094 73.6313 46.9219 71.1563 44.6531 68.3719 42.3844 65.2781 40.2188 64.9688 36.7125 64.4531 33.3094 63.7313 30.1125 67.65 29.0813 71.3625 28.5656 74.4563 28.5656ZM55.9969 60.225C53.8313 61.4625 51.6656 62.5969 49.5 63.6281 47.3344 62.5969 45.1688 61.4625 43.0031 60.225 40.9406 58.9875 38.8781 57.75 37.0219 56.5125 36.8156 54.2438 36.8156 51.975 36.8156 49.5 36.8156 47.2313 36.9188 45.0656 37.0219 42.9 39.0844 41.4563 41.25 40.1156 43.6219 38.775 45.5813 37.6406 47.5406 36.6094 49.5 35.6813 51.4594 36.6094 53.4188 37.6406 55.3781 38.775 57.4406 40.0125 59.5031 41.25 61.3594 42.4875 61.5656 44.7563 61.5656 47.025 61.5656 49.5 61.5656 52.0781 61.4625 54.5531 61.2563 56.925 59.6063 58.0594 57.8531 59.0906 55.9969 60.225ZM60.7406 62.1844C60.4313 64.1438 60.1219 66.1031 59.8125 67.8563 58.0594 67.2375 56.2031 66.6188 54.3469 65.7938 55.5844 65.175 56.8219 64.4531 58.0594 63.7313 58.9875 63.2156 59.9156 62.7 60.7406 62.1844ZM44.6531 65.7938C42.5906 66.6188 40.6313 67.3407 38.6719 67.9594 38.2594 66 37.95 63.9375 37.6406 61.7719 38.775 62.4938 39.8063 63.1125 41.0438 63.8344 42.1781 64.4531 43.4156 65.175 44.6531 65.7938ZM32.7938 53.4188C31.1438 52.1813 29.7 50.9438 28.3594 49.7063 29.7 48.4688 31.2469 47.2313 32.7938 45.9938 32.7938 47.1281 32.6906 48.2625 32.6906 49.5 32.6906 50.8406 32.6906 52.1813 32.7938 53.4188ZM37.5375 37.6406C37.8469 35.3719 38.1563 33.2063 38.5688 31.1438 40.5281 31.7625 42.5906 32.5875 44.6531 33.4125 43.6219 33.9281 42.4875 34.5469 41.4563 35.1656 40.2188 35.9906 38.8781 36.8156 37.5375 37.6406ZM54.2438 33.4125C56.1 32.5875 57.9563 31.9688 59.8125 31.35 60.225 33.2063 60.5344 35.1656 60.8438 37.2281 59.7094 36.5063 58.6781 35.8875 57.4406 35.1656 56.4094 34.65 55.3781 34.0313 54.2438 33.4125ZM65.5875 45.5813C67.4438 47.025 69.0938 48.3656 70.6406 49.8094 69.0938 51.15 67.4438 52.5938 65.5875 53.9344 65.6907 52.4906 65.6907 51.0469 65.6907 49.6031 65.6907 48.1594 65.6907 46.8188 65.5875 45.5813ZM49.1906 12.375C52.2844 12.375 56.3063 17.8406 58.8844 27.3281 55.8938 28.3594 52.6969 29.5969 49.5 31.0406 46.0969 29.4938 42.7969 28.1531 39.6 27.1219 42.1781 17.7375 46.0969 12.375 49.1906 12.375ZM17.0156 30.9375C17.9438 29.3906 20.625 28.5656 24.4406 28.5656 27.4313 28.5656 30.8344 29.0813 34.5469 30.0094 33.825 33.3094 33.3094 36.9188 33 40.6313 30.1125 42.6938 27.5344 44.7563 25.2656 46.9219 18.3563 39.9094 15.4688 33.6188 17.0156 30.9375ZM25.0594 70.4344C21.2438 70.4344 18.4594 69.5063 17.6344 68.0625 16.0875 65.3813 18.7688 59.4 25.3688 52.5938 27.7406 54.6563 30.3188 56.7188 33.1031 58.7813 33.4125 62.3906 33.9281 65.8969 34.65 69.0938 31.2469 70.0219 27.9469 70.4344 25.0594 70.4344ZM49.1906 86.625C46.0969 86.625 42.1781 81.2625 39.6 71.9813 42.7969 70.95 46.0969 69.7125 49.5 68.1656 52.6969 69.6094 55.7906 70.8469 58.7813 71.775 56.2031 81.2625 52.2844 86.625 49.1906 86.625ZM81.3657 68.0625C80.4375 69.6094 77.7563 70.4344 73.9407 70.4344 70.95 70.4344 67.4438 69.9188 63.8344 68.9907 64.4531 65.8969 64.9688 62.7 65.2781 59.1938 68.3719 57.0281 71.1563 54.8625 73.6313 52.5938 80.2313 59.4 82.9125 65.3813 81.3657 68.0625Z" transform="matrix(1.0101 0 0 1 113 11)"/></g></g></g></g></svg>