<?xml version="1.0" encoding="UTF-8" standalone="no"?>
<!-- Created with Inkscape (http://www.inkscape.org/) -->

<svg
   version="1.1"
   id="svg1021"
   width="226.88"
   height="226.88"
   viewBox="0 0 226.88 226.88"
   sodipodi:docname="pattern-palette.svg"
   inkscape:version="1.2.2 (732a01da63, 2022-12-09)"
   xmlns:inkscape="http://www.inkscape.org/namespaces/inkscape"
   xmlns:sodipodi="http://sodipodi.sourceforge.net/DTD/sodipodi-0.dtd"
   xmlns="http://www.w3.org/2000/svg"
   xmlns:svg="http://www.w3.org/2000/svg">
  <defs
     id="defs1025">
    <clipPath
       clipPathUnits="userSpaceOnUse"
       id="clipPath1037">
      <path
         d="M 0,4.5776e-5 H 170.16 V 170.16005 H 0 Z"
         clip-rule="evenodd"
         id="path1035" />
    </clipPath>
    <clipPath
       clipPathUnits="userSpaceOnUse"
       id="clipPath1049">
      <path
         d="M 115.75,155.4 148.18,139.05 131.83,106.62 99.395,122.97 Z"
         clip-rule="evenodd"
         id="path1047" />
    </clipPath>
    <clipPath
       clipPathUnits="userSpaceOnUse"
       id="clipPath1059">
      <path
         d="M 0,0 H 23.291 V 23.286 H 0 Z"
         id="path1057" />
    </clipPath>
    <clipPath
       clipPathUnits="userSpaceOnUse"
       id="clipPath1079">
      <path
         d="M 19.226,128.84 57.455,127.06 55.677,88.829 17.448,90.608 Z"
         clip-rule="evenodd"
         id="path1077" />
    </clipPath>
    <clipPath
       clipPathUnits="userSpaceOnUse"
       id="clipPath1089">
      <path
         d="M 0,0 H 23.291 V 23.286 H 0 Z"
         id="path1087" />
    </clipPath>
    <clipPath
       clipPathUnits="userSpaceOnUse"
       id="clipPath1101">
      <path
         d="M 26.16,23.04 H 61.92 V 58.8 H 26.16 Z"
         clip-rule="evenodd"
         id="path1099" />
    </clipPath>
    <clipPath
       clipPathUnits="userSpaceOnUse"
       id="clipPath1111">
      <path
         d="M 0,0 H 23.291 V 23.286 H 0 Z"
         id="path1109" />
    </clipPath>
    <clipPath
       clipPathUnits="userSpaceOnUse"
       id="clipPath1123">
      <path
         d="M 93.702,70.35 131.93,68.572 130.15,30.343 91.924,32.121 Z"
         clip-rule="evenodd"
         id="path1121" />
    </clipPath>
    <clipPath
       clipPathUnits="userSpaceOnUse"
       id="clipPath1133">
      <path
         d="M 0,0 H 23.291 V 23.286 H 0 Z"
         id="path1131" />
    </clipPath>
  </defs>
  <sodipodi:namedview
     id="namedview1023"
     pagecolor="#ffffff"
     bordercolor="#000000"
     borderopacity="0.25"
     inkscape:showpageshadow="2"
     inkscape:pageopacity="0.0"
     inkscape:pagecheckerboard="0"
     inkscape:deskcolor="#d1d1d1"
     showgrid="false"
     inkscape:zoom="1.0401974"
     inkscape:cx="113.92068"
     inkscape:cy="113.92068"
     inkscape:window-width="1920"
     inkscape:window-height="1111"
     inkscape:window-x="-9"
     inkscape:window-y="-9"
     inkscape:window-maximized="1"
     inkscape:current-layer="g1029">
    <inkscape:page
       x="0"
       y="0"
       id="page1027"
       width="226.88"
       height="226.88" />
  </sodipodi:namedview>
  <g
     id="g1029"
     inkscape:groupmode="layer"
     inkscape:label="Page 1"
     transform="matrix(1.3333333,0,0,-1.3333333,0,226.88)">
    <path
       d="M 2.28,140.56 C 2.28,155.78 14.619,168.12 29.841,168.12 H 140.32 C 155.54,168.12 167.88,155.78 167.88,140.56 V 30.321 C 167.88,15.099 155.54,2.76 140.32,2.76 H 29.841 C 14.619,2.76 2.28,15.099 2.28,30.321 Z"
       style="fill:none;stroke:#000000;stroke-width:3.12;stroke-linecap:butt;stroke-linejoin:miter;stroke-miterlimit:10;stroke-dasharray:none;stroke-opacity:1"
       id="path1041" />
    <g
       id="g1043">
      <g
         id="g1045"
         clip-path="url(#clipPath1049)">
        <g
           id="g1051"
           transform="matrix(0.45042,-0.22714,0.22714,0.45042,99.395,122.97)">
          <g
             id="g1053"
             transform="scale(3.0913,3.092)">
            <g
               id="g1055"
               clip-path="url(#clipPath1059)">
              <path
                 d="M 13.03,11.624 C 13.03,10.829 12.385,10.184 11.59,10.184 10.794,10.184 10.15,10.829 10.15,11.624 10.15,12.419 10.794,13.064 11.59,13.064 12.385,13.064 13.03,12.419 13.03,11.624 Z"
                 style="fill:#000000;fill-opacity:1;fill-rule:nonzero;stroke:none"
                 id="path1061" />
              <path
                 d="M 20.038,16.424 C 19.63,17.12 18.718,17.456 17.47,17.456 16.678,17.456 15.766,17.312 14.758,17.048 14.062,19.568 12.91,21.224 11.59,21.224 10.294,21.224 9.1178,19.592 8.4458,17.096 7.4858,17.336 6.6218,17.48 5.8538,17.48 4.6058,17.48 3.6938,17.144 3.2858,16.448 2.6138,15.296 3.5018,13.448 5.3498,11.576 3.5738,9.7519 2.7578,7.9759 3.4058,6.8479 3.8138,6.1519 4.7258,5.8159 5.9738,5.8159 6.6938,5.8159 7.5338,5.9359 8.4458,6.1519 9.1418,3.6559 10.294,2.0239 11.59,2.0239 12.886,2.0239 14.062,3.6559 14.734,6.1519 15.694,5.9119 16.558,5.7679 17.326,5.7679 18.574,5.7679 19.486,6.1039 19.894,6.7999 20.542,7.9279 19.726,9.7039 17.95,11.528 19.846,13.424 20.71,15.272 20.038,16.424 Z M 17.47,16.496 C 18.358,16.496 19.006,16.28 19.198,15.944 19.558,15.32 18.91,13.856 17.278,12.224 16.702,12.752 16.054,13.28 15.334,13.784 15.262,14.6 15.142,15.392 14.974,16.136 15.886,16.376 16.75,16.496 17.47,16.496 Z M 13.174,9.1279 C 12.67,8.8399 12.166,8.5759 11.662,8.3359 11.158,8.5759 10.654,8.8399 10.15,9.1279 9.6698,9.4159 9.1898,9.7039 8.7578,9.9919 8.7098,10.52 8.7098,11.048 8.7098,11.624 8.7098,12.152 8.7338,12.656 8.7578,13.16 9.2378,13.496 9.7418,13.808 10.294,14.12 10.75,14.384 11.206,14.624 11.662,14.84 12.118,14.624 12.574,14.384 13.03,14.12 13.51,13.832 13.99,13.544 14.422,13.256 14.47,12.728 14.47,12.2 14.47,11.624 14.47,11.024 14.446,10.448 14.398,9.8959 14.014,9.6319 13.606,9.3919 13.174,9.1279 Z M 14.278,8.6719 C 14.206,8.2159 14.134,7.7599 14.062,7.3519 13.654,7.4959 13.222,7.6399 12.79,7.8319 13.078,7.9759 13.366,8.1439 13.654,8.3119 13.87,8.4319 14.086,8.5519 14.278,8.6719 Z M 10.534,7.8319 C 10.054,7.6399 9.5978,7.4719 9.1418,7.3279 9.0458,7.7839 8.9738,8.2639 8.9018,8.7679 9.1658,8.5999 9.4058,8.4559 9.6938,8.2879 9.9578,8.1439 10.246,7.9759 10.534,7.8319 Z M 7.7738,10.712 C 7.3898,11 7.0538,11.288 6.7418,11.576 7.0538,11.864 7.4138,12.152 7.7738,12.44 7.7738,12.176 7.7498,11.912 7.7498,11.624 7.7498,11.312 7.7498,11 7.7738,10.712 Z M 8.8778,14.384 C 8.9498,14.912 9.0218,15.416 9.1178,15.896 9.5738,15.752 10.054,15.56 10.534,15.368 10.294,15.248 10.03,15.104 9.7898,14.96 9.5018,14.768 9.1898,14.576 8.8778,14.384 Z M 12.766,15.368 C 13.198,15.56 13.63,15.704 14.062,15.848 14.158,15.416 14.23,14.96 14.302,14.48 14.038,14.648 13.798,14.792 13.51,14.96 13.27,15.08 13.03,15.224 12.766,15.368 Z M 15.406,12.536 C 15.838,12.2 16.222,11.888 16.582,11.552 16.222,11.24 15.838,10.904 15.406,10.592 15.43,10.928 15.43,11.264 15.43,11.6 15.43,11.936 15.43,12.248 15.406,12.536 Z M 11.59,20.264 C 12.31,20.264 13.246,18.992 13.846,16.784 13.15,16.544 12.406,16.256 11.662,15.92 10.87,16.28 10.102,16.592 9.3578,16.832 9.9578,19.016 10.87,20.264 11.59,20.264 Z M 4.1018,15.944 C 4.3178,16.304 4.9418,16.496 5.8298,16.496 6.5258,16.496 7.3178,16.376 8.1818,16.16 8.0138,15.392 7.8938,14.552 7.8218,13.688 7.1498,13.208 6.5498,12.728 6.0218,12.224 4.4138,13.856 3.7418,15.32 4.1018,15.944 Z M 5.9738,6.7519 C 5.0858,6.7519 4.4378,6.9679 4.2458,7.3039 3.8858,7.9279 4.5098,9.3199 6.0458,10.904 6.5978,10.424 7.1978,9.9439 7.8458,9.4639 7.9178,8.6239 8.0378,7.8079 8.2058,7.0639 7.4138,6.8479 6.6458,6.7519 5.9738,6.7519 Z M 11.59,2.9839 C 10.87,2.9839 9.9578,4.2319 9.3578,6.3919 10.102,6.6319 10.87,6.9199 11.662,7.2799 12.406,6.9439 13.126,6.6559 13.822,6.4399 13.222,4.2319 12.31,2.9839 11.59,2.9839 Z M 19.078,7.3039 C 18.862,6.9439 18.238,6.7519 17.35,6.7519 16.654,6.7519 15.838,6.8719 14.998,7.0879 15.142,7.8079 15.262,8.5519 15.334,9.3679 16.054,9.8719 16.702,10.376 17.278,10.904 18.814,9.3199 19.438,7.9279 19.078,7.3039 Z"
                 style="fill:#000000;fill-opacity:1;fill-rule:nonzero;stroke:none"
                 id="path1063" />
            </g>
          </g>
        </g>
      </g>
    </g>
    <path
       d="M 87.531,109.92 V 109.92 L 98.375,105.53 C 98.763,112.5 104.85,117.84 111.96,117.46 116.92,117.19 121.28,114.17 123.18,109.68 125.02,105.18 124.15,100.06 120.93,96.384 L 133.99,91.085 134.22,90.991 153.46,136.57 106.77,155.43 99.512,137.95 V 137.95 L 98.953,136.64 98.799,137.25 C 96.679,142.23 90.841,144.6 85.74,142.55 83.503,141.6 81.681,139.91 80.597,137.78 78.793,132.68 81.552,127.11 86.759,125.35 89.068,124.56 91.591,124.64 93.849,125.56 L 94.465,125.8 94.099,124.93 V 124.93 Z"
       style="fill:none;stroke:#000000;stroke-width:2.16;stroke-linecap:butt;stroke-linejoin:miter;stroke-miterlimit:10;stroke-dasharray:none;stroke-opacity:1"
       id="path1065" />
    <path
       d="M 82.67,42.719 C 87.704,44.362 90.434,49.717 88.769,54.68 87.103,59.644 81.672,62.336 76.639,60.694 74.727,60.07 73.061,58.869 71.88,57.26 V 74.3 H 60.226 C 60.31,73.672 60.355,73.04 60.36,72.407 60.36,64.041 53.483,57.26 45,57.26 36.517,57.26 29.64,64.041 29.64,72.407 29.645,73.04 29.69,73.672 29.774,74.3 H 18.12 V 25.073 H 71.88 V 45.9 C 72.094,45.609 72.325,45.331 72.571,45.067 72.675,44.873 72.797,44.689 72.936,44.518 75.205,42.375 78.442,41.55 81.48,42.34 81.806,42.34 82.114,42.53 82.421,42.625 Z"
       style="fill:none;stroke:#000000;stroke-width:2.16;stroke-linecap:butt;stroke-linejoin:miter;stroke-miterlimit:10;stroke-dasharray:none;stroke-opacity:1"
       id="path1067" />
    <path
       d="M 106.58,74.416 C 106.88,74.63 107.16,74.863 107.43,75.116 107.64,75.195 107.83,75.318 107.99,75.476 110.36,77.97 111.14,81.54 110.03,84.772 V 85.056 C 108.24,89.98 102.72,92.545 97.705,90.785 92.689,89.026 90.076,83.609 91.869,78.685 92.482,77 93.57,75.519 95.007,74.416 H 77.647 V 66.653 C 78.287,66.729 78.931,66.767 79.576,66.767 88.098,66.767 95.007,59.985 95.007,51.62 95.007,43.255 88.098,36.473 79.576,36.473 78.931,36.479 78.286,36.523 77.647,36.606 V 25.189 H 127.8 V 74.416 Z"
       style="fill:none;stroke:#000000;stroke-width:2.16;stroke-linecap:butt;stroke-linejoin:miter;stroke-miterlimit:10;stroke-dasharray:none;stroke-opacity:1"
       id="path1069" />
    <path
       d="M 71.88,113.43 V 133.1 H 18.12 V 80.046 H 39.24 C 36.823,78.257 35.4,75.449 35.4,72.467 35.4,67.235 39.698,62.994 45,62.994 50.302,62.994 54.6,67.235 54.6,72.467 54.6,75.449 53.177,78.257 50.76,80.046 H 71.88 V 99.524 C 67.751,95.7 61.321,95.7 57.192,99.524 53.3,103.28 53.227,109.43 57.028,113.27 57.082,113.32 57.136,113.38 57.192,113.43 61.321,117.26 67.751,117.26 71.88,113.43 Z"
       style="fill:none;stroke:#000000;stroke-width:2.16;stroke-linecap:butt;stroke-linejoin:miter;stroke-miterlimit:10;stroke-dasharray:none;stroke-opacity:1"
       id="path1071" />
    <g
       id="g1073">
      <g
         id="g1075"
         clip-path="url(#clipPath1079)">
        <g
           id="g1081"
           transform="matrix(0.53096,-0.0247,0.0247,0.53096,17.448,90.608)">
          <g
             id="g1083"
             transform="scale(3.0913,3.092)">
            <g
               id="g1085"
               clip-path="url(#clipPath1089)">
              <path
                 d="M 13.03,11.624 C 13.03,10.829 12.385,10.184 11.59,10.184 10.794,10.184 10.15,10.829 10.15,11.624 10.15,12.419 10.794,13.064 11.59,13.064 12.385,13.064 13.03,12.419 13.03,11.624 Z"
                 style="fill:#000000;fill-opacity:1;fill-rule:nonzero;stroke:none"
                 id="path1091" />
              <path
                 d="M 20.038,16.424 C 19.63,17.12 18.718,17.456 17.47,17.456 16.678,17.456 15.766,17.312 14.758,17.048 14.062,19.568 12.91,21.224 11.59,21.224 10.294,21.224 9.1178,19.592 8.4458,17.096 7.4858,17.336 6.6218,17.48 5.8538,17.48 4.6058,17.48 3.6938,17.144 3.2858,16.448 2.6138,15.296 3.5018,13.448 5.3498,11.576 3.5738,9.7519 2.7578,7.9759 3.4058,6.8479 3.8138,6.1519 4.7258,5.8159 5.9738,5.8159 6.6938,5.8159 7.5338,5.9359 8.4458,6.1519 9.1418,3.6559 10.294,2.0239 11.59,2.0239 12.886,2.0239 14.062,3.6559 14.734,6.1519 15.694,5.9119 16.558,5.7679 17.326,5.7679 18.574,5.7679 19.486,6.1039 19.894,6.7999 20.542,7.9279 19.726,9.7039 17.95,11.528 19.846,13.424 20.71,15.272 20.038,16.424 Z M 17.47,16.496 C 18.358,16.496 19.006,16.28 19.198,15.944 19.558,15.32 18.91,13.856 17.278,12.224 16.702,12.752 16.054,13.28 15.334,13.784 15.262,14.6 15.142,15.392 14.974,16.136 15.886,16.376 16.75,16.496 17.47,16.496 Z M 13.174,9.1279 C 12.67,8.8399 12.166,8.5759 11.662,8.3359 11.158,8.5759 10.654,8.8399 10.15,9.1279 9.6698,9.4159 9.1898,9.7039 8.7578,9.9919 8.7098,10.52 8.7098,11.048 8.7098,11.624 8.7098,12.152 8.7338,12.656 8.7578,13.16 9.2378,13.496 9.7418,13.808 10.294,14.12 10.75,14.384 11.206,14.624 11.662,14.84 12.118,14.624 12.574,14.384 13.03,14.12 13.51,13.832 13.99,13.544 14.422,13.256 14.47,12.728 14.47,12.2 14.47,11.624 14.47,11.024 14.446,10.448 14.398,9.8959 14.014,9.6319 13.606,9.3919 13.174,9.1279 Z M 14.278,8.6719 C 14.206,8.2159 14.134,7.7599 14.062,7.3519 13.654,7.4959 13.222,7.6399 12.79,7.8319 13.078,7.9759 13.366,8.1439 13.654,8.3119 13.87,8.4319 14.086,8.5519 14.278,8.6719 Z M 10.534,7.8319 C 10.054,7.6399 9.5978,7.4719 9.1418,7.3279 9.0458,7.7839 8.9738,8.2639 8.9018,8.7679 9.1658,8.5999 9.4058,8.4559 9.6938,8.2879 9.9578,8.1439 10.246,7.9759 10.534,7.8319 Z M 7.7738,10.712 C 7.3898,11 7.0538,11.288 6.7418,11.576 7.0538,11.864 7.4138,12.152 7.7738,12.44 7.7738,12.176 7.7498,11.912 7.7498,11.624 7.7498,11.312 7.7498,11 7.7738,10.712 Z M 8.8778,14.384 C 8.9498,14.912 9.0218,15.416 9.1178,15.896 9.5738,15.752 10.054,15.56 10.534,15.368 10.294,15.248 10.03,15.104 9.7898,14.96 9.5018,14.768 9.1898,14.576 8.8778,14.384 Z M 12.766,15.368 C 13.198,15.56 13.63,15.704 14.062,15.848 14.158,15.416 14.23,14.96 14.302,14.48 14.038,14.648 13.798,14.792 13.51,14.96 13.27,15.08 13.03,15.224 12.766,15.368 Z M 15.406,12.536 C 15.838,12.2 16.222,11.888 16.582,11.552 16.222,11.24 15.838,10.904 15.406,10.592 15.43,10.928 15.43,11.264 15.43,11.6 15.43,11.936 15.43,12.248 15.406,12.536 Z M 11.59,20.264 C 12.31,20.264 13.246,18.992 13.846,16.784 13.15,16.544 12.406,16.256 11.662,15.92 10.87,16.28 10.102,16.592 9.3578,16.832 9.9578,19.016 10.87,20.264 11.59,20.264 Z M 4.1018,15.944 C 4.3178,16.304 4.9418,16.496 5.8298,16.496 6.5258,16.496 7.3178,16.376 8.1818,16.16 8.0138,15.392 7.8938,14.552 7.8218,13.688 7.1498,13.208 6.5498,12.728 6.0218,12.224 4.4138,13.856 3.7418,15.32 4.1018,15.944 Z M 5.9738,6.7519 C 5.0858,6.7519 4.4378,6.9679 4.2458,7.3039 3.8858,7.9279 4.5098,9.3199 6.0458,10.904 6.5978,10.424 7.1978,9.9439 7.8458,9.4639 7.9178,8.6239 8.0378,7.8079 8.2058,7.0639 7.4138,6.8479 6.6458,6.7519 5.9738,6.7519 Z M 11.59,2.9839 C 10.87,2.9839 9.9578,4.2319 9.3578,6.3919 10.102,6.6319 10.87,6.9199 11.662,7.2799 12.406,6.9439 13.126,6.6559 13.822,6.4399 13.222,4.2319 12.31,2.9839 11.59,2.9839 Z M 19.078,7.3039 C 18.862,6.9439 18.238,6.7519 17.35,6.7519 16.654,6.7519 15.838,6.8719 14.998,7.0879 15.142,7.8079 15.262,8.5519 15.334,9.3679 16.054,9.8719 16.702,10.376 17.278,10.904 18.814,9.3199 19.438,7.9279 19.078,7.3039 Z"
                 style="fill:#000000;fill-opacity:1;fill-rule:nonzero;stroke:none"
                 id="path1093" />
            </g>
          </g>
        </g>
      </g>
    </g>
    <g
       id="g1095">
      <g
         id="g1097"
         clip-path="url(#clipPath1101)">
        <g
           id="g1103"
           transform="matrix(0.49667,0,-2.4e-8,0.49667,26.16,23.04)">
          <g
             id="g1105"
             transform="scale(3.0913,3.092)">
            <g
               id="g1107"
               clip-path="url(#clipPath1111)">
              <path
                 d="M 13.03,11.624 C 13.03,10.829 12.385,10.184 11.59,10.184 10.794,10.184 10.15,10.829 10.15,11.624 10.15,12.419 10.794,13.064 11.59,13.064 12.385,13.064 13.03,12.419 13.03,11.624 Z"
                 style="fill:#000000;fill-opacity:1;fill-rule:nonzero;stroke:none"
                 id="path1113" />
              <path
                 d="M 20.038,16.424 C 19.63,17.12 18.718,17.456 17.47,17.456 16.678,17.456 15.766,17.312 14.758,17.048 14.062,19.568 12.91,21.224 11.59,21.224 10.294,21.224 9.1178,19.592 8.4458,17.096 7.4858,17.336 6.6218,17.48 5.8538,17.48 4.6058,17.48 3.6938,17.144 3.2858,16.448 2.6138,15.296 3.5018,13.448 5.3498,11.576 3.5738,9.7519 2.7578,7.9759 3.4058,6.8479 3.8138,6.1519 4.7258,5.8159 5.9738,5.8159 6.6938,5.8159 7.5338,5.9359 8.4458,6.1519 9.1418,3.6559 10.294,2.0239 11.59,2.0239 12.886,2.0239 14.062,3.6559 14.734,6.1519 15.694,5.9119 16.558,5.7679 17.326,5.7679 18.574,5.7679 19.486,6.1039 19.894,6.7999 20.542,7.9279 19.726,9.7039 17.95,11.528 19.846,13.424 20.71,15.272 20.038,16.424 Z M 17.47,16.496 C 18.358,16.496 19.006,16.28 19.198,15.944 19.558,15.32 18.91,13.856 17.278,12.224 16.702,12.752 16.054,13.28 15.334,13.784 15.262,14.6 15.142,15.392 14.974,16.136 15.886,16.376 16.75,16.496 17.47,16.496 Z M 13.174,9.1279 C 12.67,8.8399 12.166,8.5759 11.662,8.3359 11.158,8.5759 10.654,8.8399 10.15,9.1279 9.6698,9.4159 9.1898,9.7039 8.7578,9.9919 8.7098,10.52 8.7098,11.048 8.7098,11.624 8.7098,12.152 8.7338,12.656 8.7578,13.16 9.2378,13.496 9.7418,13.808 10.294,14.12 10.75,14.384 11.206,14.624 11.662,14.84 12.118,14.624 12.574,14.384 13.03,14.12 13.51,13.832 13.99,13.544 14.422,13.256 14.47,12.728 14.47,12.2 14.47,11.624 14.47,11.024 14.446,10.448 14.398,9.8959 14.014,9.6319 13.606,9.3919 13.174,9.1279 Z M 14.278,8.6719 C 14.206,8.2159 14.134,7.7599 14.062,7.3519 13.654,7.4959 13.222,7.6399 12.79,7.8319 13.078,7.9759 13.366,8.1439 13.654,8.3119 13.87,8.4319 14.086,8.5519 14.278,8.6719 Z M 10.534,7.8319 C 10.054,7.6399 9.5978,7.4719 9.1418,7.3279 9.0458,7.7839 8.9738,8.2639 8.9018,8.7679 9.1658,8.5999 9.4058,8.4559 9.6938,8.2879 9.9578,8.1439 10.246,7.9759 10.534,7.8319 Z M 7.7738,10.712 C 7.3898,11 7.0538,11.288 6.7418,11.576 7.0538,11.864 7.4138,12.152 7.7738,12.44 7.7738,12.176 7.7498,11.912 7.7498,11.624 7.7498,11.312 7.7498,11 7.7738,10.712 Z M 8.8778,14.384 C 8.9498,14.912 9.0218,15.416 9.1178,15.896 9.5738,15.752 10.054,15.56 10.534,15.368 10.294,15.248 10.03,15.104 9.7898,14.96 9.5018,14.768 9.1898,14.576 8.8778,14.384 Z M 12.766,15.368 C 13.198,15.56 13.63,15.704 14.062,15.848 14.158,15.416 14.23,14.96 14.302,14.48 14.038,14.648 13.798,14.792 13.51,14.96 13.27,15.08 13.03,15.224 12.766,15.368 Z M 15.406,12.536 C 15.838,12.2 16.222,11.888 16.582,11.552 16.222,11.24 15.838,10.904 15.406,10.592 15.43,10.928 15.43,11.264 15.43,11.6 15.43,11.936 15.43,12.248 15.406,12.536 Z M 11.59,20.264 C 12.31,20.264 13.246,18.992 13.846,16.784 13.15,16.544 12.406,16.256 11.662,15.92 10.87,16.28 10.102,16.592 9.3578,16.832 9.9578,19.016 10.87,20.264 11.59,20.264 Z M 4.1018,15.944 C 4.3178,16.304 4.9418,16.496 5.8298,16.496 6.5258,16.496 7.3178,16.376 8.1818,16.16 8.0138,15.392 7.8938,14.552 7.8218,13.688 7.1498,13.208 6.5498,12.728 6.0218,12.224 4.4138,13.856 3.7418,15.32 4.1018,15.944 Z M 5.9738,6.7519 C 5.0858,6.7519 4.4378,6.9679 4.2458,7.3039 3.8858,7.9279 4.5098,9.3199 6.0458,10.904 6.5978,10.424 7.1978,9.9439 7.8458,9.4639 7.9178,8.6239 8.0378,7.8079 8.2058,7.0639 7.4138,6.8479 6.6458,6.7519 5.9738,6.7519 Z M 11.59,2.9839 C 10.87,2.9839 9.9578,4.2319 9.3578,6.3919 10.102,6.6319 10.87,6.9199 11.662,7.2799 12.406,6.9439 13.126,6.6559 13.822,6.4399 13.222,4.2319 12.31,2.9839 11.59,2.9839 Z M 19.078,7.3039 C 18.862,6.9439 18.238,6.7519 17.35,6.7519 16.654,6.7519 15.838,6.8719 14.998,7.0879 15.142,7.8079 15.262,8.5519 15.334,9.3679 16.054,9.8719 16.702,10.376 17.278,10.904 18.814,9.3199 19.438,7.9279 19.078,7.3039 Z"
                 style="fill:#000000;fill-opacity:1;fill-rule:nonzero;stroke:none"
                 id="path1115" />
            </g>
          </g>
        </g>
      </g>
    </g>
    <g
       id="g1117">
      <g
         id="g1119"
         clip-path="url(#clipPath1123)">
        <g
           id="g1125"
           transform="matrix(0.53096,-0.0247,0.024699,0.53096,91.924,32.121)">
          <g
             id="g1127"
             transform="scale(3.0913,3.092)">
            <g
               id="g1129"
               clip-path="url(#clipPath1133)">
              <path
                 d="M 13.03,11.624 C 13.03,10.829 12.385,10.184 11.59,10.184 10.794,10.184 10.15,10.829 10.15,11.624 10.15,12.419 10.794,13.064 11.59,13.064 12.385,13.064 13.03,12.419 13.03,11.624 Z"
                 style="fill:#000000;fill-opacity:1;fill-rule:nonzero;stroke:none"
                 id="path1135" />
              <path
                 d="M 20.038,16.424 C 19.63,17.12 18.718,17.456 17.47,17.456 16.678,17.456 15.766,17.312 14.758,17.048 14.062,19.568 12.91,21.224 11.59,21.224 10.294,21.224 9.1178,19.592 8.4458,17.096 7.4858,17.336 6.6218,17.48 5.8538,17.48 4.6058,17.48 3.6938,17.144 3.2858,16.448 2.6138,15.296 3.5018,13.448 5.3498,11.576 3.5738,9.7519 2.7578,7.9759 3.4058,6.8479 3.8138,6.1519 4.7258,5.8159 5.9738,5.8159 6.6938,5.8159 7.5338,5.9359 8.4458,6.1519 9.1418,3.6559 10.294,2.0239 11.59,2.0239 12.886,2.0239 14.062,3.6559 14.734,6.1519 15.694,5.9119 16.558,5.7679 17.326,5.7679 18.574,5.7679 19.486,6.1039 19.894,6.7999 20.542,7.9279 19.726,9.7039 17.95,11.528 19.846,13.424 20.71,15.272 20.038,16.424 Z M 17.47,16.496 C 18.358,16.496 19.006,16.28 19.198,15.944 19.558,15.32 18.91,13.856 17.278,12.224 16.702,12.752 16.054,13.28 15.334,13.784 15.262,14.6 15.142,15.392 14.974,16.136 15.886,16.376 16.75,16.496 17.47,16.496 Z M 13.174,9.1279 C 12.67,8.8399 12.166,8.5759 11.662,8.3359 11.158,8.5759 10.654,8.8399 10.15,9.1279 9.6698,9.4159 9.1898,9.7039 8.7578,9.9919 8.7098,10.52 8.7098,11.048 8.7098,11.624 8.7098,12.152 8.7338,12.656 8.7578,13.16 9.2378,13.496 9.7418,13.808 10.294,14.12 10.75,14.384 11.206,14.624 11.662,14.84 12.118,14.624 12.574,14.384 13.03,14.12 13.51,13.832 13.99,13.544 14.422,13.256 14.47,12.728 14.47,12.2 14.47,11.624 14.47,11.024 14.446,10.448 14.398,9.8959 14.014,9.6319 13.606,9.3919 13.174,9.1279 Z M 14.278,8.6719 C 14.206,8.2159 14.134,7.7599 14.062,7.3519 13.654,7.4959 13.222,7.6399 12.79,7.8319 13.078,7.9759 13.366,8.1439 13.654,8.3119 13.87,8.4319 14.086,8.5519 14.278,8.6719 Z M 10.534,7.8319 C 10.054,7.6399 9.5978,7.4719 9.1418,7.3279 9.0458,7.7839 8.9738,8.2639 8.9018,8.7679 9.1658,8.5999 9.4058,8.4559 9.6938,8.2879 9.9578,8.1439 10.246,7.9759 10.534,7.8319 Z M 7.7738,10.712 C 7.3898,11 7.0538,11.288 6.7418,11.576 7.0538,11.864 7.4138,12.152 7.7738,12.44 7.7738,12.176 7.7498,11.912 7.7498,11.624 7.7498,11.312 7.7498,11 7.7738,10.712 Z M 8.8778,14.384 C 8.9498,14.912 9.0218,15.416 9.1178,15.896 9.5738,15.752 10.054,15.56 10.534,15.368 10.294,15.248 10.03,15.104 9.7898,14.96 9.5018,14.768 9.1898,14.576 8.8778,14.384 Z M 12.766,15.368 C 13.198,15.56 13.63,15.704 14.062,15.848 14.158,15.416 14.23,14.96 14.302,14.48 14.038,14.648 13.798,14.792 13.51,14.96 13.27,15.08 13.03,15.224 12.766,15.368 Z M 15.406,12.536 C 15.838,12.2 16.222,11.888 16.582,11.552 16.222,11.24 15.838,10.904 15.406,10.592 15.43,10.928 15.43,11.264 15.43,11.6 15.43,11.936 15.43,12.248 15.406,12.536 Z M 11.59,20.264 C 12.31,20.264 13.246,18.992 13.846,16.784 13.15,16.544 12.406,16.256 11.662,15.92 10.87,16.28 10.102,16.592 9.3578,16.832 9.9578,19.016 10.87,20.264 11.59,20.264 Z M 4.1018,15.944 C 4.3178,16.304 4.9418,16.496 5.8298,16.496 6.5258,16.496 7.3178,16.376 8.1818,16.16 8.0138,15.392 7.8938,14.552 7.8218,13.688 7.1498,13.208 6.5498,12.728 6.0218,12.224 4.4138,13.856 3.7418,15.32 4.1018,15.944 Z M 5.9738,6.7519 C 5.0858,6.7519 4.4378,6.9679 4.2458,7.3039 3.8858,7.9279 4.5098,9.3199 6.0458,10.904 6.5978,10.424 7.1978,9.9439 7.8458,9.4639 7.9178,8.6239 8.0378,7.8079 8.2058,7.0639 7.4138,6.8479 6.6458,6.7519 5.9738,6.7519 Z M 11.59,2.9839 C 10.87,2.9839 9.9578,4.2319 9.3578,6.3919 10.102,6.6319 10.87,6.9199 11.662,7.2799 12.406,6.9439 13.126,6.6559 13.822,6.4399 13.222,4.2319 12.31,2.9839 11.59,2.9839 Z M 19.078,7.3039 C 18.862,6.9439 18.238,6.7519 17.35,6.7519 16.654,6.7519 15.838,6.8719 14.998,7.0879 15.142,7.8079 15.262,8.5519 15.334,9.3679 16.054,9.8719 16.702,10.376 17.278,10.904 18.814,9.3199 19.438,7.9279 19.078,7.3039 Z"
                 style="fill:#000000;fill-opacity:1;fill-rule:nonzero;stroke:none"
                 id="path1137" />
            </g>
          </g>
        </g>
      </g>
    </g>
  </g>
</svg>
