<svg width="227" height="227" xmlns="http://www.w3.org/2000/svg" xmlns:xlink="http://www.w3.org/1999/xlink" overflow="hidden"><defs><clipPath id="clip0"><rect x="0" y="0" width="227" height="227"/></clipPath><clipPath id="clip1"><rect x="135" y="117" width="66" height="66"/></clipPath><clipPath id="clip2"><rect x="135" y="117" width="66" height="66"/></clipPath></defs><g clip-path="url(#clip0)"><rect x="0" y="0" width="227" height="227" fill="#FFFFFF"/><path d="M4.5 41.0007C4.5 20.8419 20.8419 4.5 41.0007 4.5L186.999 4.5C207.158 4.5 223.5 20.8419 223.5 41.0007L223.5 186.999C223.5 207.158 207.158 223.5 186.999 223.5L41.0007 223.5C20.8419 223.5 4.5 207.158 4.5 186.999Z" stroke="#000000" stroke-width="1.33431" stroke-miterlimit="8" fill="#F2F2F2" fill-rule="evenodd"/><g><g><g><path d="M57.5 23.9583C57.5 27.6632 54.4965 30.6666 50.7916 30.6666 47.0867 30.6666 44.0833 27.6632 44.0833 23.9583 44.0833 20.2534 47.0867 17.25 50.7916 17.25 54.4965 17.25 57.5 20.2534 57.5 23.9583Z" transform="matrix(1 0 0 1 19 130)"/><path d="M34.5 64.2083C34.5 70.0303 29.7803 74.7499 23.9583 74.7499 18.1363 74.7499 13.4167 70.0303 13.4167 64.2083 13.4167 58.3863 18.1363 53.6666 23.9583 53.6666 29.7803 53.6666 34.5 58.3863 34.5 64.2083Z" transform="matrix(1 0 0 1 19 130)"/><path d="M78.5833 64.2083C78.5833 70.0303 73.8636 74.7499 68.0416 74.7499 62.2196 74.7499 57.5 70.0303 57.5 64.2083 57.5 58.3863 62.2196 53.6666 68.0416 53.6666 73.8636 53.6666 78.5833 58.3863 78.5833 64.2083Z" transform="matrix(1 0 0 1 19 130)"/><path d="M49.0666 46.7666 44.275 46.2875 48.7791 38.525 59.0333 44.0833C58.9375 44.1791 58.9375 44.275 58.8416 44.3708L50.7916 48.875 50.7916 48.6833C50.7916 47.725 50.025 46.8625 49.0666 46.7666ZM68.0416 50.7916C69.8624 50.7916 71.5874 51.175 73.1208 51.8458 74.0791 50.1208 74.7499 48.1083 74.7499 46 74.7499 39.675 69.575 34.5 63.25 34.5 61.9083 34.5 60.6625 34.7875 59.4166 35.1708 59.8958 36.1291 60.1833 37.1833 60.2791 38.3333L47.3416 31.2416C47.15 31.1458 46.9583 31.05 46.7666 31.05 44.5625 30.1875 42.0708 30.9541 40.825 33.0625L34.1166 44.5625C34.0208 44.7541 33.925 45.0416 33.8291 45.2333L13.4167 43.125 13.4167 46.9583 27.7916 51.3666C33.35 52.9958 37.375 58.1708 37.375 64.2083 37.375 65.55 37.1833 66.7958 36.8 68.0416L55.2 68.0416C54.8166 66.7958 54.625 65.55 54.625 64.2083 54.625 56.8291 60.6625 50.7916 68.0416 50.7916Z" transform="matrix(1 0 0 1 19 130)"/></g></g></g><path d="M83.5 32.4471C83.5 28.6103 86.6104 25.5 90.4471 25.5L138.553 25.5C142.39 25.5 145.5 28.6103 145.5 32.4471L145.5 80.553C145.5 84.3897 142.39 87.5 138.553 87.5L90.4471 87.5C86.6104 87.5 83.5 84.3897 83.5 80.553Z" stroke="#000000" stroke-width="3.0022" stroke-miterlimit="8" fill="#F2F2F2" fill-rule="evenodd"/><path d="M103.5 57C103.5 42.9167 108.873 31.5 115.5 31.5 122.127 31.5 127.5 42.9167 127.5 57 127.5 71.0833 122.127 82.5 115.5 82.5 108.873 82.5 103.5 71.0833 103.5 57Z" stroke="#000000" stroke-width="3.0022" stroke-miterlimit="8" fill="none" fill-rule="evenodd"/><path d="M109.084 46.2904C121.874 39.1144 134.77 37.8029 137.889 43.3611 141.007 48.9193 133.167 59.2424 120.378 66.4184 107.588 73.5944 94.6919 74.9059 91.5733 69.3477 88.4547 63.7895 96.2946 53.4664 109.084 46.2904Z" stroke="#000000" stroke-width="3.0022" stroke-miterlimit="8" fill="none" fill-rule="evenodd"/><path d="M120.479 47.0299C133.033 54.6113 140.538 65.1799 137.243 70.6355 133.949 76.0911 121.101 74.3678 108.548 66.7863 95.9941 59.2048 88.4885 48.6362 91.7833 43.1806 95.0781 37.725 107.926 39.4484 120.479 47.0299Z" stroke="#000000" stroke-width="3.0022" stroke-miterlimit="8" fill="none" fill-rule="evenodd"/><path d="M109.5 57C109.5 54.5147 111.962 52.5 115 52.5 118.038 52.5 120.5 54.5147 120.5 57 120.5 59.4852 118.038 61.5 115 61.5 111.962 61.5 109.5 59.4852 109.5 57Z" stroke="#000000" stroke-width="3.0022" stroke-miterlimit="8" fill-rule="evenodd"/><path d="M139.333 15.5C139.425 15.5 139.5 15.5746 139.5 15.6667L139.5 25.3333C139.5 25.4254 139.425 25.5 139.333 25.5L138.667 25.5C138.575 25.5 138.5 25.4254 138.5 25.3333L138.5 15.6667C138.5 15.5746 138.575 15.5 138.667 15.5Z" stroke="#000000" stroke-width="3.0022" stroke-miterlimit="8" fill-rule="evenodd"/><path d="M129.333 15.5C129.425 15.5 129.5 15.5746 129.5 15.6667L129.5 25.3333C129.5 25.4254 129.425 25.5 129.333 25.5L128.667 25.5C128.575 25.5 128.5 25.4254 128.5 25.3333L128.5 15.6667C128.5 15.5746 128.575 15.5 128.667 15.5Z" stroke="#000000" stroke-width="3.0022" stroke-miterlimit="8" fill-rule="evenodd"/><path d="M120.333 15.5C120.425 15.5 120.5 15.5746 120.5 15.6667L120.5 25.3333C120.5 25.4254 120.425 25.5 120.333 25.5L119.667 25.5C119.575 25.5 119.5 25.4254 119.5 25.3333L119.5 15.6667C119.5 15.5746 119.575 15.5 119.667 15.5Z" stroke="#000000" stroke-width="3.0022" stroke-miterlimit="8" fill-rule="evenodd"/><path d="M110.333 15.5C110.425 15.5 110.5 15.5746 110.5 15.6667L110.5 25.3333C110.5 25.4254 110.425 25.5 110.333 25.5L109.667 25.5C109.575 25.5 109.5 25.4254 109.5 25.3333L109.5 15.6667C109.5 15.5746 109.575 15.5 109.667 15.5Z" stroke="#000000" stroke-width="3.0022" stroke-miterlimit="8" fill-rule="evenodd"/><path d="M100.333 15.5C100.425 15.5 100.5 15.5746 100.5 15.6667L100.5 25.3333C100.5 25.4254 100.425 25.5 100.333 25.5L99.6667 25.5C99.5747 25.5 99.5 25.4254 99.5 25.3333L99.5 15.6667C99.5 15.5746 99.5747 15.5 99.6667 15.5Z" stroke="#000000" stroke-width="3.0022" stroke-miterlimit="8" fill-rule="evenodd"/><path d="M90.3334 15.5C90.4254 15.5 90.5 15.5746 90.5 15.6667L90.5 25.3333C90.5 25.4254 90.4254 25.5 90.3334 25.5L89.6667 25.5C89.5747 25.5 89.5 25.4254 89.5 25.3333L89.5 15.6667C89.5 15.5746 89.5747 15.5 89.6667 15.5Z" stroke="#000000" stroke-width="3.0022" stroke-miterlimit="8" fill-rule="evenodd"/><path d="M139.333 87.5C139.425 87.5 139.5 87.5747 139.5 87.6667L139.5 97.3334C139.5 97.4254 139.425 97.5 139.333 97.5L138.667 97.5C138.575 97.5 138.5 97.4254 138.5 97.3334L138.5 87.6667C138.5 87.5747 138.575 87.5 138.667 87.5Z" stroke="#000000" stroke-width="3.0022" stroke-miterlimit="8" fill-rule="evenodd"/><path d="M129.333 87.5C129.425 87.5 129.5 87.5747 129.5 87.6667L129.5 97.3334C129.5 97.4254 129.425 97.5 129.333 97.5L128.667 97.5C128.575 97.5 128.5 97.4254 128.5 97.3334L128.5 87.6667C128.5 87.5747 128.575 87.5 128.667 87.5Z" stroke="#000000" stroke-width="3.0022" stroke-miterlimit="8" fill-rule="evenodd"/><path d="M120.333 87.5C120.425 87.5 120.5 87.5747 120.5 87.6667L120.5 97.3334C120.5 97.4254 120.425 97.5 120.333 97.5L119.667 97.5C119.575 97.5 119.5 97.4254 119.5 97.3334L119.5 87.6667C119.5 87.5747 119.575 87.5 119.667 87.5Z" stroke="#000000" stroke-width="3.0022" stroke-miterlimit="8" fill-rule="evenodd"/><path d="M110.333 87.5C110.425 87.5 110.5 87.5747 110.5 87.6667L110.5 97.3334C110.5 97.4254 110.425 97.5 110.333 97.5L109.667 97.5C109.575 97.5 109.5 97.4254 109.5 97.3334L109.5 87.6667C109.5 87.5747 109.575 87.5 109.667 87.5Z" stroke="#000000" stroke-width="3.0022" stroke-miterlimit="8" fill-rule="evenodd"/><path d="M100.333 87.5C100.425 87.5 100.5 87.5747 100.5 87.6667L100.5 97.3334C100.5 97.4254 100.425 97.5 100.333 97.5L99.6667 97.5C99.5747 97.5 99.5 97.4254 99.5 97.3334L99.5 87.6667C99.5 87.5747 99.5747 87.5 99.6667 87.5Z" stroke="#000000" stroke-width="3.0022" stroke-miterlimit="8" fill-rule="evenodd"/><path d="M90.3334 87.5C90.4254 87.5 90.5 87.5747 90.5 87.6667L90.5 97.3334C90.5 97.4254 90.4254 97.5 90.3334 97.5L89.6667 97.5C89.5747 97.5 89.5 97.4254 89.5 97.3334L89.5 87.6667C89.5 87.5747 89.5747 87.5 89.6667 87.5Z" stroke="#000000" stroke-width="3.0022" stroke-miterlimit="8" fill-rule="evenodd"/><path d="M145.5 31.6666C145.5 31.5746 145.575 31.5 145.667 31.5L155.333 31.5C155.425 31.5 155.5 31.5746 155.5 31.6666L155.5 32.3333C155.5 32.4254 155.425 32.5 155.333 32.5L145.667 32.5C145.575 32.5 145.5 32.4254 145.5 32.3333Z" stroke="#000000" stroke-width="3.0022" stroke-miterlimit="8" fill-rule="evenodd"/><path d="M145.5 42.6666C145.5 42.5746 145.575 42.5 145.667 42.5L155.333 42.5C155.425 42.5 155.5 42.5746 155.5 42.6666L155.5 43.3333C155.5 43.4254 155.425 43.5 155.333 43.5L145.667 43.5C145.575 43.5 145.5 43.4254 145.5 43.3333Z" stroke="#000000" stroke-width="3.0022" stroke-miterlimit="8" fill-rule="evenodd"/><path d="M145.5 51.6666C145.5 51.5746 145.575 51.5 145.667 51.5L155.333 51.5C155.425 51.5 155.5 51.5746 155.5 51.6666L155.5 52.3333C155.5 52.4253 155.425 52.5 155.333 52.5L145.667 52.5C145.575 52.5 145.5 52.4253 145.5 52.3333Z" stroke="#000000" stroke-width="3.0022" stroke-miterlimit="8" fill-rule="evenodd"/><path d="M145.5 62.6666C145.5 62.5746 145.575 62.5 145.667 62.5L155.333 62.5C155.425 62.5 155.5 62.5746 155.5 62.6666L155.5 63.3333C155.5 63.4253 155.425 63.5 155.333 63.5L145.667 63.5C145.575 63.5 145.5 63.4253 145.5 63.3333Z" stroke="#000000" stroke-width="3.0022" stroke-miterlimit="8" fill-rule="evenodd"/><path d="M145.5 72.6666C145.5 72.5746 145.575 72.4999 145.667 72.4999L155.333 72.4999C155.425 72.4999 155.5 72.5746 155.5 72.6666L155.5 73.3333C155.5 73.4253 155.425 73.4999 155.333 73.4999L145.667 73.4999C145.575 73.4999 145.5 73.4253 145.5 73.3333Z" stroke="#000000" stroke-width="3.0022" stroke-miterlimit="8" fill-rule="evenodd"/><path d="M145.5 82.6667C145.5 82.5747 145.575 82.5 145.667 82.5L155.333 82.5C155.425 82.5 155.5 82.5747 155.5 82.6667L155.5 83.3334C155.5 83.4254 155.425 83.5 155.333 83.5L145.667 83.5C145.575 83.5 145.5 83.4254 145.5 83.3334Z" stroke="#000000" stroke-width="3.0022" stroke-miterlimit="8" fill-rule="evenodd"/><path d="M73.4999 31.6666C73.4999 31.5746 73.5746 31.5 73.6666 31.5L83.3334 31.5C83.4254 31.5 83.5 31.5746 83.5 31.6666L83.5 32.3333C83.5 32.4254 83.4254 32.5 83.3334 32.5L73.6666 32.5C73.5746 32.5 73.4999 32.4254 73.4999 32.3333Z" stroke="#000000" stroke-width="3.0022" stroke-miterlimit="8" fill-rule="evenodd"/><path d="M73.4999 41.6666C73.4999 41.5746 73.5746 41.5 73.6666 41.5L83.3334 41.5C83.4254 41.5 83.5 41.5746 83.5 41.6666L83.5 42.3333C83.5 42.4254 83.4254 42.5 83.3334 42.5L73.6666 42.5C73.5746 42.5 73.4999 42.4254 73.4999 42.3333Z" stroke="#000000" stroke-width="3.0022" stroke-miterlimit="8" fill-rule="evenodd"/><path d="M73.4999 51.6666C73.4999 51.5746 73.5746 51.5 73.6666 51.5L83.3334 51.5C83.4254 51.5 83.5 51.5746 83.5 51.6666L83.5 52.3333C83.5 52.4253 83.4254 52.5 83.3334 52.5L73.6666 52.5C73.5746 52.5 73.4999 52.4253 73.4999 52.3333Z" stroke="#000000" stroke-width="3.0022" stroke-miterlimit="8" fill-rule="evenodd"/><path d="M73.4999 61.6666C73.4999 61.5746 73.5746 61.5 73.6666 61.5L83.3334 61.5C83.4254 61.5 83.5 61.5746 83.5 61.6666L83.5 62.3333C83.5 62.4253 83.4254 62.5 83.3334 62.5L73.6666 62.5C73.5746 62.5 73.4999 62.4253 73.4999 62.3333Z" stroke="#000000" stroke-width="3.0022" stroke-miterlimit="8" fill-rule="evenodd"/><path d="M73.4999 71.6666C73.4999 71.5746 73.5746 71.4999 73.6666 71.4999L83.3334 71.4999C83.4254 71.4999 83.5 71.5746 83.5 71.6666L83.5 72.3333C83.5 72.4253 83.4254 72.4999 83.3334 72.4999L73.6666 72.4999C73.5746 72.4999 73.4999 72.4253 73.4999 72.3333Z" stroke="#000000" stroke-width="3.0022" stroke-miterlimit="8" fill-rule="evenodd"/><path d="M73.4999 81.6667C73.4999 81.5747 73.5746 81.5 73.6666 81.5L83.3334 81.5C83.4254 81.5 83.5 81.5747 83.5 81.6667L83.5 82.3334C83.5 82.4254 83.4254 82.5 83.3334 82.5L73.6666 82.5C73.5746 82.5 73.4999 82.4254 73.4999 82.3334Z" stroke="#000000" stroke-width="3.0022" stroke-miterlimit="8" fill-rule="evenodd"/><path d="M0 0 0.000105064 107.637" stroke="#000000" stroke-width="2.00147" stroke-miterlimit="8" stroke-dasharray="8.00588 6.00441" fill="none" fill-rule="evenodd" transform="matrix(1 0 0 -1 114 206.637)"/><path d="M161.25 130.5 161.25 116 155.5 116 167 104.5 178.5 116 172.75 116 172.75 130.5Z" stroke="#000000" stroke-width="1.33431" stroke-miterlimit="8" fill-rule="evenodd"/><path d="M63 130.5 63 115.5 57.5 115.5 68.5 104.5 79.5 115.5 74 115.5 74 130.5Z" stroke="#000000" stroke-width="1.33431" stroke-miterlimit="8" fill-rule="evenodd"/><g clip-path="url(#clip1)"><g clip-path="url(#clip2)"></g></g><g><g><g><path d="M157.5 143.563C157.5 146.6 155.038 149.062 152 149.062 148.962 149.062 146.5 146.6 146.5 143.563 146.5 140.525 148.962 138.063 152 138.063 155.038 138.063 157.5 140.525 157.5 143.563Z" fill="#7F7F7F"/><path d="M166.987 171.887 163.137 155.525C163 154.975 162.725 154.425 162.312 154.012 160.662 152.638 158.737 151.675 156.537 150.988 155.025 150.713 153.512 150.438 152 150.438 150.488 150.438 148.975 150.713 147.463 151.125 145.263 151.675 143.338 152.775 141.688 154.15 141.275 154.562 141 155.113 140.863 155.663L137.013 172.025C137.013 172.162 136.875 172.437 136.875 172.712 136.875 174.225 138.113 175.462 139.625 175.462 140.863 175.462 141.963 174.5 142.238 173.4L145.125 161.438 145.125 199.937 150.625 199.937 150.625 175.187 153.375 175.187 153.375 199.937 158.875 199.937 158.875 161.3 161.762 173.262C162.037 174.362 163.137 175.325 164.375 175.325 165.887 175.325 167.125 174.087 167.125 172.575 167.125 172.3 166.987 172.025 166.987 171.887Z" fill="#7F7F7F"/></g></g></g><g><g><g><path d="M38.5 7.56249C38.5 10.6001 36.0375 13.0625 33 13.0625 29.9624 13.0625 27.5 10.6001 27.5 7.56249 27.5 4.52493 29.9624 2.0625 33 2.0625 36.0375 2.0625 38.5 4.52493 38.5 7.56249Z" fill="#7F7F7F" transform="matrix(1.01515 0 0 1 149 135)"/><path d="M47.9875 35.8875 44.1375 19.525C44 18.975 43.725 18.425 43.3125 18.0125 41.6625 16.6375 39.7375 15.675 37.5375 14.9875 36.025 14.7125 34.5125 14.4375 33 14.4375 31.4875 14.4375 29.975 14.7125 28.4625 15.125 26.2625 15.675 24.3375 16.775 22.6875 18.15 22.275 18.5625 22 19.1125 21.8625 19.6625L18.0125 36.025C18.0125 36.1625 17.875 36.4375 17.875 36.7125 17.875 38.225 19.1125 39.4625 20.625 39.4625 21.8625 39.4625 22.9625 38.5 23.2375 37.4L26.125 25.4375 26.125 63.9375 31.625 63.9375 31.625 39.1875 34.375 39.1875 34.375 63.9375 39.875 63.9375 39.875 25.3 42.7625 37.2625C43.0375 38.3625 44.1375 39.325 45.375 39.325 46.8875 39.325 48.125 38.0875 48.125 36.575 48.125 36.3 47.9875 36.025 47.9875 35.8875Z" fill="#7F7F7F" transform="matrix(1.01515 0 0 1 149 135)"/></g></g></g><g><g><g><path d="M38.5 7.56249C38.5 10.6001 36.0375 13.0625 33 13.0625 29.9624 13.0625 27.5 10.6001 27.5 7.56249 27.5 4.52493 29.9624 2.0625 33 2.0625 36.0375 2.0625 38.5 4.52493 38.5 7.56249Z" fill="#0D0D0D" transform="matrix(1.01515 0 0 1 103 142)"/><path d="M47.9875 35.8875 44.1375 19.525C44 18.975 43.725 18.425 43.3125 18.0125 41.6625 16.6375 39.7375 15.675 37.5375 14.9875 36.025 14.7125 34.5125 14.4375 33 14.4375 31.4875 14.4375 29.975 14.7125 28.4625 15.125 26.2625 15.675 24.3375 16.775 22.6875 18.15 22.275 18.5625 22 19.1125 21.8625 19.6625L18.0125 36.025C18.0125 36.1625 17.875 36.4375 17.875 36.7125 17.875 38.225 19.1125 39.4625 20.625 39.4625 21.8625 39.4625 22.9625 38.5 23.2375 37.4L26.125 25.4375 26.125 63.9375 31.625 63.9375 31.625 39.1875 34.375 39.1875 34.375 63.9375 39.875 63.9375 39.875 25.3 42.7625 37.2625C43.0375 38.3625 44.1375 39.325 45.375 39.325 46.8875 39.325 48.125 38.0875 48.125 36.575 48.125 36.3 47.9875 36.025 47.9875 35.8875Z" fill="#0D0D0D" transform="matrix(1.01515 0 0 1 103 142)"/></g></g></g><g><g><g><path d="M172.5 149.562C172.5 152.6 170.038 155.062 167 155.062 163.962 155.062 161.5 152.6 161.5 149.562 161.5 146.525 163.962 144.062 167 144.062 170.038 144.062 172.5 146.525 172.5 149.562Z" fill="#0D0D0D"/><path d="M181.987 177.887 178.137 161.525C178 160.975 177.725 160.425 177.312 160.012 175.662 158.637 173.737 157.675 171.537 156.987 170.025 156.712 168.512 156.437 167 156.437 165.487 156.437 163.975 156.712 162.462 157.125 160.262 157.675 158.337 158.775 156.688 160.15 156.275 160.562 156 161.112 155.863 161.662L152.012 178.025C152.012 178.162 151.875 178.437 151.875 178.712 151.875 180.225 153.113 181.462 154.625 181.462 155.863 181.462 156.962 180.5 157.238 179.4L160.125 167.437 160.125 205.937 165.625 205.937 165.625 181.187 168.375 181.187 168.375 205.937 173.875 205.937 173.875 167.3 176.762 179.262C177.037 180.362 178.137 181.325 179.375 181.325 180.887 181.325 182.125 180.087 182.125 178.575 182.125 178.3 181.987 178.025 181.987 177.887Z" fill="#0D0D0D"/></g></g></g><g><g><g><path d="M38.5 7.56249C38.5 10.6001 36.0375 13.0625 33 13.0625 29.9624 13.0625 27.5 10.6001 27.5 7.56249 27.5 4.52493 29.9624 2.0625 33 2.0625 36.0375 2.0625 38.5 4.52493 38.5 7.56249Z" fill="#0D0D0D" transform="matrix(1 0 0 1 165 142)"/><path d="M47.9875 35.8875 44.1375 19.525C44 18.975 43.725 18.425 43.3125 18.0125 41.6625 16.6375 39.7375 15.675 37.5375 14.9875 36.025 14.7125 34.5125 14.4375 33 14.4375 31.4875 14.4375 29.975 14.7125 28.4625 15.125 26.2625 15.675 24.3375 16.775 22.6875 18.15 22.275 18.5625 22 19.1125 21.8625 19.6625L18.0125 36.025C18.0125 36.1625 17.875 36.4375 17.875 36.7125 17.875 38.225 19.1125 39.4625 20.625 39.4625 21.8625 39.4625 22.9625 38.5 23.2375 37.4L26.125 25.4375 26.125 63.9375 31.625 63.9375 31.625 39.1875 34.375 39.1875 34.375 63.9375 39.875 63.9375 39.875 25.3 42.7625 37.2625C43.0375 38.3625 44.1375 39.325 45.375 39.325 46.8875 39.325 48.125 38.0875 48.125 36.575 48.125 36.3 47.9875 36.025 47.9875 35.8875Z" fill="#0D0D0D" transform="matrix(1 0 0 1 165 142)"/></g></g></g></g></svg>