<?xml version="1.0" encoding="UTF-8" standalone="no"?>
<!-- Created with Inkscape (http://www.inkscape.org/) -->

<svg
   version="1.1"
   id="svg2"
   width="220.00002"
   height="220"
   viewBox="0 0 220.00001 220"
   sodipodi:docname="warm-start-pre-trained-feature-extractor-thin.svg"
   inkscape:version="1.3.2 (091e20e, 2023-11-25, custom)"
   xmlns:inkscape="http://www.inkscape.org/namespaces/inkscape"
   xmlns:sodipodi="http://sodipodi.sourceforge.net/DTD/sodipodi-0.dtd"
   xmlns="http://www.w3.org/2000/svg"
   xmlns:svg="http://www.w3.org/2000/svg">
  <defs
     id="defs6">
    <clipPath
       clipPathUnits="userSpaceOnUse"
       id="clipPath16">
      <path
         d="M 0,4.5776e-5 H 167.28 V 167.28005 H 0 Z"
         clip-rule="evenodd"
         id="path14" />
    </clipPath>
    <clipPath
       clipPathUnits="userSpaceOnUse"
       id="clipPath30">
      <path
         d="M 2.493e-6,0 H 167.28 V 167.28 H 2.493e-6 Z"
         clip-rule="evenodd"
         id="path28" />
    </clipPath>
    <clipPath
       clipPathUnits="userSpaceOnUse"
       id="clipPath42">
      <path
         d="M 2.493e-6,0 H 167.28 V 167.28 H 2.493e-6 Z"
         clip-rule="evenodd"
         id="path40" />
    </clipPath>
    <clipPath
       clipPathUnits="userSpaceOnUse"
       id="clipPath54">
      <path
         d="M 2.493e-6,0 H 167.28 V 167.28 H 2.493e-6 Z"
         clip-rule="evenodd"
         id="path52" />
    </clipPath>
    <clipPath
       clipPathUnits="userSpaceOnUse"
       id="clipPath66">
      <path
         d="m 83.4,11.88 h 77.88 V 89.64 H 83.4 Z"
         clip-rule="evenodd"
         id="path64" />
    </clipPath>
    <clipPath
       clipPathUnits="userSpaceOnUse"
       id="clipPath76">
      <path
         d="M 0,0 H 11.66 V 11.639 H 0 Z"
         id="path74" />
    </clipPath>
    <clipPath
       clipPathUnits="userSpaceOnUse"
       id="clipPath96">
      <path
         d="M -3.815e-6,167.28 H 167.28 V 4.5776e-5 L -2.2888e-5,3.0518e-5"
         clip-rule="evenodd"
         id="path94" />
    </clipPath>
    <clipPath
       clipPathUnits="userSpaceOnUse"
       id="clipPath106">
      <path
         d="M -3.815e-6,167.28 H 167.28 V 4.5776e-5 L -2.2888e-5,3.0518e-5"
         clip-rule="evenodd"
         id="path104" />
    </clipPath>
    <clipPath
       clipPathUnits="userSpaceOnUse"
       id="clipPath116">
      <path
         d="M -7.629e-6,167.28 H 167.28 V 4.5776e-5 H -7.629e-6"
         clip-rule="evenodd"
         id="path114" />
    </clipPath>
    <clipPath
       clipPathUnits="userSpaceOnUse"
       id="clipPath126">
      <path
         d="M -7.629e-6,167.28 H 167.28 V 4.5776e-5 H -7.629e-6"
         clip-rule="evenodd"
         id="path124" />
    </clipPath>
    <clipPath
       clipPathUnits="userSpaceOnUse"
       id="clipPath136">
      <path
         d="M -3.815e-6,167.28 H 167.28 V 4.5776e-5 H -7.629e-6"
         clip-rule="evenodd"
         id="path134" />
    </clipPath>
    <clipPath
       clipPathUnits="userSpaceOnUse"
       id="clipPath146">
      <path
         d="M -3.815e-6,167.28 H 167.28 V 4.5776e-5 H -7.629e-6"
         clip-rule="evenodd"
         id="path144" />
    </clipPath>
    <clipPath
       clipPathUnits="userSpaceOnUse"
       id="clipPath156">
      <path
         d="M 0,167.28 H 167.28 V 6.1035e-5 L -7.629e-6,4.5776e-5"
         clip-rule="evenodd"
         id="path154" />
    </clipPath>
    <clipPath
       clipPathUnits="userSpaceOnUse"
       id="clipPath166">
      <path
         d="M 0,167.28 H 167.28 V 6.1035e-5 L -7.629e-6,4.5776e-5"
         clip-rule="evenodd"
         id="path164" />
    </clipPath>
    <clipPath
       clipPathUnits="userSpaceOnUse"
       id="clipPath176">
      <path
         d="M -3.815e-6,167.28 H 167.28 V 4.5776e-5 L -7.629e-6,3.0518e-5"
         clip-rule="evenodd"
         id="path174" />
    </clipPath>
    <clipPath
       clipPathUnits="userSpaceOnUse"
       id="clipPath186">
      <path
         d="M -3.815e-6,167.28 H 167.28 V 4.5776e-5 L -7.629e-6,3.0518e-5"
         clip-rule="evenodd"
         id="path184" />
    </clipPath>
    <clipPath
       clipPathUnits="userSpaceOnUse"
       id="clipPath196">
      <path
         d="M -3.815e-6,167.28 H 167.28 V 4.5776e-5 L -7.629e-6,3.0518e-5"
         clip-rule="evenodd"
         id="path194" />
    </clipPath>
    <clipPath
       clipPathUnits="userSpaceOnUse"
       id="clipPath206">
      <path
         d="M -3.815e-6,167.28 H 167.28 V 4.5776e-5 L -7.629e-6,3.0518e-5"
         clip-rule="evenodd"
         id="path204" />
    </clipPath>
    <clipPath
       clipPathUnits="userSpaceOnUse"
       id="clipPath216">
      <path
         d="M -3.815e-6,167.28 H 167.28 V 4.5776e-5 H -2.6703e-5"
         clip-rule="evenodd"
         id="path214" />
    </clipPath>
    <clipPath
       clipPathUnits="userSpaceOnUse"
       id="clipPath226">
      <path
         d="M -3.815e-6,167.28 H 167.28 V 4.5776e-5 H -2.6703e-5"
         clip-rule="evenodd"
         id="path224" />
    </clipPath>
    <clipPath
       clipPathUnits="userSpaceOnUse"
       id="clipPath236">
      <path
         d="M -1.1444e-5,167.28 H 167.28 V -1.5259e-5 L -7.629e-6,0"
         clip-rule="evenodd"
         id="path234" />
    </clipPath>
    <clipPath
       clipPathUnits="userSpaceOnUse"
       id="clipPath246">
      <path
         d="M -1.1444e-5,167.28 H 167.28 V -1.5259e-5 L -7.629e-6,0"
         clip-rule="evenodd"
         id="path244" />
    </clipPath>
    <clipPath
       clipPathUnits="userSpaceOnUse"
       id="clipPath256">
      <path
         d="m 110.4,87.6 h 23.16 v 23.16 H 110.4 Z"
         clip-rule="evenodd"
         id="path254" />
    </clipPath>
    <clipPath
       clipPathUnits="userSpaceOnUse"
       id="clipPath266">
      <path
         d="M 0,0 H 11.66 V 11.639 H 0 Z"
         id="path264" />
    </clipPath>
  </defs>
  <sodipodi:namedview
     id="namedview4"
     pagecolor="#ffffff"
     bordercolor="#000000"
     borderopacity="0.25"
     inkscape:showpageshadow="2"
     inkscape:pageopacity="0.0"
     inkscape:pagecheckerboard="0"
     inkscape:deskcolor="#d1d1d1"
     showgrid="false"
     inkscape:zoom="2.1162124"
     inkscape:cx="-21.264406"
     inkscape:cy="167.04372"
     inkscape:window-width="1920"
     inkscape:window-height="1137"
     inkscape:window-x="-8"
     inkscape:window-y="-8"
     inkscape:window-maximized="1"
     inkscape:current-layer="g8" />
  <g
     id="g8"
     inkscape:groupmode="layer"
     inkscape:label="icons"
     transform="matrix(1.3333333,0,0,-1.3333333,-3.5,219.53999)">
    <g
       id="g10"
       transform="matrix(1.0177547,0,0,1.0177548,0,-2.9700308)"
       style="fill:none">
      <g
         id="g12"
         clip-path="url(#clipPath16)"
         style="fill:none">
        <path
           d="M 0,1.5259e-5 H 167.28 V 167.28002 H 0 Z"
           style="fill:none;fill-opacity:1;fill-rule:evenodd;stroke:none"
           id="path18" />
      </g>
    </g>
    <path
       d="m 3.1605601,136.79795 c 0,15.08463 12.2325719,27.32149 27.3225509,27.32149 H 139.76797 c 15.08461,0 27.32148,-12.23686 27.32148,-27.32149 V 27.513105 c 0,-15.08998 -12.23687,-27.3225512 -27.32148,-27.3225512 H 30.483111 c -15.089979,0 -27.3225509,12.2325712 -27.3225509,27.3225512 z"
       style="fill:#f2f2f2;fill-opacity:1;fill-rule:evenodd;stroke:none;stroke-width:1.07059"
       id="path20" />
    <path
       d="m 3.1605601,136.79795 c 0,15.08463 12.2325719,27.32149 27.3225509,27.32149 H 139.76797 c 15.08461,0 27.32148,-12.23686 27.32148,-27.32149 V 27.513105 c 0,-15.08998 -12.23687,-27.3225512 -27.32148,-27.3225512 H 30.483111 c -15.089979,0 -27.3225509,12.2325712 -27.3225509,27.3225512 z"
       style="fill:none;stroke:#000000;stroke-width:0.99975002;stroke-linecap:butt;stroke-linejoin:miter;stroke-miterlimit:10;stroke-dasharray:none;stroke-opacity:1"
       id="path22" />
    <g
       id="g24">
      <g
         id="g26"
         clip-path="url(#clipPath30)">
        <text
           xml:space="preserve"
           transform="matrix(1,0,0,-1,11.184,180.77)"
           style="font-variant:normal;font-weight:normal;font-size:18.024px;font-family:Calibri;-inkscape-font-specification:Calibri;writing-mode:lr-tb;fill:#000000;fill-opacity:1;fill-rule:nonzero;stroke:none"
           id="text34"><tspan
             x="0 9.2643356 15.266328"
             y="0"
             sodipodi:role="line"
             id="tspan32">Pre</tspan></text>
      </g>
    </g>
    <g
       id="g36">
      <g
         id="g38"
         clip-path="url(#clipPath42)">
        <text
           xml:space="preserve"
           transform="matrix(1,0,0,-1,35.448,180.77)"
           style="font-variant:normal;font-weight:normal;font-size:18.024px;font-family:Calibri;-inkscape-font-specification:Calibri;writing-mode:lr-tb;fill:#000000;fill-opacity:1;fill-rule:nonzero;stroke:none"
           id="text46"><tspan
             x="0"
             y="0"
             id="tspan44">-</tspan></text>
      </g>
    </g>
    <g
       id="g48">
      <g
         id="g50"
         clip-path="url(#clipPath54)">
        <text
           xml:space="preserve"
           transform="matrix(1,0,0,-1,40.968,180.77)"
           style="font-variant:normal;font-weight:normal;font-size:18.024px;font-family:Calibri;-inkscape-font-specification:Calibri;writing-mode:lr-tb;fill:#000000;fill-opacity:1;fill-rule:nonzero;stroke:none"
           id="text58"><tspan
             x="0 7.6782241 13.554048 22.187544 26.278992 35.741592 44.789639 54.252239 58.469856 66.50856 75.484512 84.045914 90.083954 99.546555 105.54855 114.5245 118.52583 127.32153 135.12593 141.09187 146.9677 155.6012 163.17126 169.04709 178.54575"
             y="0"
             sodipodi:role="line"
             id="tspan56">Trained Feature Extractor</tspan></text>
      </g>
    </g>
    <g
       id="g60"
       transform="matrix(1.070591,0,0,1.0705909,-4.4192237,-7.3892299)">
      <g
         id="g62"
         clip-path="url(#clipPath66)">
        <g
           id="g68"
           transform="matrix(1.0817,0,-9.4e-8,1.08,83.4,11.88)">
          <g
             id="g70"
             transform="scale(6.1752,6.1862)">
            <g
               id="g72"
               clip-path="url(#clipPath76)">
              <path
                 d="m 6.5288,5.7939 c 0,-0.3976 -0.3223,-0.72 -0.72,-0.72 -0.3976,0 -0.72,0.3224 -0.72,0.72 0,0.3976 0.3224,0.72 0.72,0.72 0.3977,0 0.72,-0.3224 0.72,-0.72 z"
                 style="fill:#000000;fill-opacity:1;fill-rule:nonzero;stroke:none"
                 id="path78" />
              <path
                 d="m 10.033,8.1939 c -0.2042,0.348 -0.6602,0.516 -1.2842,0.516 -0.396,0 -0.852,-0.072 -1.356,-0.204 -0.348,1.26 -0.924,2.0881 -1.584,2.0881 -0.648,0 -1.236,-0.8161 -1.572,-2.0641 -0.48,0.12 -0.912,0.192 -1.296,0.192 -0.624,0 -1.08,-0.168 -1.284,-0.516 -0.336,-0.576 0.108,-1.5 1.032,-2.436 -0.888,-0.912 -1.296,-1.8 -0.972,-2.364 0.204,-0.348 0.66,-0.516 1.284,-0.516 0.36,0 0.78,0.06 1.236,0.168 0.348,-1.248 0.924,-2.064 1.572,-2.064 0.648,0 1.236,0.816 1.572,2.064 0.48,-0.12 0.912,-0.192 1.296,-0.192 0.624,0 1.08,0.168 1.284,0.516 0.3242,0.564 -0.084,1.452 -0.972,2.364 0.948,0.948 1.3802,1.872 1.0442,2.448 z m -1.2842,0.036 c 0.444,0 0.768,-0.108 0.864,-0.276 0.18,-0.312 -0.144,-1.044 -0.96,-1.86 -0.288,0.264 -0.612,0.528 -0.972,0.78 -0.036,0.408 -0.096,0.804 -0.18,1.176 0.456,0.12 0.888,0.18 1.248,0.18 z m -2.148,-3.684 c -0.252,-0.144 -0.504,-0.276 -0.756,-0.396 -0.252,0.12 -0.504,0.252 -0.756,0.396 -0.24,0.144 -0.48,0.288 -0.696,0.432 -0.024,0.264 -0.024,0.528 -0.024,0.816 0,0.264 0.012,0.516 0.024,0.768 0.24,0.168 0.492,0.324 0.768,0.48 0.228,0.132 0.456,0.252 0.684,0.36 0.228,-0.108 0.456,-0.228 0.684,-0.36 0.24,-0.144 0.48,-0.288 0.696,-0.432 0.024,-0.264 0.024,-0.528 0.024,-0.816 0,-0.3 -0.012,-0.588 -0.036,-0.864 -0.192,-0.132 -0.396,-0.252 -0.612,-0.384 z m 0.552,-0.228 c -0.036,-0.228 -0.072,-0.456 -0.108,-0.66 -0.204,0.072 -0.42,0.144 -0.636,0.24 0.144,0.072 0.288,0.156 0.432,0.24 0.108,0.06 0.216,0.12 0.312,0.18 z m -1.872,-0.42 c -0.24,-0.096 -0.468,-0.18 -0.696,-0.252 -0.048,0.228 -0.084,0.468 -0.12,0.72 0.132,-0.084 0.252,-0.156 0.396,-0.24 0.132,-0.072 0.276,-0.156 0.42,-0.228 z m -1.38,1.44 c -0.192,0.144 -0.36,0.288 -0.516,0.432 0.156,0.144 0.336,0.288 0.516,0.432 0,-0.132 -0.012,-0.264 -0.012,-0.408 0,-0.156 0,-0.312 0.012,-0.456 z m 0.552,1.836 c 0.036,0.264 0.072,0.516 0.12,0.756 0.228,-0.072 0.468,-0.168 0.708,-0.264 -0.12,-0.06 -0.252,-0.132 -0.372,-0.204 -0.144,-0.096 -0.3,-0.192 -0.456,-0.288 z m 1.944,0.492 c 0.216,0.096 0.432,0.168 0.648,0.24 0.048,-0.216 0.084,-0.444 0.12,-0.684 -0.132,0.084 -0.252,0.156 -0.396,0.24 -0.12,0.06 -0.24,0.132 -0.372,0.204 z m 1.32,-1.416 c 0.216,-0.168 0.408,-0.324 0.588,-0.492 -0.18,-0.156 -0.372,-0.324 -0.588,-0.48 0.012,0.168 0.012,0.336 0.012,0.504 0,0.168 0,0.324 -0.012,0.468 z m -1.908,3.8641 c 0.36,0 0.828,-0.6361 1.128,-1.7401 -0.348,-0.12 -0.72,-0.264 -1.092,-0.432 -0.396,0.18 -0.78,0.336 -1.152,0.456 0.3,1.092 0.756,1.7161 1.116,1.7161 z M 2.0648,7.9539 c 0.108,0.18 0.42,0.276 0.864,0.276 0.348,0 0.744,-0.06 1.176,-0.168 -0.084,-0.384 -0.144,-0.804 -0.18,-1.236 -0.336,-0.24 -0.636,-0.48 -0.9,-0.732 -0.804,0.816 -1.14,1.548 -0.96,1.86 z m 0.936,-4.596 c -0.444,0 -0.768,0.108 -0.864,0.276 -0.18,0.312 0.132,1.008 0.9,1.8 0.276,-0.24 0.576,-0.48 0.9,-0.72 0.036,-0.42 0.096,-0.828 0.18,-1.2 -0.396,-0.108 -0.78,-0.156 -1.116,-0.156 z m 2.808,-1.884 c -0.36,0 -0.816,0.624 -1.116,1.704 0.372,0.12 0.756,0.264 1.152,0.444 0.372,-0.168 0.732,-0.312 1.08,-0.42 -0.3,-1.104 -0.756,-1.728 -1.116,-1.728 z m 3.744,2.16 c -0.108,-0.18 -0.42,-0.276 -0.864,-0.276 -0.348,0 -0.756,0.06 -1.176,0.168 0.072,0.36 0.132,0.732 0.168,1.14 0.36,0.252 0.684,0.504 0.972,0.768 0.768,-0.792 1.08,-1.488 0.9,-1.8 z"
                 style="fill:#000000;fill-opacity:1;fill-rule:nonzero;stroke:none"
                 id="path80" />
            </g>
          </g>
        </g>
      </g>
    </g>
    <path
       d="m 39.381863,88.257365 h 19.779168 c 0.499966,0 0.90572,-0.403614 0.90572,-0.900368 v -3.602539 c 0,-0.496754 -0.405754,-0.900366 -0.90572,-0.900366 H 57.381708 V 58.535619 l 0.0653,-0.34259 c 2.854195,-10.004672 25.686688,-28.420977 25.686688,-37.224447 0,-5.834719 -4.143186,-10.56459 -9.253117,-10.56459 H 24.682651 c -5.109931,0 -9.253119,4.729871 -9.253119,10.56459 0,8.80347 22.832493,27.219775 25.686688,37.224447 l 0.04497,0.23446 v 24.426603 h -1.779322 c -0.499967,0 -0.905721,0.403612 -0.905721,0.900366 v 3.602539 c 0,0.496754 0.405754,0.900368 0.905721,0.900368 z"
       style="fill:none;stroke:#000000;stroke-width:3.21177;stroke-linecap:butt;stroke-linejoin:miter;stroke-miterlimit:10;stroke-dasharray:none;stroke-opacity:1"
       id="path82" />
    <path
       d="m 45.672655,132.83677 h 7.920232 68.842213 7.65473 0.26764 c 1.09201,0 1.98059,-0.83506 1.98059,-1.87354 v -20.23417 c 0,-1.03846 -0.88858,-1.87353 -1.98059,-1.87353 h -7.92237 c -1.092,0 -1.98059,0.83507 -1.98059,1.87353 v 10.87721 H 55.57348 V 90.257228 c 0,-1.033119 -0.886449,-1.871393 -1.980593,-1.871393 h -7.920232 c -1.093072,0 -1.979522,0.838274 -1.979522,1.871393 v 33.222572 7.48343 c 0,1.03848 0.88645,1.87354 1.979522,1.87354 z"
       style="fill:none;stroke:#000000;stroke-width:3.21177;stroke-linecap:butt;stroke-linejoin:miter;stroke-miterlimit:10;stroke-dasharray:none;stroke-opacity:1"
       id="path84" />
    <path
       d="m 26.606501,38.539121 c 2.394912,2.858478 4.788754,5.716956 9.489718,5.904309 4.702036,0.187353 13.53227,-4.685976 18.717143,-4.779118 5.184871,-0.09421 8.787409,2.060888 12.389948,4.217058"
       style="fill:none;stroke:#000000;stroke-width:3.21177;stroke-linecap:butt;stroke-linejoin:miter;stroke-miterlimit:10;stroke-dasharray:none;stroke-opacity:1"
       id="path86" />
    <path
       d="m 117.62814,105.92211 h 17.21511 v 5.26731 h -17.21511 z"
       style="fill:#f2f2f2;fill-opacity:1;fill-rule:evenodd;stroke:none;stroke-width:1.07059"
       id="path88" />
    <g
       id="g90"
       transform="matrix(1.070591,0,0,1.0705909,-4.4192237,-7.3892299)">
      <g
         id="g92"
         clip-path="url(#clipPath96)">
        <path
           d="m 33.746,112.3 c -0.598,0.87 -0.382,2.05 0.482,2.65 l 38.446,26.59 c 0.864,0.6 2.048,0.38 2.646,-0.48 l 4.326,-6.26 c 0.598,-0.86 0.382,-2.05 -0.482,-2.64 L 40.718,105.57 c -0.864,-0.6 -2.048,-0.38 -2.646,0.48 z"
           style="fill:#ffffff;fill-opacity:1;fill-rule:evenodd;stroke:none"
           id="path98" />
      </g>
    </g>
    <g
       id="g100"
       transform="matrix(1.070591,0,0,1.0705909,-4.4192237,-7.3892299)">
      <g
         id="g102"
         clip-path="url(#clipPath106)">
        <path
           d="m 33.746,112.3 c -0.598,0.87 -0.382,2.05 0.482,2.65 l 38.446,26.59 c 0.864,0.6 2.048,0.38 2.646,-0.48 l 4.326,-6.26 c 0.598,-0.86 0.382,-2.05 -0.482,-2.64 L 40.718,105.57 c -0.864,-0.6 -2.048,-0.38 -2.646,0.48 z"
           style="fill:none;stroke:#000000;stroke-width:2.75;stroke-linecap:butt;stroke-linejoin:miter;stroke-miterlimit:10;stroke-dasharray:none;stroke-opacity:1"
           id="path108" />
      </g>
    </g>
    <g
       id="g110"
       transform="matrix(1.070591,0,0,1.0705909,-4.4192237,-7.3892299)">
      <g
         id="g112"
         clip-path="url(#clipPath116)">
        <path
           d="m 71.265,138.88 c 0.049,0.03 0.115,0.02 0.149,-0.03 l 4.899,-7.09 c 0.034,-0.04 0.022,-0.11 -0.027,-0.14 l -0.351,-0.25 c -0.048,-0.03 -0.115,-0.02 -0.148,0.03 l -4.9,7.08 c -0.033,0.05 -0.021,0.12 0.027,0.15 z"
           style="fill:#000000;fill-opacity:1;fill-rule:evenodd;stroke:none"
           id="path118" />
      </g>
    </g>
    <g
       id="g120"
       transform="matrix(1.070591,0,0,1.0705909,-4.4192237,-7.3892299)">
      <g
         id="g122"
         clip-path="url(#clipPath126)">
        <path
           d="m 71.265,138.88 c 0.049,0.03 0.115,0.02 0.149,-0.03 l 4.899,-7.09 c 0.034,-0.04 0.022,-0.11 -0.027,-0.14 l -0.351,-0.25 c -0.048,-0.03 -0.115,-0.02 -0.148,0.03 l -4.9,7.08 c -0.033,0.05 -0.021,0.12 0.027,0.15 z"
           style="fill:none;stroke:#000000;stroke-width:2.25;stroke-linecap:butt;stroke-linejoin:miter;stroke-miterlimit:10;stroke-dasharray:none;stroke-opacity:1"
           id="path128" />
      </g>
    </g>
    <g
       id="g130"
       transform="matrix(1.070591,0,0,1.0705909,-4.4192237,-7.3892299)">
      <g
         id="g132"
         clip-path="url(#clipPath136)">
        <path
           d="m 63.657,133.61 c 0.049,0.04 0.115,0.03 0.149,-0.02 l 4.899,-7.09 c 0.034,-0.05 0.021,-0.11 -0.027,-0.15 l -0.351,-0.24 c -0.048,-0.03 -0.115,-0.02 -0.148,0.03 l -4.9,7.08 c -0.033,0.05 -0.021,0.12 0.027,0.15 z"
           style="fill:#000000;fill-opacity:1;fill-rule:evenodd;stroke:none"
           id="path138" />
      </g>
    </g>
    <g
       id="g140"
       transform="matrix(1.070591,0,0,1.0705909,-4.4192237,-7.3892299)">
      <g
         id="g142"
         clip-path="url(#clipPath146)">
        <path
           d="m 63.657,133.61 c 0.049,0.04 0.115,0.03 0.149,-0.02 l 4.899,-7.09 c 0.034,-0.05 0.021,-0.11 -0.027,-0.15 l -0.351,-0.24 c -0.048,-0.03 -0.115,-0.02 -0.148,0.03 l -4.9,7.08 c -0.033,0.05 -0.021,0.12 0.027,0.15 z"
           style="fill:none;stroke:#000000;stroke-width:2.25;stroke-linecap:butt;stroke-linejoin:miter;stroke-miterlimit:10;stroke-dasharray:none;stroke-opacity:1"
           id="path148" />
      </g>
    </g>
    <g
       id="g150"
       transform="matrix(1.070591,0,0,1.0705909,-4.4192237,-7.3892299)">
      <g
         id="g152"
         clip-path="url(#clipPath156)">
        <path
           d="m 56.347,128.56 c 0.049,0.03 0.115,0.02 0.148,-0.03 l 4.9,-7.08 c 0.034,-0.05 0.021,-0.12 -0.027,-0.15 l -0.351,-0.24 c -0.048,-0.04 -0.115,-0.03 -0.148,0.02 l -4.9,7.09 c -0.033,0.05 -0.021,0.11 0.027,0.15 z"
           style="fill:#000000;fill-opacity:1;fill-rule:evenodd;stroke:none"
           id="path158" />
      </g>
    </g>
    <g
       id="g160"
       transform="matrix(1.070591,0,0,1.0705909,-4.4192237,-7.3892299)">
      <g
         id="g162"
         clip-path="url(#clipPath166)">
        <path
           d="m 56.347,128.56 c 0.049,0.03 0.115,0.02 0.148,-0.03 l 4.9,-7.08 c 0.034,-0.05 0.021,-0.12 -0.027,-0.15 l -0.351,-0.24 c -0.048,-0.04 -0.115,-0.03 -0.148,0.02 l -4.9,7.09 c -0.033,0.05 -0.021,0.11 0.027,0.15 z"
           style="fill:none;stroke:#000000;stroke-width:2.25;stroke-linecap:butt;stroke-linejoin:miter;stroke-miterlimit:10;stroke-dasharray:none;stroke-opacity:1"
           id="path168" />
      </g>
    </g>
    <g
       id="g170"
       transform="matrix(1.070591,0,0,1.0705909,-4.4192237,-7.3892299)">
      <g
         id="g172"
         clip-path="url(#clipPath176)">
        <path
           d="m 48.811,123.35 c 0.049,0.03 0.115,0.02 0.149,-0.03 l 4.899,-7.08 c 0.034,-0.05 0.022,-0.12 -0.027,-0.15 l -0.351,-0.25 c -0.048,-0.03 -0.115,-0.02 -0.148,0.03 l -4.9,7.09 c -0.033,0.04 -0.021,0.11 0.027,0.14 z"
           style="fill:#000000;fill-opacity:1;fill-rule:evenodd;stroke:none"
           id="path178" />
      </g>
    </g>
    <g
       id="g180"
       transform="matrix(1.070591,0,0,1.0705909,-4.4192237,-7.3892299)">
      <g
         id="g182"
         clip-path="url(#clipPath186)">
        <path
           d="m 48.811,123.35 c 0.049,0.03 0.115,0.02 0.149,-0.03 l 4.899,-7.08 c 0.034,-0.05 0.022,-0.12 -0.027,-0.15 l -0.351,-0.25 c -0.048,-0.03 -0.115,-0.02 -0.148,0.03 l -4.9,7.09 c -0.033,0.04 -0.021,0.11 0.027,0.14 z"
           style="fill:none;stroke:#000000;stroke-width:2.25;stroke-linecap:butt;stroke-linejoin:miter;stroke-miterlimit:10;stroke-dasharray:none;stroke-opacity:1"
           id="path188" />
      </g>
    </g>
    <g
       id="g190"
       transform="matrix(1.070591,0,0,1.0705909,-4.4192237,-7.3892299)">
      <g
         id="g192"
         clip-path="url(#clipPath196)">
        <path
           d="m 41.203,118.08 c 0.049,0.04 0.115,0.03 0.149,-0.02 l 4.899,-7.09 c 0.034,-0.05 0.022,-0.11 -0.027,-0.15 l -0.351,-0.24 c -0.048,-0.03 -0.115,-0.02 -0.148,0.03 l -4.9,7.08 c -0.033,0.05 -0.021,0.12 0.027,0.15 z"
           style="fill:#000000;fill-opacity:1;fill-rule:evenodd;stroke:none"
           id="path198" />
      </g>
    </g>
    <g
       id="g200"
       transform="matrix(1.070591,0,0,1.0705909,-4.4192237,-7.3892299)">
      <g
         id="g202"
         clip-path="url(#clipPath206)">
        <path
           d="m 41.203,118.08 c 0.049,0.04 0.115,0.03 0.149,-0.02 l 4.899,-7.09 c 0.034,-0.05 0.022,-0.11 -0.027,-0.15 l -0.351,-0.24 c -0.048,-0.03 -0.115,-0.02 -0.148,0.03 l -4.9,7.08 c -0.033,0.05 -0.021,0.12 0.027,0.15 z"
           style="fill:none;stroke:#000000;stroke-width:2.25;stroke-linecap:butt;stroke-linejoin:miter;stroke-miterlimit:10;stroke-dasharray:none;stroke-opacity:1"
           id="path208" />
      </g>
    </g>
    <g
       id="g210"
       transform="matrix(1.070591,0,0,1.0705909,-4.4192237,-7.3892299)">
      <g
         id="g212"
         clip-path="url(#clipPath216)">
        <path
           d="m 37.554,145.85 c -1.255,1.82 -0.746,4.34 1.137,5.65 1.882,1.3 4.426,0.88 5.68,-0.93 1.255,-1.82 0.747,-4.34 -1.136,-5.65 -1.882,-1.3 -4.426,-0.88 -5.681,0.93 z"
           style="fill:#ffffff;fill-opacity:1;fill-rule:evenodd;stroke:none"
           id="path218" />
      </g>
    </g>
    <g
       id="g220"
       transform="matrix(1.070591,0,0,1.0705909,-4.4192237,-7.3892299)">
      <g
         id="g222"
         clip-path="url(#clipPath226)">
        <path
           d="m 37.554,145.85 c -1.255,1.82 -0.746,4.34 1.137,5.65 1.882,1.3 4.426,0.88 5.68,-0.93 1.255,-1.82 0.747,-4.34 -1.136,-5.65 -1.882,-1.3 -4.426,-0.88 -5.681,0.93 z"
           style="fill:none;stroke:#000000;stroke-width:2.5;stroke-linecap:butt;stroke-linejoin:miter;stroke-miterlimit:10;stroke-dasharray:none;stroke-opacity:1"
           id="path228" />
      </g>
    </g>
    <g
       id="g230"
       transform="matrix(1.070591,0,0,1.0705909,-4.4192237,-7.3892299)">
      <g
         id="g232"
         clip-path="url(#clipPath236)">
        <path
           d="m 69.561,139.64 c -4.669,8.48 -16.242,10.81 -25.848,5.2 -9.607,-5.61 -13.609,-17.02 -8.94,-25.5 0.514,-0.94 1.123,-1.81 1.821,-2.62 z"
           style="fill:#d9d9d9;fill-opacity:1;fill-rule:evenodd;stroke:none"
           id="path238" />
      </g>
    </g>
    <g
       id="g240"
       transform="matrix(1.070591,0,0,1.0705909,-4.4192237,-7.3892299)">
      <g
         id="g242"
         clip-path="url(#clipPath246)">
        <path
           d="m 69.561,139.64 c -4.669,8.48 -16.242,10.81 -25.848,5.2 -9.607,-5.61 -13.609,-17.02 -8.94,-25.5 0.514,-0.94 1.123,-1.81 1.821,-2.62 z"
           style="fill:none;stroke:#000000;stroke-width:2.25;stroke-linecap:butt;stroke-linejoin:miter;stroke-miterlimit:10;stroke-dasharray:none;stroke-opacity:1"
           id="path248" />
      </g>
    </g>
    <g
       id="g250"
       transform="matrix(1.070591,0,0,1.0705909,-4.4192237,-7.3892299)">
      <g
         id="g252"
         clip-path="url(#clipPath256)">
        <g
           id="g258"
           transform="matrix(0.32167,-9.4e-8,-9.4e-8,0.32167,110.4,87.6)">
          <g
             id="g260"
             transform="scale(6.1752,6.1862)">
            <g
               id="g262"
               clip-path="url(#clipPath266)">
              <path
                 d="m 5.8448,10.354 c 0,0 -3,-4.2241 -3,-6.1201 0,-1.656 1.344,-3 3,-3 1.656,0 3,1.344 3,3 0,1.908 -3,6.1201 -3,6.1201 z"
                 style="fill:#000000;fill-opacity:1;fill-rule:nonzero;stroke:none"
                 id="path268" />
            </g>
          </g>
        </g>
      </g>
    </g>
  </g>
</svg>
